<?xml version="1.0" encoding="UTF-8" standalone="no"?>
<!DOCTYPE svg PUBLIC "-//W3C//DTD SVG 1.1//EN"
 "http://www.w3.org/Graphics/SVG/1.1/DTD/svg11.dtd">
<!-- Generated by graphviz version 12.2.0 (20241103.1931)
 -->
<!-- Title: modbusBufferModeTCP Pages: 1 -->
<svg width="311pt" height="88pt"
 viewBox="0.00 0.00 310.75 87.50" xmlns="http://www.w3.org/2000/svg" xmlns:xlink="http://www.w3.org/1999/xlink">
<g id="graph0" class="graph" transform="scale(1 1) rotate(0) translate(4 83.5)">
<title>modbusBufferModeTCP</title>
<!-- Node1 -->
<g id="Node000001" class="node">
<title>Node1</title>
<g id="a_Node000001"><a xlink:title="Prepares buffer to store a Modbus TCP message.">
<polygon fill="#999999" stroke="#666666" points="302.75,-48.88 183.25,-48.88 183.25,-29.62 302.75,-29.62 302.75,-48.88"/>
<text text-anchor="middle" x="243" y="-35.38" font-family="Helvetica,sans-Serif" font-size="10.00">modbusBufferModeTCP</text>
</a>
</g>
</g>
<!-- Node2 -->
<g id="Node000002" class="node">
<title>Node2</title>
<g id="a_Node000002"><a xlink:href="master_8impl_8h.html#aadcf82622670f6cc614dd9176ee4e7d7" target="_top" xlink:title="Begins a TCP request.">
<polygon fill="white" stroke="#666666" points="146.88,-79.5 0.38,-79.5 0.38,-49 146.88,-49 146.88,-79.5"/>
<text text-anchor="start" x="8.38" y="-66" font-family="Helvetica,sans-Serif" font-size="10.00">ModbusErrorInfomodbusBegin</text>
<text text-anchor="middle" x="73.62" y="-54.75" font-family="Helvetica,sans-Serif" font-size="10.00">RequestTCP</text>
</a>
</g>
</g>
<!-- Node1&#45;&gt;Node2 -->
<g id="edge1_Node000001_Node000002" class="edge">
<title>Node1&#45;&gt;Node2</title>
<g id="a_edge1_Node000001_Node000002"><a xlink:title=" ">
<path fill="none" stroke="#63b8ff" d="M171.69,-49.75C163.59,-50.96 155.31,-52.2 147.19,-53.41"/>
<polygon fill="#63b8ff" stroke="#63b8ff" points="172.12,-53.23 181.49,-48.29 171.09,-46.3 172.12,-53.23"/>
</a>
</g>
</g>
<!-- Node3 -->
<g id="Node000003" class="node">
<title>Node3</title>
<g id="a_Node000003"><a xlink:href="slave_8impl_8h.html#abe63eae81d795b4350720b520098fe03" target="_top" xlink:title="Parses provided Modbus TCP request frame and generates a Modbus TCP response.">
<polygon fill="white" stroke="#666666" points="147.25,-30.5 0,-30.5 0,0 147.25,0 147.25,-30.5"/>
<text text-anchor="start" x="8" y="-17" font-family="Helvetica,sans-Serif" font-size="10.00">ModbusErrorInfomodbusParse</text>
<text text-anchor="middle" x="73.62" y="-5.75" font-family="Helvetica,sans-Serif" font-size="10.00">RequestTCP</text>
</a>
</g>
</g>
<!-- Node1&#45;&gt;Node3 -->
<g id="edge2_Node000001_Node000003" class="edge">
<title>Node1&#45;&gt;Node3</title>
<g id="a_edge2_Node000001_Node000003"><a xlink:title=" ">
<path fill="none" stroke="#63b8ff" d="M171.78,-29.18C163.75,-28.03 155.54,-26.85 147.48,-25.7"/>
<polygon fill="#63b8ff" stroke="#63b8ff" points="171.1,-32.62 181.49,-30.57 172.09,-25.69 171.1,-32.62"/>
</a>
</g>
</g>
</g>
</svg>
