<?xml version="1.0" encoding="UTF-8" standalone="no"?>
<!DOCTYPE svg PUBLIC "-//W3C//DTD SVG 1.1//EN"
 "http://www.w3.org/Graphics/SVG/1.1/DTD/svg11.dtd">
<!-- Generated by graphviz version 12.2.0 (20241103.1931)
 -->
<!-- Title: modbusBufferModeRTU Pages: 1 -->
<svg width="312pt" height="88pt"
 viewBox="0.00 0.00 311.50 87.50" xmlns="http://www.w3.org/2000/svg" xmlns:xlink="http://www.w3.org/1999/xlink">
<g id="graph0" class="graph" transform="scale(1 1) rotate(0) translate(4 83.5)">
<title>modbusBufferModeRTU</title>
<!-- Node1 -->
<g id="Node000001" class="node">
<title>Node1</title>
<g id="a_Node000001"><a xlink:title="Prepares buffer to store a Modbus RTU message.">
<polygon fill="#999999" stroke="#666666" points="303.5,-48.88 183.25,-48.88 183.25,-29.62 303.5,-29.62 303.5,-48.88"/>
<text text-anchor="middle" x="243.38" y="-35.38" font-family="Helvetica,sans-Serif" font-size="10.00">modbusBufferModeRTU</text>
</a>
</g>
</g>
<!-- Node2 -->
<g id="Node000002" class="node">
<title>Node2</title>
<g id="a_Node000002"><a xlink:href="master_8impl_8h.html#ad97d5d8f9b495449dfe82cdbbfd40231" target="_top" xlink:title="Begins a RTU request.">
<polygon fill="white" stroke="#666666" points="146.88,-79.5 0.38,-79.5 0.38,-49 146.88,-49 146.88,-79.5"/>
<text text-anchor="start" x="8.38" y="-66" font-family="Helvetica,sans-Serif" font-size="10.00">ModbusErrorInfomodbusBegin</text>
<text text-anchor="middle" x="73.62" y="-54.75" font-family="Helvetica,sans-Serif" font-size="10.00">RequestRTU</text>
</a>
</g>
</g>
<!-- Node1&#45;&gt;Node2 -->
<g id="edge1_Node000001_Node000002" class="edge">
<title>Node1&#45;&gt;Node2</title>
<g id="a_edge1_Node000001_Node000002"><a xlink:title=" ">
<path fill="none" stroke="#63b8ff" d="M171.55,-49.81C163.52,-51 155.32,-52.22 147.27,-53.42"/>
<polygon fill="#63b8ff" stroke="#63b8ff" points="171.89,-53.29 181.26,-48.36 170.86,-46.37 171.89,-53.29"/>
</a>
</g>
</g>
<!-- Node3 -->
<g id="Node000003" class="node">
<title>Node3</title>
<g id="a_Node000003"><a xlink:href="slave_8impl_8h.html#afa8be870ae62f17ac8bc258714c2eb99" target="_top" xlink:title="Parses provided Modbus RTU request frame and generates a Modbus RTU response.">
<polygon fill="white" stroke="#666666" points="147.25,-30.5 0,-30.5 0,0 147.25,0 147.25,-30.5"/>
<text text-anchor="start" x="8" y="-17" font-family="Helvetica,sans-Serif" font-size="10.00">ModbusErrorInfomodbusParse</text>
<text text-anchor="middle" x="73.62" y="-5.75" font-family="Helvetica,sans-Serif" font-size="10.00">RequestRTU</text>
</a>
</g>
</g>
<!-- Node1&#45;&gt;Node3 -->
<g id="edge2_Node000001_Node000003" class="edge">
<title>Node1&#45;&gt;Node3</title>
<g id="a_edge2_Node000001_Node000003"><a xlink:title=" ">
<path fill="none" stroke="#63b8ff" d="M171.37,-29.09C163.49,-27.96 155.46,-26.81 147.56,-25.68"/>
<polygon fill="#63b8ff" stroke="#63b8ff" points="170.87,-32.55 181.26,-30.51 171.86,-25.63 170.87,-32.55"/>
</a>
</g>
</g>
</g>
</svg>
