<?xml version="1.0" encoding="UTF-8" standalone="no"?>
<!DOCTYPE svg PUBLIC "-//W3C//DTD SVG 1.1//EN"
 "http://www.w3.org/Graphics/SVG/1.1/DTD/svg11.dtd">
<!-- Generated by graphviz version 12.2.0 (20241103.1931)
 -->
<!-- Title: modbusGetErrorCode Pages: 1 -->
<svg width="605pt" height="642pt"
 viewBox="0.00 0.00 605.25 641.88" xmlns="http://www.w3.org/2000/svg" xmlns:xlink="http://www.w3.org/1999/xlink">
<g id="graph0" class="graph" transform="scale(1 1) rotate(0) translate(4 637.88)">
<title>modbusGetErrorCode</title>
<!-- Node1 -->
<g id="Node000001" class="node">
<title>Node1</title>
<g id="a_Node000001"><a xlink:title="Returns ModbusError contained in ModbusErrorInfo.">
<polygon fill="#999999" stroke="#666666" points="597.25,-420.88 488.25,-420.88 488.25,-401.62 597.25,-401.62 597.25,-420.88"/>
<text text-anchor="middle" x="542.75" y="-407.38" font-family="Helvetica,sans-Serif" font-size="10.00">modbusGetErrorCode</text>
</a>
</g>
</g>
<!-- Node2 -->
<g id="Node000002" class="node">
<title>Node2</title>
<g id="a_Node000002"><a xlink:href="base_8h.html#a84765449265aa5a31877b749f04cb568" target="_top" xlink:title="Returns general error from ModbusErrorInfo.">
<polygon fill="white" stroke="#666666" points="447.38,-476.88 327.12,-476.88 327.12,-457.62 447.38,-457.62 447.38,-476.88"/>
<text text-anchor="middle" x="387.25" y="-463.38" font-family="Helvetica,sans-Serif" font-size="10.00">modbusGetGeneralError</text>
</a>
</g>
</g>
<!-- Node1&#45;&gt;Node2 -->
<g id="edge1_Node000001_Node000002" class="edge">
<title>Node1&#45;&gt;Node2</title>
<g id="a_edge1_Node000001_Node000002"><a xlink:title=" ">
<path fill="none" stroke="#63b8ff" d="M509.92,-425.93C493,-433.44 471.72,-442.41 452.25,-449.25 444.19,-452.08 435.44,-454.78 427.08,-457.19"/>
<polygon fill="#63b8ff" stroke="#63b8ff" points="511.28,-429.16 518.97,-421.87 508.41,-422.77 511.28,-429.16"/>
</a>
</g>
</g>
<!-- Node15 -->
<g id="Node000015" class="node">
<title>Node15</title>
<g id="a_Node000015"><a xlink:href="base_8h.html#a5c6f792a259423b2df55d8d49e91fd06" target="_top" xlink:title="Returns request error from ModbusErrorInfo.">
<polygon fill="white" stroke="#666666" points="448.5,-439.88 326,-439.88 326,-420.62 448.5,-420.62 448.5,-439.88"/>
<text text-anchor="middle" x="387.25" y="-426.38" font-family="Helvetica,sans-Serif" font-size="10.00">modbusGetRequestError</text>
</a>
</g>
</g>
<!-- Node1&#45;&gt;Node15 -->
<g id="edge14_Node000001_Node000015" class="edge">
<title>Node1&#45;&gt;Node15</title>
<g id="a_edge14_Node000001_Node000015"><a xlink:title=" ">
<path fill="none" stroke="#63b8ff" d="M476.92,-419.27C467.67,-420.42 458.17,-421.6 448.99,-422.73"/>
<polygon fill="#63b8ff" stroke="#63b8ff" points="477.07,-422.78 486.56,-418.08 476.21,-415.84 477.07,-422.78"/>
</a>
</g>
</g>
<!-- Node16 -->
<g id="Node000016" class="node">
<title>Node16</title>
<g id="a_Node000016"><a xlink:href="base_8h.html#acbf9b7e6b679be88ce4e10ffb617d3e9" target="_top" xlink:title="Returns response error from ModbusErrorInfo.">
<polygon fill="white" stroke="#666666" points="452.25,-402.88 322.25,-402.88 322.25,-383.62 452.25,-383.62 452.25,-402.88"/>
<text text-anchor="middle" x="387.25" y="-389.38" font-family="Helvetica,sans-Serif" font-size="10.00">modbusGetResponseError</text>
</a>
</g>
</g>
<!-- Node1&#45;&gt;Node16 -->
<g id="edge16_Node000001_Node000016" class="edge">
<title>Node1&#45;&gt;Node16</title>
<g id="a_edge16_Node000001_Node000016"><a xlink:title=" ">
<path fill="none" stroke="#63b8ff" d="M476.9,-403.65C468.9,-402.71 460.72,-401.75 452.72,-400.81"/>
<polygon fill="#63b8ff" stroke="#63b8ff" points="476.22,-407.09 486.56,-404.78 477.04,-400.14 476.22,-407.09"/>
</a>
</g>
</g>
<!-- Node17 -->
<g id="Node000017" class="node">
<title>Node17</title>
<g id="a_Node000017"><a xlink:href="base_8h.html#a64880e7075f445881485396f3aa869c5" target="_top" xlink:title="Checks if ModbusErrorInfo contains an error.">
<polygon fill="white" stroke="#666666" points="275,-337.88 203.5,-337.88 203.5,-318.62 275,-318.62 275,-337.88"/>
<text text-anchor="middle" x="239.25" y="-324.38" font-family="Helvetica,sans-Serif" font-size="10.00">modbusIsOk</text>
</a>
</g>
</g>
<!-- Node1&#45;&gt;Node17 -->
<g id="edge18_Node000001_Node000017" class="edge">
<title>Node1&#45;&gt;Node17</title>
<g id="a_edge18_Node000001_Node000017"><a xlink:title=" ">
<path fill="none" stroke="#63b8ff" d="M510.04,-396.52C493.15,-389.09 471.87,-380.38 452.25,-374.25 391.14,-355.16 317.7,-341.14 275.26,-333.87"/>
<polygon fill="#63b8ff" stroke="#63b8ff" points="508.51,-399.67 519.06,-400.56 511.37,-393.28 508.51,-399.67"/>
</a>
</g>
</g>
<!-- Node3 -->
<g id="Node000003" class="node">
<title>Node3</title>
<g id="a_Node000003"><a xlink:href="namespacellm.html#a57bd253b3362a63c62c8c5b5b0391252" target="_top" xlink:title="Throws an exception based on ModbusErrorInfo.">
<polygon fill="white" stroke="#666666" points="286.25,-443.88 192.25,-443.88 192.25,-424.62 286.25,-424.62 286.25,-443.88"/>
<text text-anchor="middle" x="239.25" y="-430.38" font-family="Helvetica,sans-Serif" font-size="10.00">llm::throwErrorInfo</text>
</a>
</g>
</g>
<!-- Node2&#45;&gt;Node3 -->
<g id="edge2_Node000002_Node000003" class="edge">
<title>Node2&#45;&gt;Node3</title>
<g id="a_edge2_Node000002_Node000003"><a xlink:title=" ">
<path fill="none" stroke="#63b8ff" d="M330.82,-454.72C315.61,-451.28 299.33,-447.6 284.83,-444.33"/>
<polygon fill="#63b8ff" stroke="#63b8ff" points="329.65,-458.05 340.18,-456.84 331.19,-451.22 329.65,-458.05"/>
</a>
</g>
</g>
<!-- Node4 -->
<g id="Node000004" class="node">
<title>Node4</title>
<g id="a_Node000004"><a xlink:href="classllm_1_1Slave.html#ac915e0947f733a784a9069f5ff5b9737" target="_top" xlink:title=" ">
<polygon fill="white" stroke="#666666" points="151,-559.88 5.25,-559.88 5.25,-540.62 151,-540.62 151,-559.88"/>
<text text-anchor="middle" x="78.12" y="-546.38" font-family="Helvetica,sans-Serif" font-size="10.00">llm::Slave::buildExceptionPDU</text>
</a>
</g>
</g>
<!-- Node3&#45;&gt;Node4 -->
<g id="edge3_Node000003_Node000004" class="edge">
<title>Node3&#45;&gt;Node4</title>
<g id="a_edge3_Node000003_Node000004"><a xlink:title=" ">
<path fill="none" stroke="#63b8ff" d="M227.2,-453.93C213.52,-476.43 188.07,-512.67 156.25,-532.25 151.1,-535.42 145.44,-538.03 139.6,-540.19"/>
<polygon fill="#63b8ff" stroke="#63b8ff" points="230.15,-455.82 232.19,-445.43 224.11,-452.28 230.15,-455.82"/>
</a>
</g>
</g>
<!-- Node5 -->
<g id="Node000005" class="node">
<title>Node5</title>
<g id="a_Node000005"><a xlink:href="classllm_1_1Slave.html#a10e79600053c725e639225264d966e63" target="_top" xlink:title=" ">
<polygon fill="white" stroke="#666666" points="150.62,-522.88 5.62,-522.88 5.62,-503.62 150.62,-503.62 150.62,-522.88"/>
<text text-anchor="middle" x="78.12" y="-509.38" font-family="Helvetica,sans-Serif" font-size="10.00">llm::Slave::buildExceptionRTU</text>
</a>
</g>
</g>
<!-- Node3&#45;&gt;Node5 -->
<g id="edge4_Node000003_Node000005" class="edge">
<title>Node3&#45;&gt;Node5</title>
<g id="a_edge4_Node000003_Node000005"><a xlink:title=" ">
<path fill="none" stroke="#63b8ff" d="M219.75,-451.54C204.01,-465.34 180.2,-484.14 156.25,-495.25 149.51,-498.38 142.19,-500.98 134.82,-503.15"/>
<polygon fill="#63b8ff" stroke="#63b8ff" points="221.81,-454.39 226.91,-445.1 217.13,-449.19 221.81,-454.39"/>
</a>
</g>
</g>
<!-- Node6 -->
<g id="Node000006" class="node">
<title>Node6</title>
<g id="a_Node000006"><a xlink:href="classllm_1_1Slave.html#a844c37870a4e98bffc091ddfafb8f959" target="_top" xlink:title=" ">
<polygon fill="white" stroke="#666666" points="150.25,-485.88 6,-485.88 6,-466.62 150.25,-466.62 150.25,-485.88"/>
<text text-anchor="middle" x="78.12" y="-472.38" font-family="Helvetica,sans-Serif" font-size="10.00">llm::Slave::buildExceptionTCP</text>
</a>
</g>
</g>
<!-- Node3&#45;&gt;Node6 -->
<g id="edge5_Node000003_Node000006" class="edge">
<title>Node3&#45;&gt;Node6</title>
<g id="a_edge5_Node000003_Node000006"><a xlink:title=" ">
<path fill="none" stroke="#63b8ff" d="M194.34,-447.59C182.05,-451.19 168.66,-454.99 156.25,-458.25 145.88,-460.98 134.67,-463.71 124.09,-466.2"/>
<polygon fill="#63b8ff" stroke="#63b8ff" points="195.2,-450.98 203.8,-444.79 193.22,-444.27 195.2,-450.98"/>
</a>
</g>
</g>
<!-- Node7 -->
<g id="Node000007" class="node">
<title>Node7</title>
<g id="a_Node000007"><a xlink:href="classllm_1_1Master.html#ac2e598f20d2c576e74590d461cf75f97" target="_top" xlink:title=" ">
<polygon fill="white" stroke="#666666" points="127,-633.88 29.25,-633.88 29.25,-614.62 127,-614.62 127,-633.88"/>
<text text-anchor="middle" x="78.12" y="-620.38" font-family="Helvetica,sans-Serif" font-size="10.00">llm::Master::Master</text>
</a>
</g>
</g>
<!-- Node3&#45;&gt;Node7 -->
<g id="edge6_Node000003_Node000007" class="edge">
<title>Node3&#45;&gt;Node7</title>
<g id="a_edge6_Node000003_Node000007"><a xlink:title=" ">
<path fill="none" stroke="#63b8ff" d="M234.32,-455.52C226.38,-492.18 204.89,-567.11 156.25,-606.25 148,-612.89 137.74,-617.16 127.42,-619.89"/>
<polygon fill="#63b8ff" stroke="#63b8ff" points="237.74,-456.25 236.28,-445.75 230.88,-454.87 237.74,-456.25"/>
</a>
</g>
</g>
<!-- Node8 -->
<g id="Node000008" class="node">
<title>Node8</title>
<g id="a_Node000008"><a xlink:href="classllm_1_1Slave.html#af8cc9d8d58bf7f632f3f3cf7e6b9c84b" target="_top" xlink:title=" ">
<polygon fill="white" stroke="#666666" points="149.88,-448.88 6.38,-448.88 6.38,-429.62 149.88,-429.62 149.88,-448.88"/>
<text text-anchor="middle" x="78.12" y="-435.38" font-family="Helvetica,sans-Serif" font-size="10.00">llm::Slave::parseRequestPDU</text>
</a>
</g>
</g>
<!-- Node3&#45;&gt;Node8 -->
<g id="edge7_Node000003_Node000008" class="edge">
<title>Node3&#45;&gt;Node8</title>
<g id="a_edge7_Node000003_Node000008"><a xlink:title=" ">
<path fill="none" stroke="#63b8ff" d="M180.5,-436.06C170.66,-436.37 160.34,-436.7 150.2,-437.02"/>
<polygon fill="#63b8ff" stroke="#63b8ff" points="180.4,-439.57 190.28,-435.76 180.18,-432.57 180.4,-439.57"/>
</a>
</g>
</g>
<!-- Node9 -->
<g id="Node000009" class="node">
<title>Node9</title>
<g id="a_Node000009"><a xlink:href="classllm_1_1Slave.html#a001591b9a38b69cf29adc853872a09fe" target="_top" xlink:title=" ">
<polygon fill="white" stroke="#666666" points="149.5,-411.88 6.75,-411.88 6.75,-392.62 149.5,-392.62 149.5,-411.88"/>
<text text-anchor="middle" x="78.12" y="-398.38" font-family="Helvetica,sans-Serif" font-size="10.00">llm::Slave::parseRequestRTU</text>
</a>
</g>
</g>
<!-- Node3&#45;&gt;Node9 -->
<g id="edge8_Node000003_Node000009" class="edge">
<title>Node3&#45;&gt;Node9</title>
<g id="a_edge8_Node000003_Node000009"><a xlink:title=" ">
<path fill="none" stroke="#63b8ff" d="M180.93,-422.72C164.03,-419.32 145.67,-415.63 129.25,-412.33"/>
<polygon fill="#63b8ff" stroke="#63b8ff" points="179.82,-426.07 190.31,-424.61 181.2,-419.21 179.82,-426.07"/>
</a>
</g>
</g>
<!-- Node10 -->
<g id="Node000010" class="node">
<title>Node10</title>
<g id="a_Node000010"><a xlink:href="classllm_1_1Slave.html#a05169339916c3727c780c75157b399b9" target="_top" xlink:title=" ">
<polygon fill="white" stroke="#666666" points="149.12,-374.88 7.12,-374.88 7.12,-355.62 149.12,-355.62 149.12,-374.88"/>
<text text-anchor="middle" x="78.12" y="-361.38" font-family="Helvetica,sans-Serif" font-size="10.00">llm::Slave::parseRequestTCP</text>
</a>
</g>
</g>
<!-- Node3&#45;&gt;Node10 -->
<g id="edge9_Node000003_Node000010" class="edge">
<title>Node3&#45;&gt;Node10</title>
<g id="a_edge9_Node000003_Node000010"><a xlink:title=" ">
<path fill="none" stroke="#63b8ff" d="M216.06,-417.65C200.14,-406.47 177.8,-392.18 156.25,-383.25 148.76,-380.14 140.62,-377.51 132.53,-375.31"/>
<polygon fill="#63b8ff" stroke="#63b8ff" points="213.68,-420.25 223.84,-423.25 217.77,-414.57 213.68,-420.25"/>
</a>
</g>
</g>
<!-- Node11 -->
<g id="Node000011" class="node">
<title>Node11</title>
<g id="a_Node000011"><a xlink:href="classllm_1_1Master.html#a39b0210172c76ef4dc9e43668daef7c9" target="_top" xlink:title=" ">
<polygon fill="white" stroke="#666666" points="156.25,-337.88 0,-337.88 0,-318.62 156.25,-318.62 156.25,-337.88"/>
<text text-anchor="middle" x="78.12" y="-324.38" font-family="Helvetica,sans-Serif" font-size="10.00">llm::Master::parseResponsePDU</text>
</a>
</g>
</g>
<!-- Node3&#45;&gt;Node11 -->
<g id="edge10_Node000003_Node000011" class="edge">
<title>Node3&#45;&gt;Node11</title>
<g id="a_edge10_Node000003_Node000011"><a xlink:title=" ">
<path fill="none" stroke="#63b8ff" d="M225.44,-414.79C211.05,-394.51 185.79,-363.36 156.25,-346.25 150.78,-343.08 144.78,-340.47 138.63,-338.32"/>
<polygon fill="#63b8ff" stroke="#63b8ff" points="222.54,-416.75 231.09,-423.02 228.32,-412.79 222.54,-416.75"/>
</a>
</g>
</g>
<!-- Node12 -->
<g id="Node000012" class="node">
<title>Node12</title>
<g id="a_Node000012"><a xlink:href="classllm_1_1Master.html#ab052e172e96808744ee43a8eff80b679" target="_top" xlink:title=" ">
<polygon fill="white" stroke="#666666" points="155.88,-300.88 0.38,-300.88 0.38,-281.62 155.88,-281.62 155.88,-300.88"/>
<text text-anchor="middle" x="78.12" y="-287.38" font-family="Helvetica,sans-Serif" font-size="10.00">llm::Master::parseResponseRTU</text>
</a>
</g>
</g>
<!-- Node3&#45;&gt;Node12 -->
<g id="edge11_Node000003_Node000012" class="edge">
<title>Node3&#45;&gt;Node12</title>
<g id="a_edge11_Node000003_Node000012"><a xlink:title=" ">
<path fill="none" stroke="#63b8ff" d="M227.67,-414.46C210.38,-382.84 176.04,-323.08 156.25,-309.25 151.74,-306.1 146.76,-303.5 141.56,-301.34"/>
<polygon fill="#63b8ff" stroke="#63b8ff" points="224.46,-415.88 232.3,-423.01 230.62,-412.55 224.46,-415.88"/>
</a>
</g>
</g>
<!-- Node13 -->
<g id="Node000013" class="node">
<title>Node13</title>
<g id="a_Node000013"><a xlink:href="classllm_1_1Master.html#ad1f614f5d44a61a8507ae34968fa7903" target="_top" xlink:title=" ">
<polygon fill="white" stroke="#666666" points="155.5,-263.88 0.75,-263.88 0.75,-244.62 155.5,-244.62 155.5,-263.88"/>
<text text-anchor="middle" x="78.12" y="-250.38" font-family="Helvetica,sans-Serif" font-size="10.00">llm::Master::parseResponseTCP</text>
</a>
</g>
</g>
<!-- Node3&#45;&gt;Node13 -->
<g id="edge12_Node000003_Node000013" class="edge">
<title>Node3&#45;&gt;Node13</title>
<g id="a_edge12_Node000003_Node000013"><a xlink:title=" ">
<path fill="none" stroke="#63b8ff" d="M227.5,-414.45C218.03,-396.89 203.97,-370.5 192.25,-347.25 175.61,-314.23 185.09,-295.39 156.25,-272.25 152.28,-269.07 147.85,-266.43 143.17,-264.24"/>
<polygon fill="#63b8ff" stroke="#63b8ff" points="224.18,-415.67 232.02,-422.81 230.34,-412.34 224.18,-415.67"/>
</a>
</g>
</g>
<!-- Node14 -->
<g id="Node000014" class="node">
<title>Node14</title>
<g id="a_Node000014"><a xlink:href="classllm_1_1Slave.html#a6824a1d0fcfd26d8bedaa934f0abcf39" target="_top" xlink:title=" ">
<polygon fill="white" stroke="#666666" points="121.75,-596.88 34.5,-596.88 34.5,-577.62 121.75,-577.62 121.75,-596.88"/>
<text text-anchor="middle" x="78.12" y="-583.38" font-family="Helvetica,sans-Serif" font-size="10.00">llm::Slave::Slave</text>
</a>
</g>
</g>
<!-- Node3&#45;&gt;Node14 -->
<g id="edge13_Node000003_Node000014" class="edge">
<title>Node3&#45;&gt;Node14</title>
<g id="a_edge13_Node000003_Node000014"><a xlink:title=" ">
<path fill="none" stroke="#63b8ff" d="M231.46,-455.13C220.57,-485.2 196.26,-540.26 156.25,-569.25 146.34,-576.43 134,-580.79 122.12,-583.43"/>
<polygon fill="#63b8ff" stroke="#63b8ff" points="234.76,-456.29 234.71,-445.69 228.15,-454.01 234.76,-456.29"/>
</a>
</g>
</g>
<!-- Node15&#45;&gt;Node3 -->
<g id="edge15_Node000015_Node000003" class="edge">
<title>Node15&#45;&gt;Node3</title>
<g id="a_edge15_Node000015_Node000003"><a xlink:title=" ">
<path fill="none" stroke="#63b8ff" d="M314.23,-432.22C304.86,-432.48 295.48,-432.74 286.69,-432.98"/>
<polygon fill="#63b8ff" stroke="#63b8ff" points="314.19,-435.73 324.09,-431.95 314,-428.73 314.19,-435.73"/>
</a>
</g>
</g>
<!-- Node16&#45;&gt;Node3 -->
<g id="edge17_Node000016_Node000003" class="edge">
<title>Node16&#45;&gt;Node3</title>
<g id="a_edge17_Node000016_Node000003"><a xlink:title=" ">
<path fill="none" stroke="#63b8ff" d="M339.5,-406.38C318.96,-412.15 295.21,-418.81 276.1,-424.18"/>
<polygon fill="#63b8ff" stroke="#63b8ff" points="340.4,-409.76 349.08,-403.69 338.5,-403.02 340.4,-409.76"/>
</a>
</g>
</g>
<!-- Node17&#45;&gt;Node4 -->
<g id="edge19_Node000017_Node000004" class="edge">
<title>Node17&#45;&gt;Node4</title>
<g id="a_edge19_Node000017_Node000004"><a xlink:title=" ">
<path fill="none" stroke="#63b8ff" d="M226.63,-347.65C216.61,-364.95 202.21,-391.2 192.25,-415.25 171.44,-465.52 196.03,-495.13 156.25,-532.25 152.83,-535.44 148.96,-538.1 144.82,-540.31"/>
<polygon fill="#63b8ff" stroke="#63b8ff" points="229.41,-349.83 231.47,-339.44 223.38,-346.28 229.41,-349.83"/>
</a>
</g>
</g>
<!-- Node17&#45;&gt;Node5 -->
<g id="edge20_Node000017_Node000005" class="edge">
<title>Node17&#45;&gt;Node5</title>
<g id="a_edge20_Node000017_Node000005"><a xlink:title=" ">
<path fill="none" stroke="#63b8ff" d="M227.36,-347.98C217.8,-365.49 203.68,-391.86 192.25,-415.25 175.13,-450.28 186.36,-470.47 156.25,-495.25 152.43,-498.4 148.16,-501.01 143.64,-503.19"/>
<polygon fill="#63b8ff" stroke="#63b8ff" points="230.19,-350.1 231.93,-339.65 224.05,-346.73 230.19,-350.1"/>
</a>
</g>
</g>
<!-- Node17&#45;&gt;Node6 -->
<g id="edge21_Node000017_Node000006" class="edge">
<title>Node17&#45;&gt;Node6</title>
<g id="a_edge21_Node000017_Node000006"><a xlink:title=" ">
<path fill="none" stroke="#63b8ff" d="M228.01,-348.36C210.94,-381.11 176.57,-443.78 156.25,-458.25 151.77,-461.44 146.81,-464.07 141.62,-466.24"/>
<polygon fill="#63b8ff" stroke="#63b8ff" points="231.11,-349.99 232.58,-339.5 224.88,-346.78 231.11,-349.99"/>
</a>
</g>
</g>
<!-- Node17&#45;&gt;Node8 -->
<g id="edge27_Node000017_Node000008" class="edge">
<title>Node17&#45;&gt;Node8</title>
<g id="a_edge27_Node000017_Node000008"><a xlink:title=" ">
<path fill="none" stroke="#63b8ff" d="M226.33,-347.87C212.28,-369.27 186.91,-402.92 156.25,-421.25 150.94,-424.42 145.11,-427.04 139.11,-429.19"/>
<polygon fill="#63b8ff" stroke="#63b8ff" points="229.25,-349.8 231.65,-339.48 223.34,-346.06 229.25,-349.8"/>
</a>
</g>
</g>
<!-- Node17&#45;&gt;Node9 -->
<g id="edge28_Node000017_Node000009" class="edge">
<title>Node17&#45;&gt;Node9</title>
<g id="a_edge28_Node000017_Node000009"><a xlink:title=" ">
<path fill="none" stroke="#63b8ff" d="M217.7,-345.48C201.84,-357.96 178.86,-374.31 156.25,-384.25 149.2,-387.35 141.55,-389.95 133.89,-392.13"/>
<polygon fill="#63b8ff" stroke="#63b8ff" points="219.83,-348.26 225.41,-339.26 215.43,-342.82 219.83,-348.26"/>
</a>
</g>
</g>
<!-- Node17&#45;&gt;Node10 -->
<g id="edge29_Node000017_Node000010" class="edge">
<title>Node17&#45;&gt;Node10</title>
<g id="a_edge29_Node000017_Node000010"><a xlink:title=" ">
<path fill="none" stroke="#63b8ff" d="M192.26,-338.94C170.28,-344.05 144.12,-350.14 122.49,-355.17"/>
<polygon fill="#63b8ff" stroke="#63b8ff" points="192.91,-342.39 201.86,-336.71 191.32,-335.57 192.91,-342.39"/>
</a>
</g>
</g>
<!-- Node17&#45;&gt;Node11 -->
<g id="edge30_Node000017_Node000011" class="edge">
<title>Node17&#45;&gt;Node11</title>
<g id="a_edge30_Node000017_Node000011"><a xlink:title=" ">
<path fill="none" stroke="#63b8ff" d="M192.16,-328.25C181.03,-328.25 168.83,-328.25 156.69,-328.25"/>
<polygon fill="#63b8ff" stroke="#63b8ff" points="191.82,-331.75 201.82,-328.25 191.82,-324.75 191.82,-331.75"/>
</a>
</g>
</g>
<!-- Node17&#45;&gt;Node12 -->
<g id="edge31_Node000017_Node000012" class="edge">
<title>Node17&#45;&gt;Node12</title>
<g id="a_edge31_Node000017_Node000012"><a xlink:title=" ">
<path fill="none" stroke="#63b8ff" d="M192.26,-317.56C170.28,-312.45 144.12,-306.36 122.49,-301.33"/>
<polygon fill="#63b8ff" stroke="#63b8ff" points="191.32,-320.93 201.86,-319.79 192.91,-314.11 191.32,-320.93"/>
</a>
</g>
</g>
<!-- Node17&#45;&gt;Node13 -->
<g id="edge32_Node000017_Node000013" class="edge">
<title>Node17&#45;&gt;Node13</title>
<g id="a_edge32_Node000017_Node000013"><a xlink:title=" ">
<path fill="none" stroke="#63b8ff" d="M217.7,-311.02C201.84,-298.54 178.86,-282.19 156.25,-272.25 149.2,-269.15 141.55,-266.55 133.89,-264.37"/>
<polygon fill="#63b8ff" stroke="#63b8ff" points="215.43,-313.68 225.41,-317.24 219.83,-308.24 215.43,-313.68"/>
</a>
</g>
</g>
<!-- Node18 -->
<g id="Node000018" class="node">
<title>Node18</title>
<g id="a_Node000018"><a xlink:href="slave_8impl_8h.html#a35f4ed7bc41f88d3fd6966842cf6a977" target="_top" xlink:title="Builds an exception PDU.">
<polygon fill="white" stroke="#666666" points="149.88,-79.5 6.38,-79.5 6.38,-49 149.88,-49 149.88,-79.5"/>
<text text-anchor="start" x="14.38" y="-66" font-family="Helvetica,sans-Serif" font-size="10.00">ModbusErrorInfomodbusBuild</text>
<text text-anchor="middle" x="78.12" y="-54.75" font-family="Helvetica,sans-Serif" font-size="10.00">ExceptionPDU</text>
</a>
</g>
</g>
<!-- Node17&#45;&gt;Node18 -->
<g id="edge22_Node000017_Node000018" class="edge">
<title>Node17&#45;&gt;Node18</title>
<g id="a_edge22_Node000017_Node000018"><a xlink:title=" ">
<path fill="none" stroke="#63b8ff" d="M237.11,-306.95C233.49,-260.71 218.44,-150.39 156.25,-89.25 152.54,-85.6 148.28,-82.48 143.73,-79.82"/>
<polygon fill="#63b8ff" stroke="#63b8ff" points="233.6,-306.94 237.76,-316.69 240.59,-306.48 233.6,-306.94"/>
</a>
</g>
</g>
<!-- Node19 -->
<g id="Node000019" class="node">
<title>Node19</title>
<g id="a_Node000019"><a xlink:href="slave_8impl_8h.html#a90b11d29191ccfd6393ea9be9a7e65e5" target="_top" xlink:title="Builds a Modbus RTU exception.">
<polygon fill="white" stroke="#666666" points="149.88,-30.5 6.38,-30.5 6.38,0 149.88,0 149.88,-30.5"/>
<text text-anchor="start" x="14.38" y="-17" font-family="Helvetica,sans-Serif" font-size="10.00">ModbusErrorInfomodbusBuild</text>
<text text-anchor="middle" x="78.12" y="-5.75" font-family="Helvetica,sans-Serif" font-size="10.00">ExceptionRTU</text>
</a>
</g>
</g>
<!-- Node17&#45;&gt;Node19 -->
<g id="edge23_Node000017_Node000019" class="edge">
<title>Node17&#45;&gt;Node19</title>
<g id="a_edge23_Node000017_Node000019"><a xlink:title=" ">
<path fill="none" stroke="#63b8ff" d="M238.59,-307.01C238.25,-254.37 229.94,-116.64 156.25,-40.25 152.73,-36.6 148.68,-33.49 144.31,-30.83"/>
<polygon fill="#63b8ff" stroke="#63b8ff" points="235.09,-306.68 238.55,-316.7 242.09,-306.71 235.09,-306.68"/>
</a>
</g>
</g>
<!-- Node20 -->
<g id="Node000020" class="node">
<title>Node20</title>
<g id="a_Node000020"><a xlink:href="slave_8impl_8h.html#a1fe964375f970a93d2305169eb842eac" target="_top" xlink:title="Builds a Modbus TCP exception.">
<polygon fill="white" stroke="#666666" points="149.88,-226.5 6.38,-226.5 6.38,-196 149.88,-196 149.88,-226.5"/>
<text text-anchor="start" x="14.38" y="-213" font-family="Helvetica,sans-Serif" font-size="10.00">ModbusErrorInfomodbusBuild</text>
<text text-anchor="middle" x="78.12" y="-201.75" font-family="Helvetica,sans-Serif" font-size="10.00">ExceptionTCP</text>
</a>
</g>
</g>
<!-- Node17&#45;&gt;Node20 -->
<g id="edge24_Node000017_Node000020" class="edge">
<title>Node17&#45;&gt;Node20</title>
<g id="a_edge24_Node000017_Node000020"><a xlink:title=" ">
<path fill="none" stroke="#63b8ff" d="M225.86,-308.71C211.54,-287.66 186.08,-254.58 156.25,-235.25 151.42,-232.12 146.17,-229.38 140.74,-226.98"/>
<polygon fill="#63b8ff" stroke="#63b8ff" points="222.87,-310.54 231.3,-316.97 228.72,-306.69 222.87,-310.54"/>
</a>
</g>
</g>
<!-- Node21 -->
<g id="Node000021" class="node">
<title>Node21</title>
<g id="a_Node000021"><a xlink:href="slave_8impl_8h.html#afa8be870ae62f17ac8bc258714c2eb99" target="_top" xlink:title="Parses provided Modbus RTU request frame and generates a Modbus RTU response.">
<polygon fill="white" stroke="#666666" points="151.75,-177.5 4.5,-177.5 4.5,-147 151.75,-147 151.75,-177.5"/>
<text text-anchor="start" x="12.5" y="-164" font-family="Helvetica,sans-Serif" font-size="10.00">ModbusErrorInfomodbusParse</text>
<text text-anchor="middle" x="78.12" y="-152.75" font-family="Helvetica,sans-Serif" font-size="10.00">RequestRTU</text>
</a>
</g>
</g>
<!-- Node17&#45;&gt;Node21 -->
<g id="edge25_Node000017_Node000021" class="edge">
<title>Node17&#45;&gt;Node21</title>
<g id="a_edge25_Node000017_Node000021"><a xlink:title=" ">
<path fill="none" stroke="#63b8ff" d="M231.69,-307.76C220.85,-277.13 196.33,-219.58 156.25,-187.25 151.76,-183.63 146.73,-180.52 141.44,-177.86"/>
<polygon fill="#63b8ff" stroke="#63b8ff" points="228.28,-308.62 234.8,-316.97 234.92,-306.38 228.28,-308.62"/>
</a>
</g>
</g>
<!-- Node22 -->
<g id="Node000022" class="node">
<title>Node22</title>
<g id="a_Node000022"><a xlink:href="slave_8impl_8h.html#abe63eae81d795b4350720b520098fe03" target="_top" xlink:title="Parses provided Modbus TCP request frame and generates a Modbus TCP response.">
<polygon fill="white" stroke="#666666" points="151.75,-128.5 4.5,-128.5 4.5,-98 151.75,-98 151.75,-128.5"/>
<text text-anchor="start" x="12.5" y="-115" font-family="Helvetica,sans-Serif" font-size="10.00">ModbusErrorInfomodbusParse</text>
<text text-anchor="middle" x="78.12" y="-103.75" font-family="Helvetica,sans-Serif" font-size="10.00">RequestTCP</text>
</a>
</g>
</g>
<!-- Node17&#45;&gt;Node22 -->
<g id="edge26_Node000017_Node000022" class="edge">
<title>Node17&#45;&gt;Node22</title>
<g id="a_edge26_Node000017_Node000022"><a xlink:title=" ">
<path fill="none" stroke="#63b8ff" d="M234.98,-307.14C227.83,-268.15 207.21,-184.63 156.25,-138.25 152.29,-134.65 147.81,-131.57 143.05,-128.93"/>
<polygon fill="#63b8ff" stroke="#63b8ff" points="231.5,-307.56 236.62,-316.84 238.4,-306.39 231.5,-307.56"/>
</a>
</g>
</g>
</g>
</svg>
