<?xml version="1.0" encoding="UTF-8" standalone="no"?>
<!DOCTYPE svg PUBLIC "-//W3C//DTD SVG 1.1//EN"
 "http://www.w3.org/Graphics/SVG/1.1/DTD/svg11.dtd">
<!-- Generated by graphviz version 12.2.0 (20241103.1931)
 -->
<!-- Title: modbusWBE Pages: 1 -->
<svg width="447pt" height="523pt"
 viewBox="0.00 0.00 446.75 522.50" xmlns="http://www.w3.org/2000/svg" xmlns:xlink="http://www.w3.org/1999/xlink">
<g id="graph0" class="graph" transform="scale(1 1) rotate(0) translate(4 518.5)">
<title>modbusWBE</title>
<!-- Node1 -->
<g id="Node000001" class="node">
<title>Node1</title>
<g id="a_Node000001"><a xlink:title="Safely writes a big&#45;endian 16&#45;bit word to provided pointer.">
<polygon fill="#999999" stroke="#666666" points="438.75,-287.88 366.5,-287.88 366.5,-268.62 438.75,-268.62 438.75,-287.88"/>
<text text-anchor="middle" x="402.62" y="-274.38" font-family="Helvetica,sans-Serif" font-size="10.00">modbusWBE</text>
</a>
</g>
</g>
<!-- Node2 -->
<g id="Node000002" class="node">
<title>Node2</title>
<g id="a_Node000002"><a xlink:href="master__func_8impl_8h.html#a2a17495474de4ed91efe8df2bf11d16f" target="_top" xlink:title="Read mutiple coils/discrete inputs/holding registers/input registers.">
<polygon fill="white" stroke="#666666" points="328.62,-514.5 185.12,-514.5 185.12,-484 328.62,-484 328.62,-514.5"/>
<text text-anchor="start" x="193.12" y="-501" font-family="Helvetica,sans-Serif" font-size="10.00">ModbusErrorInfomodbusBuild</text>
<text text-anchor="middle" x="256.88" y="-489.75" font-family="Helvetica,sans-Serif" font-size="10.00">Request01020304</text>
</a>
</g>
</g>
<!-- Node1&#45;&gt;Node2 -->
<g id="edge1_Node000001_Node000002" class="edge">
<title>Node1&#45;&gt;Node2</title>
<g id="a_edge1_Node000001_Node000002"><a xlink:title=" ">
<path fill="none" stroke="#63b8ff" d="M399.85,-299.31C395.39,-339.02 380.23,-425.34 330.5,-474.25 326.79,-477.9 322.53,-481.01 317.96,-483.67"/>
<polygon fill="#63b8ff" stroke="#63b8ff" points="403.32,-299.76 400.82,-289.47 396.36,-299.07 403.32,-299.76"/>
</a>
</g>
</g>
<!-- Node3 -->
<g id="Node000003" class="node">
<title>Node3</title>
<g id="a_Node000003"><a xlink:href="master__func_8impl_8h.html#a215655635f299f22ccd8eb3d79774357" target="_top" xlink:title="Write single coil/holding register.">
<polygon fill="white" stroke="#666666" points="328.62,-465.5 185.12,-465.5 185.12,-435 328.62,-435 328.62,-465.5"/>
<text text-anchor="start" x="193.12" y="-452" font-family="Helvetica,sans-Serif" font-size="10.00">ModbusErrorInfomodbusBuild</text>
<text text-anchor="middle" x="256.88" y="-440.75" font-family="Helvetica,sans-Serif" font-size="10.00">Request0506</text>
</a>
</g>
</g>
<!-- Node1&#45;&gt;Node3 -->
<g id="edge2_Node000001_Node000003" class="edge">
<title>Node1&#45;&gt;Node3</title>
<g id="a_edge2_Node000001_Node000003"><a xlink:title=" ">
<path fill="none" stroke="#63b8ff" d="M397.01,-299.03C388.92,-330.66 369.25,-390.86 330.5,-425.25 326.41,-428.88 321.77,-431.99 316.86,-434.65"/>
<polygon fill="#63b8ff" stroke="#63b8ff" points="400.35,-300.08 399.28,-289.54 393.54,-298.45 400.35,-300.08"/>
</a>
</g>
</g>
<!-- Node4 -->
<g id="Node000004" class="node">
<title>Node4</title>
<g id="a_Node000004"><a xlink:href="master__func_8impl_8h.html#a9ca285925fdd221a3f59d591e7c236b9" target="_top" xlink:title="Write multiple coils.">
<polygon fill="white" stroke="#666666" points="328.62,-416.5 185.12,-416.5 185.12,-386 328.62,-386 328.62,-416.5"/>
<text text-anchor="start" x="193.12" y="-403" font-family="Helvetica,sans-Serif" font-size="10.00">ModbusErrorInfomodbusBuild</text>
<text text-anchor="middle" x="256.88" y="-391.75" font-family="Helvetica,sans-Serif" font-size="10.00">Request15</text>
</a>
</g>
</g>
<!-- Node1&#45;&gt;Node4 -->
<g id="edge3_Node000001_Node000004" class="edge">
<title>Node1&#45;&gt;Node4</title>
<g id="a_edge3_Node000001_Node000004"><a xlink:title=" ">
<path fill="none" stroke="#63b8ff" d="M391.85,-298.35C380.14,-320.42 358.56,-355.48 330.5,-376.25 325.68,-379.82 320.31,-382.91 314.73,-385.57"/>
<polygon fill="#63b8ff" stroke="#63b8ff" points="394.94,-299.98 396.36,-289.49 388.7,-296.81 394.94,-299.98"/>
</a>
</g>
</g>
<!-- Node5 -->
<g id="Node000005" class="node">
<title>Node5</title>
<g id="a_Node000005"><a xlink:href="master__func_8impl_8h.html#ac887d4fcbfe16f37d1b829309c374795" target="_top" xlink:title="Write multiple holding registers.">
<polygon fill="white" stroke="#666666" points="328.62,-367.5 185.12,-367.5 185.12,-337 328.62,-337 328.62,-367.5"/>
<text text-anchor="start" x="193.12" y="-354" font-family="Helvetica,sans-Serif" font-size="10.00">ModbusErrorInfomodbusBuild</text>
<text text-anchor="middle" x="256.88" y="-342.75" font-family="Helvetica,sans-Serif" font-size="10.00">Request16</text>
</a>
</g>
</g>
<!-- Node1&#45;&gt;Node5 -->
<g id="edge4_Node000001_Node000005" class="edge">
<title>Node1&#45;&gt;Node5</title>
<g id="a_edge4_Node000001_Node000005"><a xlink:title=" ">
<path fill="none" stroke="#63b8ff" d="M380.65,-294.96C366.97,-305.28 348.38,-318.23 330.5,-327.25 323.71,-330.67 316.35,-333.81 309,-336.62"/>
<polygon fill="#63b8ff" stroke="#63b8ff" points="382.69,-297.8 388.47,-288.93 378.42,-292.26 382.69,-297.8"/>
</a>
</g>
</g>
<!-- Node6 -->
<g id="Node000006" class="node">
<title>Node6</title>
<g id="a_Node000006"><a xlink:href="master__func_8impl_8h.html#a1f876a7195e7ae76b89ff7aace454590" target="_top" xlink:title="Mask write register request.">
<polygon fill="white" stroke="#666666" points="328.62,-318.5 185.12,-318.5 185.12,-288 328.62,-288 328.62,-318.5"/>
<text text-anchor="start" x="193.12" y="-305" font-family="Helvetica,sans-Serif" font-size="10.00">ModbusErrorInfomodbusBuild</text>
<text text-anchor="middle" x="256.88" y="-293.75" font-family="Helvetica,sans-Serif" font-size="10.00">Request22</text>
</a>
</g>
</g>
<!-- Node1&#45;&gt;Node6 -->
<g id="edge5_Node000001_Node000006" class="edge">
<title>Node1&#45;&gt;Node6</title>
<g id="a_edge5_Node000001_Node000006"><a xlink:title=" ">
<path fill="none" stroke="#63b8ff" d="M354.78,-286.4C346.5,-287.84 337.72,-289.36 328.95,-290.89"/>
<polygon fill="#63b8ff" stroke="#63b8ff" points="355.35,-289.85 364.6,-284.69 354.15,-282.95 355.35,-289.85"/>
</a>
</g>
</g>
<!-- Node7 -->
<g id="Node000007" class="node">
<title>Node7</title>
<g id="a_Node000007"><a xlink:href="slave__func_8impl_8h.html#a648853599bb5c890d3dc98e12be07b0c" target="_top" xlink:title="Handles requests 01, 02, 03 and 04 (Read Multiple XX) and generates response.">
<polygon fill="white" stroke="#666666" points="330.5,-269.5 183.25,-269.5 183.25,-239 330.5,-239 330.5,-269.5"/>
<text text-anchor="start" x="191.25" y="-256" font-family="Helvetica,sans-Serif" font-size="10.00">ModbusErrorInfomodbusParse</text>
<text text-anchor="middle" x="256.88" y="-244.75" font-family="Helvetica,sans-Serif" font-size="10.00">Request01020304</text>
</a>
</g>
</g>
<!-- Node1&#45;&gt;Node7 -->
<g id="edge6_Node000001_Node000007" class="edge">
<title>Node1&#45;&gt;Node7</title>
<g id="a_edge6_Node000001_Node000007"><a xlink:title=" ">
<path fill="none" stroke="#63b8ff" d="M354.84,-270.44C347.17,-269.16 339.07,-267.81 330.94,-266.45"/>
<polygon fill="#63b8ff" stroke="#63b8ff" points="354.16,-273.87 364.6,-272.07 355.31,-266.97 354.16,-273.87"/>
</a>
</g>
</g>
<!-- Node8 -->
<g id="Node000008" class="node">
<title>Node8</title>
<g id="a_Node000008"><a xlink:href="slave__func_8impl_8h.html#ae620115b63da2d0c40e552889be5d3b3" target="_top" xlink:title="Handles requests 05 and 06 (Write Single XX) and generates response.">
<polygon fill="white" stroke="#666666" points="330.5,-220.5 183.25,-220.5 183.25,-190 330.5,-190 330.5,-220.5"/>
<text text-anchor="start" x="191.25" y="-207" font-family="Helvetica,sans-Serif" font-size="10.00">ModbusErrorInfomodbusParse</text>
<text text-anchor="middle" x="256.88" y="-195.75" font-family="Helvetica,sans-Serif" font-size="10.00">Request0506</text>
</a>
</g>
</g>
<!-- Node1&#45;&gt;Node8 -->
<g id="edge7_Node000001_Node000008" class="edge">
<title>Node1&#45;&gt;Node8</title>
<g id="a_edge7_Node000001_Node000008"><a xlink:title=" ">
<path fill="none" stroke="#63b8ff" d="M379.85,-261.36C366.22,-251.35 347.99,-238.97 330.5,-230.25 323.7,-226.86 316.32,-223.74 308.97,-220.93"/>
<polygon fill="#63b8ff" stroke="#63b8ff" points="377.58,-264.03 387.68,-267.23 381.78,-258.43 377.58,-264.03"/>
</a>
</g>
</g>
<!-- Node9 -->
<g id="Node000009" class="node">
<title>Node9</title>
<g id="a_Node000009"><a xlink:href="slave__func_8impl_8h.html#a4ee99d7a0fea397f6bf53fafbdc139e1" target="_top" xlink:title="Handles requests 15 and 16 (Write Multiple XX) and generates response.">
<polygon fill="white" stroke="#666666" points="330.5,-171.5 183.25,-171.5 183.25,-141 330.5,-141 330.5,-171.5"/>
<text text-anchor="start" x="191.25" y="-158" font-family="Helvetica,sans-Serif" font-size="10.00">ModbusErrorInfomodbusParse</text>
<text text-anchor="middle" x="256.88" y="-146.75" font-family="Helvetica,sans-Serif" font-size="10.00">Request1516</text>
</a>
</g>
</g>
<!-- Node1&#45;&gt;Node9 -->
<g id="edge8_Node000001_Node000009" class="edge">
<title>Node1&#45;&gt;Node9</title>
<g id="a_edge8_Node000001_Node000009"><a xlink:title=" ">
<path fill="none" stroke="#63b8ff" d="M391.61,-258.02C379.82,-236.16 358.28,-201.71 330.5,-181.25 325.67,-177.69 320.29,-174.61 314.71,-171.95"/>
<polygon fill="#63b8ff" stroke="#63b8ff" points="388.47,-259.55 396.17,-266.82 394.68,-256.33 388.47,-259.55"/>
</a>
</g>
</g>
<!-- Node10 -->
<g id="Node000010" class="node">
<title>Node10</title>
<g id="a_Node000010"><a xlink:href="slave__func_8impl_8h.html#a446bf506f887f17f17c491d6d863c446" target="_top" xlink:title="Handles request 22 (Mask Write Register) and generates response.">
<polygon fill="white" stroke="#666666" points="330.5,-122.5 183.25,-122.5 183.25,-92 330.5,-92 330.5,-122.5"/>
<text text-anchor="start" x="191.25" y="-109" font-family="Helvetica,sans-Serif" font-size="10.00">ModbusErrorInfomodbusParse</text>
<text text-anchor="middle" x="256.88" y="-97.75" font-family="Helvetica,sans-Serif" font-size="10.00">Request22</text>
</a>
</g>
</g>
<!-- Node1&#45;&gt;Node10 -->
<g id="edge9_Node000001_Node000010" class="edge">
<title>Node1&#45;&gt;Node10</title>
<g id="a_edge9_Node000001_Node000010"><a xlink:title=" ">
<path fill="none" stroke="#63b8ff" d="M396.96,-257.61C388.82,-226.19 369.08,-166.4 330.5,-132.25 326.41,-128.63 321.76,-125.52 316.85,-122.86"/>
<polygon fill="#63b8ff" stroke="#63b8ff" points="393.49,-258.14 399.25,-267.03 400.29,-256.49 393.49,-258.14"/>
</a>
</g>
</g>
<!-- Node11 -->
<g id="Node000011" class="node">
<title>Node11</title>
<g id="a_Node000011"><a xlink:href="base_8h.html#a39dcd3aad118a779b7e1775fea3e5d77" target="_top" xlink:title="Sets up the MBAP header in a Modbus TCP frame.">
<polygon fill="white" stroke="#666666" points="303.12,-73.88 210.62,-73.88 210.62,-54.62 303.12,-54.62 303.12,-73.88"/>
<text text-anchor="middle" x="256.88" y="-60.38" font-family="Helvetica,sans-Serif" font-size="10.00">modbusPackTCP</text>
</a>
</g>
</g>
<!-- Node1&#45;&gt;Node11 -->
<g id="edge10_Node000001_Node000011" class="edge">
<title>Node1&#45;&gt;Node11</title>
<g id="a_edge10_Node000001_Node000011"><a xlink:title=" ">
<path fill="none" stroke="#63b8ff" d="M400.17,-257.2C396.25,-217.22 381.96,-130.09 330.5,-83.25 322.98,-76.41 313.3,-71.97 303.48,-69.11"/>
<polygon fill="#63b8ff" stroke="#63b8ff" points="396.66,-257.24 400.99,-266.91 403.64,-256.65 396.66,-257.24"/>
</a>
</g>
</g>
<!-- Node12 -->
<g id="Node000012" class="node">
<title>Node12</title>
<g id="a_Node000012"><a xlink:href="slave_8impl_8h.html#a1fe964375f970a93d2305169eb842eac" target="_top" xlink:title="Builds a Modbus TCP exception.">
<polygon fill="white" stroke="#666666" points="145.38,-128.5 1.88,-128.5 1.88,-98 145.38,-98 145.38,-128.5"/>
<text text-anchor="start" x="9.88" y="-115" font-family="Helvetica,sans-Serif" font-size="10.00">ModbusErrorInfomodbusBuild</text>
<text text-anchor="middle" x="73.62" y="-103.75" font-family="Helvetica,sans-Serif" font-size="10.00">ExceptionTCP</text>
</a>
</g>
</g>
<!-- Node11&#45;&gt;Node12 -->
<g id="edge11_Node000011_Node000012" class="edge">
<title>Node11&#45;&gt;Node12</title>
<g id="a_edge11_Node000011_Node000012"><a xlink:title=" ">
<path fill="none" stroke="#63b8ff" d="M206.02,-77.2C198.39,-79.21 190.61,-81.27 183.25,-83.25 166.25,-87.82 147.77,-92.89 130.96,-97.53"/>
<polygon fill="#63b8ff" stroke="#63b8ff" points="206.78,-80.62 215.56,-74.69 205,-73.85 206.78,-80.62"/>
</a>
</g>
</g>
<!-- Node13 -->
<g id="Node000013" class="node">
<title>Node13</title>
<g id="a_Node000013"><a xlink:href="master_8impl_8h.html#a018a68ffd354478617deb2eba26db1df" target="_top" xlink:title="Finalizes a Modbus TCP request.">
<polygon fill="white" stroke="#666666" points="142.75,-79.5 4.5,-79.5 4.5,-49 142.75,-49 142.75,-79.5"/>
<text text-anchor="start" x="12.5" y="-66" font-family="Helvetica,sans-Serif" font-size="10.00">ModbusErrorInfomodbusEnd</text>
<text text-anchor="middle" x="73.62" y="-54.75" font-family="Helvetica,sans-Serif" font-size="10.00">RequestTCP</text>
</a>
</g>
</g>
<!-- Node11&#45;&gt;Node13 -->
<g id="edge12_Node000011_Node000013" class="edge">
<title>Node11&#45;&gt;Node13</title>
<g id="a_edge12_Node000011_Node000013"><a xlink:title=" ">
<path fill="none" stroke="#63b8ff" d="M198.81,-64.25C181.09,-64.25 161.38,-64.25 142.97,-64.25"/>
<polygon fill="#63b8ff" stroke="#63b8ff" points="198.62,-67.75 208.62,-64.25 198.62,-60.75 198.62,-67.75"/>
</a>
</g>
</g>
<!-- Node14 -->
<g id="Node000014" class="node">
<title>Node14</title>
<g id="a_Node000014"><a xlink:href="slave_8impl_8h.html#abe63eae81d795b4350720b520098fe03" target="_top" xlink:title="Parses provided Modbus TCP request frame and generates a Modbus TCP response.">
<polygon fill="white" stroke="#666666" points="147.25,-30.5 0,-30.5 0,0 147.25,0 147.25,-30.5"/>
<text text-anchor="start" x="8" y="-17" font-family="Helvetica,sans-Serif" font-size="10.00">ModbusErrorInfomodbusParse</text>
<text text-anchor="middle" x="73.62" y="-5.75" font-family="Helvetica,sans-Serif" font-size="10.00">RequestTCP</text>
</a>
</g>
</g>
<!-- Node11&#45;&gt;Node14 -->
<g id="edge13_Node000011_Node000014" class="edge">
<title>Node11&#45;&gt;Node14</title>
<g id="a_edge13_Node000011_Node000014"><a xlink:title=" ">
<path fill="none" stroke="#63b8ff" d="M207.86,-51.27C184.81,-45.04 156.99,-37.52 132.75,-30.96"/>
<polygon fill="#63b8ff" stroke="#63b8ff" points="206.73,-54.59 217.3,-53.82 208.56,-47.83 206.73,-54.59"/>
</a>
</g>
</g>
</g>
</svg>
