<?xml version="1.0" encoding="UTF-8" standalone="no"?>
<!DOCTYPE svg PUBLIC "-//W3C//DTD SVG 1.1//EN"
 "http://www.w3.org/Graphics/SVG/1.1/DTD/svg11.dtd">
<!-- Generated by graphviz version 12.2.0 (20241103.1931)
 -->
<!-- Title: modbusBufferDestroy Pages: 1 -->
<svg width="406pt" height="64pt"
 viewBox="0.00 0.00 405.50 64.25" xmlns="http://www.w3.org/2000/svg" xmlns:xlink="http://www.w3.org/1999/xlink">
<g id="graph0" class="graph" transform="scale(1 1) rotate(0) translate(4 60.25)">
<title>modbusBufferDestroy</title>
<!-- Node1 -->
<g id="Node000001" class="node">
<title>Node1</title>
<g id="a_Node000001"><a xlink:title="Equivalent of modbusBufferFree() \copydetail modbusBufferFree()">
<polygon fill="#999999" stroke="#666666" points="397.5,-37.25 288.5,-37.25 288.5,-18 397.5,-18 397.5,-37.25"/>
<text text-anchor="middle" x="343" y="-23.75" font-family="Helvetica,sans-Serif" font-size="10.00">modbusBufferDestroy</text>
</a>
</g>
</g>
<!-- Node2 -->
<g id="Node000002" class="node">
<title>Node2</title>
<g id="a_Node000002"><a xlink:href="master_8impl_8h.html#a5fe38fae0f89de04fa616d105f660d25" target="_top" xlink:title="Deinitializes a ModbusMaster struct.">
<polygon fill="white" stroke="#666666" points="252.5,-56.25 139,-56.25 139,-37 252.5,-37 252.5,-56.25"/>
<text text-anchor="middle" x="195.75" y="-42.75" font-family="Helvetica,sans-Serif" font-size="10.00">modbusMasterDestroy</text>
</a>
</g>
</g>
<!-- Node1&#45;&gt;Node2 -->
<g id="edge1_Node000001_Node000002" class="edge">
<title>Node1&#45;&gt;Node2</title>
<g id="a_edge1_Node000001_Node000002"><a xlink:title=" ">
<path fill="none" stroke="#63b8ff" d="M276.97,-36.13C268.85,-37.19 260.6,-38.27 252.63,-39.31"/>
<polygon fill="#63b8ff" stroke="#63b8ff" points="277.36,-39.61 286.83,-34.84 276.46,-32.67 277.36,-39.61"/>
</a>
</g>
</g>
<!-- Node4 -->
<g id="Node000004" class="node">
<title>Node4</title>
<g id="a_Node000004"><a xlink:href="slave_8impl_8h.html#a70695c3b7355bc0a3e6d49c46a4eef1f" target="_top" xlink:title="Frees memory allocated in the ModbusSlave struct.">
<polygon fill="white" stroke="#666666" points="249.88,-19.25 141.62,-19.25 141.62,0 249.88,0 249.88,-19.25"/>
<text text-anchor="middle" x="195.75" y="-5.75" font-family="Helvetica,sans-Serif" font-size="10.00">modbusSlaveDestroy</text>
</a>
</g>
</g>
<!-- Node1&#45;&gt;Node4 -->
<g id="edge3_Node000001_Node000004" class="edge">
<title>Node1&#45;&gt;Node4</title>
<g id="a_edge3_Node000001_Node000004"><a xlink:title=" ">
<path fill="none" stroke="#63b8ff" d="M277.07,-19.58C268.09,-18.47 258.95,-17.33 250.2,-16.25"/>
<polygon fill="#63b8ff" stroke="#63b8ff" points="276.47,-23.03 286.82,-20.79 277.33,-16.08 276.47,-23.03"/>
</a>
</g>
</g>
<!-- Node3 -->
<g id="Node000003" class="node">
<title>Node3</title>
<g id="a_Node000003"><a xlink:href="classllm_1_1Master.html#adae54d760d1eb2f0babcaff59325376d" target="_top" xlink:title=" ">
<polygon fill="white" stroke="#666666" points="103,-56.25 0,-56.25 0,-37 103,-37 103,-56.25"/>
<text text-anchor="middle" x="51.5" y="-42.75" font-family="Helvetica,sans-Serif" font-size="10.00">llm::Master::~Master</text>
</a>
</g>
</g>
<!-- Node2&#45;&gt;Node3 -->
<g id="edge2_Node000002_Node000003" class="edge">
<title>Node2&#45;&gt;Node3</title>
<g id="a_edge2_Node000002_Node000003"><a xlink:title=" ">
<path fill="none" stroke="#63b8ff" d="M127.21,-46.62C119.14,-46.62 111.01,-46.62 103.23,-46.62"/>
<polygon fill="#63b8ff" stroke="#63b8ff" points="127.02,-50.13 137.02,-46.63 127.02,-43.13 127.02,-50.13"/>
</a>
</g>
</g>
<!-- Node5 -->
<g id="Node000005" class="node">
<title>Node5</title>
<g id="a_Node000005"><a xlink:href="classllm_1_1Slave.html#a46b8ac6f2b8dee5550d18bd7f1dd355d" target="_top" xlink:title=" ">
<polygon fill="white" stroke="#666666" points="97.75,-19.25 5.25,-19.25 5.25,0 97.75,0 97.75,-19.25"/>
<text text-anchor="middle" x="51.5" y="-5.75" font-family="Helvetica,sans-Serif" font-size="10.00">llm::Slave::~Slave</text>
</a>
</g>
</g>
<!-- Node4&#45;&gt;Node5 -->
<g id="edge4_Node000004_Node000005" class="edge">
<title>Node4&#45;&gt;Node5</title>
<g id="a_edge4_Node000004_Node000005"><a xlink:title=" ">
<path fill="none" stroke="#63b8ff" d="M129.9,-9.62C119.22,-9.62 108.34,-9.62 98.25,-9.62"/>
<polygon fill="#63b8ff" stroke="#63b8ff" points="129.86,-13.13 139.86,-9.63 129.86,-6.13 129.86,-13.13"/>
</a>
</g>
</g>
</g>
</svg>
