<?xml version="1.0" encoding="UTF-8" standalone="no"?>
<!DOCTYPE svg PUBLIC "-//W3C//DTD SVG 1.1//EN"
 "http://www.w3.org/Graphics/SVG/1.1/DTD/svg11.dtd">
<!-- Generated by graphviz version 12.2.0 (20241103.1931)
 -->
<!-- Title: modbusRBE Pages: 1 -->
<svg width="445pt" height="400pt"
 viewBox="0.00 0.00 444.50 399.50" xmlns="http://www.w3.org/2000/svg" xmlns:xlink="http://www.w3.org/1999/xlink">
<g id="graph0" class="graph" transform="scale(1 1) rotate(0) translate(4 395.5)">
<title>modbusRBE</title>
<!-- Node1 -->
<g id="Node000001" class="node">
<title>Node1</title>
<g id="a_Node000001"><a xlink:title="Safely reads a big&#45;endian 16&#45;bit word from provided pointer.">
<polygon fill="#999999" stroke="#666666" points="436.5,-213.88 366.5,-213.88 366.5,-194.62 436.5,-194.62 436.5,-213.88"/>
<text text-anchor="middle" x="401.5" y="-200.38" font-family="Helvetica,sans-Serif" font-size="10.00">modbusRBE</text>
</a>
</g>
</g>
<!-- Node2 -->
<g id="Node000002" class="node">
<title>Node2</title>
<g id="a_Node000002"><a xlink:href="slave__func_8impl_8h.html#a648853599bb5c890d3dc98e12be07b0c" target="_top" xlink:title="Handles requests 01, 02, 03 and 04 (Read Multiple XX) and generates response.">
<polygon fill="white" stroke="#666666" points="330.5,-391.5 183.25,-391.5 183.25,-361 330.5,-361 330.5,-391.5"/>
<text text-anchor="start" x="191.25" y="-378" font-family="Helvetica,sans-Serif" font-size="10.00">ModbusErrorInfomodbusParse</text>
<text text-anchor="middle" x="256.88" y="-366.75" font-family="Helvetica,sans-Serif" font-size="10.00">Request01020304</text>
</a>
</g>
</g>
<!-- Node1&#45;&gt;Node2 -->
<g id="edge1_Node000001_Node000002" class="edge">
<title>Node1&#45;&gt;Node2</title>
<g id="a_edge1_Node000001_Node000002"><a xlink:title=" ">
<path fill="none" stroke="#63b8ff" d="M396.05,-225.02C388.22,-256.65 369.03,-316.84 330.5,-351.25 326.42,-354.89 321.79,-358.01 316.88,-360.67"/>
<polygon fill="#63b8ff" stroke="#63b8ff" points="399.4,-226.07 398.24,-215.54 392.58,-224.49 399.4,-226.07"/>
</a>
</g>
</g>
<!-- Node3 -->
<g id="Node000003" class="node">
<title>Node3</title>
<g id="a_Node000003"><a xlink:href="slave__func_8impl_8h.html#ae620115b63da2d0c40e552889be5d3b3" target="_top" xlink:title="Handles requests 05 and 06 (Write Single XX) and generates response.">
<polygon fill="white" stroke="#666666" points="330.5,-342.5 183.25,-342.5 183.25,-312 330.5,-312 330.5,-342.5"/>
<text text-anchor="start" x="191.25" y="-329" font-family="Helvetica,sans-Serif" font-size="10.00">ModbusErrorInfomodbusParse</text>
<text text-anchor="middle" x="256.88" y="-317.75" font-family="Helvetica,sans-Serif" font-size="10.00">Request0506</text>
</a>
</g>
</g>
<!-- Node1&#45;&gt;Node3 -->
<g id="edge2_Node000001_Node000003" class="edge">
<title>Node1&#45;&gt;Node3</title>
<g id="a_edge2_Node000001_Node000003"><a xlink:title=" ">
<path fill="none" stroke="#63b8ff" d="M390.95,-224.35C379.51,-246.43 358.33,-281.49 330.5,-302.25 325.69,-305.84 320.33,-308.94 314.76,-311.61"/>
<polygon fill="#63b8ff" stroke="#63b8ff" points="394.04,-226.01 395.36,-215.49 387.77,-222.89 394.04,-226.01"/>
</a>
</g>
</g>
<!-- Node4 -->
<g id="Node000004" class="node">
<title>Node4</title>
<g id="a_Node000004"><a xlink:href="slave__func_8impl_8h.html#a4ee99d7a0fea397f6bf53fafbdc139e1" target="_top" xlink:title="Handles requests 15 and 16 (Write Multiple XX) and generates response.">
<polygon fill="white" stroke="#666666" points="330.5,-293.5 183.25,-293.5 183.25,-263 330.5,-263 330.5,-293.5"/>
<text text-anchor="start" x="191.25" y="-280" font-family="Helvetica,sans-Serif" font-size="10.00">ModbusErrorInfomodbusParse</text>
<text text-anchor="middle" x="256.88" y="-268.75" font-family="Helvetica,sans-Serif" font-size="10.00">Request1516</text>
</a>
</g>
</g>
<!-- Node1&#45;&gt;Node4 -->
<g id="edge3_Node000001_Node000004" class="edge">
<title>Node1&#45;&gt;Node4</title>
<g id="a_edge3_Node000001_Node000004"><a xlink:title=" ">
<path fill="none" stroke="#63b8ff" d="M379.9,-220.98C366.45,-231.31 348.16,-244.26 330.5,-253.25 323.85,-256.64 316.63,-259.74 309.41,-262.52"/>
<polygon fill="#63b8ff" stroke="#63b8ff" points="381.87,-223.88 387.57,-214.95 377.55,-218.38 381.87,-223.88"/>
</a>
</g>
</g>
<!-- Node5 -->
<g id="Node000005" class="node">
<title>Node5</title>
<g id="a_Node000005"><a xlink:href="slave__func_8impl_8h.html#a446bf506f887f17f17c491d6d863c446" target="_top" xlink:title="Handles request 22 (Mask Write Register) and generates response.">
<polygon fill="white" stroke="#666666" points="330.5,-244.5 183.25,-244.5 183.25,-214 330.5,-214 330.5,-244.5"/>
<text text-anchor="start" x="191.25" y="-231" font-family="Helvetica,sans-Serif" font-size="10.00">ModbusErrorInfomodbusParse</text>
<text text-anchor="middle" x="256.88" y="-219.75" font-family="Helvetica,sans-Serif" font-size="10.00">Request22</text>
</a>
</g>
</g>
<!-- Node1&#45;&gt;Node5 -->
<g id="edge4_Node000001_Node000005" class="edge">
<title>Node1&#45;&gt;Node5</title>
<g id="a_edge4_Node000001_Node000005"><a xlink:title=" ">
<path fill="none" stroke="#63b8ff" d="M355.26,-212.18C347.42,-213.55 339.09,-215.01 330.74,-216.48"/>
<polygon fill="#63b8ff" stroke="#63b8ff" points="355.6,-215.67 364.85,-210.5 354.39,-208.78 355.6,-215.67"/>
</a>
</g>
</g>
<!-- Node6 -->
<g id="Node000006" class="node">
<title>Node6</title>
<g id="a_Node000006"><a xlink:href="master__func_8impl_8h.html#a6956bac7f2cf05dd654da656048bfe2b" target="_top" xlink:title="Parses response to requests 01, 02, 03 and 04.">
<polygon fill="white" stroke="#666666" points="330.5,-195.5 183.25,-195.5 183.25,-165 330.5,-165 330.5,-195.5"/>
<text text-anchor="start" x="191.25" y="-182" font-family="Helvetica,sans-Serif" font-size="10.00">ModbusErrorInfomodbusParse</text>
<text text-anchor="middle" x="256.88" y="-170.75" font-family="Helvetica,sans-Serif" font-size="10.00">Response01020304</text>
</a>
</g>
</g>
<!-- Node1&#45;&gt;Node6 -->
<g id="edge5_Node000001_Node000006" class="edge">
<title>Node1&#45;&gt;Node6</title>
<g id="a_edge5_Node000001_Node000006"><a xlink:title=" ">
<path fill="none" stroke="#63b8ff" d="M355.26,-196.64C347.42,-195.32 339.09,-193.92 330.74,-192.51"/>
<polygon fill="#63b8ff" stroke="#63b8ff" points="354.4,-200.04 364.85,-198.25 355.56,-193.14 354.4,-200.04"/>
</a>
</g>
</g>
<!-- Node7 -->
<g id="Node000007" class="node">
<title>Node7</title>
<g id="a_Node000007"><a xlink:href="master__func_8impl_8h.html#ad68b2a595e6c4c9dd8d7e3767c26971b" target="_top" xlink:title="Parses response to requests 05 and 06.">
<polygon fill="white" stroke="#666666" points="330.5,-146.5 183.25,-146.5 183.25,-116 330.5,-116 330.5,-146.5"/>
<text text-anchor="start" x="191.25" y="-133" font-family="Helvetica,sans-Serif" font-size="10.00">ModbusErrorInfomodbusParse</text>
<text text-anchor="middle" x="256.88" y="-121.75" font-family="Helvetica,sans-Serif" font-size="10.00">Response0506</text>
</a>
</g>
</g>
<!-- Node1&#45;&gt;Node7 -->
<g id="edge6_Node000001_Node000007" class="edge">
<title>Node1&#45;&gt;Node7</title>
<g id="a_edge6_Node000001_Node000007"><a xlink:title=" ">
<path fill="none" stroke="#63b8ff" d="M379.36,-187.52C365.93,-177.48 347.87,-164.99 330.5,-156.25 323.71,-152.83 316.34,-149.7 308.99,-146.89"/>
<polygon fill="#63b8ff" stroke="#63b8ff" points="376.97,-190.1 387.04,-193.4 381.22,-184.54 376.97,-190.1"/>
</a>
</g>
</g>
<!-- Node8 -->
<g id="Node000008" class="node">
<title>Node8</title>
<g id="a_Node000008"><a xlink:href="master__func_8impl_8h.html#acc34cc2d685590f9e302e402acef8f06" target="_top" xlink:title="Parses response to requests 15 and 16 (write mutliple regsiters/coils)">
<polygon fill="white" stroke="#666666" points="330.5,-97.5 183.25,-97.5 183.25,-67 330.5,-67 330.5,-97.5"/>
<text text-anchor="start" x="191.25" y="-84" font-family="Helvetica,sans-Serif" font-size="10.00">ModbusErrorInfomodbusParse</text>
<text text-anchor="middle" x="256.88" y="-72.75" font-family="Helvetica,sans-Serif" font-size="10.00">Response1516</text>
</a>
</g>
</g>
<!-- Node1&#45;&gt;Node8 -->
<g id="edge7_Node000001_Node000008" class="edge">
<title>Node1&#45;&gt;Node8</title>
<g id="a_edge7_Node000001_Node000008"><a xlink:title=" ">
<path fill="none" stroke="#63b8ff" d="M390.73,-184.02C379.19,-162.15 358.05,-127.7 330.5,-107.25 325.68,-103.67 320.31,-100.58 314.74,-97.91"/>
<polygon fill="#63b8ff" stroke="#63b8ff" points="387.54,-185.47 395.18,-192.81 393.78,-182.31 387.54,-185.47"/>
</a>
</g>
</g>
<!-- Node9 -->
<g id="Node000009" class="node">
<title>Node9</title>
<g id="a_Node000009"><a xlink:href="base_8h.html#a616e5bdb5ebcd57b1604421f6ca22bc9" target="_top" xlink:title="Unpacks data from a Modbus TCP frame.">
<polygon fill="white" stroke="#666666" points="308.75,-48.88 205,-48.88 205,-29.62 308.75,-29.62 308.75,-48.88"/>
<text text-anchor="middle" x="256.88" y="-35.38" font-family="Helvetica,sans-Serif" font-size="10.00">modbusUnpackTCP</text>
</a>
</g>
</g>
<!-- Node1&#45;&gt;Node9 -->
<g id="edge8_Node000001_Node000009" class="edge">
<title>Node1&#45;&gt;Node9</title>
<g id="a_edge8_Node000001_Node000009"><a xlink:title=" ">
<path fill="none" stroke="#63b8ff" d="M396.32,-183.26C388.85,-151.36 370.12,-90.94 330.5,-58.25 324.27,-53.11 316.79,-49.34 309.05,-46.59"/>
<polygon fill="#63b8ff" stroke="#63b8ff" points="392.86,-183.81 398.4,-192.84 399.7,-182.33 392.86,-183.81"/>
</a>
</g>
</g>
<!-- Node10 -->
<g id="Node000010" class="node">
<title>Node10</title>
<g id="a_Node000010"><a xlink:href="slave_8impl_8h.html#abe63eae81d795b4350720b520098fe03" target="_top" xlink:title="Parses provided Modbus TCP request frame and generates a Modbus TCP response.">
<polygon fill="white" stroke="#666666" points="147.25,-79.5 0,-79.5 0,-49 147.25,-49 147.25,-79.5"/>
<text text-anchor="start" x="8" y="-66" font-family="Helvetica,sans-Serif" font-size="10.00">ModbusErrorInfomodbusParse</text>
<text text-anchor="middle" x="73.62" y="-54.75" font-family="Helvetica,sans-Serif" font-size="10.00">RequestTCP</text>
</a>
</g>
</g>
<!-- Node9&#45;&gt;Node10 -->
<g id="edge9_Node000009_Node000010" class="edge">
<title>Node9&#45;&gt;Node10</title>
<g id="a_edge9_Node000009_Node000010"><a xlink:title=" ">
<path fill="none" stroke="#63b8ff" d="M193.77,-47.82C178.89,-49.87 162.86,-52.08 147.53,-54.19"/>
<polygon fill="#63b8ff" stroke="#63b8ff" points="193.98,-51.32 203.41,-46.49 193.02,-44.39 193.98,-51.32"/>
</a>
</g>
</g>
<!-- Node11 -->
<g id="Node000011" class="node">
<title>Node11</title>
<g id="a_Node000011"><a xlink:href="master_8impl_8h.html#a4428cea8dadafc8dee3b22dcf8812f4e" target="_top" xlink:title="Parses a Modbus TCP slave response.">
<polygon fill="white" stroke="#666666" points="147.25,-30.5 0,-30.5 0,0 147.25,0 147.25,-30.5"/>
<text text-anchor="start" x="8" y="-17" font-family="Helvetica,sans-Serif" font-size="10.00">ModbusErrorInfomodbusParse</text>
<text text-anchor="middle" x="73.62" y="-5.75" font-family="Helvetica,sans-Serif" font-size="10.00">ResponseTCP</text>
</a>
</g>
</g>
<!-- Node9&#45;&gt;Node11 -->
<g id="edge10_Node000009_Node000011" class="edge">
<title>Node9&#45;&gt;Node11</title>
<g id="a_edge10_Node000009_Node000011"><a xlink:title=" ">
<path fill="none" stroke="#63b8ff" d="M193.77,-31.03C178.89,-29.06 162.86,-26.93 147.53,-24.9"/>
<polygon fill="#63b8ff" stroke="#63b8ff" points="193.03,-34.46 203.4,-32.3 193.95,-27.52 193.03,-34.46"/>
</a>
</g>
</g>
</g>
</svg>
