<?xml version="1.0" encoding="UTF-8" standalone="no"?>
<!DOCTYPE svg PUBLIC "-//W3C//DTD SVG 1.1//EN"
 "http://www.w3.org/Graphics/SVG/1.1/DTD/svg11.dtd">
<!-- Generated by graphviz version 12.2.0 (20241103.1931)
 -->
<!-- Title: modbusCRC Pages: 1 -->
<svg width="403pt" height="186pt"
 viewBox="0.00 0.00 402.50 185.50" xmlns="http://www.w3.org/2000/svg" xmlns:xlink="http://www.w3.org/1999/xlink">
<g id="graph0" class="graph" transform="scale(1 1) rotate(0) translate(4 181.5)">
<title>modbusCRC</title>
<!-- Node1 -->
<g id="Node000001" class="node">
<title>Node1</title>
<g id="a_Node000001"><a xlink:title="Calculates 16&#45;bit Modbus CRC of provided data.">
<polygon fill="#999999" stroke="#666666" points="394.5,-91.88 323.75,-91.88 323.75,-72.62 394.5,-72.62 394.5,-91.88"/>
<text text-anchor="middle" x="359.12" y="-78.38" font-family="Helvetica,sans-Serif" font-size="10.00">modbusCRC</text>
</a>
</g>
</g>
<!-- Node2 -->
<g id="Node000002" class="node">
<title>Node2</title>
<g id="a_Node000002"><a xlink:href="base_8h.html#af2cafe9debf86bea7042b4c40bb288cd" target="_top" xlink:title="Sets up address and CRC in a Modbus RTU frame.">
<polygon fill="white" stroke="#666666" points="282.12,-116.88 188.88,-116.88 188.88,-97.62 282.12,-97.62 282.12,-116.88"/>
<text text-anchor="middle" x="235.5" y="-103.38" font-family="Helvetica,sans-Serif" font-size="10.00">modbusPackRTU</text>
</a>
</g>
</g>
<!-- Node1&#45;&gt;Node2 -->
<g id="edge1_Node000001_Node000002" class="edge">
<title>Node1&#45;&gt;Node2</title>
<g id="a_edge1_Node000001_Node000002"><a xlink:title=" ">
<path fill="none" stroke="#63b8ff" d="M312.11,-91.71C302.34,-93.72 292.02,-95.84 282.25,-97.85"/>
<polygon fill="#63b8ff" stroke="#63b8ff" points="312.7,-95.16 321.79,-89.72 311.29,-88.3 312.7,-95.16"/>
</a>
</g>
</g>
<!-- Node6 -->
<g id="Node000006" class="node">
<title>Node6</title>
<g id="a_Node000006"><a xlink:href="base_8h.html#a4dba88e9baf690b8dafa0fad81eb7d07" target="_top" xlink:title="Unpacks data from a Modbus RTU frame and optionally checks CRC.">
<polygon fill="white" stroke="#666666" points="287.75,-73.88 183.25,-73.88 183.25,-54.62 287.75,-54.62 287.75,-73.88"/>
<text text-anchor="middle" x="235.5" y="-60.38" font-family="Helvetica,sans-Serif" font-size="10.00">modbusUnpackRTU</text>
</a>
</g>
</g>
<!-- Node1&#45;&gt;Node6 -->
<g id="edge5_Node000001_Node000006" class="edge">
<title>Node1&#45;&gt;Node6</title>
<g id="a_edge5_Node000001_Node000006"><a xlink:title=" ">
<path fill="none" stroke="#63b8ff" d="M312.11,-75.44C304.28,-74.28 296.1,-73.07 288.13,-71.89"/>
<polygon fill="#63b8ff" stroke="#63b8ff" points="311.37,-78.87 321.77,-76.87 312.4,-71.94 311.37,-78.87"/>
</a>
</g>
</g>
<!-- Node3 -->
<g id="Node000003" class="node">
<title>Node3</title>
<g id="a_Node000003"><a xlink:href="slave_8impl_8h.html#a90b11d29191ccfd6393ea9be9a7e65e5" target="_top" xlink:title="Builds a Modbus RTU exception.">
<polygon fill="white" stroke="#666666" points="145.38,-177.5 1.88,-177.5 1.88,-147 145.38,-147 145.38,-177.5"/>
<text text-anchor="start" x="9.88" y="-164" font-family="Helvetica,sans-Serif" font-size="10.00">ModbusErrorInfomodbusBuild</text>
<text text-anchor="middle" x="73.62" y="-152.75" font-family="Helvetica,sans-Serif" font-size="10.00">ExceptionRTU</text>
</a>
</g>
</g>
<!-- Node2&#45;&gt;Node3 -->
<g id="edge2_Node000002_Node000003" class="edge">
<title>Node2&#45;&gt;Node3</title>
<g id="a_edge2_Node000002_Node000003"><a xlink:title=" ">
<path fill="none" stroke="#63b8ff" d="M194.31,-121.07C171.83,-128.81 143.73,-138.48 120.4,-146.5"/>
<polygon fill="#63b8ff" stroke="#63b8ff" points="195.43,-124.39 203.75,-117.83 193.15,-117.77 195.43,-124.39"/>
</a>
</g>
</g>
<!-- Node4 -->
<g id="Node000004" class="node">
<title>Node4</title>
<g id="a_Node000004"><a xlink:href="master_8impl_8h.html#a63e771eba2a9fe1a62a7cbb168a6db90" target="_top" xlink:title="Finalizes a Modbus RTU request.">
<polygon fill="white" stroke="#666666" points="142.75,-128.5 4.5,-128.5 4.5,-98 142.75,-98 142.75,-128.5"/>
<text text-anchor="start" x="12.5" y="-115" font-family="Helvetica,sans-Serif" font-size="10.00">ModbusErrorInfomodbusEnd</text>
<text text-anchor="middle" x="73.62" y="-103.75" font-family="Helvetica,sans-Serif" font-size="10.00">RequestRTU</text>
</a>
</g>
</g>
<!-- Node2&#45;&gt;Node4 -->
<g id="edge3_Node000002_Node000004" class="edge">
<title>Node2&#45;&gt;Node4</title>
<g id="a_edge3_Node000002_Node000004"><a xlink:title=" ">
<path fill="none" stroke="#63b8ff" d="M177.38,-109.39C166.27,-109.81 154.53,-110.25 143.09,-110.68"/>
<polygon fill="#63b8ff" stroke="#63b8ff" points="177.31,-112.9 187.17,-109.03 177.05,-105.9 177.31,-112.9"/>
</a>
</g>
</g>
<!-- Node5 -->
<g id="Node000005" class="node">
<title>Node5</title>
<g id="a_Node000005"><a xlink:href="slave_8impl_8h.html#afa8be870ae62f17ac8bc258714c2eb99" target="_top" xlink:title="Parses provided Modbus RTU request frame and generates a Modbus RTU response.">
<polygon fill="white" stroke="#666666" points="147.25,-79.5 0,-79.5 0,-49 147.25,-49 147.25,-79.5"/>
<text text-anchor="start" x="8" y="-66" font-family="Helvetica,sans-Serif" font-size="10.00">ModbusErrorInfomodbusParse</text>
<text text-anchor="middle" x="73.62" y="-54.75" font-family="Helvetica,sans-Serif" font-size="10.00">RequestRTU</text>
</a>
</g>
</g>
<!-- Node2&#45;&gt;Node5 -->
<g id="edge4_Node000002_Node000005" class="edge">
<title>Node2&#45;&gt;Node5</title>
<g id="a_edge4_Node000002_Node000005"><a xlink:title=" ">
<path fill="none" stroke="#63b8ff" d="M186.37,-94.3C169.62,-89.8 150.65,-84.7 133.15,-79.99"/>
<polygon fill="#63b8ff" stroke="#63b8ff" points="184.99,-97.56 195.55,-96.78 186.81,-90.8 184.99,-97.56"/>
</a>
</g>
</g>
<!-- Node6&#45;&gt;Node5 -->
<g id="edge6_Node000006_Node000005" class="edge">
<title>Node6&#45;&gt;Node5</title>
<g id="a_edge6_Node000006_Node000005"><a xlink:title=" ">
<path fill="none" stroke="#63b8ff" d="M171.65,-64.25C163.74,-64.25 155.59,-64.25 147.54,-64.25"/>
<polygon fill="#63b8ff" stroke="#63b8ff" points="171.52,-67.75 181.52,-64.25 171.52,-60.75 171.52,-67.75"/>
</a>
</g>
</g>
<!-- Node7 -->
<g id="Node000007" class="node">
<title>Node7</title>
<g id="a_Node000007"><a xlink:href="master_8impl_8h.html#af5a88d5f12f8e01fd7228f14c67b3b8f" target="_top" xlink:title="Parses a Modbus RTU slave response.">
<polygon fill="white" stroke="#666666" points="147.25,-30.5 0,-30.5 0,0 147.25,0 147.25,-30.5"/>
<text text-anchor="start" x="8" y="-17" font-family="Helvetica,sans-Serif" font-size="10.00">ModbusErrorInfomodbusParse</text>
<text text-anchor="middle" x="73.62" y="-5.75" font-family="Helvetica,sans-Serif" font-size="10.00">ResponseRTU</text>
</a>
</g>
</g>
<!-- Node6&#45;&gt;Node7 -->
<g id="edge7_Node000006_Node000007" class="edge">
<title>Node6&#45;&gt;Node7</title>
<g id="a_edge7_Node000006_Node000007"><a xlink:title=" ">
<path fill="none" stroke="#63b8ff" d="M190.76,-50.84C170.7,-44.7 146.79,-37.37 125.89,-30.96"/>
<polygon fill="#63b8ff" stroke="#63b8ff" points="189.73,-54.19 200.31,-53.77 191.78,-47.5 189.73,-54.19"/>
</a>
</g>
</g>
</g>
</svg>
