<?xml version="1.0" encoding="UTF-8" standalone="no"?>
<!DOCTYPE svg PUBLIC "-//W3C//DTD SVG 1.1//EN"
 "http://www.w3.org/Graphics/SVG/1.1/DTD/svg11.dtd">
<!-- Generated by graphviz version 12.2.0 (20241103.1931)
 -->
<!-- Title: modbusPackRTU Pages: 1 -->
<svg width="209pt" height="64pt"
 viewBox="0.00 0.00 208.75 64.25" xmlns="http://www.w3.org/2000/svg" xmlns:xlink="http://www.w3.org/1999/xlink">
<g id="graph0" class="graph" transform="scale(1 1) rotate(0) translate(4 60.25)">
<title>modbusPackRTU</title>
<!-- Node1 -->
<g id="Node000001" class="node">
<title>Node1</title>
<g id="a_Node000001"><a xlink:title="Sets up address and CRC in a Modbus RTU frame.">
<polygon fill="#999999" stroke="#666666" points="93.25,-37.25 0,-37.25 0,-18 93.25,-18 93.25,-37.25"/>
<text text-anchor="middle" x="46.62" y="-23.75" font-family="Helvetica,sans-Serif" font-size="10.00">modbusPackRTU</text>
</a>
</g>
</g>
<!-- Node2 -->
<g id="Node000002" class="node">
<title>Node2</title>
<g id="a_Node000002"><a xlink:href="base_8impl_8h.html#a11346a546b84663cd92cb30f4ffd1393" target="_top" xlink:title="Calculates 16&#45;bit Modbus CRC of provided data.">
<polygon fill="white" stroke="#666666" points="200.38,-56.25 129.62,-56.25 129.62,-37 200.38,-37 200.38,-56.25"/>
<text text-anchor="middle" x="165" y="-42.75" font-family="Helvetica,sans-Serif" font-size="10.00">modbusCRC</text>
</a>
</g>
</g>
<!-- Node1&#45;&gt;Node2 -->
<g id="edge1_Node000001_Node000002" class="edge">
<title>Node1&#45;&gt;Node2</title>
<g id="a_edge1_Node000001_Node000002"><a xlink:title=" ">
<path fill="none" stroke="#63b8ff" d="M93.62,-35.13C101.74,-36.46 110.19,-37.84 118.3,-39.16"/>
<polygon fill="#63b8ff" stroke="#63b8ff" points="117.54,-42.59 127.97,-40.74 118.67,-35.68 117.54,-42.59"/>
</a>
</g>
</g>
<!-- Node3 -->
<g id="Node000003" class="node">
<title>Node3</title>
<g id="a_Node000003"><a xlink:href="base_8h.html#af718da7da634f311c2ae8db6be3d9027" target="_top" xlink:title="Safely writes a little&#45;endian 16&#45;bit word to provided pointer.">
<polygon fill="white" stroke="#666666" points="200.75,-19.25 129.25,-19.25 129.25,0 200.75,0 200.75,-19.25"/>
<text text-anchor="middle" x="165" y="-5.75" font-family="Helvetica,sans-Serif" font-size="10.00">modbusWLE</text>
</a>
</g>
</g>
<!-- Node1&#45;&gt;Node3 -->
<g id="edge2_Node000001_Node000003" class="edge">
<title>Node1&#45;&gt;Node3</title>
<g id="a_edge2_Node000001_Node000003"><a xlink:title=" ">
<path fill="none" stroke="#63b8ff" d="M93.62,-20.51C101.56,-19.28 109.82,-18.01 117.76,-16.78"/>
<polygon fill="#63b8ff" stroke="#63b8ff" points="118.27,-20.24 127.61,-15.25 117.2,-13.32 118.27,-20.24"/>
</a>
</g>
</g>
</g>
</svg>
