<?xml version="1.0" encoding="UTF-8" standalone="no"?>
<!DOCTYPE svg PUBLIC "-//W3C//DTD SVG 1.1//EN"
 "http://www.w3.org/Graphics/SVG/1.1/DTD/svg11.dtd">
<!-- Generated by graphviz version 12.2.0 (20241103.1931)
 -->
<!-- Title: modbusBufferModePDU Pages: 1 -->
<svg width="312pt" height="88pt"
 viewBox="0.00 0.00 312.25 87.50" xmlns="http://www.w3.org/2000/svg" xmlns:xlink="http://www.w3.org/1999/xlink">
<g id="graph0" class="graph" transform="scale(1 1) rotate(0) translate(4 83.5)">
<title>modbusBufferModePDU</title>
<!-- Node1 -->
<g id="Node000001" class="node">
<title>Node1</title>
<g id="a_Node000001"><a xlink:title="Prepares buffer to only store a Modbus PDU.">
<polygon fill="#999999" stroke="#666666" points="304.25,-48.88 183.25,-48.88 183.25,-29.62 304.25,-29.62 304.25,-48.88"/>
<text text-anchor="middle" x="243.75" y="-35.38" font-family="Helvetica,sans-Serif" font-size="10.00">modbusBufferModePDU</text>
</a>
</g>
</g>
<!-- Node2 -->
<g id="Node000002" class="node">
<title>Node2</title>
<g id="a_Node000002"><a xlink:href="master_8impl_8h.html#aeafd31972668404a4108103c816284fb" target="_top" xlink:title="Begins a PDU&#45;only request.">
<polygon fill="white" stroke="#666666" points="146.88,-79.5 0.38,-79.5 0.38,-49 146.88,-49 146.88,-79.5"/>
<text text-anchor="start" x="8.38" y="-66" font-family="Helvetica,sans-Serif" font-size="10.00">ModbusErrorInfomodbusBegin</text>
<text text-anchor="middle" x="73.62" y="-54.75" font-family="Helvetica,sans-Serif" font-size="10.00">RequestPDU</text>
</a>
</g>
</g>
<!-- Node1&#45;&gt;Node2 -->
<g id="edge1_Node000001_Node000002" class="edge">
<title>Node1&#45;&gt;Node2</title>
<g id="a_edge1_Node000001_Node000002"><a xlink:title=" ">
<path fill="none" stroke="#63b8ff" d="M171.67,-49.82C163.55,-51.03 155.27,-52.26 147.14,-53.47"/>
<polygon fill="#63b8ff" stroke="#63b8ff" points="172.13,-53.29 181.5,-48.36 171.1,-46.37 172.13,-53.29"/>
</a>
</g>
</g>
<!-- Node3 -->
<g id="Node000003" class="node">
<title>Node3</title>
<g id="a_Node000003"><a xlink:href="slave_8impl_8h.html#a058ced5bf6f7b57ed0c81512c0d7d014" target="_top" xlink:title="Parses provided PDU and generates PDU for the response frame.">
<polygon fill="white" stroke="#666666" points="147.25,-30.5 0,-30.5 0,0 147.25,0 147.25,-30.5"/>
<text text-anchor="start" x="8" y="-17" font-family="Helvetica,sans-Serif" font-size="10.00">ModbusErrorInfomodbusParse</text>
<text text-anchor="middle" x="73.62" y="-5.75" font-family="Helvetica,sans-Serif" font-size="10.00">RequestPDU</text>
</a>
</g>
</g>
<!-- Node1&#45;&gt;Node3 -->
<g id="edge2_Node000001_Node000003" class="edge">
<title>Node1&#45;&gt;Node3</title>
<g id="a_edge2_Node000001_Node000003"><a xlink:title=" ">
<path fill="none" stroke="#63b8ff" d="M171.86,-29.13C163.88,-27.99 155.73,-26.83 147.72,-25.68"/>
<polygon fill="#63b8ff" stroke="#63b8ff" points="171.11,-32.56 181.5,-30.51 172.1,-25.63 171.11,-32.56"/>
</a>
</g>
</g>
</g>
</svg>
