<?xml version="1.0" encoding="UTF-8" standalone="no"?>
<!DOCTYPE svg PUBLIC "-//W3C//DTD SVG 1.1//EN"
 "http://www.w3.org/Graphics/SVG/1.1/DTD/svg11.dtd">
<!-- Generated by graphviz version 12.2.0 (20241103.1931)
 -->
<!-- Title: modbusCheckRangeU16 Pages: 1 -->
<svg width="315pt" height="333pt"
 viewBox="0.00 0.00 315.25 332.50" xmlns="http://www.w3.org/2000/svg" xmlns:xlink="http://www.w3.org/1999/xlink">
<g id="graph0" class="graph" transform="scale(1 1) rotate(0) translate(4 328.5)">
<title>modbusCheckRangeU16</title>
<!-- Node1 -->
<g id="Node000001" class="node">
<title>Node1</title>
<g id="a_Node000001"><a xlink:title="Checks whether provided address range causes an uint16_t overflow.">
<polygon fill="#999999" stroke="#666666" points="307.25,-171.88 183.25,-171.88 183.25,-152.62 307.25,-152.62 307.25,-171.88"/>
<text text-anchor="middle" x="245.25" y="-158.38" font-family="Helvetica,sans-Serif" font-size="10.00">modbusCheckRangeU16</text>
</a>
</g>
</g>
<!-- Node2 -->
<g id="Node000002" class="node">
<title>Node2</title>
<g id="a_Node000002"><a xlink:href="master__func_8impl_8h.html#a2a17495474de4ed91efe8df2bf11d16f" target="_top" xlink:title="Read mutiple coils/discrete inputs/holding registers/input registers.">
<polygon fill="white" stroke="#666666" points="145.38,-324.5 1.88,-324.5 1.88,-294 145.38,-294 145.38,-324.5"/>
<text text-anchor="start" x="9.88" y="-311" font-family="Helvetica,sans-Serif" font-size="10.00">ModbusErrorInfomodbusBuild</text>
<text text-anchor="middle" x="73.62" y="-299.75" font-family="Helvetica,sans-Serif" font-size="10.00">Request01020304</text>
</a>
</g>
</g>
<!-- Node1&#45;&gt;Node2 -->
<g id="edge1_Node000001_Node000002" class="edge">
<title>Node1&#45;&gt;Node2</title>
<g id="a_edge1_Node000001_Node000002"><a xlink:title=" ">
<path fill="none" stroke="#63b8ff" d="M233.56,-181.79C217.95,-208.58 186.48,-256.52 147.25,-284.25 142.24,-287.79 136.69,-290.87 130.95,-293.53"/>
<polygon fill="#63b8ff" stroke="#63b8ff" points="236.45,-183.78 238.34,-173.35 230.36,-180.33 236.45,-183.78"/>
</a>
</g>
</g>
<!-- Node3 -->
<g id="Node000003" class="node">
<title>Node3</title>
<g id="a_Node000003"><a xlink:href="master__func_8impl_8h.html#a9ca285925fdd221a3f59d591e7c236b9" target="_top" xlink:title="Write multiple coils.">
<polygon fill="white" stroke="#666666" points="145.38,-275.5 1.88,-275.5 1.88,-245 145.38,-245 145.38,-275.5"/>
<text text-anchor="start" x="9.88" y="-262" font-family="Helvetica,sans-Serif" font-size="10.00">ModbusErrorInfomodbusBuild</text>
<text text-anchor="middle" x="73.62" y="-250.75" font-family="Helvetica,sans-Serif" font-size="10.00">Request15</text>
</a>
</g>
</g>
<!-- Node1&#45;&gt;Node3 -->
<g id="edge2_Node000001_Node000003" class="edge">
<title>Node1&#45;&gt;Node3</title>
<g id="a_edge2_Node000001_Node000003"><a xlink:title=" ">
<path fill="none" stroke="#63b8ff" d="M224.9,-179.73C206.16,-195.92 176.39,-219.77 147.25,-235.25 140.77,-238.69 133.73,-241.81 126.66,-244.58"/>
<polygon fill="#63b8ff" stroke="#63b8ff" points="227.06,-182.49 232.26,-173.26 222.44,-177.24 227.06,-182.49"/>
</a>
</g>
</g>
<!-- Node4 -->
<g id="Node000004" class="node">
<title>Node4</title>
<g id="a_Node000004"><a xlink:href="master__func_8impl_8h.html#ac887d4fcbfe16f37d1b829309c374795" target="_top" xlink:title="Write multiple holding registers.">
<polygon fill="white" stroke="#666666" points="145.38,-226.5 1.88,-226.5 1.88,-196 145.38,-196 145.38,-226.5"/>
<text text-anchor="start" x="9.88" y="-213" font-family="Helvetica,sans-Serif" font-size="10.00">ModbusErrorInfomodbusBuild</text>
<text text-anchor="middle" x="73.62" y="-201.75" font-family="Helvetica,sans-Serif" font-size="10.00">Request16</text>
</a>
</g>
</g>
<!-- Node1&#45;&gt;Node4 -->
<g id="edge3_Node000001_Node000004" class="edge">
<title>Node1&#45;&gt;Node4</title>
<g id="a_edge3_Node000001_Node000004"><a xlink:title=" ">
<path fill="none" stroke="#63b8ff" d="M198.73,-175.4C177.27,-181.6 151.5,-189.04 129.02,-195.54"/>
<polygon fill="#63b8ff" stroke="#63b8ff" points="199.42,-178.84 208.06,-172.7 197.48,-172.12 199.42,-178.84"/>
</a>
</g>
</g>
<!-- Node5 -->
<g id="Node000005" class="node">
<title>Node5</title>
<g id="a_Node000005"><a xlink:href="slave__func_8impl_8h.html#a648853599bb5c890d3dc98e12be07b0c" target="_top" xlink:title="Handles requests 01, 02, 03 and 04 (Read Multiple XX) and generates response.">
<polygon fill="white" stroke="#666666" points="147.25,-177.5 0,-177.5 0,-147 147.25,-147 147.25,-177.5"/>
<text text-anchor="start" x="8" y="-164" font-family="Helvetica,sans-Serif" font-size="10.00">ModbusErrorInfomodbusParse</text>
<text text-anchor="middle" x="73.62" y="-152.75" font-family="Helvetica,sans-Serif" font-size="10.00">Request01020304</text>
</a>
</g>
</g>
<!-- Node1&#45;&gt;Node5 -->
<g id="edge4_Node000001_Node000005" class="edge">
<title>Node1&#45;&gt;Node5</title>
<g id="a_edge4_Node000001_Node000005"><a xlink:title=" ">
<path fill="none" stroke="#63b8ff" d="M171.54,-162.25C163.62,-162.25 155.55,-162.25 147.62,-162.25"/>
<polygon fill="#63b8ff" stroke="#63b8ff" points="171.5,-165.75 181.5,-162.25 171.5,-158.75 171.5,-165.75"/>
</a>
</g>
</g>
<!-- Node6 -->
<g id="Node000006" class="node">
<title>Node6</title>
<g id="a_Node000006"><a xlink:href="slave__func_8impl_8h.html#a4ee99d7a0fea397f6bf53fafbdc139e1" target="_top" xlink:title="Handles requests 15 and 16 (Write Multiple XX) and generates response.">
<polygon fill="white" stroke="#666666" points="147.25,-128.5 0,-128.5 0,-98 147.25,-98 147.25,-128.5"/>
<text text-anchor="start" x="8" y="-115" font-family="Helvetica,sans-Serif" font-size="10.00">ModbusErrorInfomodbusParse</text>
<text text-anchor="middle" x="73.62" y="-103.75" font-family="Helvetica,sans-Serif" font-size="10.00">Request1516</text>
</a>
</g>
</g>
<!-- Node1&#45;&gt;Node6 -->
<g id="edge5_Node000001_Node000006" class="edge">
<title>Node1&#45;&gt;Node6</title>
<g id="a_edge5_Node000001_Node000006"><a xlink:title=" ">
<path fill="none" stroke="#63b8ff" d="M198.73,-149.1C177.27,-142.9 151.5,-135.46 129.02,-128.96"/>
<polygon fill="#63b8ff" stroke="#63b8ff" points="197.48,-152.38 208.06,-151.8 199.42,-145.66 197.48,-152.38"/>
</a>
</g>
</g>
<!-- Node7 -->
<g id="Node000007" class="node">
<title>Node7</title>
<g id="a_Node000007"><a xlink:href="master__func_8impl_8h.html#a6956bac7f2cf05dd654da656048bfe2b" target="_top" xlink:title="Parses response to requests 01, 02, 03 and 04.">
<polygon fill="white" stroke="#666666" points="147.25,-79.5 0,-79.5 0,-49 147.25,-49 147.25,-79.5"/>
<text text-anchor="start" x="8" y="-66" font-family="Helvetica,sans-Serif" font-size="10.00">ModbusErrorInfomodbusParse</text>
<text text-anchor="middle" x="73.62" y="-54.75" font-family="Helvetica,sans-Serif" font-size="10.00">Response01020304</text>
</a>
</g>
</g>
<!-- Node1&#45;&gt;Node7 -->
<g id="edge6_Node000001_Node000007" class="edge">
<title>Node1&#45;&gt;Node7</title>
<g id="a_edge6_Node000001_Node000007"><a xlink:title=" ">
<path fill="none" stroke="#63b8ff" d="M224.9,-144.77C206.16,-128.58 176.39,-104.73 147.25,-89.25 140.77,-85.81 133.73,-82.69 126.66,-79.92"/>
<polygon fill="#63b8ff" stroke="#63b8ff" points="222.44,-147.26 232.26,-151.24 227.06,-142.01 222.44,-147.26"/>
</a>
</g>
</g>
<!-- Node8 -->
<g id="Node000008" class="node">
<title>Node8</title>
<g id="a_Node000008"><a xlink:href="master__func_8impl_8h.html#acc34cc2d685590f9e302e402acef8f06" target="_top" xlink:title="Parses response to requests 15 and 16 (write mutliple regsiters/coils)">
<polygon fill="white" stroke="#666666" points="147.25,-30.5 0,-30.5 0,0 147.25,0 147.25,-30.5"/>
<text text-anchor="start" x="8" y="-17" font-family="Helvetica,sans-Serif" font-size="10.00">ModbusErrorInfomodbusParse</text>
<text text-anchor="middle" x="73.62" y="-5.75" font-family="Helvetica,sans-Serif" font-size="10.00">Response1516</text>
</a>
</g>
</g>
<!-- Node1&#45;&gt;Node8 -->
<g id="edge7_Node000001_Node000008" class="edge">
<title>Node1&#45;&gt;Node8</title>
<g id="a_edge7_Node000001_Node000008"><a xlink:title=" ">
<path fill="none" stroke="#63b8ff" d="M233.56,-142.71C217.95,-115.92 186.48,-67.98 147.25,-40.25 142.24,-36.71 136.69,-33.63 130.95,-30.97"/>
<polygon fill="#63b8ff" stroke="#63b8ff" points="230.36,-144.17 238.34,-151.15 236.45,-140.72 230.36,-144.17"/>
</a>
</g>
</g>
</g>
</svg>
