<?xml version="1.0" encoding="UTF-8" standalone="no"?>
<!DOCTYPE svg PUBLIC "-//W3C//DTD SVG 1.1//EN"
 "http://www.w3.org/Graphics/SVG/1.1/DTD/svg11.dtd">
<!-- Generated by graphviz version 12.2.0 (20241103.1931)
 -->
<!-- Title: modbusBufferFree Pages: 1 -->
<svg width="600pt" height="187pt"
 viewBox="0.00 0.00 600.00 186.88" xmlns="http://www.w3.org/2000/svg" xmlns:xlink="http://www.w3.org/1999/xlink">
<g id="graph0" class="graph" transform="scale(1 1) rotate(0) translate(4 182.88)">
<title>modbusBufferFree</title>
<!-- Node1 -->
<g id="Node000001" class="node">
<title>Node1</title>
<g id="a_Node000001"><a xlink:title="Frees memory allocated inside the buffer.">
<polygon fill="#999999" stroke="#666666" points="592,-104.88 496.5,-104.88 496.5,-85.62 592,-85.62 592,-104.88"/>
<text text-anchor="middle" x="544.25" y="-91.38" font-family="Helvetica,sans-Serif" font-size="10.00">modbusBufferFree</text>
</a>
</g>
</g>
<!-- Node2 -->
<g id="Node000002" class="node">
<title>Node2</title>
<g id="a_Node000002"><a xlink:href="base_8impl_8h.html#ac4ff5a6ae685570f045448e76e518a0c" target="_top" xlink:title="Equivalent of modbusBufferFree() \copydetail modbusBufferFree()">
<polygon fill="white" stroke="#666666" points="445.88,-141.88 336.88,-141.88 336.88,-122.62 445.88,-122.62 445.88,-141.88"/>
<text text-anchor="middle" x="391.38" y="-128.38" font-family="Helvetica,sans-Serif" font-size="10.00">modbusBufferDestroy</text>
</a>
</g>
</g>
<!-- Node1&#45;&gt;Node2 -->
<g id="edge1_Node000001_Node000002" class="edge">
<title>Node1&#45;&gt;Node2</title>
<g id="a_edge1_Node000001_Node000002"><a xlink:title=" ">
<path fill="none" stroke="#63b8ff" d="M490.95,-108.08C472.16,-112.68 451.26,-117.81 433.55,-122.15"/>
<polygon fill="#63b8ff" stroke="#63b8ff" points="491.67,-111.5 500.55,-105.72 490.01,-104.7 491.67,-111.5"/>
</a>
</g>
</g>
<!-- Node7 -->
<g id="Node000007" class="node">
<title>Node7</title>
<g id="a_Node000007"><a xlink:href="master_8h.html#a040a82085ce05ff95c53d3dca4c3acfd" target="_top" xlink:title="Frees memory allocated for master&#39;s request frame.">
<polygon fill="white" stroke="#666666" points="459.38,-104.88 323.38,-104.88 323.38,-85.62 459.38,-85.62 459.38,-104.88"/>
<text text-anchor="middle" x="391.38" y="-91.38" font-family="Helvetica,sans-Serif" font-size="10.00">modbusMasterFreeRequest</text>
</a>
</g>
</g>
<!-- Node1&#45;&gt;Node7 -->
<g id="edge6_Node000001_Node000007" class="edge">
<title>Node1&#45;&gt;Node7</title>
<g id="a_edge6_Node000001_Node000007"><a xlink:title=" ">
<path fill="none" stroke="#63b8ff" d="M484.92,-95.25C476.68,-95.25 468.15,-95.25 459.75,-95.25"/>
<polygon fill="#63b8ff" stroke="#63b8ff" points="484.83,-98.75 494.83,-95.25 484.83,-91.75 484.83,-98.75"/>
</a>
</g>
</g>
<!-- Node9 -->
<g id="Node000009" class="node">
<title>Node9</title>
<g id="a_Node000009"><a xlink:href="slave_8h.html#aac289ce160ea61287c98e8a1ee4353d5" target="_top" xlink:title="Frees memory allocated for slave&#39;s response frame.">
<polygon fill="white" stroke="#666666" points="460.5,-67.88 322.25,-67.88 322.25,-48.62 460.5,-48.62 460.5,-67.88"/>
<text text-anchor="middle" x="391.38" y="-54.38" font-family="Helvetica,sans-Serif" font-size="10.00">modbusSlaveFreeResponse</text>
</a>
</g>
</g>
<!-- Node1&#45;&gt;Node9 -->
<g id="edge8_Node000001_Node000009" class="edge">
<title>Node1&#45;&gt;Node9</title>
<g id="a_edge8_Node000001_Node000009"><a xlink:title=" ">
<path fill="none" stroke="#63b8ff" d="M490.95,-82.42C472.16,-77.82 451.26,-72.69 433.55,-68.35"/>
<polygon fill="#63b8ff" stroke="#63b8ff" points="490.01,-85.8 500.55,-84.78 491.67,-79 490.01,-85.8"/>
</a>
</g>
</g>
<!-- Node3 -->
<g id="Node000003" class="node">
<title>Node3</title>
<g id="a_Node000003"><a xlink:href="master_8impl_8h.html#a5fe38fae0f89de04fa616d105f660d25" target="_top" xlink:title="Deinitializes a ModbusMaster struct.">
<polygon fill="white" stroke="#666666" points="269.38,-178.88 155.88,-178.88 155.88,-159.62 269.38,-159.62 269.38,-178.88"/>
<text text-anchor="middle" x="212.62" y="-165.38" font-family="Helvetica,sans-Serif" font-size="10.00">modbusMasterDestroy</text>
</a>
</g>
</g>
<!-- Node2&#45;&gt;Node3 -->
<g id="edge2_Node000002_Node000003" class="edge">
<title>Node2&#45;&gt;Node3</title>
<g id="a_edge2_Node000002_Node000003"><a xlink:title=" ">
<path fill="none" stroke="#63b8ff" d="M330.96,-144.69C308.48,-149.39 283.19,-154.69 261.86,-159.15"/>
<polygon fill="#63b8ff" stroke="#63b8ff" points="331.53,-148.15 340.6,-142.67 330.09,-141.29 331.53,-148.15"/>
</a>
</g>
</g>
<!-- Node5 -->
<g id="Node000005" class="node">
<title>Node5</title>
<g id="a_Node000005"><a xlink:href="slave_8impl_8h.html#a70695c3b7355bc0a3e6d49c46a4eef1f" target="_top" xlink:title="Frees memory allocated in the ModbusSlave struct.">
<polygon fill="white" stroke="#666666" points="266.75,-141.88 158.5,-141.88 158.5,-122.62 266.75,-122.62 266.75,-141.88"/>
<text text-anchor="middle" x="212.62" y="-128.38" font-family="Helvetica,sans-Serif" font-size="10.00">modbusSlaveDestroy</text>
</a>
</g>
</g>
<!-- Node2&#45;&gt;Node5 -->
<g id="edge4_Node000002_Node000005" class="edge">
<title>Node2&#45;&gt;Node5</title>
<g id="a_edge4_Node000002_Node000005"><a xlink:title=" ">
<path fill="none" stroke="#63b8ff" d="M325.03,-132.25C305.92,-132.25 285.26,-132.25 266.98,-132.25"/>
<polygon fill="#63b8ff" stroke="#63b8ff" points="324.87,-135.75 334.87,-132.25 324.87,-128.75 324.87,-135.75"/>
</a>
</g>
</g>
<!-- Node4 -->
<g id="Node000004" class="node">
<title>Node4</title>
<g id="a_Node000004"><a xlink:href="classllm_1_1Master.html#adae54d760d1eb2f0babcaff59325376d" target="_top" xlink:title=" ">
<polygon fill="white" stroke="#666666" points="103,-178.88 0,-178.88 0,-159.62 103,-159.62 103,-178.88"/>
<text text-anchor="middle" x="51.5" y="-165.38" font-family="Helvetica,sans-Serif" font-size="10.00">llm::Master::~Master</text>
</a>
</g>
</g>
<!-- Node3&#45;&gt;Node4 -->
<g id="edge3_Node000003_Node000004" class="edge">
<title>Node3&#45;&gt;Node4</title>
<g id="a_edge3_Node000003_Node000004"><a xlink:title=" ">
<path fill="none" stroke="#63b8ff" d="M144.18,-169.25C130.49,-169.25 116.31,-169.25 103.32,-169.25"/>
<polygon fill="#63b8ff" stroke="#63b8ff" points="144.01,-172.75 154.01,-169.25 144.01,-165.75 144.01,-172.75"/>
</a>
</g>
</g>
<!-- Node6 -->
<g id="Node000006" class="node">
<title>Node6</title>
<g id="a_Node000006"><a xlink:href="classllm_1_1Slave.html#a46b8ac6f2b8dee5550d18bd7f1dd355d" target="_top" xlink:title=" ">
<polygon fill="white" stroke="#666666" points="97.75,-141.88 5.25,-141.88 5.25,-122.62 97.75,-122.62 97.75,-141.88"/>
<text text-anchor="middle" x="51.5" y="-128.38" font-family="Helvetica,sans-Serif" font-size="10.00">llm::Slave::~Slave</text>
</a>
</g>
</g>
<!-- Node5&#45;&gt;Node6 -->
<g id="edge5_Node000005_Node000006" class="edge">
<title>Node5&#45;&gt;Node6</title>
<g id="a_edge5_Node000005_Node000006"><a xlink:title=" ">
<path fill="none" stroke="#63b8ff" d="M147.01,-132.25C130.61,-132.25 113.32,-132.25 98.08,-132.25"/>
<polygon fill="#63b8ff" stroke="#63b8ff" points="146.68,-135.75 156.68,-132.25 146.68,-128.75 146.68,-135.75"/>
</a>
</g>
</g>
<!-- Node8 -->
<g id="Node000008" class="node">
<title>Node8</title>
<g id="a_Node000008"><a xlink:href="classllm_1_1Master.html#a6c3883d0f98a5b4255a02f46f33c2423" target="_top" xlink:title=" ">
<polygon fill="white" stroke="#666666" points="272.75,-104.88 152.5,-104.88 152.5,-85.62 272.75,-85.62 272.75,-104.88"/>
<text text-anchor="middle" x="212.62" y="-91.38" font-family="Helvetica,sans-Serif" font-size="10.00">llm::Master::freeRequest</text>
</a>
</g>
</g>
<!-- Node7&#45;&gt;Node8 -->
<g id="edge7_Node000007_Node000008" class="edge">
<title>Node7&#45;&gt;Node8</title>
<g id="a_edge7_Node000007_Node000008"><a xlink:title=" ">
<path fill="none" stroke="#63b8ff" d="M311.78,-95.25C298.84,-95.25 285.62,-95.25 273.24,-95.25"/>
<polygon fill="#63b8ff" stroke="#63b8ff" points="311.54,-98.75 321.54,-95.25 311.54,-91.75 311.54,-98.75"/>
</a>
</g>
</g>
<!-- Node10 -->
<g id="Node000010" class="node">
<title>Node10</title>
<g id="a_Node000010"><a xlink:href="classllm_1_1Slave.html#aadbd0a4dc7769b5c393d6dfe5a344b8a" target="_top" xlink:title=" ">
<polygon fill="white" stroke="#666666" points="273.88,-67.88 151.38,-67.88 151.38,-48.62 273.88,-48.62 273.88,-67.88"/>
<text text-anchor="middle" x="212.62" y="-54.38" font-family="Helvetica,sans-Serif" font-size="10.00">llm::Slave::freeResponse</text>
</a>
</g>
</g>
<!-- Node9&#45;&gt;Node10 -->
<g id="edge9_Node000009_Node000010" class="edge">
<title>Node9&#45;&gt;Node10</title>
<g id="a_edge9_Node000009_Node000010"><a xlink:title=" ">
<path fill="none" stroke="#63b8ff" d="M310.62,-58.25C298.35,-58.25 285.87,-58.25 274.12,-58.25"/>
<polygon fill="#63b8ff" stroke="#63b8ff" points="310.27,-61.75 320.27,-58.25 310.27,-54.75 310.27,-61.75"/>
</a>
</g>
</g>
<!-- Node11 -->
<g id="Node000011" class="node">
<title>Node11</title>
<g id="a_Node000011"><a xlink:href="slave_8impl_8h.html#afa8be870ae62f17ac8bc258714c2eb99" target="_top" xlink:title="Parses provided Modbus RTU request frame and generates a Modbus RTU response.">
<polygon fill="white" stroke="#666666" points="286.25,-30.5 139,-30.5 139,0 286.25,0 286.25,-30.5"/>
<text text-anchor="start" x="147" y="-17" font-family="Helvetica,sans-Serif" font-size="10.00">ModbusErrorInfomodbusParse</text>
<text text-anchor="middle" x="212.62" y="-5.75" font-family="Helvetica,sans-Serif" font-size="10.00">RequestRTU</text>
</a>
</g>
</g>
<!-- Node9&#45;&gt;Node11 -->
<g id="edge10_Node000009_Node000011" class="edge">
<title>Node9&#45;&gt;Node11</title>
<g id="a_edge10_Node000009_Node000011"><a xlink:title=" ">
<path fill="none" stroke="#63b8ff" d="M337.96,-45.5C319.25,-40.95 297.95,-35.76 278.32,-30.99"/>
<polygon fill="#63b8ff" stroke="#63b8ff" points="336.92,-48.85 347.46,-47.81 338.58,-42.05 336.92,-48.85"/>
</a>
</g>
</g>
</g>
</svg>
