<?xml version="1.0" encoding="UTF-8" standalone="no"?>
<!DOCTYPE svg PUBLIC "-//W3C//DTD SVG 1.1//EN"
 "http://www.w3.org/Graphics/SVG/1.1/DTD/svg11.dtd">
<!-- Generated by graphviz version 12.2.0 (20241103.1931)
 -->
<!-- Title: modbusGetRequestError Pages: 1 -->
<svg width="453pt" height="397pt"
 viewBox="0.00 0.00 452.75 397.25" xmlns="http://www.w3.org/2000/svg" xmlns:xlink="http://www.w3.org/1999/xlink">
<g id="graph0" class="graph" transform="scale(1 1) rotate(0) translate(4 393.25)">
<title>modbusGetRequestError</title>
<!-- Node1 -->
<g id="Node000001" class="node">
<title>Node1</title>
<g id="a_Node000001"><a xlink:title="Returns request error from ModbusErrorInfo.">
<polygon fill="#999999" stroke="#666666" points="444.75,-204.25 322.25,-204.25 322.25,-185 444.75,-185 444.75,-204.25"/>
<text text-anchor="middle" x="383.5" y="-190.75" font-family="Helvetica,sans-Serif" font-size="10.00">modbusGetRequestError</text>
</a>
</g>
</g>
<!-- Node2 -->
<g id="Node000002" class="node">
<title>Node2</title>
<g id="a_Node000002"><a xlink:href="namespacellm.html#a57bd253b3362a63c62c8c5b5b0391252" target="_top" xlink:title="Throws an exception based on ModbusErrorInfo.">
<polygon fill="white" stroke="#666666" points="286.25,-204.25 192.25,-204.25 192.25,-185 286.25,-185 286.25,-204.25"/>
<text text-anchor="middle" x="239.25" y="-190.75" font-family="Helvetica,sans-Serif" font-size="10.00">llm::throwErrorInfo</text>
</a>
</g>
</g>
<!-- Node1&#45;&gt;Node2 -->
<g id="edge1_Node000001_Node000002" class="edge">
<title>Node1&#45;&gt;Node2</title>
<g id="a_edge1_Node000001_Node000002"><a xlink:title=" ">
<path fill="none" stroke="#63b8ff" d="M310.36,-194.62C302.28,-194.62 294.22,-194.62 286.59,-194.62"/>
<polygon fill="#63b8ff" stroke="#63b8ff" points="310.25,-198.13 320.25,-194.63 310.25,-191.13 310.25,-198.13"/>
</a>
</g>
</g>
<!-- Node3 -->
<g id="Node000003" class="node">
<title>Node3</title>
<g id="a_Node000003"><a xlink:href="classllm_1_1Slave.html#ac915e0947f733a784a9069f5ff5b9737" target="_top" xlink:title=" ">
<polygon fill="white" stroke="#666666" points="151,-389.25 5.25,-389.25 5.25,-370 151,-370 151,-389.25"/>
<text text-anchor="middle" x="78.12" y="-375.75" font-family="Helvetica,sans-Serif" font-size="10.00">llm::Slave::buildExceptionPDU</text>
</a>
</g>
</g>
<!-- Node2&#45;&gt;Node3 -->
<g id="edge2_Node000002_Node000003" class="edge">
<title>Node2&#45;&gt;Node3</title>
<g id="a_edge2_Node000002_Node000003"><a xlink:title=" ">
<path fill="none" stroke="#63b8ff" d="M234.13,-215.29C225.9,-250.91 203.97,-323.68 156.25,-361.62 152.27,-364.79 147.83,-367.42 143.14,-369.6"/>
<polygon fill="#63b8ff" stroke="#63b8ff" points="237.48,-216.35 236.16,-205.84 230.63,-214.88 237.48,-216.35"/>
</a>
</g>
</g>
<!-- Node4 -->
<g id="Node000004" class="node">
<title>Node4</title>
<g id="a_Node000004"><a xlink:href="classllm_1_1Slave.html#a10e79600053c725e639225264d966e63" target="_top" xlink:title=" ">
<polygon fill="white" stroke="#666666" points="150.62,-352.25 5.62,-352.25 5.62,-333 150.62,-333 150.62,-352.25"/>
<text text-anchor="middle" x="78.12" y="-338.75" font-family="Helvetica,sans-Serif" font-size="10.00">llm::Slave::buildExceptionRTU</text>
</a>
</g>
</g>
<!-- Node2&#45;&gt;Node4 -->
<g id="edge3_Node000002_Node000004" class="edge">
<title>Node2&#45;&gt;Node4</title>
<g id="a_edge3_Node000002_Node000004"><a xlink:title=" ">
<path fill="none" stroke="#63b8ff" d="M231.07,-215.17C219.83,-244.23 195.23,-296.88 156.25,-324.62 151.77,-327.81 146.81,-330.45 141.62,-332.62"/>
<polygon fill="#63b8ff" stroke="#63b8ff" points="234.26,-216.64 234.44,-206.05 227.69,-214.22 234.26,-216.64"/>
</a>
</g>
</g>
<!-- Node5 -->
<g id="Node000005" class="node">
<title>Node5</title>
<g id="a_Node000005"><a xlink:href="classllm_1_1Slave.html#a844c37870a4e98bffc091ddfafb8f959" target="_top" xlink:title=" ">
<polygon fill="white" stroke="#666666" points="150.25,-315.25 6,-315.25 6,-296 150.25,-296 150.25,-315.25"/>
<text text-anchor="middle" x="78.12" y="-301.75" font-family="Helvetica,sans-Serif" font-size="10.00">llm::Slave::buildExceptionTCP</text>
</a>
</g>
</g>
<!-- Node2&#45;&gt;Node5 -->
<g id="edge4_Node000002_Node000005" class="edge">
<title>Node2&#45;&gt;Node5</title>
<g id="a_edge4_Node000002_Node000005"><a xlink:title=" ">
<path fill="none" stroke="#63b8ff" d="M226.33,-214.24C212.28,-235.65 186.91,-269.3 156.25,-287.62 150.94,-290.8 145.11,-293.41 139.11,-295.57"/>
<polygon fill="#63b8ff" stroke="#63b8ff" points="229.25,-216.18 231.65,-205.86 223.34,-212.43 229.25,-216.18"/>
</a>
</g>
</g>
<!-- Node6 -->
<g id="Node000006" class="node">
<title>Node6</title>
<g id="a_Node000006"><a xlink:href="classllm_1_1Master.html#ac2e598f20d2c576e74590d461cf75f97" target="_top" xlink:title=" ">
<polygon fill="white" stroke="#666666" points="127,-278.25 29.25,-278.25 29.25,-259 127,-259 127,-278.25"/>
<text text-anchor="middle" x="78.12" y="-264.75" font-family="Helvetica,sans-Serif" font-size="10.00">llm::Master::Master</text>
</a>
</g>
</g>
<!-- Node2&#45;&gt;Node6 -->
<g id="edge5_Node000002_Node000006" class="edge">
<title>Node2&#45;&gt;Node6</title>
<g id="a_edge5_Node000002_Node000006"><a xlink:title=" ">
<path fill="none" stroke="#63b8ff" d="M217.7,-211.86C201.84,-224.33 178.86,-240.68 156.25,-250.62 147.19,-254.61 137.12,-257.78 127.33,-260.27"/>
<polygon fill="#63b8ff" stroke="#63b8ff" points="219.83,-214.64 225.41,-205.63 215.43,-209.19 219.83,-214.64"/>
</a>
</g>
</g>
<!-- Node7 -->
<g id="Node000007" class="node">
<title>Node7</title>
<g id="a_Node000007"><a xlink:href="classllm_1_1Slave.html#af8cc9d8d58bf7f632f3f3cf7e6b9c84b" target="_top" xlink:title=" ">
<polygon fill="white" stroke="#666666" points="149.88,-241.25 6.38,-241.25 6.38,-222 149.88,-222 149.88,-241.25"/>
<text text-anchor="middle" x="78.12" y="-227.75" font-family="Helvetica,sans-Serif" font-size="10.00">llm::Slave::parseRequestPDU</text>
</a>
</g>
</g>
<!-- Node2&#45;&gt;Node7 -->
<g id="edge6_Node000002_Node000007" class="edge">
<title>Node2&#45;&gt;Node7</title>
<g id="a_edge6_Node000002_Node000007"><a xlink:title=" ">
<path fill="none" stroke="#63b8ff" d="M183.65,-207.32C163.69,-211.96 141.4,-217.14 122.55,-221.53"/>
<polygon fill="#63b8ff" stroke="#63b8ff" points="184.35,-210.75 193.29,-205.08 182.76,-203.93 184.35,-210.75"/>
</a>
</g>
</g>
<!-- Node8 -->
<g id="Node000008" class="node">
<title>Node8</title>
<g id="a_Node000008"><a xlink:href="classllm_1_1Slave.html#a001591b9a38b69cf29adc853872a09fe" target="_top" xlink:title=" ">
<polygon fill="white" stroke="#666666" points="149.5,-204.25 6.75,-204.25 6.75,-185 149.5,-185 149.5,-204.25"/>
<text text-anchor="middle" x="78.12" y="-190.75" font-family="Helvetica,sans-Serif" font-size="10.00">llm::Slave::parseRequestRTU</text>
</a>
</g>
</g>
<!-- Node2&#45;&gt;Node8 -->
<g id="edge7_Node000002_Node000008" class="edge">
<title>Node2&#45;&gt;Node8</title>
<g id="a_edge7_Node000002_Node000008"><a xlink:title=" ">
<path fill="none" stroke="#63b8ff" d="M180.42,-194.62C170.51,-194.62 160.11,-194.62 149.9,-194.62"/>
<polygon fill="#63b8ff" stroke="#63b8ff" points="180.28,-198.13 190.28,-194.63 180.28,-191.13 180.28,-198.13"/>
</a>
</g>
</g>
<!-- Node9 -->
<g id="Node000009" class="node">
<title>Node9</title>
<g id="a_Node000009"><a xlink:href="classllm_1_1Slave.html#a05169339916c3727c780c75157b399b9" target="_top" xlink:title=" ">
<polygon fill="white" stroke="#666666" points="149.12,-167.25 7.12,-167.25 7.12,-148 149.12,-148 149.12,-167.25"/>
<text text-anchor="middle" x="78.12" y="-153.75" font-family="Helvetica,sans-Serif" font-size="10.00">llm::Slave::parseRequestTCP</text>
</a>
</g>
</g>
<!-- Node2&#45;&gt;Node9 -->
<g id="edge8_Node000002_Node000009" class="edge">
<title>Node2&#45;&gt;Node9</title>
<g id="a_edge8_Node000002_Node000009"><a xlink:title=" ">
<path fill="none" stroke="#63b8ff" d="M183.65,-181.93C163.69,-177.29 141.4,-172.11 122.55,-167.72"/>
<polygon fill="#63b8ff" stroke="#63b8ff" points="182.76,-185.32 193.29,-184.17 184.35,-178.5 182.76,-185.32"/>
</a>
</g>
</g>
<!-- Node10 -->
<g id="Node000010" class="node">
<title>Node10</title>
<g id="a_Node000010"><a xlink:href="classllm_1_1Master.html#a39b0210172c76ef4dc9e43668daef7c9" target="_top" xlink:title=" ">
<polygon fill="white" stroke="#666666" points="156.25,-130.25 0,-130.25 0,-111 156.25,-111 156.25,-130.25"/>
<text text-anchor="middle" x="78.12" y="-116.75" font-family="Helvetica,sans-Serif" font-size="10.00">llm::Master::parseResponsePDU</text>
</a>
</g>
</g>
<!-- Node2&#45;&gt;Node10 -->
<g id="edge9_Node000002_Node000010" class="edge">
<title>Node2&#45;&gt;Node10</title>
<g id="a_edge9_Node000002_Node000010"><a xlink:title=" ">
<path fill="none" stroke="#63b8ff" d="M217.7,-177.39C201.84,-164.92 178.86,-148.57 156.25,-138.62 149.2,-135.53 141.55,-132.92 133.89,-130.74"/>
<polygon fill="#63b8ff" stroke="#63b8ff" points="215.43,-180.06 225.41,-183.62 219.83,-174.61 215.43,-180.06"/>
</a>
</g>
</g>
<!-- Node11 -->
<g id="Node000011" class="node">
<title>Node11</title>
<g id="a_Node000011"><a xlink:href="classllm_1_1Master.html#ab052e172e96808744ee43a8eff80b679" target="_top" xlink:title=" ">
<polygon fill="white" stroke="#666666" points="155.88,-93.25 0.38,-93.25 0.38,-74 155.88,-74 155.88,-93.25"/>
<text text-anchor="middle" x="78.12" y="-79.75" font-family="Helvetica,sans-Serif" font-size="10.00">llm::Master::parseResponseRTU</text>
</a>
</g>
</g>
<!-- Node2&#45;&gt;Node11 -->
<g id="edge10_Node000002_Node000011" class="edge">
<title>Node2&#45;&gt;Node11</title>
<g id="a_edge10_Node000002_Node000011"><a xlink:title=" ">
<path fill="none" stroke="#63b8ff" d="M226.33,-175.01C212.28,-153.6 186.91,-119.95 156.25,-101.62 150.94,-98.45 145.11,-95.84 139.11,-93.68"/>
<polygon fill="#63b8ff" stroke="#63b8ff" points="223.34,-176.82 231.65,-183.39 229.25,-173.07 223.34,-176.82"/>
</a>
</g>
</g>
<!-- Node12 -->
<g id="Node000012" class="node">
<title>Node12</title>
<g id="a_Node000012"><a xlink:href="classllm_1_1Master.html#ad1f614f5d44a61a8507ae34968fa7903" target="_top" xlink:title=" ">
<polygon fill="white" stroke="#666666" points="155.5,-56.25 0.75,-56.25 0.75,-37 155.5,-37 155.5,-56.25"/>
<text text-anchor="middle" x="78.12" y="-42.75" font-family="Helvetica,sans-Serif" font-size="10.00">llm::Master::parseResponseTCP</text>
</a>
</g>
</g>
<!-- Node2&#45;&gt;Node12 -->
<g id="edge11_Node000002_Node000012" class="edge">
<title>Node2&#45;&gt;Node12</title>
<g id="a_edge11_Node000002_Node000012"><a xlink:title=" ">
<path fill="none" stroke="#63b8ff" d="M231.07,-174.08C219.83,-145.02 195.23,-92.37 156.25,-64.62 151.77,-61.44 146.81,-58.8 141.62,-56.63"/>
<polygon fill="#63b8ff" stroke="#63b8ff" points="227.69,-175.03 234.44,-183.2 234.26,-172.61 227.69,-175.03"/>
</a>
</g>
</g>
<!-- Node13 -->
<g id="Node000013" class="node">
<title>Node13</title>
<g id="a_Node000013"><a xlink:href="classllm_1_1Slave.html#a6824a1d0fcfd26d8bedaa934f0abcf39" target="_top" xlink:title=" ">
<polygon fill="white" stroke="#666666" points="121.75,-19.25 34.5,-19.25 34.5,0 121.75,0 121.75,-19.25"/>
<text text-anchor="middle" x="78.12" y="-5.75" font-family="Helvetica,sans-Serif" font-size="10.00">llm::Slave::Slave</text>
</a>
</g>
</g>
<!-- Node2&#45;&gt;Node13 -->
<g id="edge12_Node000002_Node000013" class="edge">
<title>Node2&#45;&gt;Node13</title>
<g id="a_edge12_Node000002_Node000013"><a xlink:title=" ">
<path fill="none" stroke="#63b8ff" d="M234.13,-173.96C225.9,-138.34 203.97,-65.57 156.25,-27.62 146.56,-19.92 134.16,-15.41 122.14,-12.8"/>
<polygon fill="#63b8ff" stroke="#63b8ff" points="230.63,-174.37 236.16,-183.41 237.48,-172.9 230.63,-174.37"/>
</a>
</g>
</g>
</g>
</svg>
