<?xml version="1.0" encoding="UTF-8" standalone="no"?>
<!DOCTYPE svg PUBLIC "-//W3C//DTD SVG 1.1//EN"
 "http://www.w3.org/Graphics/SVG/1.1/DTD/svg11.dtd">
<!-- Generated by graphviz version 12.2.0 (20241103.1931)
 -->
<!-- Title: modbusUnpackRTU Pages: 1 -->
<svg width="219pt" height="64pt"
 viewBox="0.00 0.00 219.25 64.25" xmlns="http://www.w3.org/2000/svg" xmlns:xlink="http://www.w3.org/1999/xlink">
<g id="graph0" class="graph" transform="scale(1 1) rotate(0) translate(4 60.25)">
<title>modbusUnpackRTU</title>
<!-- Node1 -->
<g id="Node000001" class="node">
<title>Node1</title>
<g id="a_Node000001"><a xlink:title="Unpacks data from a Modbus RTU frame and optionally checks CRC.">
<polygon fill="#999999" stroke="#666666" points="104.5,-37.25 0,-37.25 0,-18 104.5,-18 104.5,-37.25"/>
<text text-anchor="middle" x="52.25" y="-23.75" font-family="Helvetica,sans-Serif" font-size="10.00">modbusUnpackRTU</text>
</a>
</g>
</g>
<!-- Node2 -->
<g id="Node000002" class="node">
<title>Node2</title>
<g id="a_Node000002"><a xlink:href="base_8impl_8h.html#a11346a546b84663cd92cb30f4ffd1393" target="_top" xlink:title="Calculates 16&#45;bit Modbus CRC of provided data.">
<polygon fill="white" stroke="#666666" points="211.25,-56.25 140.5,-56.25 140.5,-37 211.25,-37 211.25,-56.25"/>
<text text-anchor="middle" x="175.88" y="-42.75" font-family="Helvetica,sans-Serif" font-size="10.00">modbusCRC</text>
</a>
</g>
</g>
<!-- Node1&#45;&gt;Node2 -->
<g id="edge1_Node000001_Node000002" class="edge">
<title>Node1&#45;&gt;Node2</title>
<g id="a_edge1_Node000001_Node000002"><a xlink:title=" ">
<path fill="none" stroke="#63b8ff" d="M104.83,-35.68C112.83,-36.93 121.06,-38.22 128.93,-39.45"/>
<polygon fill="#63b8ff" stroke="#63b8ff" points="128.22,-42.88 138.64,-40.96 129.3,-35.96 128.22,-42.88"/>
</a>
</g>
</g>
<!-- Node3 -->
<g id="Node000003" class="node">
<title>Node3</title>
<g id="a_Node000003"><a xlink:href="base_8h.html#a0fc3f293c746d39a93e4c1158f792404" target="_top" xlink:title="Safely reads a little&#45;endian 16&#45;bit word from provided pointer.">
<polygon fill="white" stroke="#666666" points="210.5,-19.25 141.25,-19.25 141.25,0 210.5,0 210.5,-19.25"/>
<text text-anchor="middle" x="175.88" y="-5.75" font-family="Helvetica,sans-Serif" font-size="10.00">modbusRLE</text>
</a>
</g>
</g>
<!-- Node1&#45;&gt;Node3 -->
<g id="edge2_Node000001_Node000003" class="edge">
<title>Node1&#45;&gt;Node3</title>
<g id="a_edge2_Node000001_Node000003"><a xlink:title=" ">
<path fill="none" stroke="#63b8ff" d="M104.83,-19.99C113.1,-18.77 121.61,-17.51 129.72,-16.31"/>
<polygon fill="#63b8ff" stroke="#63b8ff" points="129.97,-19.81 139.35,-14.88 128.95,-12.88 129.97,-19.81"/>
</a>
</g>
</g>
</g>
</svg>
