<?xml version="1.0" encoding="UTF-8" standalone="no"?>
<!DOCTYPE svg PUBLIC "-//W3C//DTD SVG 1.1//EN"
 "http://www.w3.org/Graphics/SVG/1.1/DTD/svg11.dtd">
<!-- Generated by graphviz version 12.2.0 (20241103.1931)
 -->
<!-- Title: modbusIsOk Pages: 1 -->
<svg width="272pt" height="568pt"
 viewBox="0.00 0.00 271.75 568.25" xmlns="http://www.w3.org/2000/svg" xmlns:xlink="http://www.w3.org/1999/xlink">
<g id="graph0" class="graph" transform="scale(1 1) rotate(0) translate(4 564.25)">
<title>modbusIsOk</title>
<!-- Node1 -->
<g id="Node000001" class="node">
<title>Node1</title>
<g id="a_Node000001"><a xlink:title="Checks if ModbusErrorInfo contains an error.">
<polygon fill="#999999" stroke="#666666" points="263.75,-271.25 192.25,-271.25 192.25,-252 263.75,-252 263.75,-271.25"/>
<text text-anchor="middle" x="228" y="-257.75" font-family="Helvetica,sans-Serif" font-size="10.00">modbusIsOk</text>
</a>
</g>
</g>
<!-- Node2 -->
<g id="Node000002" class="node">
<title>Node2</title>
<g id="a_Node000002"><a xlink:href="classllm_1_1Slave.html#ac915e0947f733a784a9069f5ff5b9737" target="_top" xlink:title=" ">
<polygon fill="white" stroke="#666666" points="151,-560.25 5.25,-560.25 5.25,-541 151,-541 151,-560.25"/>
<text text-anchor="middle" x="78.12" y="-546.75" font-family="Helvetica,sans-Serif" font-size="10.00">llm::Slave::buildExceptionPDU</text>
</a>
</g>
</g>
<!-- Node1&#45;&gt;Node2 -->
<g id="edge1_Node000001_Node000002" class="edge">
<title>Node1&#45;&gt;Node2</title>
<g id="a_edge1_Node000001_Node000002"><a xlink:title=" ">
<path fill="none" stroke="#63b8ff" d="M224.32,-282.71C216.6,-340.11 192.52,-497.29 156.25,-532.62 153,-535.79 149.31,-538.44 145.34,-540.65"/>
<polygon fill="#63b8ff" stroke="#63b8ff" points="227.76,-283.36 225.59,-272.99 220.82,-282.45 227.76,-283.36"/>
</a>
</g>
</g>
<!-- Node3 -->
<g id="Node000003" class="node">
<title>Node3</title>
<g id="a_Node000003"><a xlink:href="classllm_1_1Slave.html#a10e79600053c725e639225264d966e63" target="_top" xlink:title=" ">
<polygon fill="white" stroke="#666666" points="150.62,-523.25 5.62,-523.25 5.62,-504 150.62,-504 150.62,-523.25"/>
<text text-anchor="middle" x="78.12" y="-509.75" font-family="Helvetica,sans-Serif" font-size="10.00">llm::Slave::buildExceptionRTU</text>
</a>
</g>
</g>
<!-- Node1&#45;&gt;Node3 -->
<g id="edge2_Node000001_Node000003" class="edge">
<title>Node1&#45;&gt;Node3</title>
<g id="a_edge2_Node000001_Node000003"><a xlink:title=" ">
<path fill="none" stroke="#63b8ff" d="M227.2,-282.78C226.42,-328.68 217.81,-437.9 156.25,-495.62 152.94,-498.73 149.2,-501.33 145.2,-503.51"/>
<polygon fill="#63b8ff" stroke="#63b8ff" points="230.7,-282.91 227.24,-272.89 223.7,-282.88 230.7,-282.91"/>
</a>
</g>
</g>
<!-- Node4 -->
<g id="Node000004" class="node">
<title>Node4</title>
<g id="a_Node000004"><a xlink:href="classllm_1_1Slave.html#a844c37870a4e98bffc091ddfafb8f959" target="_top" xlink:title=" ">
<polygon fill="white" stroke="#666666" points="150.25,-486.25 6,-486.25 6,-467 150.25,-467 150.25,-486.25"/>
<text text-anchor="middle" x="78.12" y="-472.75" font-family="Helvetica,sans-Serif" font-size="10.00">llm::Slave::buildExceptionTCP</text>
</a>
</g>
</g>
<!-- Node1&#45;&gt;Node4 -->
<g id="edge3_Node000001_Node000004" class="edge">
<title>Node1&#45;&gt;Node4</title>
<g id="a_edge3_Node000001_Node000004"><a xlink:title=" ">
<path fill="none" stroke="#63b8ff" d="M225.69,-282.84C222.02,-323.14 208.17,-410.88 156.25,-457.62 152.25,-461.22 147.68,-464.17 142.81,-466.57"/>
<polygon fill="#63b8ff" stroke="#63b8ff" points="229.16,-283.29 226.44,-273.05 222.18,-282.75 229.16,-283.29"/>
</a>
</g>
</g>
<!-- Node5 -->
<g id="Node000005" class="node">
<title>Node5</title>
<g id="a_Node000005"><a xlink:href="slave_8impl_8h.html#a35f4ed7bc41f88d3fd6966842cf6a977" target="_top" xlink:title="Builds an exception PDU.">
<polygon fill="white" stroke="#666666" points="149.88,-448.88 6.38,-448.88 6.38,-418.38 149.88,-418.38 149.88,-448.88"/>
<text text-anchor="start" x="14.38" y="-435.38" font-family="Helvetica,sans-Serif" font-size="10.00">ModbusErrorInfomodbusBuild</text>
<text text-anchor="middle" x="78.12" y="-424.12" font-family="Helvetica,sans-Serif" font-size="10.00">ExceptionPDU</text>
</a>
</g>
</g>
<!-- Node1&#45;&gt;Node5 -->
<g id="edge4_Node000001_Node000005" class="edge">
<title>Node1&#45;&gt;Node5</title>
<g id="a_edge4_Node000001_Node000005"><a xlink:title=" ">
<path fill="none" stroke="#63b8ff" d="M222.51,-282.49C214.61,-314.23 195.24,-374.58 156.25,-408.62 152.12,-412.24 147.45,-415.33 142.51,-417.97"/>
<polygon fill="#63b8ff" stroke="#63b8ff" points="225.87,-283.49 224.73,-272.96 219.05,-281.9 225.87,-283.49"/>
</a>
</g>
</g>
<!-- Node6 -->
<g id="Node000006" class="node">
<title>Node6</title>
<g id="a_Node000006"><a xlink:href="slave_8impl_8h.html#a90b11d29191ccfd6393ea9be9a7e65e5" target="_top" xlink:title="Builds a Modbus RTU exception.">
<polygon fill="white" stroke="#666666" points="149.88,-399.88 6.38,-399.88 6.38,-369.38 149.88,-369.38 149.88,-399.88"/>
<text text-anchor="start" x="14.38" y="-386.38" font-family="Helvetica,sans-Serif" font-size="10.00">ModbusErrorInfomodbusBuild</text>
<text text-anchor="middle" x="78.12" y="-375.12" font-family="Helvetica,sans-Serif" font-size="10.00">ExceptionRTU</text>
</a>
</g>
</g>
<!-- Node1&#45;&gt;Node6 -->
<g id="edge5_Node000001_Node000006" class="edge">
<title>Node1&#45;&gt;Node6</title>
<g id="a_edge5_Node000001_Node000006"><a xlink:title=" ">
<path fill="none" stroke="#63b8ff" d="M217.37,-281.82C205.81,-303.98 184.42,-339.11 156.25,-359.62 151.36,-363.19 145.93,-366.26 140.29,-368.9"/>
<polygon fill="#63b8ff" stroke="#63b8ff" points="220.48,-283.43 221.82,-272.92 214.22,-280.29 220.48,-283.43"/>
</a>
</g>
</g>
<!-- Node7 -->
<g id="Node000007" class="node">
<title>Node7</title>
<g id="a_Node000007"><a xlink:href="slave_8impl_8h.html#a1fe964375f970a93d2305169eb842eac" target="_top" xlink:title="Builds a Modbus TCP exception.">
<polygon fill="white" stroke="#666666" points="149.88,-350.88 6.38,-350.88 6.38,-320.38 149.88,-320.38 149.88,-350.88"/>
<text text-anchor="start" x="14.38" y="-337.38" font-family="Helvetica,sans-Serif" font-size="10.00">ModbusErrorInfomodbusBuild</text>
<text text-anchor="middle" x="78.12" y="-326.12" font-family="Helvetica,sans-Serif" font-size="10.00">ExceptionTCP</text>
</a>
</g>
</g>
<!-- Node1&#45;&gt;Node7 -->
<g id="edge6_Node000001_Node000007" class="edge">
<title>Node1&#45;&gt;Node7</title>
<g id="a_edge6_Node000001_Node000007"><a xlink:title=" ">
<path fill="none" stroke="#63b8ff" d="M206.21,-278.45C192.62,-288.82 174.14,-301.77 156.25,-310.62 149.31,-314.06 141.79,-317.17 134.27,-319.94"/>
<polygon fill="#63b8ff" stroke="#63b8ff" points="208.24,-281.3 213.96,-272.39 203.93,-275.79 208.24,-281.3"/>
</a>
</g>
</g>
<!-- Node8 -->
<g id="Node000008" class="node">
<title>Node8</title>
<g id="a_Node000008"><a xlink:href="slave_8impl_8h.html#afa8be870ae62f17ac8bc258714c2eb99" target="_top" xlink:title="Parses provided Modbus RTU request frame and generates a Modbus RTU response.">
<polygon fill="white" stroke="#666666" points="151.75,-301.88 4.5,-301.88 4.5,-271.38 151.75,-271.38 151.75,-301.88"/>
<text text-anchor="start" x="12.5" y="-288.38" font-family="Helvetica,sans-Serif" font-size="10.00">ModbusErrorInfomodbusParse</text>
<text text-anchor="middle" x="78.12" y="-277.12" font-family="Helvetica,sans-Serif" font-size="10.00">RequestRTU</text>
</a>
</g>
</g>
<!-- Node1&#45;&gt;Node8 -->
<g id="edge7_Node000001_Node000008" class="edge">
<title>Node1&#45;&gt;Node8</title>
<g id="a_edge7_Node000001_Node000008"><a xlink:title=" ">
<path fill="none" stroke="#63b8ff" d="M180.77,-269.44C171.62,-270.99 161.81,-272.65 152.03,-274.3"/>
<polygon fill="#63b8ff" stroke="#63b8ff" points="181.19,-272.92 190.46,-267.8 180.02,-266.02 181.19,-272.92"/>
</a>
</g>
</g>
<!-- Node9 -->
<g id="Node000009" class="node">
<title>Node9</title>
<g id="a_Node000009"><a xlink:href="slave_8impl_8h.html#abe63eae81d795b4350720b520098fe03" target="_top" xlink:title="Parses provided Modbus TCP request frame and generates a Modbus TCP response.">
<polygon fill="white" stroke="#666666" points="151.75,-252.88 4.5,-252.88 4.5,-222.38 151.75,-222.38 151.75,-252.88"/>
<text text-anchor="start" x="12.5" y="-239.38" font-family="Helvetica,sans-Serif" font-size="10.00">ModbusErrorInfomodbusParse</text>
<text text-anchor="middle" x="78.12" y="-228.12" font-family="Helvetica,sans-Serif" font-size="10.00">RequestTCP</text>
</a>
</g>
</g>
<!-- Node1&#45;&gt;Node9 -->
<g id="edge8_Node000001_Node000009" class="edge">
<title>Node1&#45;&gt;Node9</title>
<g id="a_edge8_Node000001_Node000009"><a xlink:title=" ">
<path fill="none" stroke="#63b8ff" d="M180.77,-254.12C171.62,-252.64 161.81,-251.05 152.03,-249.46"/>
<polygon fill="#63b8ff" stroke="#63b8ff" points="180.03,-257.55 190.46,-255.69 181.15,-250.64 180.03,-257.55"/>
</a>
</g>
</g>
<!-- Node10 -->
<g id="Node000010" class="node">
<title>Node10</title>
<g id="a_Node000010"><a xlink:href="classllm_1_1Slave.html#af8cc9d8d58bf7f632f3f3cf7e6b9c84b" target="_top" xlink:title=" ">
<polygon fill="white" stroke="#666666" points="149.88,-204.25 6.38,-204.25 6.38,-185 149.88,-185 149.88,-204.25"/>
<text text-anchor="middle" x="78.12" y="-190.75" font-family="Helvetica,sans-Serif" font-size="10.00">llm::Slave::parseRequestPDU</text>
</a>
</g>
</g>
<!-- Node1&#45;&gt;Node10 -->
<g id="edge9_Node000001_Node000010" class="edge">
<title>Node1&#45;&gt;Node10</title>
<g id="a_edge9_Node000001_Node000010"><a xlink:title=" ">
<path fill="none" stroke="#63b8ff" d="M206.36,-244.72C192.84,-234.41 174.36,-221.69 156.25,-213.62 148.31,-210.09 139.61,-207.15 131,-204.71"/>
<polygon fill="#63b8ff" stroke="#63b8ff" points="204.04,-247.35 214.07,-250.78 208.37,-241.85 204.04,-247.35"/>
</a>
</g>
</g>
<!-- Node11 -->
<g id="Node000011" class="node">
<title>Node11</title>
<g id="a_Node000011"><a xlink:href="classllm_1_1Slave.html#a001591b9a38b69cf29adc853872a09fe" target="_top" xlink:title=" ">
<polygon fill="white" stroke="#666666" points="149.5,-167.25 6.75,-167.25 6.75,-148 149.5,-148 149.5,-167.25"/>
<text text-anchor="middle" x="78.12" y="-153.75" font-family="Helvetica,sans-Serif" font-size="10.00">llm::Slave::parseRequestRTU</text>
</a>
</g>
</g>
<!-- Node1&#45;&gt;Node11 -->
<g id="edge10_Node000001_Node000011" class="edge">
<title>Node1&#45;&gt;Node11</title>
<g id="a_edge10_Node000001_Node000011"><a xlink:title=" ">
<path fill="none" stroke="#63b8ff" d="M215.96,-241.73C203.9,-221.89 182.72,-192.07 156.25,-175.62 151.11,-172.43 145.46,-169.81 139.63,-167.65"/>
<polygon fill="#63b8ff" stroke="#63b8ff" points="212.88,-243.39 220.94,-250.27 218.93,-239.87 212.88,-243.39"/>
</a>
</g>
</g>
<!-- Node12 -->
<g id="Node000012" class="node">
<title>Node12</title>
<g id="a_Node000012"><a xlink:href="classllm_1_1Slave.html#a05169339916c3727c780c75157b399b9" target="_top" xlink:title=" ">
<polygon fill="white" stroke="#666666" points="149.12,-130.25 7.12,-130.25 7.12,-111 149.12,-111 149.12,-130.25"/>
<text text-anchor="middle" x="78.12" y="-116.75" font-family="Helvetica,sans-Serif" font-size="10.00">llm::Slave::parseRequestTCP</text>
</a>
</g>
</g>
<!-- Node1&#45;&gt;Node12 -->
<g id="edge11_Node000001_Node000012" class="edge">
<title>Node1&#45;&gt;Node12</title>
<g id="a_edge11_Node000001_Node000012"><a xlink:title=" ">
<path fill="none" stroke="#63b8ff" d="M220.92,-241.07C211.63,-213.38 191.22,-164.61 156.25,-138.62 151.95,-135.43 147.16,-132.79 142.15,-130.6"/>
<polygon fill="#63b8ff" stroke="#63b8ff" points="217.51,-241.9 223.86,-250.38 224.19,-239.79 217.51,-241.9"/>
</a>
</g>
</g>
<!-- Node13 -->
<g id="Node000013" class="node">
<title>Node13</title>
<g id="a_Node000013"><a xlink:href="classllm_1_1Master.html#a39b0210172c76ef4dc9e43668daef7c9" target="_top" xlink:title=" ">
<polygon fill="white" stroke="#666666" points="156.25,-93.25 0,-93.25 0,-74 156.25,-74 156.25,-93.25"/>
<text text-anchor="middle" x="78.12" y="-79.75" font-family="Helvetica,sans-Serif" font-size="10.00">llm::Master::parseResponsePDU</text>
</a>
</g>
</g>
<!-- Node1&#45;&gt;Node13 -->
<g id="edge12_Node000001_Node000013" class="edge">
<title>Node1&#45;&gt;Node13</title>
<g id="a_edge12_Node000001_Node000013"><a xlink:title=" ">
<path fill="none" stroke="#63b8ff" d="M223.8,-240.44C217.42,-205.9 199.79,-137.69 156.25,-101.62 152.44,-98.47 148.17,-95.84 143.66,-93.66"/>
<polygon fill="#63b8ff" stroke="#63b8ff" points="220.3,-240.75 225.41,-250.03 227.2,-239.59 220.3,-240.75"/>
</a>
</g>
</g>
<!-- Node14 -->
<g id="Node000014" class="node">
<title>Node14</title>
<g id="a_Node000014"><a xlink:href="classllm_1_1Master.html#ab052e172e96808744ee43a8eff80b679" target="_top" xlink:title=" ">
<polygon fill="white" stroke="#666666" points="155.88,-56.25 0.38,-56.25 0.38,-37 155.88,-37 155.88,-56.25"/>
<text text-anchor="middle" x="78.12" y="-42.75" font-family="Helvetica,sans-Serif" font-size="10.00">llm::Master::parseResponseRTU</text>
</a>
</g>
</g>
<!-- Node1&#45;&gt;Node14 -->
<g id="edge13_Node000001_Node000014" class="edge">
<title>Node1&#45;&gt;Node14</title>
<g id="a_edge13_Node000001_Node000014"><a xlink:title=" ">
<path fill="none" stroke="#63b8ff" d="M225.78,-240.24C222.25,-199.65 208.65,-111.3 156.25,-64.62 152.76,-61.52 148.84,-58.91 144.65,-56.74"/>
<polygon fill="#63b8ff" stroke="#63b8ff" points="222.28,-240.4 226.49,-250.12 229.26,-239.9 222.28,-240.4"/>
</a>
</g>
</g>
<!-- Node15 -->
<g id="Node000015" class="node">
<title>Node15</title>
<g id="a_Node000015"><a xlink:href="classllm_1_1Master.html#ad1f614f5d44a61a8507ae34968fa7903" target="_top" xlink:title=" ">
<polygon fill="white" stroke="#666666" points="155.5,-19.25 0.75,-19.25 0.75,0 155.5,0 155.5,-19.25"/>
<text text-anchor="middle" x="78.12" y="-5.75" font-family="Helvetica,sans-Serif" font-size="10.00">llm::Master::parseResponseTCP</text>
</a>
</g>
</g>
<!-- Node1&#45;&gt;Node15 -->
<g id="edge14_Node000001_Node000015" class="edge">
<title>Node1&#45;&gt;Node15</title>
<g id="a_edge14_Node000001_Node000015"><a xlink:title=" ">
<path fill="none" stroke="#63b8ff" d="M227.2,-240.47C226.42,-194.57 217.81,-85.35 156.25,-27.62 152.94,-24.52 149.2,-21.92 145.2,-19.74"/>
<polygon fill="#63b8ff" stroke="#63b8ff" points="223.7,-240.37 227.24,-250.36 230.7,-240.34 223.7,-240.37"/>
</a>
</g>
</g>
</g>
</svg>
