<?xml version="1.0" encoding="UTF-8" standalone="no"?>
<!DOCTYPE svg PUBLIC "-//W3C//DTD SVG 1.1//EN"
 "http://www.w3.org/Graphics/SVG/1.1/DTD/svg11.dtd">
<!-- Generated by graphviz version 12.2.0 (20241103.1931)
 -->
<!-- Title: modbusBufferAllocateADU Pages: 1 -->
<svg width="836pt" height="628pt"
 viewBox="0.00 0.00 835.75 627.88" xmlns="http://www.w3.org/2000/svg" xmlns:xlink="http://www.w3.org/1999/xlink">
<g id="graph0" class="graph" transform="scale(1 1) rotate(0) translate(4 623.88)">
<title>modbusBufferAllocateADU</title>
<!-- Node1 -->
<g id="Node000001" class="node">
<title>Node1</title>
<g id="a_Node000001"><a xlink:title="Allocates memory to hold Modbus ADU.">
<polygon fill="#999999" stroke="#666666" points="827.75,-367.88 695.5,-367.88 695.5,-348.62 827.75,-348.62 827.75,-367.88"/>
<text text-anchor="middle" x="761.62" y="-354.38" font-family="Helvetica,sans-Serif" font-size="10.00">modbusBufferAllocateADU</text>
</a>
</g>
</g>
<!-- Node2 -->
<g id="Node000002" class="node">
<title>Node2</title>
<g id="a_Node000002"><a xlink:href="base_8impl_8h.html#a00605b5ebcf90f8035bfaa7a7c039776" target="_top" xlink:title="Frees memory allocated inside the buffer.">
<polygon fill="white" stroke="#666666" points="630.25,-526.88 534.75,-526.88 534.75,-507.62 630.25,-507.62 630.25,-526.88"/>
<text text-anchor="middle" x="582.5" y="-513.38" font-family="Helvetica,sans-Serif" font-size="10.00">modbusBufferFree</text>
</a>
</g>
</g>
<!-- Node1&#45;&gt;Node2 -->
<g id="edge1_Node000001_Node000002" class="edge">
<title>Node1&#45;&gt;Node2</title>
<g id="a_edge1_Node000001_Node000002"><a xlink:title=" ">
<path fill="none" stroke="#63b8ff" d="M741.06,-375.82C703.82,-409.24 623.9,-480.99 594.58,-507.31"/>
<polygon fill="#63b8ff" stroke="#63b8ff" points="743.32,-378.49 748.42,-369.21 738.64,-373.28 743.32,-378.49"/>
</a>
</g>
</g>
<!-- Node13 -->
<g id="Node000013" class="node">
<title>Node13</title>
<g id="a_Node000013"><a xlink:href="master_8h.html#a004b932b2b69ad0c6649c26d974146b2" target="_top" xlink:title="Allocates memory for the request frame.">
<polygon fill="white" stroke="#666666" points="658.38,-367.88 506.62,-367.88 506.62,-348.62 658.38,-348.62 658.38,-367.88"/>
<text text-anchor="middle" x="582.5" y="-354.38" font-family="Helvetica,sans-Serif" font-size="10.00">modbusMasterAllocateRequest</text>
</a>
</g>
</g>
<!-- Node1&#45;&gt;Node13 -->
<g id="edge12_Node000001_Node000013" class="edge">
<title>Node1&#45;&gt;Node13</title>
<g id="a_edge12_Node000001_Node000013"><a xlink:title=" ">
<path fill="none" stroke="#63b8ff" d="M683.94,-358.25C675.62,-358.25 667.16,-358.25 658.85,-358.25"/>
<polygon fill="#63b8ff" stroke="#63b8ff" points="683.66,-361.75 693.66,-358.25 683.66,-354.75 683.66,-361.75"/>
</a>
</g>
</g>
<!-- Node19 -->
<g id="Node000019" class="node">
<title>Node19</title>
<g id="a_Node000019"><a xlink:href="slave_8h.html#ad1165bb6d12af1db502a05df5da55aed" target="_top" xlink:title="Allocates memory for slave&#39;s response frame.">
<polygon fill="white" stroke="#666666" points="659.5,-147.88 505.5,-147.88 505.5,-128.62 659.5,-128.62 659.5,-147.88"/>
<text text-anchor="middle" x="582.5" y="-134.38" font-family="Helvetica,sans-Serif" font-size="10.00">modbusSlaveAllocateResponse</text>
</a>
</g>
</g>
<!-- Node1&#45;&gt;Node19 -->
<g id="edge18_Node000001_Node000019" class="edge">
<title>Node1&#45;&gt;Node19</title>
<g id="a_edge18_Node000001_Node000019"><a xlink:title=" ">
<path fill="none" stroke="#63b8ff" d="M745.53,-339.51C709.46,-294.7 619.18,-182.57 591.62,-148.33"/>
<polygon fill="#63b8ff" stroke="#63b8ff" points="742.61,-341.45 751.6,-347.05 748.06,-337.06 742.61,-341.45"/>
</a>
</g>
</g>
<!-- Node3 -->
<g id="Node000003" class="node">
<title>Node3</title>
<g id="a_Node000003"><a xlink:href="base_8impl_8h.html#ac4ff5a6ae685570f045448e76e518a0c" target="_top" xlink:title="Equivalent of modbusBufferFree() \copydetail modbusBufferFree()">
<polygon fill="white" stroke="#666666" points="450.38,-582.88 341.38,-582.88 341.38,-563.62 450.38,-563.62 450.38,-582.88"/>
<text text-anchor="middle" x="395.88" y="-569.38" font-family="Helvetica,sans-Serif" font-size="10.00">modbusBufferDestroy</text>
</a>
</g>
</g>
<!-- Node2&#45;&gt;Node3 -->
<g id="edge2_Node000002_Node000003" class="edge">
<title>Node2&#45;&gt;Node3</title>
<g id="a_edge2_Node000002_Node000003"><a xlink:title=" ">
<path fill="none" stroke="#63b8ff" d="M543.41,-531.06C521.86,-538.65 494.33,-547.97 469.5,-555.25 460.03,-558.03 449.78,-560.74 440.05,-563.18"/>
<polygon fill="#63b8ff" stroke="#63b8ff" points="544.41,-534.42 552.66,-527.78 542.07,-527.82 544.41,-534.42"/>
</a>
</g>
</g>
<!-- Node8 -->
<g id="Node000008" class="node">
<title>Node8</title>
<g id="a_Node000008"><a xlink:href="master_8h.html#a040a82085ce05ff95c53d3dca4c3acfd" target="_top" xlink:title="Frees memory allocated for master&#39;s request frame.">
<polygon fill="white" stroke="#666666" points="463.88,-545.88 327.88,-545.88 327.88,-526.62 463.88,-526.62 463.88,-545.88"/>
<text text-anchor="middle" x="395.88" y="-532.38" font-family="Helvetica,sans-Serif" font-size="10.00">modbusMasterFreeRequest</text>
</a>
</g>
</g>
<!-- Node2&#45;&gt;Node8 -->
<g id="edge7_Node000002_Node000008" class="edge">
<title>Node2&#45;&gt;Node8</title>
<g id="a_edge7_Node000002_Node000008"><a xlink:title=" ">
<path fill="none" stroke="#63b8ff" d="M523.07,-523.26C504.31,-525.19 483.39,-527.35 464.06,-529.34"/>
<polygon fill="#63b8ff" stroke="#63b8ff" points="523.34,-526.75 532.93,-522.25 522.62,-519.79 523.34,-526.75"/>
</a>
</g>
</g>
<!-- Node10 -->
<g id="Node000010" class="node">
<title>Node10</title>
<g id="a_Node000010"><a xlink:href="slave_8h.html#aac289ce160ea61287c98e8a1ee4353d5" target="_top" xlink:title="Frees memory allocated for slave&#39;s response frame.">
<polygon fill="white" stroke="#666666" points="465,-508.88 326.75,-508.88 326.75,-489.62 465,-489.62 465,-508.88"/>
<text text-anchor="middle" x="395.88" y="-495.38" font-family="Helvetica,sans-Serif" font-size="10.00">modbusSlaveFreeResponse</text>
</a>
</g>
</g>
<!-- Node2&#45;&gt;Node10 -->
<g id="edge9_Node000002_Node000010" class="edge">
<title>Node2&#45;&gt;Node10</title>
<g id="a_edge9_Node000002_Node000010"><a xlink:title=" ">
<path fill="none" stroke="#63b8ff" d="M523.04,-511.55C504.75,-509.77 484.39,-507.78 465.46,-505.94"/>
<polygon fill="#63b8ff" stroke="#63b8ff" points="522.63,-515.03 532.93,-512.51 523.31,-508.06 522.63,-515.03"/>
</a>
</g>
</g>
<!-- Node4 -->
<g id="Node000004" class="node">
<title>Node4</title>
<g id="a_Node000004"><a xlink:href="master_8impl_8h.html#a5fe38fae0f89de04fa616d105f660d25" target="_top" xlink:title="Deinitializes a ModbusMaster struct.">
<polygon fill="white" stroke="#666666" points="269.38,-619.88 155.88,-619.88 155.88,-600.62 269.38,-600.62 269.38,-619.88"/>
<text text-anchor="middle" x="212.62" y="-606.38" font-family="Helvetica,sans-Serif" font-size="10.00">modbusMasterDestroy</text>
</a>
</g>
</g>
<!-- Node3&#45;&gt;Node4 -->
<g id="edge3_Node000003_Node000004" class="edge">
<title>Node3&#45;&gt;Node4</title>
<g id="a_edge3_Node000003_Node000004"><a xlink:title=" ">
<path fill="none" stroke="#63b8ff" d="M334.26,-585.62C311.13,-590.35 285.06,-595.67 263.09,-600.15"/>
<polygon fill="#63b8ff" stroke="#63b8ff" points="334.77,-589.09 343.86,-583.66 333.37,-582.23 334.77,-589.09"/>
</a>
</g>
</g>
<!-- Node6 -->
<g id="Node000006" class="node">
<title>Node6</title>
<g id="a_Node000006"><a xlink:href="slave_8impl_8h.html#a70695c3b7355bc0a3e6d49c46a4eef1f" target="_top" xlink:title="Frees memory allocated in the ModbusSlave struct.">
<polygon fill="white" stroke="#666666" points="266.75,-582.88 158.5,-582.88 158.5,-563.62 266.75,-563.62 266.75,-582.88"/>
<text text-anchor="middle" x="212.62" y="-569.38" font-family="Helvetica,sans-Serif" font-size="10.00">modbusSlaveDestroy</text>
</a>
</g>
</g>
<!-- Node3&#45;&gt;Node6 -->
<g id="edge5_Node000003_Node000006" class="edge">
<title>Node3&#45;&gt;Node6</title>
<g id="a_edge5_Node000003_Node000006"><a xlink:title=" ">
<path fill="none" stroke="#63b8ff" d="M329.48,-573.25C308.97,-573.25 286.58,-573.25 267,-573.25"/>
<polygon fill="#63b8ff" stroke="#63b8ff" points="329.47,-576.75 339.47,-573.25 329.47,-569.75 329.47,-576.75"/>
</a>
</g>
</g>
<!-- Node5 -->
<g id="Node000005" class="node">
<title>Node5</title>
<g id="a_Node000005"><a xlink:href="classllm_1_1Master.html#adae54d760d1eb2f0babcaff59325376d" target="_top" xlink:title=" ">
<polygon fill="white" stroke="#666666" points="103,-619.88 0,-619.88 0,-600.62 103,-600.62 103,-619.88"/>
<text text-anchor="middle" x="51.5" y="-606.38" font-family="Helvetica,sans-Serif" font-size="10.00">llm::Master::~Master</text>
</a>
</g>
</g>
<!-- Node4&#45;&gt;Node5 -->
<g id="edge4_Node000004_Node000005" class="edge">
<title>Node4&#45;&gt;Node5</title>
<g id="a_edge4_Node000004_Node000005"><a xlink:title=" ">
<path fill="none" stroke="#63b8ff" d="M144.18,-610.25C130.49,-610.25 116.31,-610.25 103.32,-610.25"/>
<polygon fill="#63b8ff" stroke="#63b8ff" points="144.01,-613.75 154.01,-610.25 144.01,-606.75 144.01,-613.75"/>
</a>
</g>
</g>
<!-- Node7 -->
<g id="Node000007" class="node">
<title>Node7</title>
<g id="a_Node000007"><a xlink:href="classllm_1_1Slave.html#a46b8ac6f2b8dee5550d18bd7f1dd355d" target="_top" xlink:title=" ">
<polygon fill="white" stroke="#666666" points="97.75,-582.88 5.25,-582.88 5.25,-563.62 97.75,-563.62 97.75,-582.88"/>
<text text-anchor="middle" x="51.5" y="-569.38" font-family="Helvetica,sans-Serif" font-size="10.00">llm::Slave::~Slave</text>
</a>
</g>
</g>
<!-- Node6&#45;&gt;Node7 -->
<g id="edge6_Node000006_Node000007" class="edge">
<title>Node6&#45;&gt;Node7</title>
<g id="a_edge6_Node000006_Node000007"><a xlink:title=" ">
<path fill="none" stroke="#63b8ff" d="M147.01,-573.25C130.61,-573.25 113.32,-573.25 98.08,-573.25"/>
<polygon fill="#63b8ff" stroke="#63b8ff" points="146.68,-576.75 156.68,-573.25 146.68,-569.75 146.68,-576.75"/>
</a>
</g>
</g>
<!-- Node9 -->
<g id="Node000009" class="node">
<title>Node9</title>
<g id="a_Node000009"><a xlink:href="classllm_1_1Master.html#a6c3883d0f98a5b4255a02f46f33c2423" target="_top" xlink:title=" ">
<polygon fill="white" stroke="#666666" points="272.75,-545.88 152.5,-545.88 152.5,-526.62 272.75,-526.62 272.75,-545.88"/>
<text text-anchor="middle" x="212.62" y="-532.38" font-family="Helvetica,sans-Serif" font-size="10.00">llm::Master::freeRequest</text>
</a>
</g>
</g>
<!-- Node8&#45;&gt;Node9 -->
<g id="edge8_Node000008_Node000009" class="edge">
<title>Node8&#45;&gt;Node9</title>
<g id="a_edge8_Node000008_Node000009"><a xlink:title=" ">
<path fill="none" stroke="#63b8ff" d="M315.97,-536.25C301.59,-536.25 286.81,-536.25 273.12,-536.25"/>
<polygon fill="#63b8ff" stroke="#63b8ff" points="315.87,-539.75 325.87,-536.25 315.87,-532.75 315.87,-539.75"/>
</a>
</g>
</g>
<!-- Node11 -->
<g id="Node000011" class="node">
<title>Node11</title>
<g id="a_Node000011"><a xlink:href="classllm_1_1Slave.html#aadbd0a4dc7769b5c393d6dfe5a344b8a" target="_top" xlink:title=" ">
<polygon fill="white" stroke="#666666" points="273.88,-508.88 151.38,-508.88 151.38,-489.62 273.88,-489.62 273.88,-508.88"/>
<text text-anchor="middle" x="212.62" y="-495.38" font-family="Helvetica,sans-Serif" font-size="10.00">llm::Slave::freeResponse</text>
</a>
</g>
</g>
<!-- Node10&#45;&gt;Node11 -->
<g id="edge10_Node000010_Node000011" class="edge">
<title>Node10&#45;&gt;Node11</title>
<g id="a_edge10_Node000010_Node000011"><a xlink:title=" ">
<path fill="none" stroke="#63b8ff" d="M314.97,-499.25C301.29,-499.25 287.28,-499.25 274.22,-499.25"/>
<polygon fill="#63b8ff" stroke="#63b8ff" points="314.84,-502.75 324.84,-499.25 314.84,-495.75 314.84,-502.75"/>
</a>
</g>
</g>
<!-- Node12 -->
<g id="Node000012" class="node">
<title>Node12</title>
<g id="a_Node000012"><a xlink:href="slave_8impl_8h.html#afa8be870ae62f17ac8bc258714c2eb99" target="_top" xlink:title="Parses provided Modbus RTU request frame and generates a Modbus RTU response.">
<polygon fill="white" stroke="#666666" points="286.25,-471.5 139,-471.5 139,-441 286.25,-441 286.25,-471.5"/>
<text text-anchor="start" x="147" y="-458" font-family="Helvetica,sans-Serif" font-size="10.00">ModbusErrorInfomodbusParse</text>
<text text-anchor="middle" x="212.62" y="-446.75" font-family="Helvetica,sans-Serif" font-size="10.00">RequestRTU</text>
</a>
</g>
</g>
<!-- Node10&#45;&gt;Node12 -->
<g id="edge11_Node000010_Node000012" class="edge">
<title>Node10&#45;&gt;Node12</title>
<g id="a_edge11_Node000010_Node000012"><a xlink:title=" ">
<path fill="none" stroke="#63b8ff" d="M341.39,-486.56C322.14,-481.99 300.19,-476.79 279.97,-471.99"/>
<polygon fill="#63b8ff" stroke="#63b8ff" points="340.37,-489.92 350.91,-488.82 341.99,-483.11 340.37,-489.92"/>
</a>
</g>
</g>
<!-- Node14 -->
<g id="Node000014" class="node">
<title>Node14</title>
<g id="a_Node000014"><a xlink:href="master__func_8impl_8h.html#a2a17495474de4ed91efe8df2bf11d16f" target="_top" xlink:title="Read mutiple coils/discrete inputs/holding registers/input registers.">
<polygon fill="white" stroke="#666666" points="467.62,-471.5 324.12,-471.5 324.12,-441 467.62,-441 467.62,-471.5"/>
<text text-anchor="start" x="332.12" y="-458" font-family="Helvetica,sans-Serif" font-size="10.00">ModbusErrorInfomodbusBuild</text>
<text text-anchor="middle" x="395.88" y="-446.75" font-family="Helvetica,sans-Serif" font-size="10.00">Request01020304</text>
</a>
</g>
</g>
<!-- Node13&#45;&gt;Node14 -->
<g id="edge13_Node000013_Node000014" class="edge">
<title>Node13&#45;&gt;Node14</title>
<g id="a_edge13_Node000013_Node000014"><a xlink:title=" ">
<path fill="none" stroke="#63b8ff" d="M559.24,-375.13C537.31,-391.17 502.41,-415.17 469.5,-431.25 462.55,-434.65 455.02,-437.79 447.54,-440.61"/>
<polygon fill="#63b8ff" stroke="#63b8ff" points="561.18,-378.04 567.13,-369.27 557.02,-372.42 561.18,-378.04"/>
</a>
</g>
</g>
<!-- Node15 -->
<g id="Node000015" class="node">
<title>Node15</title>
<g id="a_Node000015"><a xlink:href="master__func_8impl_8h.html#a215655635f299f22ccd8eb3d79774357" target="_top" xlink:title="Write single coil/holding register.">
<polygon fill="white" stroke="#666666" points="467.62,-422.5 324.12,-422.5 324.12,-392 467.62,-392 467.62,-422.5"/>
<text text-anchor="start" x="332.12" y="-409" font-family="Helvetica,sans-Serif" font-size="10.00">ModbusErrorInfomodbusBuild</text>
<text text-anchor="middle" x="395.88" y="-397.75" font-family="Helvetica,sans-Serif" font-size="10.00">Request0506</text>
</a>
</g>
</g>
<!-- Node13&#45;&gt;Node15 -->
<g id="edge14_Node000013_Node000015" class="edge">
<title>Node13&#45;&gt;Node15</title>
<g id="a_edge14_Node000013_Node000015"><a xlink:title=" ">
<path fill="none" stroke="#63b8ff" d="M532.59,-371.23C509.11,-377.46 480.77,-384.98 456.08,-391.54"/>
<polygon fill="#63b8ff" stroke="#63b8ff" points="533.46,-374.62 542.23,-368.67 531.67,-367.85 533.46,-374.62"/>
</a>
</g>
</g>
<!-- Node16 -->
<g id="Node000016" class="node">
<title>Node16</title>
<g id="a_Node000016"><a xlink:href="master__func_8impl_8h.html#a9ca285925fdd221a3f59d591e7c236b9" target="_top" xlink:title="Write multiple coils.">
<polygon fill="white" stroke="#666666" points="467.62,-373.5 324.12,-373.5 324.12,-343 467.62,-343 467.62,-373.5"/>
<text text-anchor="start" x="332.12" y="-360" font-family="Helvetica,sans-Serif" font-size="10.00">ModbusErrorInfomodbusBuild</text>
<text text-anchor="middle" x="395.88" y="-348.75" font-family="Helvetica,sans-Serif" font-size="10.00">Request15</text>
</a>
</g>
</g>
<!-- Node13&#45;&gt;Node16 -->
<g id="edge15_Node000013_Node000016" class="edge">
<title>Node13&#45;&gt;Node16</title>
<g id="a_edge15_Node000013_Node000016"><a xlink:title=" ">
<path fill="none" stroke="#63b8ff" d="M494.86,-358.25C485.91,-358.25 476.88,-358.25 468.12,-358.25"/>
<polygon fill="#63b8ff" stroke="#63b8ff" points="494.63,-361.75 504.63,-358.25 494.63,-354.75 494.63,-361.75"/>
</a>
</g>
</g>
<!-- Node17 -->
<g id="Node000017" class="node">
<title>Node17</title>
<g id="a_Node000017"><a xlink:href="master__func_8impl_8h.html#ac887d4fcbfe16f37d1b829309c374795" target="_top" xlink:title="Write multiple holding registers.">
<polygon fill="white" stroke="#666666" points="467.62,-324.5 324.12,-324.5 324.12,-294 467.62,-294 467.62,-324.5"/>
<text text-anchor="start" x="332.12" y="-311" font-family="Helvetica,sans-Serif" font-size="10.00">ModbusErrorInfomodbusBuild</text>
<text text-anchor="middle" x="395.88" y="-299.75" font-family="Helvetica,sans-Serif" font-size="10.00">Request16</text>
</a>
</g>
</g>
<!-- Node13&#45;&gt;Node17 -->
<g id="edge16_Node000013_Node000017" class="edge">
<title>Node13&#45;&gt;Node17</title>
<g id="a_edge16_Node000013_Node000017"><a xlink:title=" ">
<path fill="none" stroke="#63b8ff" d="M532.59,-345.27C509.11,-339.04 480.77,-331.52 456.08,-324.96"/>
<polygon fill="#63b8ff" stroke="#63b8ff" points="531.67,-348.65 542.23,-347.83 533.46,-341.88 531.67,-348.65"/>
</a>
</g>
</g>
<!-- Node18 -->
<g id="Node000018" class="node">
<title>Node18</title>
<g id="a_Node000018"><a xlink:href="master__func_8impl_8h.html#a1f876a7195e7ae76b89ff7aace454590" target="_top" xlink:title="Mask write register request.">
<polygon fill="white" stroke="#666666" points="467.62,-275.5 324.12,-275.5 324.12,-245 467.62,-245 467.62,-275.5"/>
<text text-anchor="start" x="332.12" y="-262" font-family="Helvetica,sans-Serif" font-size="10.00">ModbusErrorInfomodbusBuild</text>
<text text-anchor="middle" x="395.88" y="-250.75" font-family="Helvetica,sans-Serif" font-size="10.00">Request22</text>
</a>
</g>
</g>
<!-- Node13&#45;&gt;Node18 -->
<g id="edge17_Node000013_Node000018" class="edge">
<title>Node13&#45;&gt;Node18</title>
<g id="a_edge17_Node000013_Node000018"><a xlink:title=" ">
<path fill="none" stroke="#63b8ff" d="M559.24,-341.37C537.31,-325.33 502.41,-301.33 469.5,-285.25 462.55,-281.85 455.02,-278.71 447.54,-275.89"/>
<polygon fill="#63b8ff" stroke="#63b8ff" points="557.02,-344.08 567.13,-347.23 561.18,-338.46 557.02,-344.08"/>
</a>
</g>
</g>
<!-- Node20 -->
<g id="Node000020" class="node">
<title>Node20</title>
<g id="a_Node000020"><a xlink:href="slave_8impl_8h.html#af2a4ff5631f6b06e8864364780590035" target="_top" xlink:title="Builds an exception response frame.">
<polygon fill="white" stroke="#666666" points="467.62,-226.5 324.12,-226.5 324.12,-196 467.62,-196 467.62,-226.5"/>
<text text-anchor="start" x="332.12" y="-213" font-family="Helvetica,sans-Serif" font-size="10.00">ModbusErrorInfomodbusBuild</text>
<text text-anchor="middle" x="395.88" y="-201.75" font-family="Helvetica,sans-Serif" font-size="10.00">Exception</text>
</a>
</g>
</g>
<!-- Node19&#45;&gt;Node20 -->
<g id="edge19_Node000019_Node000020" class="edge">
<title>Node19&#45;&gt;Node20</title>
<g id="a_edge19_Node000019_Node000020"><a xlink:title=" ">
<path fill="none" stroke="#63b8ff" d="M549.17,-152.85C526.93,-162.71 496.64,-175.78 469.5,-186.25 461.29,-189.42 452.48,-192.61 443.94,-195.61"/>
<polygon fill="#63b8ff" stroke="#63b8ff" points="550.29,-156.18 558,-148.91 547.44,-149.79 550.29,-156.18"/>
</a>
</g>
</g>
<!-- Node21 -->
<g id="Node000021" class="node">
<title>Node21</title>
<g id="a_Node000021"><a xlink:href="slave__func_8impl_8h.html#a648853599bb5c890d3dc98e12be07b0c" target="_top" xlink:title="Handles requests 01, 02, 03 and 04 (Read Multiple XX) and generates response.">
<polygon fill="white" stroke="#666666" points="469.5,-177.5 322.25,-177.5 322.25,-147 469.5,-147 469.5,-177.5"/>
<text text-anchor="start" x="330.25" y="-164" font-family="Helvetica,sans-Serif" font-size="10.00">ModbusErrorInfomodbusParse</text>
<text text-anchor="middle" x="395.88" y="-152.75" font-family="Helvetica,sans-Serif" font-size="10.00">Request01020304</text>
</a>
</g>
</g>
<!-- Node19&#45;&gt;Node21 -->
<g id="edge20_Node000019_Node000021" class="edge">
<title>Node19&#45;&gt;Node21</title>
<g id="a_edge20_Node000019_Node000021"><a xlink:title=" ">
<path fill="none" stroke="#63b8ff" d="M493.84,-149.65C485.85,-150.68 477.82,-151.73 469.98,-152.75"/>
<polygon fill="#63b8ff" stroke="#63b8ff" points="494.11,-153.14 503.57,-148.38 493.2,-146.2 494.11,-153.14"/>
</a>
</g>
</g>
<!-- Node22 -->
<g id="Node000022" class="node">
<title>Node22</title>
<g id="a_Node000022"><a xlink:href="slave__func_8impl_8h.html#ae620115b63da2d0c40e552889be5d3b3" target="_top" xlink:title="Handles requests 05 and 06 (Write Single XX) and generates response.">
<polygon fill="white" stroke="#666666" points="469.5,-128.5 322.25,-128.5 322.25,-98 469.5,-98 469.5,-128.5"/>
<text text-anchor="start" x="330.25" y="-115" font-family="Helvetica,sans-Serif" font-size="10.00">ModbusErrorInfomodbusParse</text>
<text text-anchor="middle" x="395.88" y="-103.75" font-family="Helvetica,sans-Serif" font-size="10.00">Request0506</text>
</a>
</g>
</g>
<!-- Node19&#45;&gt;Node22 -->
<g id="edge21_Node000019_Node000022" class="edge">
<title>Node19&#45;&gt;Node22</title>
<g id="a_edge21_Node000019_Node000022"><a xlink:title=" ">
<path fill="none" stroke="#63b8ff" d="M495.68,-126.63C487.07,-125.46 478.38,-124.29 469.92,-123.14"/>
<polygon fill="#63b8ff" stroke="#63b8ff" points="495.06,-130.08 505.44,-127.95 496,-123.14 495.06,-130.08"/>
</a>
</g>
</g>
<!-- Node23 -->
<g id="Node000023" class="node">
<title>Node23</title>
<g id="a_Node000023"><a xlink:href="slave__func_8impl_8h.html#a4ee99d7a0fea397f6bf53fafbdc139e1" target="_top" xlink:title="Handles requests 15 and 16 (Write Multiple XX) and generates response.">
<polygon fill="white" stroke="#666666" points="469.5,-79.5 322.25,-79.5 322.25,-49 469.5,-49 469.5,-79.5"/>
<text text-anchor="start" x="330.25" y="-66" font-family="Helvetica,sans-Serif" font-size="10.00">ModbusErrorInfomodbusParse</text>
<text text-anchor="middle" x="395.88" y="-54.75" font-family="Helvetica,sans-Serif" font-size="10.00">Request1516</text>
</a>
</g>
</g>
<!-- Node19&#45;&gt;Node23 -->
<g id="edge22_Node000019_Node000023" class="edge">
<title>Node19&#45;&gt;Node23</title>
<g id="a_edge22_Node000019_Node000023"><a xlink:title=" ">
<path fill="none" stroke="#63b8ff" d="M549.61,-123.48C527.36,-113.37 496.86,-99.92 469.5,-89.25 461.43,-86.1 452.77,-82.94 444.35,-79.97"/>
<polygon fill="#63b8ff" stroke="#63b8ff" points="547.9,-126.54 558.45,-127.52 550.81,-120.18 547.9,-126.54"/>
</a>
</g>
</g>
<!-- Node24 -->
<g id="Node000024" class="node">
<title>Node24</title>
<g id="a_Node000024"><a xlink:href="slave__func_8impl_8h.html#a446bf506f887f17f17c491d6d863c446" target="_top" xlink:title="Handles request 22 (Mask Write Register) and generates response.">
<polygon fill="white" stroke="#666666" points="469.5,-30.5 322.25,-30.5 322.25,0 469.5,0 469.5,-30.5"/>
<text text-anchor="start" x="330.25" y="-17" font-family="Helvetica,sans-Serif" font-size="10.00">ModbusErrorInfomodbusParse</text>
<text text-anchor="middle" x="395.88" y="-5.75" font-family="Helvetica,sans-Serif" font-size="10.00">Request22</text>
</a>
</g>
</g>
<!-- Node19&#45;&gt;Node24 -->
<g id="edge23_Node000019_Node000024" class="edge">
<title>Node19&#45;&gt;Node24</title>
<g id="a_edge23_Node000019_Node000024"><a xlink:title=" ">
<path fill="none" stroke="#63b8ff" d="M564.85,-119.86C544.31,-98.16 507.45,-62.24 469.5,-40.25 463.5,-36.77 456.94,-33.68 450.3,-30.95"/>
<polygon fill="#63b8ff" stroke="#63b8ff" points="562.21,-122.16 571.58,-127.1 567.33,-117.39 562.21,-122.16"/>
</a>
</g>
</g>
</g>
</svg>
