<?xml version="1.0" encoding="UTF-8" standalone="no"?>
<!DOCTYPE svg PUBLIC "-//W3C//DTD SVG 1.1//EN"
 "http://www.w3.org/Graphics/SVG/1.1/DTD/svg11.dtd">
<!-- Generated by graphviz version 12.2.0 (20241103.1931)
 -->
<!-- Title: modbusPackTCP Pages: 1 -->
<svg width="284pt" height="137pt"
 viewBox="0.00 0.00 283.75 136.50" xmlns="http://www.w3.org/2000/svg" xmlns:xlink="http://www.w3.org/1999/xlink">
<g id="graph0" class="graph" transform="scale(1 1) rotate(0) translate(4 132.5)">
<title>modbusPackTCP</title>
<!-- Node1 -->
<g id="Node000001" class="node">
<title>Node1</title>
<g id="a_Node000001"><a xlink:title="Sets up the MBAP header in a Modbus TCP frame.">
<polygon fill="#999999" stroke="#666666" points="275.75,-73.88 183.25,-73.88 183.25,-54.62 275.75,-54.62 275.75,-73.88"/>
<text text-anchor="middle" x="229.5" y="-60.38" font-family="Helvetica,sans-Serif" font-size="10.00">modbusPackTCP</text>
</a>
</g>
</g>
<!-- Node2 -->
<g id="Node000002" class="node">
<title>Node2</title>
<g id="a_Node000002"><a xlink:href="slave_8impl_8h.html#a1fe964375f970a93d2305169eb842eac" target="_top" xlink:title="Builds a Modbus TCP exception.">
<polygon fill="white" stroke="#666666" points="145.38,-128.5 1.88,-128.5 1.88,-98 145.38,-98 145.38,-128.5"/>
<text text-anchor="start" x="9.88" y="-115" font-family="Helvetica,sans-Serif" font-size="10.00">ModbusErrorInfomodbusBuild</text>
<text text-anchor="middle" x="73.62" y="-103.75" font-family="Helvetica,sans-Serif" font-size="10.00">ExceptionTCP</text>
</a>
</g>
</g>
<!-- Node1&#45;&gt;Node2 -->
<g id="edge1_Node000001_Node000002" class="edge">
<title>Node1&#45;&gt;Node2</title>
<g id="a_edge1_Node000001_Node000002"><a xlink:title=" ">
<path fill="none" stroke="#63b8ff" d="M186.13,-77.74C166.88,-83.87 143.99,-91.16 123.97,-97.54"/>
<polygon fill="#63b8ff" stroke="#63b8ff" points="187.08,-81.11 195.55,-74.74 184.96,-74.44 187.08,-81.11"/>
</a>
</g>
</g>
<!-- Node3 -->
<g id="Node000003" class="node">
<title>Node3</title>
<g id="a_Node000003"><a xlink:href="master_8impl_8h.html#a018a68ffd354478617deb2eba26db1df" target="_top" xlink:title="Finalizes a Modbus TCP request.">
<polygon fill="white" stroke="#666666" points="142.75,-79.5 4.5,-79.5 4.5,-49 142.75,-49 142.75,-79.5"/>
<text text-anchor="start" x="12.5" y="-66" font-family="Helvetica,sans-Serif" font-size="10.00">ModbusErrorInfomodbusEnd</text>
<text text-anchor="middle" x="73.62" y="-54.75" font-family="Helvetica,sans-Serif" font-size="10.00">RequestTCP</text>
</a>
</g>
</g>
<!-- Node1&#45;&gt;Node3 -->
<g id="edge2_Node000001_Node000003" class="edge">
<title>Node1&#45;&gt;Node3</title>
<g id="a_edge2_Node000001_Node000003"><a xlink:title=" ">
<path fill="none" stroke="#63b8ff" d="M171.95,-64.25C162.54,-64.25 152.69,-64.25 143.03,-64.25"/>
<polygon fill="#63b8ff" stroke="#63b8ff" points="171.65,-67.75 181.65,-64.25 171.65,-60.75 171.65,-67.75"/>
</a>
</g>
</g>
<!-- Node4 -->
<g id="Node000004" class="node">
<title>Node4</title>
<g id="a_Node000004"><a xlink:href="slave_8impl_8h.html#abe63eae81d795b4350720b520098fe03" target="_top" xlink:title="Parses provided Modbus TCP request frame and generates a Modbus TCP response.">
<polygon fill="white" stroke="#666666" points="147.25,-30.5 0,-30.5 0,0 147.25,0 147.25,-30.5"/>
<text text-anchor="start" x="8" y="-17" font-family="Helvetica,sans-Serif" font-size="10.00">ModbusErrorInfomodbusParse</text>
<text text-anchor="middle" x="73.62" y="-5.75" font-family="Helvetica,sans-Serif" font-size="10.00">RequestTCP</text>
</a>
</g>
</g>
<!-- Node1&#45;&gt;Node4 -->
<g id="edge3_Node000001_Node000004" class="edge">
<title>Node1&#45;&gt;Node4</title>
<g id="a_edge3_Node000001_Node000004"><a xlink:title=" ">
<path fill="none" stroke="#63b8ff" d="M186.13,-50.76C166.88,-44.63 143.99,-37.34 123.97,-30.96"/>
<polygon fill="#63b8ff" stroke="#63b8ff" points="184.96,-54.06 195.55,-53.76 187.08,-47.39 184.96,-54.06"/>
</a>
</g>
</g>
</g>
</svg>
