<?xml version="1.0" encoding="UTF-8" standalone="no"?>
<!DOCTYPE svg PUBLIC "-//W3C//DTD SVG 1.1//EN"
 "http://www.w3.org/Graphics/SVG/1.1/DTD/svg11.dtd">
<!-- Generated by graphviz version 12.2.0 (20241103.1931)
 -->
<!-- Title: modbusMaskRead Pages: 1 -->
<svg width="288pt" height="137pt"
 viewBox="0.00 0.00 288.25 136.50" xmlns="http://www.w3.org/2000/svg" xmlns:xlink="http://www.w3.org/1999/xlink">
<g id="graph0" class="graph" transform="scale(1 1) rotate(0) translate(4 132.5)">
<title>modbusMaskRead</title>
<!-- Node1 -->
<g id="Node000001" class="node">
<title>Node1</title>
<g id="a_Node000001"><a xlink:title="Reads n&#45;th bit from an array.">
<polygon fill="#999999" stroke="#666666" points="280.25,-73.88 183.25,-73.88 183.25,-54.62 280.25,-54.62 280.25,-73.88"/>
<text text-anchor="middle" x="231.75" y="-60.38" font-family="Helvetica,sans-Serif" font-size="10.00">modbusMaskRead</text>
</a>
</g>
</g>
<!-- Node2 -->
<g id="Node000002" class="node">
<title>Node2</title>
<g id="a_Node000002"><a xlink:href="master__func_8impl_8h.html#a9ca285925fdd221a3f59d591e7c236b9" target="_top" xlink:title="Write multiple coils.">
<polygon fill="white" stroke="#666666" points="145.38,-128.5 1.88,-128.5 1.88,-98 145.38,-98 145.38,-128.5"/>
<text text-anchor="start" x="9.88" y="-115" font-family="Helvetica,sans-Serif" font-size="10.00">ModbusErrorInfomodbusBuild</text>
<text text-anchor="middle" x="73.62" y="-103.75" font-family="Helvetica,sans-Serif" font-size="10.00">Request15</text>
</a>
</g>
</g>
<!-- Node1&#45;&gt;Node2 -->
<g id="edge1_Node000001_Node000002" class="edge">
<title>Node1&#45;&gt;Node2</title>
<g id="a_edge1_Node000001_Node000002"><a xlink:title=" ">
<path fill="none" stroke="#63b8ff" d="M188.03,-77.66C168.45,-83.8 145.1,-91.13 124.69,-97.54"/>
<polygon fill="#63b8ff" stroke="#63b8ff" points="188.84,-81.07 197.33,-74.74 186.75,-74.39 188.84,-81.07"/>
</a>
</g>
</g>
<!-- Node3 -->
<g id="Node000003" class="node">
<title>Node3</title>
<g id="a_Node000003"><a xlink:href="slave__func_8impl_8h.html#a4ee99d7a0fea397f6bf53fafbdc139e1" target="_top" xlink:title="Handles requests 15 and 16 (Write Multiple XX) and generates response.">
<polygon fill="white" stroke="#666666" points="147.25,-79.5 0,-79.5 0,-49 147.25,-49 147.25,-79.5"/>
<text text-anchor="start" x="8" y="-66" font-family="Helvetica,sans-Serif" font-size="10.00">ModbusErrorInfomodbusParse</text>
<text text-anchor="middle" x="73.62" y="-54.75" font-family="Helvetica,sans-Serif" font-size="10.00">Request1516</text>
</a>
</g>
</g>
<!-- Node1&#45;&gt;Node3 -->
<g id="edge2_Node000001_Node000003" class="edge">
<title>Node1&#45;&gt;Node3</title>
<g id="a_edge2_Node000001_Node000003"><a xlink:title=" ">
<path fill="none" stroke="#63b8ff" d="M171.75,-64.25C163.86,-64.25 155.7,-64.25 147.61,-64.25"/>
<polygon fill="#63b8ff" stroke="#63b8ff" points="171.55,-67.75 181.55,-64.25 171.55,-60.75 171.55,-67.75"/>
</a>
</g>
</g>
<!-- Node4 -->
<g id="Node000004" class="node">
<title>Node4</title>
<g id="a_Node000004"><a xlink:href="master__func_8impl_8h.html#a6956bac7f2cf05dd654da656048bfe2b" target="_top" xlink:title="Parses response to requests 01, 02, 03 and 04.">
<polygon fill="white" stroke="#666666" points="147.25,-30.5 0,-30.5 0,0 147.25,0 147.25,-30.5"/>
<text text-anchor="start" x="8" y="-17" font-family="Helvetica,sans-Serif" font-size="10.00">ModbusErrorInfomodbusParse</text>
<text text-anchor="middle" x="73.62" y="-5.75" font-family="Helvetica,sans-Serif" font-size="10.00">Response01020304</text>
</a>
</g>
</g>
<!-- Node1&#45;&gt;Node4 -->
<g id="edge3_Node000001_Node000004" class="edge">
<title>Node1&#45;&gt;Node4</title>
<g id="a_edge3_Node000001_Node000004"><a xlink:title=" ">
<path fill="none" stroke="#63b8ff" d="M188.03,-50.84C168.45,-44.7 145.1,-37.37 124.69,-30.96"/>
<polygon fill="#63b8ff" stroke="#63b8ff" points="186.75,-54.11 197.33,-53.76 188.84,-47.43 186.75,-54.11"/>
</a>
</g>
</g>
</g>
</svg>
