<?xml version="1.0" encoding="UTF-8" standalone="no"?>
<!DOCTYPE svg PUBLIC "-//W3C//DTD SVG 1.1//EN"
 "http://www.w3.org/Graphics/SVG/1.1/DTD/svg11.dtd">
<!-- Generated by graphviz version 12.2.0 (20241103.1931)
 -->
<!-- Title: include/lightmodbus/base.h Pages: 1 -->
<svg width="809pt" height="371pt"
 viewBox="0.00 0.00 809.45 371.00" xmlns="http://www.w3.org/2000/svg" xmlns:xlink="http://www.w3.org/1999/xlink">
<g id="graph0" class="graph" transform="scale(1 1) rotate(0) translate(4 367)">
<title>include/lightmodbus/base.h</title>
<!-- Node1 -->
<g id="Node000001" class="node">
<title>Node1</title>
<g id="a_Node000001"><a xlink:title="Common types and functions (header)">
<polygon fill="#999999" stroke="#666666" points="314.63,-363 212.38,-363 212.38,-332.5 314.63,-332.5 314.63,-363"/>
<text text-anchor="start" x="220.38" y="-349.5" font-family="Helvetica,sans-Serif" font-size="10.00">include/lightmodbus</text>
<text text-anchor="middle" x="263.5" y="-338.25" font-family="Helvetica,sans-Serif" font-size="10.00">/base.h</text>
</a>
</g>
</g>
<!-- Node2 -->
<g id="Node000002" class="node">
<title>Node2</title>
<g id="a_Node000002"><a xlink:href="base_8impl_8h.html" target="_top" xlink:title="Common types and functions (implementation)">
<polygon fill="white" stroke="#666666" points="115.63,-296.5 13.38,-296.5 13.38,-266 115.63,-266 115.63,-296.5"/>
<text text-anchor="start" x="21.38" y="-283" font-family="Helvetica,sans-Serif" font-size="10.00">include/lightmodbus</text>
<text text-anchor="middle" x="64.5" y="-271.75" font-family="Helvetica,sans-Serif" font-size="10.00">/base.impl.h</text>
</a>
</g>
</g>
<!-- Node1&#45;&gt;Node2 -->
<g id="edge1_Node000001_Node000002" class="edge">
<title>Node1&#45;&gt;Node2</title>
<g id="a_edge1_Node000001_Node000002"><a xlink:title=" ">
<path fill="none" stroke="#63b8ff" d="M207.73,-328.67C176.83,-318.66 138.89,-306.36 109.83,-296.94"/>
<polygon fill="#63b8ff" stroke="#63b8ff" points="206.32,-331.89 216.91,-331.65 208.47,-325.23 206.32,-331.89"/>
</a>
</g>
</g>
<!-- Node3 -->
<g id="Node000003" class="node">
<title>Node3</title>
<g id="a_Node000003"><a xlink:href="lightmodbus_8h.html" target="_top" xlink:title="The main library header file (include this one)">
<polygon fill="white" stroke="#666666" points="409.63,-97 307.38,-97 307.38,-66.5 409.63,-66.5 409.63,-97"/>
<text text-anchor="start" x="315.38" y="-83.5" font-family="Helvetica,sans-Serif" font-size="10.00">include/lightmodbus</text>
<text text-anchor="middle" x="358.5" y="-72.25" font-family="Helvetica,sans-Serif" font-size="10.00">/lightmodbus.h</text>
</a>
</g>
</g>
<!-- Node1&#45;&gt;Node3 -->
<g id="edge8_Node000001_Node000003" class="edge">
<title>Node1&#45;&gt;Node3</title>
<g id="a_edge8_Node000001_Node000003"><a xlink:title=" ">
<path fill="none" stroke="#63b8ff" d="M201,-343.51C132.46,-338.5 28.93,-326.13 4.5,-296.5 -4.12,-286.04 2.39,-279.39 4.5,-266 14.18,-204.63 0.36,-173.45 47.5,-133 85.59,-100.32 228.87,-88.67 306.97,-84.7"/>
<polygon fill="#63b8ff" stroke="#63b8ff" points="200.37,-346.98 210.59,-344.18 200.86,-339.99 200.37,-346.98"/>
</a>
</g>
</g>
<!-- Node5 -->
<g id="Node000005" class="node">
<title>Node5</title>
<g id="a_Node000005"><a xlink:href="debug_8h.html" target="_top" xlink:title="Debug utilities (header)">
<polygon fill="white" stroke="#666666" points="471.63,-230 369.38,-230 369.38,-199.5 471.63,-199.5 471.63,-230"/>
<text text-anchor="start" x="377.38" y="-216.5" font-family="Helvetica,sans-Serif" font-size="10.00">include/lightmodbus</text>
<text text-anchor="middle" x="420.5" y="-205.25" font-family="Helvetica,sans-Serif" font-size="10.00">/debug.h</text>
</a>
</g>
</g>
<!-- Node1&#45;&gt;Node5 -->
<g id="edge4_Node000001_Node000005" class="edge">
<title>Node1&#45;&gt;Node5</title>
<g id="a_edge4_Node000001_Node000005"><a xlink:title=" ">
<path fill="none" stroke="#63b8ff" d="M289.34,-325.19C321.46,-298.39 375.39,-253.39 403.02,-230.33"/>
<polygon fill="#63b8ff" stroke="#63b8ff" points="287.5,-322.17 282.07,-331.26 291.99,-327.54 287.5,-322.17"/>
</a>
</g>
</g>
<!-- Node7 -->
<g id="Node000007" class="node">
<title>Node7</title>
<g id="a_Node000007"><a xlink:href="master_8h.html" target="_top" xlink:title="Master&#39;s types and basic functions (header)">
<polygon fill="white" stroke="#666666" points="235.63,-296.5 133.38,-296.5 133.38,-266 235.63,-266 235.63,-296.5"/>
<text text-anchor="start" x="141.38" y="-283" font-family="Helvetica,sans-Serif" font-size="10.00">include/lightmodbus</text>
<text text-anchor="middle" x="184.5" y="-271.75" font-family="Helvetica,sans-Serif" font-size="10.00">/master.h</text>
</a>
</g>
</g>
<!-- Node1&#45;&gt;Node7 -->
<g id="edge9_Node000001_Node000007" class="edge">
<title>Node1&#45;&gt;Node7</title>
<g id="a_edge9_Node000001_Node000007"><a xlink:title=" ">
<path fill="none" stroke="#63b8ff" d="M236.89,-325.02C225.52,-315.73 212.55,-305.15 202.36,-296.83"/>
<polygon fill="#63b8ff" stroke="#63b8ff" points="234.45,-327.54 244.41,-331.16 238.87,-322.12 234.45,-327.54"/>
</a>
</g>
</g>
<!-- Node9 -->
<g id="Node000009" class="node">
<title>Node9</title>
<g id="a_Node000009"><a xlink:href="master__func_8h.html" target="_top" xlink:title="Master&#39;s functions for building requests and parsing responses (header)">
<polygon fill="white" stroke="#666666" points="314.63,-230 212.38,-230 212.38,-199.5 314.63,-199.5 314.63,-230"/>
<text text-anchor="start" x="220.38" y="-216.5" font-family="Helvetica,sans-Serif" font-size="10.00">include/lightmodbus</text>
<text text-anchor="middle" x="263.5" y="-205.25" font-family="Helvetica,sans-Serif" font-size="10.00">/master_func.h</text>
</a>
</g>
</g>
<!-- Node1&#45;&gt;Node9 -->
<g id="edge19_Node000001_Node000009" class="edge">
<title>Node1&#45;&gt;Node9</title>
<g id="a_edge19_Node000001_Node000009"><a xlink:title=" ">
<path fill="none" stroke="#63b8ff" d="M263.5,-320.93C263.5,-293.84 263.5,-252.21 263.5,-230.33"/>
<polygon fill="#63b8ff" stroke="#63b8ff" points="260,-320.72 263.5,-330.72 267,-320.72 260,-320.72"/>
</a>
</g>
</g>
<!-- Node11 -->
<g id="Node000011" class="node">
<title>Node11</title>
<g id="a_Node000011"><a xlink:href="slave_8h.html" target="_top" xlink:title="Slave&#39;s types and basic functions (header)">
<polygon fill="white" stroke="#666666" points="605.63,-296.5 503.38,-296.5 503.38,-266 605.63,-266 605.63,-296.5"/>
<text text-anchor="start" x="511.38" y="-283" font-family="Helvetica,sans-Serif" font-size="10.00">include/lightmodbus</text>
<text text-anchor="middle" x="554.5" y="-271.75" font-family="Helvetica,sans-Serif" font-size="10.00">/slave.h</text>
</a>
</g>
</g>
<!-- Node1&#45;&gt;Node11 -->
<g id="edge20_Node000001_Node000011" class="edge">
<title>Node1&#45;&gt;Node11</title>
<g id="a_edge20_Node000001_Node000011"><a xlink:title=" ">
<path fill="none" stroke="#63b8ff" d="M325.79,-332.94C378.69,-321.22 453.68,-304.6 503.17,-293.63"/>
<polygon fill="#63b8ff" stroke="#63b8ff" points="325.34,-329.46 316.34,-335.04 326.86,-336.29 325.34,-329.46"/>
</a>
</g>
</g>
<!-- Node13 -->
<g id="Node000013" class="node">
<title>Node13</title>
<g id="a_Node000013"><a xlink:href="slave__func_8h.html" target="_top" xlink:title="Slave&#39;s functions for parsing requests (header)">
<polygon fill="white" stroke="#666666" points="741.63,-230 639.38,-230 639.38,-199.5 741.63,-199.5 741.63,-230"/>
<text text-anchor="start" x="647.38" y="-216.5" font-family="Helvetica,sans-Serif" font-size="10.00">include/lightmodbus</text>
<text text-anchor="middle" x="690.5" y="-205.25" font-family="Helvetica,sans-Serif" font-size="10.00">/slave_func.h</text>
</a>
</g>
</g>
<!-- Node1&#45;&gt;Node13 -->
<g id="edge31_Node000001_Node000013" class="edge">
<title>Node1&#45;&gt;Node13</title>
<g id="a_edge31_Node000001_Node000013"><a xlink:title=" ">
<path fill="none" stroke="#63b8ff" d="M326.45,-342.73C413.54,-336.34 565.62,-321.89 614.5,-296.5 644.4,-280.97 668.94,-248.94 681.47,-230.22"/>
<polygon fill="#63b8ff" stroke="#63b8ff" points="326.36,-339.23 316.63,-343.44 326.86,-346.21 326.36,-339.23"/>
</a>
</g>
</g>
<!-- Node2&#45;&gt;Node3 -->
<g id="edge2_Node000002_Node000003" class="edge">
<title>Node2&#45;&gt;Node3</title>
<g id="a_edge2_Node000002_Node000003"><a xlink:title=" ">
<path fill="none" stroke="#63b8ff" d="M56.04,-254.83C47.03,-222.48 37.66,-166.76 66.5,-133 96.91,-97.41 231.67,-87.03 307.04,-84"/>
<polygon fill="#63b8ff" stroke="#63b8ff" points="52.62,-255.59 58.84,-264.16 59.32,-253.58 52.62,-255.59"/>
</a>
</g>
</g>
<!-- Node4 -->
<g id="Node000004" class="node">
<title>Node4</title>
<g id="a_Node000004"><a xlink:href="lightmodbus_8hpp.html" target="_top" xlink:title="(Very) experimental liblightmodbus C++ interface">
<polygon fill="white" stroke="#666666" points="409.63,-30.5 307.38,-30.5 307.38,0 409.63,0 409.63,-30.5"/>
<text text-anchor="start" x="315.38" y="-17" font-family="Helvetica,sans-Serif" font-size="10.00">include/lightmodbus</text>
<text text-anchor="middle" x="358.5" y="-5.75" font-family="Helvetica,sans-Serif" font-size="10.00">/lightmodbus.hpp</text>
</a>
</g>
</g>
<!-- Node3&#45;&gt;Node4 -->
<g id="edge3_Node000003_Node000004" class="edge">
<title>Node3&#45;&gt;Node4</title>
<g id="a_edge3_Node000003_Node000004"><a xlink:title=" ">
<path fill="none" stroke="#63b8ff" d="M358.5,-54.81C358.5,-46.64 358.5,-37.91 358.5,-30.83"/>
<polygon fill="#63b8ff" stroke="#63b8ff" points="355,-54.6 358.5,-64.6 362,-54.6 355,-54.6"/>
</a>
</g>
</g>
<!-- Node5&#45;&gt;Node3 -->
<g id="edge7_Node000005_Node000003" class="edge">
<title>Node5&#45;&gt;Node3</title>
<g id="a_edge7_Node000005_Node000003"><a xlink:title=" ">
<path fill="none" stroke="#63b8ff" d="M408.62,-188.94C404.75,-180.83 400.43,-171.79 396.5,-163.5 385.55,-140.4 372.93,-113.53 365.34,-97.35"/>
<polygon fill="#63b8ff" stroke="#63b8ff" points="405.42,-190.37 412.9,-197.88 411.74,-187.35 405.42,-190.37"/>
</a>
</g>
</g>
<!-- Node6 -->
<g id="Node000006" class="node">
<title>Node6</title>
<g id="a_Node000006"><a xlink:href="debug_8impl_8h.html" target="_top" xlink:title="Debug utilities (implementation)">
<polygon fill="white" stroke="#666666" points="507.63,-163.5 405.38,-163.5 405.38,-133 507.63,-133 507.63,-163.5"/>
<text text-anchor="start" x="413.38" y="-150" font-family="Helvetica,sans-Serif" font-size="10.00">include/lightmodbus</text>
<text text-anchor="middle" x="456.5" y="-138.75" font-family="Helvetica,sans-Serif" font-size="10.00">/debug.impl.h</text>
</a>
</g>
</g>
<!-- Node5&#45;&gt;Node6 -->
<g id="edge5_Node000005_Node000006" class="edge">
<title>Node5&#45;&gt;Node6</title>
<g id="a_edge5_Node000005_Node000006"><a xlink:title=" ">
<path fill="none" stroke="#63b8ff" d="M434.19,-189.23C438.97,-180.66 444.18,-171.32 448.37,-163.83"/>
<polygon fill="#63b8ff" stroke="#63b8ff" points="431.23,-187.35 429.41,-197.79 437.34,-190.77 431.23,-187.35"/>
</a>
</g>
</g>
<!-- Node6&#45;&gt;Node3 -->
<g id="edge6_Node000006_Node000003" class="edge">
<title>Node6&#45;&gt;Node3</title>
<g id="a_edge6_Node000006_Node000003"><a xlink:title=" ">
<path fill="none" stroke="#63b8ff" d="M424.74,-126.34C410.34,-116.87 393.67,-105.89 380.65,-97.33"/>
<polygon fill="#63b8ff" stroke="#63b8ff" points="422.72,-129.21 433,-131.78 426.57,-123.36 422.72,-129.21"/>
</a>
</g>
</g>
<!-- Node7&#45;&gt;Node3 -->
<g id="edge10_Node000007_Node000003" class="edge">
<title>Node7&#45;&gt;Node3</title>
<g id="a_edge10_Node000007_Node000003"><a xlink:title=" ">
<path fill="none" stroke="#63b8ff" d="M151.23,-259.31C108.77,-230.03 44.85,-175.67 80.5,-133 108.81,-99.12 234.75,-88.04 307.03,-84.45"/>
<polygon fill="#63b8ff" stroke="#63b8ff" points="149.2,-262.16 159.45,-264.83 153.1,-256.35 149.2,-262.16"/>
</a>
</g>
</g>
<!-- Node8 -->
<g id="Node000008" class="node">
<title>Node8</title>
<g id="a_Node000008"><a xlink:href="master_8impl_8h.html" target="_top" xlink:title="Master&#39;s types and basic functions (implementation)">
<polygon fill="white" stroke="#666666" points="191.63,-163.5 89.38,-163.5 89.38,-133 191.63,-133 191.63,-163.5"/>
<text text-anchor="start" x="97.38" y="-150" font-family="Helvetica,sans-Serif" font-size="10.00">include/lightmodbus</text>
<text text-anchor="middle" x="140.5" y="-138.75" font-family="Helvetica,sans-Serif" font-size="10.00">/master.impl.h</text>
</a>
</g>
</g>
<!-- Node7&#45;&gt;Node8 -->
<g id="edge11_Node000007_Node000008" class="edge">
<title>Node7&#45;&gt;Node8</title>
<g id="a_edge11_Node000007_Node000008"><a xlink:title=" ">
<path fill="none" stroke="#63b8ff" d="M176.08,-255.16C166.98,-228.09 152.82,-185.91 145.4,-163.83"/>
<polygon fill="#63b8ff" stroke="#63b8ff" points="172.64,-255.93 179.15,-264.3 179.28,-253.7 172.64,-255.93"/>
</a>
</g>
</g>
<!-- Node7&#45;&gt;Node9 -->
<g id="edge13_Node000007_Node000009" class="edge">
<title>Node7&#45;&gt;Node9</title>
<g id="a_edge13_Node000007_Node000009"><a xlink:title=" ">
<path fill="none" stroke="#63b8ff" d="M211.12,-258.52C222.49,-249.23 235.46,-238.65 245.65,-230.33"/>
<polygon fill="#63b8ff" stroke="#63b8ff" points="209.14,-255.62 203.6,-264.66 213.56,-261.04 209.14,-255.62"/>
</a>
</g>
</g>
<!-- Node10 -->
<g id="Node000010" class="node">
<title>Node10</title>
<g id="a_Node000010"><a xlink:href="master__func_8impl_8h.html" target="_top" xlink:title="Master&#39;s functions for building requests and parsing responses (implementation)">
<polygon fill="white" stroke="#666666" points="311.63,-163.5 209.38,-163.5 209.38,-133 311.63,-133 311.63,-163.5"/>
<text text-anchor="start" x="217.38" y="-150" font-family="Helvetica,sans-Serif" font-size="10.00">include/lightmodbus</text>
<text text-anchor="middle" x="260.5" y="-138.75" font-family="Helvetica,sans-Serif" font-size="10.00">/master_func.impl.h</text>
</a>
</g>
</g>
<!-- Node7&#45;&gt;Node10 -->
<g id="edge18_Node000007_Node000010" class="edge">
<title>Node7&#45;&gt;Node10</title>
<g id="a_edge18_Node000007_Node000010"><a xlink:title=" ">
<path fill="none" stroke="#63b8ff" d="M186.52,-254.43C188.76,-237.78 193.5,-216.2 203.5,-199.5 212.05,-185.24 225.99,-172.84 237.94,-163.93"/>
<polygon fill="#63b8ff" stroke="#63b8ff" points="183.08,-253.71 185.46,-264.04 190.04,-254.48 183.08,-253.71"/>
</a>
</g>
</g>
<!-- Node8&#45;&gt;Node3 -->
<g id="edge12_Node000008_Node000003" class="edge">
<title>Node8&#45;&gt;Node3</title>
<g id="a_edge12_Node000008_Node000003"><a xlink:title=" ">
<path fill="none" stroke="#63b8ff" d="M200.99,-129.35C235,-119.29 276.93,-106.89 308.98,-97.4"/>
<polygon fill="#63b8ff" stroke="#63b8ff" points="200.29,-125.91 191.7,-132.1 202.28,-132.62 200.29,-125.91"/>
</a>
</g>
</g>
<!-- Node9&#45;&gt;Node3 -->
<g id="edge14_Node000009_Node000003" class="edge">
<title>Node9&#45;&gt;Node3</title>
<g id="a_edge14_Node000009_Node000003"><a xlink:title=" ">
<path fill="none" stroke="#63b8ff" d="M292.52,-192.15C302.25,-183.93 312.62,-174 320.5,-163.5 336.13,-142.68 347.61,-114.41 353.66,-97.44"/>
<polygon fill="#63b8ff" stroke="#63b8ff" points="290.59,-189.21 285.03,-198.23 295,-194.64 290.59,-189.21"/>
</a>
</g>
</g>
<!-- Node9&#45;&gt;Node8 -->
<g id="edge15_Node000009_Node000008" class="edge">
<title>Node9&#45;&gt;Node8</title>
<g id="a_edge15_Node000009_Node000008"><a xlink:title=" ">
<path fill="none" stroke="#63b8ff" d="M225.45,-193.79C206.98,-184.11 185.19,-172.68 168.3,-163.83"/>
<polygon fill="#63b8ff" stroke="#63b8ff" points="223.77,-196.87 234.25,-198.41 227.02,-190.67 223.77,-196.87"/>
</a>
</g>
</g>
<!-- Node9&#45;&gt;Node10 -->
<g id="edge16_Node000009_Node000010" class="edge">
<title>Node9&#45;&gt;Node10</title>
<g id="a_edge16_Node000009_Node000010"><a xlink:title=" ">
<path fill="none" stroke="#63b8ff" d="M262.3,-187.81C261.92,-179.64 261.51,-170.91 261.18,-163.83"/>
<polygon fill="#63b8ff" stroke="#63b8ff" points="258.79,-187.78 262.75,-197.6 265.78,-187.45 258.79,-187.78"/>
</a>
</g>
</g>
<!-- Node10&#45;&gt;Node3 -->
<g id="edge17_Node000010_Node000003" class="edge">
<title>Node10&#45;&gt;Node3</title>
<g id="a_edge17_Node000010_Node000003"><a xlink:title=" ">
<path fill="none" stroke="#63b8ff" d="M292.27,-126.34C306.67,-116.87 323.34,-105.89 336.35,-97.33"/>
<polygon fill="#63b8ff" stroke="#63b8ff" points="290.44,-123.36 284.01,-131.78 294.28,-129.21 290.44,-123.36"/>
</a>
</g>
</g>
<!-- Node11&#45;&gt;Node3 -->
<g id="edge22_Node000011_Node000003" class="edge">
<title>Node11&#45;&gt;Node3</title>
<g id="a_edge22_Node000011_Node000003"><a xlink:title=" ">
<path fill="none" stroke="#63b8ff" d="M555.01,-254.26C554.21,-221.7 547.88,-166.16 516.5,-133 489.01,-103.94 444.79,-91.62 410.11,-86.43"/>
<polygon fill="#63b8ff" stroke="#63b8ff" points="551.51,-254.03 555.08,-264.01 558.51,-253.99 551.51,-254.03"/>
</a>
</g>
</g>
<!-- Node11&#45;&gt;Node5 -->
<g id="edge21_Node000011_Node000005" class="edge">
<title>Node11&#45;&gt;Node5</title>
<g id="a_edge21_Node000011_Node000005"><a xlink:title=" ">
<path fill="none" stroke="#63b8ff" d="M513.88,-260.7C493.58,-250.93 469.44,-239.31 450.79,-230.33"/>
<polygon fill="#63b8ff" stroke="#63b8ff" points="512.21,-263.77 522.73,-264.96 515.24,-257.47 512.21,-263.77"/>
</a>
</g>
</g>
<!-- Node12 -->
<g id="Node000012" class="node">
<title>Node12</title>
<g id="a_Node000012"><a xlink:href="slave_8impl_8h.html" target="_top" xlink:title="Slave&#39;s types and basic functions (implementation)">
<polygon fill="white" stroke="#666666" points="785.63,-163.5 683.38,-163.5 683.38,-133 785.63,-133 785.63,-163.5"/>
<text text-anchor="start" x="691.38" y="-150" font-family="Helvetica,sans-Serif" font-size="10.00">include/lightmodbus</text>
<text text-anchor="middle" x="734.5" y="-138.75" font-family="Helvetica,sans-Serif" font-size="10.00">/slave.impl.h</text>
</a>
</g>
</g>
<!-- Node11&#45;&gt;Node12 -->
<g id="edge23_Node000011_Node000012" class="edge">
<title>Node11&#45;&gt;Node12</title>
<g id="a_edge23_Node000011_Node000012"><a xlink:title=" ">
<path fill="none" stroke="#63b8ff" d="M574.41,-257.29C592.56,-236.71 618.33,-208.43 630.5,-199.5 650.55,-184.79 675.58,-172.54 696.06,-163.82"/>
<polygon fill="#63b8ff" stroke="#63b8ff" points="571.88,-254.87 567.93,-264.7 577.15,-259.48 571.88,-254.87"/>
</a>
</g>
</g>
<!-- Node11&#45;&gt;Node13 -->
<g id="edge25_Node000011_Node000013" class="edge">
<title>Node11&#45;&gt;Node13</title>
<g id="a_edge25_Node000011_Node000013"><a xlink:title=" ">
<path fill="none" stroke="#63b8ff" d="M595.73,-260.7C616.33,-250.93 640.84,-239.31 659.77,-230.33"/>
<polygon fill="#63b8ff" stroke="#63b8ff" points="594.27,-257.52 586.73,-264.97 597.27,-263.84 594.27,-257.52"/>
</a>
</g>
</g>
<!-- Node14 -->
<g id="Node000014" class="node">
<title>Node14</title>
<g id="a_Node000014"><a xlink:href="slave__func_8impl_8h.html" target="_top" xlink:title="Slave&#39;s functions for parsing requests (implementation)">
<polygon fill="white" stroke="#666666" points="665.63,-163.5 563.38,-163.5 563.38,-133 665.63,-133 665.63,-163.5"/>
<text text-anchor="start" x="571.38" y="-150" font-family="Helvetica,sans-Serif" font-size="10.00">include/lightmodbus</text>
<text text-anchor="middle" x="614.5" y="-138.75" font-family="Helvetica,sans-Serif" font-size="10.00">/slave_func.impl.h</text>
</a>
</g>
</g>
<!-- Node11&#45;&gt;Node14 -->
<g id="edge30_Node000011_Node000014" class="edge">
<title>Node11&#45;&gt;Node14</title>
<g id="a_edge30_Node000011_Node000014"><a xlink:title=" ">
<path fill="none" stroke="#63b8ff" d="M565.83,-255.52C578.22,-228.46 597.67,-186.01 607.82,-163.83"/>
<polygon fill="#63b8ff" stroke="#63b8ff" points="562.77,-253.8 561.78,-264.35 569.13,-256.72 562.77,-253.8"/>
</a>
</g>
</g>
<!-- Node12&#45;&gt;Node3 -->
<g id="edge24_Node000012_Node000003" class="edge">
<title>Node12&#45;&gt;Node3</title>
<g id="a_edge24_Node000012_Node000003"><a xlink:title=" ">
<path fill="none" stroke="#63b8ff" d="M672.15,-132.62C573.9,-113.48 470.33,-98.15 409.89,-89.7"/>
<polygon fill="#63b8ff" stroke="#63b8ff" points="671.2,-136 681.69,-134.5 672.55,-129.13 671.2,-136"/>
</a>
</g>
</g>
<!-- Node13&#45;&gt;Node3 -->
<g id="edge26_Node000013_Node000003" class="edge">
<title>Node13&#45;&gt;Node3</title>
<g id="a_edge26_Node000013_Node000003"><a xlink:title=" ">
<path fill="none" stroke="#63b8ff" d="M745.86,-194.81C781.08,-179.85 816.31,-157.46 794.5,-133 769.28,-104.7 519.81,-90.03 409.97,-84.91"/>
<polygon fill="#63b8ff" stroke="#63b8ff" points="744.84,-191.45 736.89,-198.45 747.47,-197.94 744.84,-191.45"/>
</a>
</g>
</g>
<!-- Node13&#45;&gt;Node12 -->
<g id="edge27_Node000013_Node000012" class="edge">
<title>Node13&#45;&gt;Node12</title>
<g id="a_edge27_Node000013_Node000012"><a xlink:title=" ">
<path fill="none" stroke="#63b8ff" d="M706.85,-189.79C712.8,-181.07 719.33,-171.49 724.56,-163.83"/>
<polygon fill="#63b8ff" stroke="#63b8ff" points="704.09,-187.63 701.34,-197.86 709.87,-191.58 704.09,-187.63"/>
</a>
</g>
</g>
<!-- Node13&#45;&gt;Node14 -->
<g id="edge28_Node000013_Node000014" class="edge">
<title>Node13&#45;&gt;Node14</title>
<g id="a_edge28_Node000013_Node000014"><a xlink:title=" ">
<path fill="none" stroke="#63b8ff" d="M664.57,-191.74C653.71,-182.53 641.39,-172.06 631.68,-163.83"/>
<polygon fill="#63b8ff" stroke="#63b8ff" points="662.22,-194.33 672.1,-198.13 666.75,-189 662.22,-194.33"/>
</a>
</g>
</g>
<!-- Node14&#45;&gt;Node3 -->
<g id="edge29_Node000014_Node000003" class="edge">
<title>Node14&#45;&gt;Node3</title>
<g id="a_edge29_Node000014_Node000003"><a xlink:title=" ">
<path fill="none" stroke="#63b8ff" d="M551.95,-131.49C508.34,-120.5 450.86,-106.02 409.92,-95.7"/>
<polygon fill="#63b8ff" stroke="#63b8ff" points="550.99,-134.86 561.54,-133.91 552.7,-128.07 550.99,-134.86"/>
</a>
</g>
</g>
</g>
</svg>
