<?xml version="1.0" encoding="UTF-8" standalone="no"?>
<!DOCTYPE svg PUBLIC "-//W3C//DTD SVG 1.1//EN"
 "http://www.w3.org/Graphics/SVG/1.1/DTD/svg11.dtd">
<!-- Generated by graphviz version 12.2.0 (20241103.1931)
 -->
<!-- Title: modbusPackRTU Pages: 1 -->
<svg width="285pt" height="137pt"
 viewBox="0.00 0.00 284.50 136.50" xmlns="http://www.w3.org/2000/svg" xmlns:xlink="http://www.w3.org/1999/xlink">
<g id="graph0" class="graph" transform="scale(1 1) rotate(0) translate(4 132.5)">
<title>modbusPackRTU</title>
<!-- Node1 -->
<g id="Node000001" class="node">
<title>Node1</title>
<g id="a_Node000001"><a xlink:title="Sets up address and CRC in a Modbus RTU frame.">
<polygon fill="#999999" stroke="#666666" points="276.5,-73.88 183.25,-73.88 183.25,-54.62 276.5,-54.62 276.5,-73.88"/>
<text text-anchor="middle" x="229.88" y="-60.38" font-family="Helvetica,sans-Serif" font-size="10.00">modbusPackRTU</text>
</a>
</g>
</g>
<!-- Node2 -->
<g id="Node000002" class="node">
<title>Node2</title>
<g id="a_Node000002"><a xlink:href="slave_8impl_8h.html#a90b11d29191ccfd6393ea9be9a7e65e5" target="_top" xlink:title="Builds a Modbus RTU exception.">
<polygon fill="white" stroke="#666666" points="145.38,-128.5 1.88,-128.5 1.88,-98 145.38,-98 145.38,-128.5"/>
<text text-anchor="start" x="9.88" y="-115" font-family="Helvetica,sans-Serif" font-size="10.00">ModbusErrorInfomodbusBuild</text>
<text text-anchor="middle" x="73.62" y="-103.75" font-family="Helvetica,sans-Serif" font-size="10.00">ExceptionRTU</text>
</a>
</g>
</g>
<!-- Node1&#45;&gt;Node2 -->
<g id="edge1_Node000001_Node000002" class="edge">
<title>Node1&#45;&gt;Node2</title>
<g id="a_edge1_Node000001_Node000002"><a xlink:title=" ">
<path fill="none" stroke="#63b8ff" d="M186.4,-77.74C167.1,-83.87 144.16,-91.16 124.09,-97.54"/>
<polygon fill="#63b8ff" stroke="#63b8ff" points="187.37,-81.11 195.85,-74.74 185.26,-74.43 187.37,-81.11"/>
</a>
</g>
</g>
<!-- Node3 -->
<g id="Node000003" class="node">
<title>Node3</title>
<g id="a_Node000003"><a xlink:href="master_8impl_8h.html#a63e771eba2a9fe1a62a7cbb168a6db90" target="_top" xlink:title="Finalizes a Modbus RTU request.">
<polygon fill="white" stroke="#666666" points="142.75,-79.5 4.5,-79.5 4.5,-49 142.75,-49 142.75,-79.5"/>
<text text-anchor="start" x="12.5" y="-66" font-family="Helvetica,sans-Serif" font-size="10.00">ModbusErrorInfomodbusEnd</text>
<text text-anchor="middle" x="73.62" y="-54.75" font-family="Helvetica,sans-Serif" font-size="10.00">RequestRTU</text>
</a>
</g>
</g>
<!-- Node1&#45;&gt;Node3 -->
<g id="edge2_Node000001_Node000003" class="edge">
<title>Node1&#45;&gt;Node3</title>
<g id="a_edge2_Node000001_Node000003"><a xlink:title=" ">
<path fill="none" stroke="#63b8ff" d="M171.55,-64.25C162.3,-64.25 152.64,-64.25 143.16,-64.25"/>
<polygon fill="#63b8ff" stroke="#63b8ff" points="171.5,-67.75 181.5,-64.25 171.5,-60.75 171.5,-67.75"/>
</a>
</g>
</g>
<!-- Node4 -->
<g id="Node000004" class="node">
<title>Node4</title>
<g id="a_Node000004"><a xlink:href="slave_8impl_8h.html#afa8be870ae62f17ac8bc258714c2eb99" target="_top" xlink:title="Parses provided Modbus RTU request frame and generates a Modbus RTU response.">
<polygon fill="white" stroke="#666666" points="147.25,-30.5 0,-30.5 0,0 147.25,0 147.25,-30.5"/>
<text text-anchor="start" x="8" y="-17" font-family="Helvetica,sans-Serif" font-size="10.00">ModbusErrorInfomodbusParse</text>
<text text-anchor="middle" x="73.62" y="-5.75" font-family="Helvetica,sans-Serif" font-size="10.00">RequestRTU</text>
</a>
</g>
</g>
<!-- Node1&#45;&gt;Node4 -->
<g id="edge3_Node000001_Node000004" class="edge">
<title>Node1&#45;&gt;Node4</title>
<g id="a_edge3_Node000001_Node000004"><a xlink:title=" ">
<path fill="none" stroke="#63b8ff" d="M186.4,-50.76C167.1,-44.63 144.16,-37.34 124.09,-30.96"/>
<polygon fill="#63b8ff" stroke="#63b8ff" points="185.26,-54.07 195.85,-53.76 187.37,-47.39 185.26,-54.07"/>
</a>
</g>
</g>
</g>
</svg>
