<?xml version="1.0" encoding="UTF-8" standalone="no"?>
<!DOCTYPE svg PUBLIC "-//W3C//DTD SVG 1.1//EN"
 "http://www.w3.org/Graphics/SVG/1.1/DTD/svg11.dtd">
<!-- Generated by graphviz version 12.2.0 (20241103.1931)
 -->
<!-- Title: include/lightmodbus/debug.h Pages: 1 -->
<svg width="162pt" height="204pt"
 viewBox="0.00 0.00 162.38 204.25" xmlns="http://www.w3.org/2000/svg" xmlns:xlink="http://www.w3.org/1999/xlink">
<g id="graph0" class="graph" transform="scale(1 1) rotate(0) translate(4 200.25)">
<title>include/lightmodbus/debug.h</title>
<!-- Node1 -->
<g id="Node000001" class="node">
<title>Node1</title>
<g id="a_Node000001"><a xlink:title="Debug utilities (header)">
<polygon fill="#999999" stroke="#666666" points="102.25,-196.25 0,-196.25 0,-165.75 102.25,-165.75 102.25,-196.25"/>
<text text-anchor="start" x="8" y="-182.75" font-family="Helvetica,sans-Serif" font-size="10.00">include/lightmodbus</text>
<text text-anchor="middle" x="51.12" y="-171.5" font-family="Helvetica,sans-Serif" font-size="10.00">/debug.h</text>
</a>
</g>
</g>
<!-- Node2 -->
<g id="Node000002" class="node">
<title>Node2</title>
<g id="a_Node000002"><a xlink:href="base_8h.html" target="_top" xlink:title="Common types and functions (header)">
<polygon fill="white" stroke="#666666" points="48.38,-74.5 3.88,-74.5 3.88,-55.25 48.38,-55.25 48.38,-74.5"/>
<text text-anchor="middle" x="26.12" y="-61" font-family="Helvetica,sans-Serif" font-size="10.00">base.h</text>
</a>
</g>
</g>
<!-- Node1&#45;&gt;Node2 -->
<g id="edge1_Node000001_Node000002" class="edge">
<title>Node1&#45;&gt;Node2</title>
<g id="a_edge1_Node000001_Node000002"><a xlink:title=" ">
<path fill="none" stroke="#63b8ff" d="M47.96,-165.55C43.55,-145.4 35.53,-108.81 30.53,-86"/>
<polygon fill="#63b8ff" stroke="#63b8ff" points="34,-85.45 28.44,-76.43 27.16,-86.94 34,-85.45"/>
</a>
</g>
</g>
<!-- Node4 -->
<g id="Node000004" class="node">
<title>Node4</title>
<g id="a_Node000004"><a xlink:href="slave_8h.html" target="_top" xlink:title="Slave&#39;s types and basic functions (header)">
<polygon fill="white" stroke="#666666" points="100.5,-129.75 53.75,-129.75 53.75,-110.5 100.5,-110.5 100.5,-129.75"/>
<text text-anchor="middle" x="77.12" y="-116.25" font-family="Helvetica,sans-Serif" font-size="10.00">slave.h</text>
</a>
</g>
</g>
<!-- Node1&#45;&gt;Node4 -->
<g id="edge3_Node000001_Node000004" class="edge">
<title>Node1&#45;&gt;Node4</title>
<g id="a_edge3_Node000001_Node000004"><a xlink:title=" ">
<path fill="none" stroke="#63b8ff" d="M57.55,-165.45C60.86,-157.95 64.95,-148.7 68.53,-140.6"/>
<polygon fill="#63b8ff" stroke="#63b8ff" points="71.67,-142.15 72.51,-131.59 65.26,-139.32 71.67,-142.15"/>
</a>
</g>
</g>
<!-- Node3 -->
<g id="Node000003" class="node">
<title>Node3</title>
<g id="a_Node000003"><a xlink:title=" ">
<polygon fill="#e0e0e0" stroke="#999999" points="74.88,-19.25 27.38,-19.25 27.38,0 74.88,0 74.88,-19.25"/>
<text text-anchor="middle" x="51.12" y="-5.75" font-family="Helvetica,sans-Serif" font-size="10.00">stdint.h</text>
</a>
</g>
</g>
<!-- Node2&#45;&gt;Node3 -->
<g id="edge2_Node000002_Node000003" class="edge">
<title>Node2&#45;&gt;Node3</title>
<g id="a_edge2_Node000002_Node000003"><a xlink:title=" ">
<path fill="none" stroke="#63b8ff" d="M30.25,-55.08C33.45,-48.26 38.01,-38.56 42.05,-29.95"/>
<polygon fill="#63b8ff" stroke="#63b8ff" points="45.18,-31.52 46.26,-20.98 38.85,-28.54 45.18,-31.52"/>
</a>
</g>
</g>
<!-- Node4&#45;&gt;Node2 -->
<g id="edge6_Node000004_Node000002" class="edge">
<title>Node4&#45;&gt;Node2</title>
<g id="a_edge6_Node000004_Node000002"><a xlink:title=" ">
<path fill="none" stroke="#63b8ff" d="M68.7,-110.33C61.59,-102.9 51.18,-92.04 42.44,-82.91"/>
<polygon fill="#63b8ff" stroke="#63b8ff" points="45.22,-80.75 35.78,-75.95 40.17,-85.6 45.22,-80.75"/>
</a>
</g>
</g>
<!-- Node4&#45;&gt;Node3 -->
<g id="edge4_Node000004_Node000003" class="edge">
<title>Node4&#45;&gt;Node3</title>
<g id="a_edge4_Node000004_Node000003"><a xlink:title=" ">
<path fill="none" stroke="#63b8ff" d="M75,-110.25C70.86,-93 61.66,-54.58 55.96,-30.81"/>
<polygon fill="#63b8ff" stroke="#63b8ff" points="59.37,-30.01 53.63,-21.1 52.56,-31.64 59.37,-30.01"/>
</a>
</g>
</g>
<!-- Node5 -->
<g id="Node000005" class="node">
<title>Node5</title>
<g id="a_Node000005"><a xlink:title=" ">
<polygon fill="#e0e0e0" stroke="#999999" points="154.38,-74.5 103.88,-74.5 103.88,-55.25 154.38,-55.25 154.38,-74.5"/>
<text text-anchor="middle" x="129.12" y="-61" font-family="Helvetica,sans-Serif" font-size="10.00">stddef.h</text>
</a>
</g>
</g>
<!-- Node4&#45;&gt;Node5 -->
<g id="edge5_Node000004_Node000005" class="edge">
<title>Node4&#45;&gt;Node5</title>
<g id="a_edge5_Node000004_Node000005"><a xlink:title=" ">
<path fill="none" stroke="#63b8ff" d="M85.71,-110.33C92.97,-102.9 103.58,-92.04 112.49,-82.91"/>
<polygon fill="#63b8ff" stroke="#63b8ff" points="114.81,-85.54 119.29,-75.94 109.8,-80.65 114.81,-85.54"/>
</a>
</g>
</g>
</g>
</svg>
