<?xml version="1.0" encoding="UTF-8" standalone="no"?>
<!DOCTYPE svg PUBLIC "-//W3C//DTD SVG 1.1//EN"
 "http://www.w3.org/Graphics/SVG/1.1/DTD/svg11.dtd">
<!-- Generated by graphviz version 12.2.0 (20241103.1931)
 -->
<!-- Title: include/lightmodbus/debug.h Pages: 1 -->
<svg width="149pt" height="238pt"
 viewBox="0.00 0.00 149.25 238.00" xmlns="http://www.w3.org/2000/svg" xmlns:xlink="http://www.w3.org/1999/xlink">
<g id="graph0" class="graph" transform="scale(1 1) rotate(0) translate(4 234)">
<title>include/lightmodbus/debug.h</title>
<!-- Node1 -->
<g id="Node000001" class="node">
<title>Node1</title>
<g id="a_Node000001"><a xlink:title="Debug utilities (header)">
<polygon fill="#999999" stroke="#666666" points="141.25,-230 39,-230 39,-199.5 141.25,-199.5 141.25,-230"/>
<text text-anchor="start" x="47" y="-216.5" font-family="Helvetica,sans-Serif" font-size="10.00">include/lightmodbus</text>
<text text-anchor="middle" x="90.12" y="-205.25" font-family="Helvetica,sans-Serif" font-size="10.00">/debug.h</text>
</a>
</g>
</g>
<!-- Node2 -->
<g id="Node000002" class="node">
<title>Node2</title>
<g id="a_Node000002"><a xlink:href="debug_8impl_8h.html" target="_top" xlink:title="Debug utilities (implementation)">
<polygon fill="white" stroke="#666666" points="102.25,-163.5 0,-163.5 0,-133 102.25,-133 102.25,-163.5"/>
<text text-anchor="start" x="8" y="-150" font-family="Helvetica,sans-Serif" font-size="10.00">include/lightmodbus</text>
<text text-anchor="middle" x="51.12" y="-138.75" font-family="Helvetica,sans-Serif" font-size="10.00">/debug.impl.h</text>
</a>
</g>
</g>
<!-- Node1&#45;&gt;Node2 -->
<g id="edge1_Node000001_Node000002" class="edge">
<title>Node1&#45;&gt;Node2</title>
<g id="a_edge1_Node000001_Node000002"><a xlink:title=" ">
<path fill="none" stroke="#63b8ff" d="M75.47,-189.51C70.24,-180.87 64.52,-171.41 59.94,-163.83"/>
<polygon fill="#63b8ff" stroke="#63b8ff" points="72.32,-191.07 80.49,-197.82 78.31,-187.45 72.32,-191.07"/>
</a>
</g>
</g>
<!-- Node3 -->
<g id="Node000003" class="node">
<title>Node3</title>
<g id="a_Node000003"><a xlink:href="lightmodbus_8h.html" target="_top" xlink:title="The main library header file (include this one)">
<polygon fill="white" stroke="#666666" points="141.25,-97 39,-97 39,-66.5 141.25,-66.5 141.25,-97"/>
<text text-anchor="start" x="47" y="-83.5" font-family="Helvetica,sans-Serif" font-size="10.00">include/lightmodbus</text>
<text text-anchor="middle" x="90.12" y="-72.25" font-family="Helvetica,sans-Serif" font-size="10.00">/lightmodbus.h</text>
</a>
</g>
</g>
<!-- Node1&#45;&gt;Node3 -->
<g id="edge4_Node000001_Node000003" class="edge">
<title>Node1&#45;&gt;Node3</title>
<g id="a_edge4_Node000001_Node000003"><a xlink:title=" ">
<path fill="none" stroke="#63b8ff" d="M102.78,-188.92C106.19,-181 109.41,-172.07 111.12,-163.5 113.79,-150.21 113.79,-146.29 111.12,-133 108.6,-120.39 102.83,-107 97.98,-97.21"/>
<polygon fill="#63b8ff" stroke="#63b8ff" points="99.64,-187.37 98.61,-197.92 105.99,-190.32 99.64,-187.37"/>
</a>
</g>
</g>
<!-- Node2&#45;&gt;Node3 -->
<g id="edge2_Node000002_Node000003" class="edge">
<title>Node2&#45;&gt;Node3</title>
<g id="a_edge2_Node000002_Node000003"><a xlink:title=" ">
<path fill="none" stroke="#63b8ff" d="M65.78,-123.01C71.01,-114.37 76.73,-104.91 81.31,-97.33"/>
<polygon fill="#63b8ff" stroke="#63b8ff" points="62.94,-120.95 60.76,-131.32 68.93,-124.57 62.94,-120.95"/>
</a>
</g>
</g>
<!-- Node4 -->
<g id="Node000004" class="node">
<title>Node4</title>
<g id="a_Node000004"><a xlink:href="lightmodbus_8hpp.html" target="_top" xlink:title="(Very) experimental liblightmodbus C++ interface">
<polygon fill="white" stroke="#666666" points="141.25,-30.5 39,-30.5 39,0 141.25,0 141.25,-30.5"/>
<text text-anchor="start" x="47" y="-17" font-family="Helvetica,sans-Serif" font-size="10.00">include/lightmodbus</text>
<text text-anchor="middle" x="90.12" y="-5.75" font-family="Helvetica,sans-Serif" font-size="10.00">/lightmodbus.hpp</text>
</a>
</g>
</g>
<!-- Node3&#45;&gt;Node4 -->
<g id="edge3_Node000003_Node000004" class="edge">
<title>Node3&#45;&gt;Node4</title>
<g id="a_edge3_Node000003_Node000004"><a xlink:title=" ">
<path fill="none" stroke="#63b8ff" d="M90.12,-54.81C90.12,-46.64 90.12,-37.91 90.12,-30.83"/>
<polygon fill="#63b8ff" stroke="#63b8ff" points="86.63,-54.6 90.13,-64.6 93.63,-54.6 86.63,-54.6"/>
</a>
</g>
</g>
</g>
</svg>
