<?xml version="1.0" encoding="UTF-8" standalone="no"?>
<!DOCTYPE svg PUBLIC "-//W3C//DTD SVG 1.1//EN"
 "http://www.w3.org/Graphics/SVG/1.1/DTD/svg11.dtd">
<!-- Generated by graphviz version 12.2.0 (20241103.1931)
 -->
<!-- Title: modbusErrorStr Pages: 1 -->
<svg width="243pt" height="113pt"
 viewBox="0.00 0.00 242.50 112.88" xmlns="http://www.w3.org/2000/svg" xmlns:xlink="http://www.w3.org/1999/xlink">
<g id="graph0" class="graph" transform="scale(1 1) rotate(0) translate(4 108.88)">
<title>modbusErrorStr</title>
<!-- Node1 -->
<g id="Node000001" class="node">
<title>Node1</title>
<g id="a_Node000001"><a xlink:title="Returns a string containing the name of the ModbusError value.">
<polygon fill="#999999" stroke="#666666" points="234.5,-67.88 151,-67.88 151,-48.62 234.5,-48.62 234.5,-67.88"/>
<text text-anchor="middle" x="192.75" y="-54.38" font-family="Helvetica,sans-Serif" font-size="10.00">modbusErrorStr</text>
</a>
</g>
</g>
<!-- Node2 -->
<g id="Node000002" class="node">
<title>Node2</title>
<g id="a_Node000002"><a xlink:href="classllm_1_1GeneralError.html#acab0f7922118a949b9f7e91fd5d8bac6" target="_top" xlink:title=" ">
<polygon fill="white" stroke="#666666" points="113.88,-104.88 1.12,-104.88 1.12,-85.62 113.88,-85.62 113.88,-104.88"/>
<text text-anchor="middle" x="57.5" y="-91.38" font-family="Helvetica,sans-Serif" font-size="10.00">llm::GeneralError::what</text>
</a>
</g>
</g>
<!-- Node1&#45;&gt;Node2 -->
<g id="edge1_Node000001_Node000002" class="edge">
<title>Node1&#45;&gt;Node2</title>
<g id="a_edge1_Node000001_Node000002"><a xlink:title=" ">
<path fill="none" stroke="#63b8ff" d="M144.39,-71.4C128.1,-75.92 110.14,-80.91 94.87,-85.15"/>
<polygon fill="#63b8ff" stroke="#63b8ff" points="145.18,-74.81 153.88,-68.77 143.31,-68.07 145.18,-74.81"/>
</a>
</g>
</g>
<!-- Node3 -->
<g id="Node000003" class="node">
<title>Node3</title>
<g id="a_Node000003"><a xlink:href="classllm_1_1RequestError.html#a7b7541907d4fea3a7e2dcb438abf9090" target="_top" xlink:title=" ">
<polygon fill="white" stroke="#666666" points="115,-67.88 0,-67.88 0,-48.62 115,-48.62 115,-67.88"/>
<text text-anchor="middle" x="57.5" y="-54.38" font-family="Helvetica,sans-Serif" font-size="10.00">llm::RequestError::what</text>
</a>
</g>
</g>
<!-- Node1&#45;&gt;Node3 -->
<g id="edge2_Node000001_Node000003" class="edge">
<title>Node1&#45;&gt;Node3</title>
<g id="a_edge2_Node000001_Node000003"><a xlink:title=" ">
<path fill="none" stroke="#63b8ff" d="M139.38,-58.25C131.5,-58.25 123.33,-58.25 115.36,-58.25"/>
<polygon fill="#63b8ff" stroke="#63b8ff" points="139.17,-61.75 149.17,-58.25 139.17,-54.75 139.17,-61.75"/>
</a>
</g>
</g>
<!-- Node4 -->
<g id="Node000004" class="node">
<title>Node4</title>
<g id="a_Node000004"><a xlink:href="classllm_1_1ResponseError.html#aeb25fb1e58b1e063e2134377ec7cfe97" target="_top" xlink:title=" ">
<polygon fill="white" stroke="#666666" points="106,-30.5 9,-30.5 9,0 106,0 106,-30.5"/>
<text text-anchor="start" x="17" y="-17" font-family="Helvetica,sans-Serif" font-size="10.00">llm::ResponseError</text>
<text text-anchor="middle" x="57.5" y="-5.75" font-family="Helvetica,sans-Serif" font-size="10.00">::what</text>
</a>
</g>
</g>
<!-- Node1&#45;&gt;Node4 -->
<g id="edge3_Node000001_Node000004" class="edge">
<title>Node1&#45;&gt;Node4</title>
<g id="a_edge3_Node000001_Node000004"><a xlink:title=" ">
<path fill="none" stroke="#63b8ff" d="M149.82,-44.72C135.98,-40.25 120.48,-35.25 106.24,-30.66"/>
<polygon fill="#63b8ff" stroke="#63b8ff" points="148.48,-47.96 159.07,-47.7 150.63,-41.3 148.48,-47.96"/>
</a>
</g>
</g>
</g>
</svg>
