<?xml version="1.0" encoding="UTF-8" standalone="no"?>
<!DOCTYPE svg PUBLIC "-//W3C//DTD SVG 1.1//EN"
 "http://www.w3.org/Graphics/SVG/1.1/DTD/svg11.dtd">
<!-- Generated by graphviz version 12.2.0 (20241103.1931)
 -->
<!-- Title: Graphical Class Hierarchy Pages: 1 -->
<svg width="216pt" height="101pt"
 viewBox="0.00 0.00 216.25 101.25" xmlns="http://www.w3.org/2000/svg" xmlns:xlink="http://www.w3.org/1999/xlink">
<g id="graph0" class="graph" transform="scale(1 1) rotate(0) translate(4 97.25)">
<title>Graphical Class Hierarchy</title>
<!-- Node0 -->
<g id="Node000000" class="node">
<title>Node0</title>
<g id="a_Node000000"><a xlink:title=" ">
<polygon fill="#e0e0e0" stroke="#999999" points="75.25,-56.25 0,-56.25 0,-37 75.25,-37 75.25,-56.25"/>
<text text-anchor="middle" x="37.62" y="-42.75" font-family="Helvetica,sans-Serif" font-size="10.00">std::exception</text>
</a>
</g>
</g>
<!-- Node1 -->
<g id="Node000001" class="node">
<title>Node1</title>
<g id="a_Node000001"><a xlink:href="classllm_1_1GeneralError.html" target="_top" xlink:title="General error exception class.">
<polygon fill="white" stroke="#666666" points="203.38,-93.25 116.12,-93.25 116.12,-74 203.38,-74 203.38,-93.25"/>
<text text-anchor="middle" x="159.75" y="-79.75" font-family="Helvetica,sans-Serif" font-size="10.00">llm::GeneralError</text>
</a>
</g>
</g>
<!-- Node0&#45;&gt;Node1 -->
<g id="edge1_Node000000_Node000001" class="edge">
<title>Node0&#45;&gt;Node1</title>
<g id="a_edge1_Node000000_Node000001"><a xlink:title=" ">
<path fill="none" stroke="#63b8ff" d="M82.17,-60.04C96.63,-64.49 112.46,-69.37 125.97,-73.53"/>
<polygon fill="#63b8ff" stroke="#63b8ff" points="83.48,-56.78 72.9,-57.18 81.42,-63.47 83.48,-56.78"/>
</a>
</g>
</g>
<!-- Node2 -->
<g id="Node000002" class="node">
<title>Node2</title>
<g id="a_Node000002"><a xlink:href="classllm_1_1RequestError.html" target="_top" xlink:title="Request error exception class.">
<polygon fill="white" stroke="#666666" points="204.5,-56.25 115,-56.25 115,-37 204.5,-37 204.5,-56.25"/>
<text text-anchor="middle" x="159.75" y="-42.75" font-family="Helvetica,sans-Serif" font-size="10.00">llm::RequestError</text>
</a>
</g>
</g>
<!-- Node0&#45;&gt;Node2 -->
<g id="edge2_Node000000_Node000002" class="edge">
<title>Node0&#45;&gt;Node2</title>
<g id="a_edge2_Node000000_Node000002"><a xlink:title=" ">
<path fill="none" stroke="#63b8ff" d="M87.04,-46.62C96.25,-46.62 105.83,-46.62 114.89,-46.62"/>
<polygon fill="#63b8ff" stroke="#63b8ff" points="87.16,-43.13 77.16,-46.63 87.16,-50.13 87.16,-43.13"/>
</a>
</g>
</g>
<!-- Node3 -->
<g id="Node000003" class="node">
<title>Node3</title>
<g id="a_Node000003"><a xlink:href="classllm_1_1ResponseError.html" target="_top" xlink:title="Response error exception class.">
<polygon fill="white" stroke="#666666" points="208.25,-19.25 111.25,-19.25 111.25,0 208.25,0 208.25,-19.25"/>
<text text-anchor="middle" x="159.75" y="-5.75" font-family="Helvetica,sans-Serif" font-size="10.00">llm::ResponseError</text>
</a>
</g>
</g>
<!-- Node0&#45;&gt;Node3 -->
<g id="edge3_Node000000_Node000003" class="edge">
<title>Node0&#45;&gt;Node3</title>
<g id="a_edge3_Node000000_Node000003"><a xlink:title=" ">
<path fill="none" stroke="#63b8ff" d="M82.17,-33.21C96.63,-28.76 112.46,-23.88 125.97,-19.72"/>
<polygon fill="#63b8ff" stroke="#63b8ff" points="81.42,-29.78 72.9,-36.07 83.48,-36.47 81.42,-29.78"/>
</a>
</g>
</g>
</g>
</svg>
