<?xml version="1.0" encoding="UTF-8" standalone="no"?>
<!DOCTYPE svg PUBLIC "-//W3C//DTD SVG 1.1//EN"
 "http://www.w3.org/Graphics/SVG/1.1/DTD/svg11.dtd">
<!-- Generated by graphviz version 12.2.0 (20241103.1931)
 -->
<!-- Title: include/lightmodbus/lightmodbus.h Pages: 1 -->
<svg width="761pt" height="315pt"
 viewBox="0.00 0.00 761.47 314.75" xmlns="http://www.w3.org/2000/svg" xmlns:xlink="http://www.w3.org/1999/xlink">
<g id="graph0" class="graph" transform="scale(1 1) rotate(0) translate(4 310.75)">
<title>include/lightmodbus/lightmodbus.h</title>
<!-- Node1 -->
<g id="Node000001" class="node">
<title>Node1</title>
<g id="a_Node000001"><a xlink:title="The main library header file (include this one)">
<polygon fill="#999999" stroke="#666666" points="431.27,-306.75 329.02,-306.75 329.02,-276.25 431.27,-276.25 431.27,-306.75"/>
<text text-anchor="start" x="337.02" y="-293.25" font-family="Helvetica,sans-Serif" font-size="10.00">include/lightmodbus</text>
<text text-anchor="middle" x="380.15" y="-282" font-family="Helvetica,sans-Serif" font-size="10.00">/lightmodbus.h</text>
</a>
</g>
</g>
<!-- Node2 -->
<g id="Node000002" class="node">
<title>Node2</title>
<g id="a_Node000002"><a xlink:href="base_8h.html" target="_top" xlink:title="Common types and functions (header)">
<polygon fill="white" stroke="#666666" points="436.4,-74.5 391.9,-74.5 391.9,-55.25 436.4,-55.25 436.4,-74.5"/>
<text text-anchor="middle" x="414.15" y="-61" font-family="Helvetica,sans-Serif" font-size="10.00">base.h</text>
</a>
</g>
</g>
<!-- Node1&#45;&gt;Node2 -->
<g id="edge1_Node000001_Node000002" class="edge">
<title>Node1&#45;&gt;Node2</title>
<g id="a_edge1_Node000001_Node000002"><a xlink:title=" ">
<path fill="none" stroke="#63b8ff" d="M431.53,-291.13C520.46,-291 697.31,-284.95 736.15,-240.25 824.39,-138.68 546.63,-85.87 447.74,-70.62"/>
<polygon fill="#63b8ff" stroke="#63b8ff" points="448.51,-67.19 438.1,-69.17 447.47,-74.12 448.51,-67.19"/>
</a>
</g>
</g>
<!-- Node4 -->
<g id="Node000004" class="node">
<title>Node4</title>
<g id="a_Node000004"><a xlink:href="slave_8h.html" target="_top" xlink:title="Slave&#39;s types and basic functions (header)">
<polygon fill="white" stroke="#666666" points="230.52,-129.75 183.77,-129.75 183.77,-110.5 230.52,-110.5 230.52,-129.75"/>
<text text-anchor="middle" x="207.15" y="-116.25" font-family="Helvetica,sans-Serif" font-size="10.00">slave.h</text>
</a>
</g>
</g>
<!-- Node1&#45;&gt;Node4 -->
<g id="edge3_Node000001_Node000004" class="edge">
<title>Node1&#45;&gt;Node4</title>
<g id="a_edge3_Node000001_Node000004"><a xlink:title=" ">
<path fill="none" stroke="#63b8ff" d="M328.71,-291.42C237.17,-291.84 51.75,-286.76 11.15,-240.25 -40.35,-181.27 102.88,-142.62 172.1,-127.86"/>
<polygon fill="#63b8ff" stroke="#63b8ff" points="172.75,-131.3 181.83,-125.84 171.33,-124.44 172.75,-131.3"/>
</a>
</g>
</g>
<!-- Node6 -->
<g id="Node000006" class="node">
<title>Node6</title>
<g id="a_Node000006"><a xlink:href="slave__func_8h.html" target="_top" xlink:title="Slave&#39;s functions for parsing requests (header)">
<polygon fill="white" stroke="#666666" points="237.52,-185 166.77,-185 166.77,-165.75 237.52,-165.75 237.52,-185"/>
<text text-anchor="middle" x="202.15" y="-171.5" font-family="Helvetica,sans-Serif" font-size="10.00">slave_func.h</text>
</a>
</g>
</g>
<!-- Node1&#45;&gt;Node6 -->
<g id="edge7_Node000001_Node000006" class="edge">
<title>Node1&#45;&gt;Node6</title>
<g id="a_edge7_Node000001_Node000006"><a xlink:title=" ">
<path fill="none" stroke="#63b8ff" d="M328.83,-278.22C303.13,-270.32 272.58,-258.12 249.15,-240.25 233.27,-228.14 220.29,-209.25 212.03,-195.15"/>
<polygon fill="#63b8ff" stroke="#63b8ff" points="215.31,-193.85 207.4,-186.82 209.2,-197.26 215.31,-193.85"/>
</a>
</g>
</g>
<!-- Node7 -->
<g id="Node000007" class="node">
<title>Node7</title>
<g id="a_Node000007"><a xlink:href="master_8h.html" target="_top" xlink:title="Master&#39;s types and basic functions (header)">
<polygon fill="white" stroke="#666666" points="372.9,-129.75 319.4,-129.75 319.4,-110.5 372.9,-110.5 372.9,-129.75"/>
<text text-anchor="middle" x="346.15" y="-116.25" font-family="Helvetica,sans-Serif" font-size="10.00">master.h</text>
</a>
</g>
</g>
<!-- Node1&#45;&gt;Node7 -->
<g id="edge10_Node000001_Node000007" class="edge">
<title>Node1&#45;&gt;Node7</title>
<g id="a_edge10_Node000001_Node000007"><a xlink:title=" ">
<path fill="none" stroke="#63b8ff" d="M328.75,-276.45C310.81,-268.8 292.56,-257.3 282.15,-240.25 260.24,-204.41 300.21,-160.48 326.27,-137.28"/>
<polygon fill="#63b8ff" stroke="#63b8ff" points="328.32,-140.13 333.63,-130.97 323.76,-134.82 328.32,-140.13"/>
</a>
</g>
</g>
<!-- Node8 -->
<g id="Node000008" class="node">
<title>Node8</title>
<g id="a_Node000008"><a xlink:href="master__func_8h.html" target="_top" xlink:title="Master&#39;s functions for building requests and parsing responses (header)">
<polygon fill="white" stroke="#666666" points="470.9,-185 393.4,-185 393.4,-165.75 470.9,-165.75 470.9,-185"/>
<text text-anchor="middle" x="432.15" y="-171.5" font-family="Helvetica,sans-Serif" font-size="10.00">master_func.h</text>
</a>
</g>
</g>
<!-- Node1&#45;&gt;Node8 -->
<g id="edge14_Node000001_Node000008" class="edge">
<title>Node1&#45;&gt;Node8</title>
<g id="a_edge14_Node000001_Node000008"><a xlink:title=" ">
<path fill="none" stroke="#63b8ff" d="M431.62,-280.05C453.57,-272.77 477.09,-260.56 490.15,-240.25 502.06,-221.71 481.12,-203.38 461.15,-191.14"/>
<polygon fill="#63b8ff" stroke="#63b8ff" points="463.01,-188.17 452.59,-186.24 459.53,-194.25 463.01,-188.17"/>
</a>
</g>
</g>
<!-- Node9 -->
<g id="Node000009" class="node">
<title>Node9</title>
<g id="a_Node000009"><a xlink:href="debug_8h.html" target="_top" xlink:title="Debug utilities (header)">
<polygon fill="white" stroke="#666666" points="568.02,-185 518.27,-185 518.27,-165.75 568.02,-165.75 568.02,-185"/>
<text text-anchor="middle" x="543.15" y="-171.5" font-family="Helvetica,sans-Serif" font-size="10.00">debug.h</text>
</a>
</g>
</g>
<!-- Node1&#45;&gt;Node9 -->
<g id="edge17_Node000001_Node000009" class="edge">
<title>Node1&#45;&gt;Node9</title>
<g id="a_edge17_Node000001_Node000009"><a xlink:title=" ">
<path fill="none" stroke="#63b8ff" d="M431.56,-286.94C493.87,-281.42 593.38,-268.37 616.15,-240.25 632.07,-220.58 604.14,-201.99 578.35,-189.99"/>
<polygon fill="#63b8ff" stroke="#63b8ff" points="579.89,-186.84 569.32,-186.03 577.07,-193.25 579.89,-186.84"/>
</a>
</g>
</g>
<!-- Node10 -->
<g id="Node000010" class="node">
<title>Node10</title>
<g id="a_Node000010"><a xlink:href="base_8impl_8h.html" target="_top" xlink:title="Common types and functions (implementation)">
<polygon fill="white" stroke="#666666" points="727.52,-240.25 662.77,-240.25 662.77,-221 727.52,-221 727.52,-240.25"/>
<text text-anchor="middle" x="695.15" y="-226.75" font-family="Helvetica,sans-Serif" font-size="10.00">base.impl.h</text>
</a>
</g>
</g>
<!-- Node1&#45;&gt;Node10 -->
<g id="edge20_Node000001_Node000010" class="edge">
<title>Node1&#45;&gt;Node10</title>
<g id="a_edge20_Node000001_Node000010"><a xlink:title=" ">
<path fill="none" stroke="#63b8ff" d="M431.72,-280.88C485.87,-270.77 573.49,-254.41 649.15,-240.25 649.82,-240.12 650.5,-240 651.18,-239.87"/>
<polygon fill="#63b8ff" stroke="#63b8ff" points="651.81,-243.31 660.99,-238.03 650.52,-236.43 651.81,-243.31"/>
</a>
</g>
</g>
<!-- Node12 -->
<g id="Node000012" class="node">
<title>Node12</title>
<g id="a_Node000012"><a xlink:href="slave_8impl_8h.html" target="_top" xlink:title="Slave&#39;s types and basic functions (implementation)">
<polygon fill="white" stroke="#666666" points="87.65,-240.25 20.65,-240.25 20.65,-221 87.65,-221 87.65,-240.25"/>
<text text-anchor="middle" x="54.15" y="-226.75" font-family="Helvetica,sans-Serif" font-size="10.00">slave.impl.h</text>
</a>
</g>
</g>
<!-- Node1&#45;&gt;Node12 -->
<g id="edge23_Node000001_Node000012" class="edge">
<title>Node1&#45;&gt;Node12</title>
<g id="a_edge23_Node000001_Node000012"><a xlink:title=" ">
<path fill="none" stroke="#63b8ff" d="M328.76,-281.84C274.21,-272.56 185.17,-257.12 99.32,-240.82"/>
<polygon fill="#63b8ff" stroke="#63b8ff" points="100.02,-237.39 89.54,-238.96 98.71,-244.27 100.02,-237.39"/>
</a>
</g>
</g>
<!-- Node13 -->
<g id="Node000013" class="node">
<title>Node13</title>
<g id="a_Node000013"><a xlink:href="slave__func_8impl_8h.html" target="_top" xlink:title="Slave&#39;s functions for parsing requests (implementation)">
<polygon fill="white" stroke="#666666" points="196.65,-240.25 105.65,-240.25 105.65,-221 196.65,-221 196.65,-240.25"/>
<text text-anchor="middle" x="151.15" y="-226.75" font-family="Helvetica,sans-Serif" font-size="10.00">slave_func.impl.h</text>
</a>
</g>
</g>
<!-- Node1&#45;&gt;Node13 -->
<g id="edge26_Node000001_Node000013" class="edge">
<title>Node1&#45;&gt;Node13</title>
<g id="a_edge26_Node000001_Node000013"><a xlink:title=" ">
<path fill="none" stroke="#63b8ff" d="M328.75,-277.29C289.27,-267.14 235.22,-253.24 197.14,-243.45"/>
<polygon fill="#63b8ff" stroke="#63b8ff" points="198.39,-240.16 187.83,-241.06 196.65,-246.94 198.39,-240.16"/>
</a>
</g>
</g>
<!-- Node14 -->
<g id="Node000014" class="node">
<title>Node14</title>
<g id="a_Node000014"><a xlink:href="master_8impl_8h.html" target="_top" xlink:title="Master&#39;s types and basic functions (implementation)">
<polygon fill="white" stroke="#666666" points="365.02,-240.25 291.27,-240.25 291.27,-221 365.02,-221 365.02,-240.25"/>
<text text-anchor="middle" x="328.15" y="-226.75" font-family="Helvetica,sans-Serif" font-size="10.00">master.impl.h</text>
</a>
</g>
</g>
<!-- Node1&#45;&gt;Node14 -->
<g id="edge29_Node000001_Node000014" class="edge">
<title>Node1&#45;&gt;Node14</title>
<g id="a_edge29_Node000001_Node000014"><a xlink:title=" ">
<path fill="none" stroke="#63b8ff" d="M367.29,-275.95C360.14,-267.84 351.18,-257.7 343.64,-249.16"/>
<polygon fill="#63b8ff" stroke="#63b8ff" points="346.41,-247.01 337.16,-241.84 341.16,-251.65 346.41,-247.01"/>
</a>
</g>
</g>
<!-- Node15 -->
<g id="Node000015" class="node">
<title>Node15</title>
<g id="a_Node000015"><a xlink:href="master__func_8impl_8h.html" target="_top" xlink:title="Master&#39;s functions for building requests and parsing responses (implementation)">
<polygon fill="white" stroke="#666666" points="481.02,-240.25 383.27,-240.25 383.27,-221 481.02,-221 481.02,-240.25"/>
<text text-anchor="middle" x="432.15" y="-226.75" font-family="Helvetica,sans-Serif" font-size="10.00">master_func.impl.h</text>
</a>
</g>
</g>
<!-- Node1&#45;&gt;Node15 -->
<g id="edge32_Node000001_Node000015" class="edge">
<title>Node1&#45;&gt;Node15</title>
<g id="a_edge32_Node000001_Node000015"><a xlink:title=" ">
<path fill="none" stroke="#63b8ff" d="M393,-275.95C400.16,-267.84 409.11,-257.7 416.66,-249.16"/>
<polygon fill="#63b8ff" stroke="#63b8ff" points="419.13,-251.65 423.13,-241.84 413.88,-247.01 419.13,-251.65"/>
</a>
</g>
</g>
<!-- Node16 -->
<g id="Node000016" class="node">
<title>Node16</title>
<g id="a_Node000016"><a xlink:href="debug_8impl_8h.html" target="_top" xlink:title="Debug utilities (implementation)">
<polygon fill="white" stroke="#666666" points="607.15,-240.25 537.15,-240.25 537.15,-221 607.15,-221 607.15,-240.25"/>
<text text-anchor="middle" x="572.15" y="-226.75" font-family="Helvetica,sans-Serif" font-size="10.00">debug.impl.h</text>
</a>
</g>
</g>
<!-- Node1&#45;&gt;Node16 -->
<g id="edge35_Node000001_Node000016" class="edge">
<title>Node1&#45;&gt;Node16</title>
<g id="a_edge35_Node000001_Node000016"><a xlink:title=" ">
<path fill="none" stroke="#63b8ff" d="M428.1,-275.8C459.91,-266.04 501.21,-253.38 531.42,-244.11"/>
<polygon fill="#63b8ff" stroke="#63b8ff" points="532.44,-247.46 540.97,-241.18 530.38,-240.77 532.44,-247.46"/>
</a>
</g>
</g>
<!-- Node3 -->
<g id="Node000003" class="node">
<title>Node3</title>
<g id="a_Node000003"><a xlink:title=" ">
<polygon fill="#e0e0e0" stroke="#999999" points="369.9,-19.25 322.4,-19.25 322.4,0 369.9,0 369.9,-19.25"/>
<text text-anchor="middle" x="346.15" y="-5.75" font-family="Helvetica,sans-Serif" font-size="10.00">stdint.h</text>
</a>
</g>
</g>
<!-- Node2&#45;&gt;Node3 -->
<g id="edge2_Node000002_Node000003" class="edge">
<title>Node2&#45;&gt;Node3</title>
<g id="a_edge2_Node000002_Node000003"><a xlink:title=" ">
<path fill="none" stroke="#63b8ff" d="M402.61,-54.84C392.68,-47.07 378.13,-35.67 366.29,-26.4"/>
<polygon fill="#63b8ff" stroke="#63b8ff" points="368.73,-23.87 358.7,-20.46 364.42,-29.38 368.73,-23.87"/>
</a>
</g>
</g>
<!-- Node4&#45;&gt;Node2 -->
<g id="edge6_Node000004_Node000002" class="edge">
<title>Node4&#45;&gt;Node2</title>
<g id="a_edge6_Node000004_Node000002"><a xlink:title=" ">
<path fill="none" stroke="#63b8ff" d="M230.89,-113.02C267.68,-103.55 338.58,-85.31 380.59,-74.51"/>
<polygon fill="#63b8ff" stroke="#63b8ff" points="381.34,-77.93 390.15,-72.05 379.6,-71.15 381.34,-77.93"/>
</a>
</g>
</g>
<!-- Node4&#45;&gt;Node3 -->
<g id="edge4_Node000004_Node000003" class="edge">
<title>Node4&#45;&gt;Node3</title>
<g id="a_edge4_Node000004_Node000003"><a xlink:title=" ">
<path fill="none" stroke="#63b8ff" d="M211.05,-110.15C217.33,-96.64 230.83,-71 249.15,-55.25 267.21,-39.72 291.57,-28.54 311.37,-21.25"/>
<polygon fill="#63b8ff" stroke="#63b8ff" points="312.4,-24.6 320.69,-18 310.09,-17.99 312.4,-24.6"/>
</a>
</g>
</g>
<!-- Node5 -->
<g id="Node000005" class="node">
<title>Node5</title>
<g id="a_Node000005"><a xlink:title=" ">
<polygon fill="#e0e0e0" stroke="#999999" points="308.4,-74.5 257.9,-74.5 257.9,-55.25 308.4,-55.25 308.4,-74.5"/>
<text text-anchor="middle" x="283.15" y="-61" font-family="Helvetica,sans-Serif" font-size="10.00">stddef.h</text>
</a>
</g>
</g>
<!-- Node4&#45;&gt;Node5 -->
<g id="edge5_Node000004_Node000005" class="edge">
<title>Node4&#45;&gt;Node5</title>
<g id="a_edge5_Node000004_Node000005"><a xlink:title=" ">
<path fill="none" stroke="#63b8ff" d="M220.04,-110.09C231.17,-102.29 247.52,-90.84 260.78,-81.54"/>
<polygon fill="#63b8ff" stroke="#63b8ff" points="262.77,-84.43 268.95,-75.82 258.75,-78.69 262.77,-84.43"/>
</a>
</g>
</g>
<!-- Node6&#45;&gt;Node2 -->
<g id="edge8_Node000006_Node000002" class="edge">
<title>Node6&#45;&gt;Node2</title>
<g id="a_edge8_Node000006_Node000002"><a xlink:title=" ">
<path fill="none" stroke="#63b8ff" d="M216.14,-165.31C236.43,-152.35 275.37,-128.15 310.15,-110.5 333.31,-98.74 360.29,-87.22 380.97,-78.83"/>
<polygon fill="#63b8ff" stroke="#63b8ff" points="382.06,-82.17 390.04,-75.2 379.46,-75.67 382.06,-82.17"/>
</a>
</g>
</g>
<!-- Node6&#45;&gt;Node4 -->
<g id="edge9_Node000006_Node000004" class="edge">
<title>Node6&#45;&gt;Node4</title>
<g id="a_edge9_Node000006_Node000004"><a xlink:title=" ">
<path fill="none" stroke="#63b8ff" d="M202.97,-165.58C203.59,-158.99 204.46,-149.71 205.25,-141.32"/>
<polygon fill="#63b8ff" stroke="#63b8ff" points="208.71,-141.9 206.16,-131.62 201.74,-141.25 208.71,-141.9"/>
</a>
</g>
</g>
<!-- Node7&#45;&gt;Node2 -->
<g id="edge13_Node000007_Node000002" class="edge">
<title>Node7&#45;&gt;Node2</title>
<g id="a_edge13_Node000007_Node000002"><a xlink:title=" ">
<path fill="none" stroke="#63b8ff" d="M357.68,-110.09C367.61,-102.32 382.16,-90.92 394,-81.65"/>
<polygon fill="#63b8ff" stroke="#63b8ff" points="395.87,-84.63 401.59,-75.71 391.56,-79.12 395.87,-84.63"/>
</a>
</g>
</g>
<!-- Node7&#45;&gt;Node3 -->
<g id="edge11_Node000007_Node000003" class="edge">
<title>Node7&#45;&gt;Node3</title>
<g id="a_edge11_Node000007_Node000003"><a xlink:title=" ">
<path fill="none" stroke="#63b8ff" d="M346.15,-110.25C346.15,-93 346.15,-54.58 346.15,-30.81"/>
<polygon fill="#63b8ff" stroke="#63b8ff" points="349.65,-31.14 346.15,-21.14 342.65,-31.14 349.65,-31.14"/>
</a>
</g>
</g>
<!-- Node7&#45;&gt;Node5 -->
<g id="edge12_Node000007_Node000005" class="edge">
<title>Node7&#45;&gt;Node5</title>
<g id="a_edge12_Node000007_Node000005"><a xlink:title=" ">
<path fill="none" stroke="#63b8ff" d="M335.46,-110.09C326.44,-102.47 313.31,-91.37 302.46,-82.2"/>
<polygon fill="#63b8ff" stroke="#63b8ff" points="304.73,-79.53 294.83,-75.75 300.21,-84.88 304.73,-79.53"/>
</a>
</g>
</g>
<!-- Node8&#45;&gt;Node2 -->
<g id="edge15_Node000008_Node000002" class="edge">
<title>Node8&#45;&gt;Node2</title>
<g id="a_edge15_Node000008_Node000002"><a xlink:title=" ">
<path fill="none" stroke="#63b8ff" d="M430.67,-165.5C427.81,-148.25 421.44,-109.83 417.49,-86.06"/>
<polygon fill="#63b8ff" stroke="#63b8ff" points="420.98,-85.66 415.89,-76.37 414.07,-86.81 420.98,-85.66"/>
</a>
</g>
</g>
<!-- Node8&#45;&gt;Node7 -->
<g id="edge16_Node000008_Node000007" class="edge">
<title>Node8&#45;&gt;Node7</title>
<g id="a_edge16_Node000008_Node000007"><a xlink:title=" ">
<path fill="none" stroke="#63b8ff" d="M417.56,-165.34C404.71,-157.39 385.73,-145.64 370.57,-136.25"/>
<polygon fill="#63b8ff" stroke="#63b8ff" points="372.44,-133.29 362.09,-131 368.75,-139.24 372.44,-133.29"/>
</a>
</g>
</g>
<!-- Node9&#45;&gt;Node2 -->
<g id="edge18_Node000009_Node000002" class="edge">
<title>Node9&#45;&gt;Node2</title>
<g id="a_edge18_Node000009_Node000002"><a xlink:title=" ">
<path fill="none" stroke="#63b8ff" d="M532.59,-165.5C510.95,-147.3 461.28,-105.52 433.63,-82.26"/>
<polygon fill="#63b8ff" stroke="#63b8ff" points="435.91,-79.61 426.01,-75.85 431.41,-84.97 435.91,-79.61"/>
</a>
</g>
</g>
<!-- Node9&#45;&gt;Node4 -->
<g id="edge19_Node000009_Node000004" class="edge">
<title>Node9&#45;&gt;Node4</title>
<g id="a_edge19_Node000009_Node000004"><a xlink:title=" ">
<path fill="none" stroke="#63b8ff" d="M517.89,-170.37C458.57,-160.97 310.25,-137.46 242.23,-126.68"/>
<polygon fill="#63b8ff" stroke="#63b8ff" points="242.8,-123.23 232.38,-125.12 241.7,-130.15 242.8,-123.23"/>
</a>
</g>
</g>
<!-- Node10&#45;&gt;Node2 -->
<g id="edge21_Node000010_Node000002" class="edge">
<title>Node10&#45;&gt;Node2</title>
<g id="a_edge21_Node000010_Node000002"><a xlink:title=" ">
<path fill="none" stroke="#63b8ff" d="M680,-220.56C646.45,-200.52 563.31,-151 493.15,-110.5 475.52,-100.33 455.57,-89.06 440.12,-80.39"/>
<polygon fill="#63b8ff" stroke="#63b8ff" points="441.99,-77.42 431.55,-75.59 438.57,-83.53 441.99,-77.42"/>
</a>
</g>
</g>
<!-- Node11 -->
<g id="Node000011" class="node">
<title>Node11</title>
<g id="a_Node000011"><a xlink:title=" ">
<polygon fill="#e0e0e0" stroke="#999999" points="718.52,-185 671.77,-185 671.77,-165.75 718.52,-165.75 718.52,-185"/>
<text text-anchor="middle" x="695.15" y="-171.5" font-family="Helvetica,sans-Serif" font-size="10.00">stdlib.h</text>
</a>
</g>
</g>
<!-- Node10&#45;&gt;Node11 -->
<g id="edge22_Node000010_Node000011" class="edge">
<title>Node10&#45;&gt;Node11</title>
<g id="a_edge22_Node000010_Node000011"><a xlink:title=" ">
<path fill="none" stroke="#63b8ff" d="M695.15,-220.83C695.15,-214.32 695.15,-205.17 695.15,-196.87"/>
<polygon fill="#63b8ff" stroke="#63b8ff" points="698.65,-196.87 695.15,-186.87 691.65,-196.87 698.65,-196.87"/>
</a>
</g>
</g>
<!-- Node12&#45;&gt;Node4 -->
<g id="edge24_Node000012_Node000004" class="edge">
<title>Node12&#45;&gt;Node4</title>
<g id="a_edge24_Node000012_Node000004"><a xlink:title=" ">
<path fill="none" stroke="#63b8ff" d="M66.93,-220.56C93.09,-202.01 153.01,-159.51 185.41,-136.54"/>
<polygon fill="#63b8ff" stroke="#63b8ff" points="187.14,-139.6 193.27,-130.96 183.09,-133.89 187.14,-139.6"/>
</a>
</g>
</g>
<!-- Node12&#45;&gt;Node6 -->
<g id="edge25_Node000012_Node000006" class="edge">
<title>Node12&#45;&gt;Node6</title>
<g id="a_edge25_Node000012_Node000006"><a xlink:title=" ">
<path fill="none" stroke="#63b8ff" d="M79.25,-220.59C103.17,-211.99 139.43,-198.94 166.37,-189.25"/>
<polygon fill="#63b8ff" stroke="#63b8ff" points="167.27,-192.64 175.49,-185.96 164.9,-186.06 167.27,-192.64"/>
</a>
</g>
</g>
<!-- Node13&#45;&gt;Node4 -->
<g id="edge28_Node000013_Node000004" class="edge">
<title>Node13&#45;&gt;Node4</title>
<g id="a_edge28_Node000013_Node000004"><a xlink:title=" ">
<path fill="none" stroke="#63b8ff" d="M150.22,-220.81C149.28,-207.96 149.04,-183.65 158.15,-165.75 163.94,-154.37 173.92,-144.47 183.37,-136.9"/>
<polygon fill="#63b8ff" stroke="#63b8ff" points="185.31,-139.82 191.25,-131.05 181.13,-134.2 185.31,-139.82"/>
</a>
</g>
</g>
<!-- Node13&#45;&gt;Node6 -->
<g id="edge27_Node000013_Node000006" class="edge">
<title>Node13&#45;&gt;Node6</title>
<g id="a_edge27_Node000013_Node000006"><a xlink:title=" ">
<path fill="none" stroke="#63b8ff" d="M159.57,-220.83C166.68,-213.4 177.09,-202.54 185.83,-193.41"/>
<polygon fill="#63b8ff" stroke="#63b8ff" points="188.1,-196.1 192.49,-186.45 183.05,-191.25 188.1,-196.1"/>
</a>
</g>
</g>
<!-- Node14&#45;&gt;Node7 -->
<g id="edge30_Node000014_Node000007" class="edge">
<title>Node14&#45;&gt;Node7</title>
<g id="a_edge30_Node000014_Node000007"><a xlink:title=" ">
<path fill="none" stroke="#63b8ff" d="M329.62,-220.75C332.48,-203.5 338.85,-165.08 342.8,-141.31"/>
<polygon fill="#63b8ff" stroke="#63b8ff" points="346.22,-142.06 344.4,-131.62 339.31,-140.91 346.22,-142.06"/>
</a>
</g>
</g>
<!-- Node14&#45;&gt;Node8 -->
<g id="edge31_Node000014_Node000008" class="edge">
<title>Node14&#45;&gt;Node8</title>
<g id="a_edge31_Node000014_Node000008"><a xlink:title=" ">
<path fill="none" stroke="#63b8ff" d="M345.79,-220.59C361.77,-212.41 385.6,-200.21 404.18,-190.69"/>
<polygon fill="#63b8ff" stroke="#63b8ff" points="405.76,-193.82 413.07,-186.14 402.57,-187.58 405.76,-193.82"/>
</a>
</g>
</g>
<!-- Node15&#45;&gt;Node7 -->
<g id="edge34_Node000015_Node000007" class="edge">
<title>Node15&#45;&gt;Node7</title>
<g id="a_edge34_Node000015_Node000007"><a xlink:title=" ">
<path fill="none" stroke="#63b8ff" d="M420.6,-220.51C410.29,-212.01 395.15,-198.63 384.15,-185 372.75,-170.88 362.4,-153 355.4,-139.75"/>
<polygon fill="#63b8ff" stroke="#63b8ff" points="358.71,-138.54 351.04,-131.24 352.48,-141.74 358.71,-138.54"/>
</a>
</g>
</g>
<!-- Node15&#45;&gt;Node8 -->
<g id="edge33_Node000015_Node000008" class="edge">
<title>Node15&#45;&gt;Node8</title>
<g id="a_edge33_Node000015_Node000008"><a xlink:title=" ">
<path fill="none" stroke="#63b8ff" d="M432.15,-220.83C432.15,-214.32 432.15,-205.17 432.15,-196.87"/>
<polygon fill="#63b8ff" stroke="#63b8ff" points="435.65,-196.87 432.15,-186.87 428.65,-196.87 435.65,-196.87"/>
</a>
</g>
</g>
<!-- Node16&#45;&gt;Node9 -->
<g id="edge36_Node000016_Node000009" class="edge">
<title>Node16&#45;&gt;Node9</title>
<g id="a_edge36_Node000016_Node000009"><a xlink:title=" ">
<path fill="none" stroke="#63b8ff" d="M567.36,-220.83C563.6,-213.94 558.24,-204.09 553.51,-195.41"/>
<polygon fill="#63b8ff" stroke="#63b8ff" points="556.62,-193.8 548.76,-186.69 550.47,-197.14 556.62,-193.8"/>
</a>
</g>
</g>
</g>
</svg>
