<?xml version="1.0" encoding="UTF-8" standalone="no"?>
<!DOCTYPE svg PUBLIC "-//W3C//DTD SVG 1.1//EN"
 "http://www.w3.org/Graphics/SVG/1.1/DTD/svg11.dtd">
<!-- Generated by graphviz version 12.2.0 (20241103.1931)
 -->
<!-- Title: include/lightmodbus/lightmodbus.hpp Pages: 1 -->
<svg width="762pt" height="370pt"
 viewBox="0.00 0.00 761.99 370.00" xmlns="http://www.w3.org/2000/svg" xmlns:xlink="http://www.w3.org/1999/xlink">
<g id="graph0" class="graph" transform="scale(1 1) rotate(0) translate(4 366)">
<title>include/lightmodbus/lightmodbus.hpp</title>
<!-- Node1 -->
<g id="Node000001" class="node">
<title>Node1</title>
<g id="a_Node000001"><a xlink:title="(Very) experimental liblightmodbus C++ interface">
<polygon fill="#999999" stroke="#666666" points="388.52,-362 286.27,-362 286.27,-331.5 388.52,-331.5 388.52,-362"/>
<text text-anchor="start" x="294.27" y="-348.5" font-family="Helvetica,sans-Serif" font-size="10.00">include/lightmodbus</text>
<text text-anchor="middle" x="337.39" y="-337.25" font-family="Helvetica,sans-Serif" font-size="10.00">/lightmodbus.hpp</text>
</a>
</g>
</g>
<!-- Node2 -->
<g id="Node000002" class="node">
<title>Node2</title>
<g id="a_Node000002"><a xlink:title=" ">
<polygon fill="#e0e0e0" stroke="#999999" points="324.39,-295.5 266.39,-295.5 266.39,-276.25 324.39,-276.25 324.39,-295.5"/>
<text text-anchor="middle" x="295.39" y="-282" font-family="Helvetica,sans-Serif" font-size="10.00">stdexcept</text>
</a>
</g>
</g>
<!-- Node1&#45;&gt;Node2 -->
<g id="edge1_Node000001_Node000002" class="edge">
<title>Node1&#45;&gt;Node2</title>
<g id="a_edge1_Node000001_Node000002"><a xlink:title=" ">
<path fill="none" stroke="#63b8ff" d="M327.01,-331.2C321.41,-323.35 314.45,-313.6 308.49,-305.24"/>
<polygon fill="#63b8ff" stroke="#63b8ff" points="311.4,-303.29 302.74,-297.18 305.7,-307.36 311.4,-303.29"/>
</a>
</g>
</g>
<!-- Node3 -->
<g id="Node000003" class="node">
<title>Node3</title>
<g id="a_Node000003"><a xlink:href="lightmodbus_8h.html" target="_top" xlink:title="The main library header file (include this one)">
<polygon fill="white" stroke="#666666" points="418.39,-295.5 342.39,-295.5 342.39,-276.25 418.39,-276.25 418.39,-295.5"/>
<text text-anchor="middle" x="380.39" y="-282" font-family="Helvetica,sans-Serif" font-size="10.00">lightmodbus.h</text>
</a>
</g>
</g>
<!-- Node1&#45;&gt;Node3 -->
<g id="edge2_Node000001_Node000003" class="edge">
<title>Node1&#45;&gt;Node3</title>
<g id="a_edge2_Node000001_Node000003"><a xlink:title=" ">
<path fill="none" stroke="#63b8ff" d="M348.02,-331.2C353.75,-323.35 360.87,-313.6 366.98,-305.24"/>
<polygon fill="#63b8ff" stroke="#63b8ff" points="369.8,-307.31 372.87,-297.17 364.14,-303.18 369.8,-307.31"/>
</a>
</g>
</g>
<!-- Node4 -->
<g id="Node000004" class="node">
<title>Node4</title>
<g id="a_Node000004"><a xlink:href="base_8h.html" target="_top" xlink:title="Common types and functions (header)">
<polygon fill="white" stroke="#666666" points="436.64,-74.5 392.14,-74.5 392.14,-55.25 436.64,-55.25 436.64,-74.5"/>
<text text-anchor="middle" x="414.39" y="-61" font-family="Helvetica,sans-Serif" font-size="10.00">base.h</text>
</a>
</g>
</g>
<!-- Node3&#45;&gt;Node4 -->
<g id="edge3_Node000003_Node000004" class="edge">
<title>Node3&#45;&gt;Node4</title>
<g id="a_edge3_Node000003_Node000004"><a xlink:title=" ">
<path fill="none" stroke="#63b8ff" d="M418.78,-282.89C506.48,-277.95 715.6,-263.81 736.39,-240.25 825.42,-139.36 547.15,-86.11 448.06,-70.68"/>
<polygon fill="#63b8ff" stroke="#63b8ff" points="448.8,-67.25 438.39,-69.21 447.75,-74.17 448.8,-67.25"/>
</a>
</g>
</g>
<!-- Node6 -->
<g id="Node000006" class="node">
<title>Node6</title>
<g id="a_Node000006"><a xlink:href="slave_8h.html" target="_top" xlink:title="Slave&#39;s types and basic functions (header)">
<polygon fill="white" stroke="#666666" points="230.77,-129.75 184.02,-129.75 184.02,-110.5 230.77,-110.5 230.77,-129.75"/>
<text text-anchor="middle" x="207.39" y="-116.25" font-family="Helvetica,sans-Serif" font-size="10.00">slave.h</text>
</a>
</g>
</g>
<!-- Node3&#45;&gt;Node6 -->
<g id="edge5_Node000003_Node000006" class="edge">
<title>Node3&#45;&gt;Node6</title>
<g id="a_edge5_Node000003_Node000006"><a xlink:title=" ">
<path fill="none" stroke="#63b8ff" d="M341.95,-277.59C339.06,-277.12 336.18,-276.66 333.39,-276.25 262.16,-265.75 59.39,-293.92 11.39,-240.25 -40.93,-181.75 103.5,-142.72 172.73,-127.85"/>
<polygon fill="#63b8ff" stroke="#63b8ff" points="173.38,-131.29 182.45,-125.82 171.95,-124.44 173.38,-131.29"/>
</a>
</g>
</g>
<!-- Node8 -->
<g id="Node000008" class="node">
<title>Node8</title>
<g id="a_Node000008"><a xlink:href="slave__func_8h.html" target="_top" xlink:title="Slave&#39;s functions for parsing requests (header)">
<polygon fill="white" stroke="#666666" points="237.77,-185 167.02,-185 167.02,-165.75 237.77,-165.75 237.77,-185"/>
<text text-anchor="middle" x="202.39" y="-171.5" font-family="Helvetica,sans-Serif" font-size="10.00">slave_func.h</text>
</a>
</g>
</g>
<!-- Node3&#45;&gt;Node8 -->
<g id="edge9_Node000003_Node000008" class="edge">
<title>Node3&#45;&gt;Node8</title>
<g id="a_edge9_Node000003_Node000008"><a xlink:title=" ">
<path fill="none" stroke="#63b8ff" d="M341.97,-278.21C314.21,-271.94 276.91,-260.42 249.39,-240.25 233.11,-228.32 220.06,-209.1 211.88,-194.86"/>
<polygon fill="#63b8ff" stroke="#63b8ff" points="215.17,-193.59 207.33,-186.47 209.02,-196.93 215.17,-193.59"/>
</a>
</g>
</g>
<!-- Node9 -->
<g id="Node000009" class="node">
<title>Node9</title>
<g id="a_Node000009"><a xlink:href="master_8h.html" target="_top" xlink:title="Master&#39;s types and basic functions (header)">
<polygon fill="white" stroke="#666666" points="373.14,-129.75 319.64,-129.75 319.64,-110.5 373.14,-110.5 373.14,-129.75"/>
<text text-anchor="middle" x="346.39" y="-116.25" font-family="Helvetica,sans-Serif" font-size="10.00">master.h</text>
</a>
</g>
</g>
<!-- Node3&#45;&gt;Node9 -->
<g id="edge12_Node000003_Node000009" class="edge">
<title>Node3&#45;&gt;Node9</title>
<g id="a_edge12_Node000003_Node000009"><a xlink:title=" ">
<path fill="none" stroke="#63b8ff" d="M342.1,-277.94C320.61,-271.88 295.54,-260.69 282.39,-240.25 259.66,-204.93 299.96,-160.8 326.29,-137.42"/>
<polygon fill="#63b8ff" stroke="#63b8ff" points="328.42,-140.2 333.75,-131.05 323.87,-134.88 328.42,-140.2"/>
</a>
</g>
</g>
<!-- Node10 -->
<g id="Node000010" class="node">
<title>Node10</title>
<g id="a_Node000010"><a xlink:href="master__func_8h.html" target="_top" xlink:title="Master&#39;s functions for building requests and parsing responses (header)">
<polygon fill="white" stroke="#666666" points="471.14,-185 393.64,-185 393.64,-165.75 471.14,-165.75 471.14,-185"/>
<text text-anchor="middle" x="432.39" y="-171.5" font-family="Helvetica,sans-Serif" font-size="10.00">master_func.h</text>
</a>
</g>
</g>
<!-- Node3&#45;&gt;Node10 -->
<g id="edge16_Node000003_Node000010" class="edge">
<title>Node3&#45;&gt;Node10</title>
<g id="a_edge16_Node000003_Node000010"><a xlink:title=" ">
<path fill="none" stroke="#63b8ff" d="M418.83,-280.21C443.78,-274.96 474.5,-263.84 490.39,-240.25 502.77,-221.86 481.46,-203.39 461.26,-191.07"/>
<polygon fill="#63b8ff" stroke="#63b8ff" points="463.03,-188.05 452.61,-186.14 459.56,-194.13 463.03,-188.05"/>
</a>
</g>
</g>
<!-- Node11 -->
<g id="Node000011" class="node">
<title>Node11</title>
<g id="a_Node000011"><a xlink:href="debug_8h.html" target="_top" xlink:title="Debug utilities (header)">
<polygon fill="white" stroke="#666666" points="568.27,-185 518.52,-185 518.52,-165.75 568.27,-165.75 568.27,-185"/>
<text text-anchor="middle" x="543.39" y="-171.5" font-family="Helvetica,sans-Serif" font-size="10.00">debug.h</text>
</a>
</g>
</g>
<!-- Node3&#45;&gt;Node11 -->
<g id="edge19_Node000003_Node000011" class="edge">
<title>Node3&#45;&gt;Node11</title>
<g id="a_edge19_Node000003_Node000011"><a xlink:title=" ">
<path fill="none" stroke="#63b8ff" d="M418.61,-283.36C478.89,-280.08 591.71,-270.03 616.39,-240.25 632.54,-220.76 604.57,-202.14 578.71,-190.08"/>
<polygon fill="#63b8ff" stroke="#63b8ff" points="580.22,-186.92 569.65,-186.1 577.4,-193.33 580.22,-186.92"/>
</a>
</g>
</g>
<!-- Node12 -->
<g id="Node000012" class="node">
<title>Node12</title>
<g id="a_Node000012"><a xlink:href="base_8impl_8h.html" target="_top" xlink:title="Common types and functions (implementation)">
<polygon fill="white" stroke="#666666" points="727.77,-240.25 663.02,-240.25 663.02,-221 727.77,-221 727.77,-240.25"/>
<text text-anchor="middle" x="695.39" y="-226.75" font-family="Helvetica,sans-Serif" font-size="10.00">base.impl.h</text>
</a>
</g>
</g>
<!-- Node3&#45;&gt;Node12 -->
<g id="edge22_Node000003_Node000012" class="edge">
<title>Node3&#45;&gt;Node12</title>
<g id="a_edge22_Node000003_Node000012"><a xlink:title=" ">
<path fill="none" stroke="#63b8ff" d="M418.74,-278.77C470.97,-270.4 567.34,-254.75 649.39,-240.25 650.07,-240.13 650.75,-240.01 651.43,-239.89"/>
<polygon fill="#63b8ff" stroke="#63b8ff" points="652.04,-243.34 661.25,-238.11 650.78,-236.45 652.04,-243.34"/>
</a>
</g>
</g>
<!-- Node14 -->
<g id="Node000014" class="node">
<title>Node14</title>
<g id="a_Node000014"><a xlink:href="slave_8impl_8h.html" target="_top" xlink:title="Slave&#39;s types and basic functions (implementation)">
<polygon fill="white" stroke="#666666" points="87.89,-240.25 20.89,-240.25 20.89,-221 87.89,-221 87.89,-240.25"/>
<text text-anchor="middle" x="54.39" y="-226.75" font-family="Helvetica,sans-Serif" font-size="10.00">slave.impl.h</text>
</a>
</g>
</g>
<!-- Node3&#45;&gt;Node14 -->
<g id="edge25_Node000003_Node000014" class="edge">
<title>Node3&#45;&gt;Node14</title>
<g id="a_edge25_Node000003_Node000014"><a xlink:title=" ">
<path fill="none" stroke="#63b8ff" d="M341.93,-277.72C339.04,-277.21 336.17,-276.72 333.39,-276.25 231.91,-259.23 203.21,-258.97 99.58,-240.75"/>
<polygon fill="#63b8ff" stroke="#63b8ff" points="100.24,-237.31 89.78,-239.01 99.01,-244.2 100.24,-237.31"/>
</a>
</g>
</g>
<!-- Node15 -->
<g id="Node000015" class="node">
<title>Node15</title>
<g id="a_Node000015"><a xlink:href="slave__func_8impl_8h.html" target="_top" xlink:title="Slave&#39;s functions for parsing requests (implementation)">
<polygon fill="white" stroke="#666666" points="196.89,-240.25 105.89,-240.25 105.89,-221 196.89,-221 196.89,-240.25"/>
<text text-anchor="middle" x="151.39" y="-226.75" font-family="Helvetica,sans-Serif" font-size="10.00">slave_func.impl.h</text>
</a>
</g>
</g>
<!-- Node3&#45;&gt;Node15 -->
<g id="edge28_Node000003_Node000015" class="edge">
<title>Node3&#45;&gt;Node15</title>
<g id="a_edge28_Node000003_Node000015"><a xlink:title=" ">
<path fill="none" stroke="#63b8ff" d="M342.06,-275.96C303.57,-267.01 244.07,-253.18 201.78,-243.34"/>
<polygon fill="#63b8ff" stroke="#63b8ff" points="202.62,-239.94 192.09,-241.09 201.03,-246.76 202.62,-239.94"/>
</a>
</g>
</g>
<!-- Node16 -->
<g id="Node000016" class="node">
<title>Node16</title>
<g id="a_Node000016"><a xlink:href="master_8impl_8h.html" target="_top" xlink:title="Master&#39;s types and basic functions (implementation)">
<polygon fill="white" stroke="#666666" points="365.27,-240.25 291.52,-240.25 291.52,-221 365.27,-221 365.27,-240.25"/>
<text text-anchor="middle" x="328.39" y="-226.75" font-family="Helvetica,sans-Serif" font-size="10.00">master.impl.h</text>
</a>
</g>
</g>
<!-- Node3&#45;&gt;Node16 -->
<g id="edge31_Node000003_Node000016" class="edge">
<title>Node3&#45;&gt;Node16</title>
<g id="a_edge31_Node000003_Node000016"><a xlink:title=" ">
<path fill="none" stroke="#63b8ff" d="M371.8,-276.08C364.55,-268.65 353.94,-257.79 345.03,-248.66"/>
<polygon fill="#63b8ff" stroke="#63b8ff" points="347.71,-246.4 338.22,-241.69 342.7,-251.29 347.71,-246.4"/>
</a>
</g>
</g>
<!-- Node17 -->
<g id="Node000017" class="node">
<title>Node17</title>
<g id="a_Node000017"><a xlink:href="master__func_8impl_8h.html" target="_top" xlink:title="Master&#39;s functions for building requests and parsing responses (implementation)">
<polygon fill="white" stroke="#666666" points="481.27,-240.25 383.52,-240.25 383.52,-221 481.27,-221 481.27,-240.25"/>
<text text-anchor="middle" x="432.39" y="-226.75" font-family="Helvetica,sans-Serif" font-size="10.00">master_func.impl.h</text>
</a>
</g>
</g>
<!-- Node3&#45;&gt;Node17 -->
<g id="edge34_Node000003_Node000017" class="edge">
<title>Node3&#45;&gt;Node17</title>
<g id="a_edge34_Node000003_Node000017"><a xlink:title=" ">
<path fill="none" stroke="#63b8ff" d="M388.98,-276.08C396.24,-268.65 406.84,-257.79 415.76,-248.66"/>
<polygon fill="#63b8ff" stroke="#63b8ff" points="418.08,-251.29 422.56,-241.69 413.07,-246.4 418.08,-251.29"/>
</a>
</g>
</g>
<!-- Node18 -->
<g id="Node000018" class="node">
<title>Node18</title>
<g id="a_Node000018"><a xlink:href="debug_8impl_8h.html" target="_top" xlink:title="Debug utilities (implementation)">
<polygon fill="white" stroke="#666666" points="607.39,-240.25 537.39,-240.25 537.39,-221 607.39,-221 607.39,-240.25"/>
<text text-anchor="middle" x="572.39" y="-226.75" font-family="Helvetica,sans-Serif" font-size="10.00">debug.impl.h</text>
</a>
</g>
</g>
<!-- Node3&#45;&gt;Node18 -->
<g id="edge37_Node000003_Node000018" class="edge">
<title>Node3&#45;&gt;Node18</title>
<g id="a_edge37_Node000003_Node000018"><a xlink:title=" ">
<path fill="none" stroke="#63b8ff" d="M412.96,-275.84C444.82,-267.01 493.55,-253.49 528.75,-243.73"/>
<polygon fill="#63b8ff" stroke="#63b8ff" points="529.5,-247.15 538.2,-241.11 527.63,-240.41 529.5,-247.15"/>
</a>
</g>
</g>
<!-- Node5 -->
<g id="Node000005" class="node">
<title>Node5</title>
<g id="a_Node000005"><a xlink:title=" ">
<polygon fill="#e0e0e0" stroke="#999999" points="370.14,-19.25 322.64,-19.25 322.64,0 370.14,0 370.14,-19.25"/>
<text text-anchor="middle" x="346.39" y="-5.75" font-family="Helvetica,sans-Serif" font-size="10.00">stdint.h</text>
</a>
</g>
</g>
<!-- Node4&#45;&gt;Node5 -->
<g id="edge4_Node000004_Node000005" class="edge">
<title>Node4&#45;&gt;Node5</title>
<g id="a_edge4_Node000004_Node000005"><a xlink:title=" ">
<path fill="none" stroke="#63b8ff" d="M402.86,-54.84C392.93,-47.07 378.38,-35.67 366.53,-26.4"/>
<polygon fill="#63b8ff" stroke="#63b8ff" points="368.98,-23.87 358.95,-20.46 364.66,-29.38 368.98,-23.87"/>
</a>
</g>
</g>
<!-- Node6&#45;&gt;Node4 -->
<g id="edge8_Node000006_Node000004" class="edge">
<title>Node6&#45;&gt;Node4</title>
<g id="a_edge8_Node000006_Node000004"><a xlink:title=" ">
<path fill="none" stroke="#63b8ff" d="M231.14,-113.02C267.93,-103.55 338.83,-85.31 380.84,-74.51"/>
<polygon fill="#63b8ff" stroke="#63b8ff" points="381.59,-77.93 390.4,-72.05 379.84,-71.15 381.59,-77.93"/>
</a>
</g>
</g>
<!-- Node6&#45;&gt;Node5 -->
<g id="edge6_Node000006_Node000005" class="edge">
<title>Node6&#45;&gt;Node5</title>
<g id="a_edge6_Node000006_Node000005"><a xlink:title=" ">
<path fill="none" stroke="#63b8ff" d="M211.3,-110.15C217.57,-96.64 231.08,-71 249.39,-55.25 267.45,-39.72 291.82,-28.54 311.61,-21.25"/>
<polygon fill="#63b8ff" stroke="#63b8ff" points="312.64,-24.6 320.93,-18 310.34,-17.99 312.64,-24.6"/>
</a>
</g>
</g>
<!-- Node7 -->
<g id="Node000007" class="node">
<title>Node7</title>
<g id="a_Node000007"><a xlink:title=" ">
<polygon fill="#e0e0e0" stroke="#999999" points="308.64,-74.5 258.14,-74.5 258.14,-55.25 308.64,-55.25 308.64,-74.5"/>
<text text-anchor="middle" x="283.39" y="-61" font-family="Helvetica,sans-Serif" font-size="10.00">stddef.h</text>
</a>
</g>
</g>
<!-- Node6&#45;&gt;Node7 -->
<g id="edge7_Node000006_Node000007" class="edge">
<title>Node6&#45;&gt;Node7</title>
<g id="a_edge7_Node000006_Node000007"><a xlink:title=" ">
<path fill="none" stroke="#63b8ff" d="M220.28,-110.09C231.42,-102.29 247.76,-90.84 261.03,-81.54"/>
<polygon fill="#63b8ff" stroke="#63b8ff" points="263.01,-84.43 269.2,-75.82 259,-78.69 263.01,-84.43"/>
</a>
</g>
</g>
<!-- Node8&#45;&gt;Node4 -->
<g id="edge10_Node000008_Node000004" class="edge">
<title>Node8&#45;&gt;Node4</title>
<g id="a_edge10_Node000008_Node000004"><a xlink:title=" ">
<path fill="none" stroke="#63b8ff" d="M216.39,-165.31C236.67,-152.35 275.62,-128.15 310.39,-110.5 333.56,-98.74 360.54,-87.22 381.22,-78.83"/>
<polygon fill="#63b8ff" stroke="#63b8ff" points="382.31,-82.17 390.29,-75.2 379.7,-75.67 382.31,-82.17"/>
</a>
</g>
</g>
<!-- Node8&#45;&gt;Node6 -->
<g id="edge11_Node000008_Node000006" class="edge">
<title>Node8&#45;&gt;Node6</title>
<g id="a_edge11_Node000008_Node000006"><a xlink:title=" ">
<path fill="none" stroke="#63b8ff" d="M203.22,-165.58C203.84,-158.99 204.71,-149.71 205.49,-141.32"/>
<polygon fill="#63b8ff" stroke="#63b8ff" points="208.96,-141.9 206.41,-131.62 201.99,-141.25 208.96,-141.9"/>
</a>
</g>
</g>
<!-- Node9&#45;&gt;Node4 -->
<g id="edge15_Node000009_Node000004" class="edge">
<title>Node9&#45;&gt;Node4</title>
<g id="a_edge15_Node000009_Node000004"><a xlink:title=" ">
<path fill="none" stroke="#63b8ff" d="M357.93,-110.09C367.85,-102.32 382.4,-90.92 394.25,-81.65"/>
<polygon fill="#63b8ff" stroke="#63b8ff" points="396.12,-84.63 401.83,-75.71 391.8,-79.12 396.12,-84.63"/>
</a>
</g>
</g>
<!-- Node9&#45;&gt;Node5 -->
<g id="edge13_Node000009_Node000005" class="edge">
<title>Node9&#45;&gt;Node5</title>
<g id="a_edge13_Node000009_Node000005"><a xlink:title=" ">
<path fill="none" stroke="#63b8ff" d="M346.39,-110.25C346.39,-93 346.39,-54.58 346.39,-30.81"/>
<polygon fill="#63b8ff" stroke="#63b8ff" points="349.89,-31.14 346.39,-21.14 342.89,-31.14 349.89,-31.14"/>
</a>
</g>
</g>
<!-- Node9&#45;&gt;Node7 -->
<g id="edge14_Node000009_Node000007" class="edge">
<title>Node9&#45;&gt;Node7</title>
<g id="a_edge14_Node000009_Node000007"><a xlink:title=" ">
<path fill="none" stroke="#63b8ff" d="M335.7,-110.09C326.69,-102.47 313.56,-91.37 302.71,-82.2"/>
<polygon fill="#63b8ff" stroke="#63b8ff" points="304.97,-79.53 295.08,-75.75 300.45,-84.88 304.97,-79.53"/>
</a>
</g>
</g>
<!-- Node10&#45;&gt;Node4 -->
<g id="edge17_Node000010_Node000004" class="edge">
<title>Node10&#45;&gt;Node4</title>
<g id="a_edge17_Node000010_Node000004"><a xlink:title=" ">
<path fill="none" stroke="#63b8ff" d="M430.92,-165.5C428.06,-148.25 421.68,-109.83 417.74,-86.06"/>
<polygon fill="#63b8ff" stroke="#63b8ff" points="421.22,-85.66 416.13,-76.37 414.32,-86.81 421.22,-85.66"/>
</a>
</g>
</g>
<!-- Node10&#45;&gt;Node9 -->
<g id="edge18_Node000010_Node000009" class="edge">
<title>Node10&#45;&gt;Node9</title>
<g id="a_edge18_Node000010_Node000009"><a xlink:title=" ">
<path fill="none" stroke="#63b8ff" d="M417.8,-165.34C404.95,-157.39 385.98,-145.64 370.82,-136.25"/>
<polygon fill="#63b8ff" stroke="#63b8ff" points="372.68,-133.29 362.34,-131 369,-139.24 372.68,-133.29"/>
</a>
</g>
</g>
<!-- Node11&#45;&gt;Node4 -->
<g id="edge20_Node000011_Node000004" class="edge">
<title>Node11&#45;&gt;Node4</title>
<g id="a_edge20_Node000011_Node000004"><a xlink:title=" ">
<path fill="none" stroke="#63b8ff" d="M532.83,-165.5C511.2,-147.3 461.53,-105.52 433.87,-82.26"/>
<polygon fill="#63b8ff" stroke="#63b8ff" points="436.16,-79.61 426.25,-75.85 431.65,-84.97 436.16,-79.61"/>
</a>
</g>
</g>
<!-- Node11&#45;&gt;Node6 -->
<g id="edge21_Node000011_Node000006" class="edge">
<title>Node11&#45;&gt;Node6</title>
<g id="a_edge21_Node000011_Node000006"><a xlink:title=" ">
<path fill="none" stroke="#63b8ff" d="M518.14,-170.37C458.82,-160.97 310.49,-137.46 242.47,-126.68"/>
<polygon fill="#63b8ff" stroke="#63b8ff" points="243.05,-123.23 232.62,-125.12 241.95,-130.15 243.05,-123.23"/>
</a>
</g>
</g>
<!-- Node12&#45;&gt;Node4 -->
<g id="edge23_Node000012_Node000004" class="edge">
<title>Node12&#45;&gt;Node4</title>
<g id="a_edge23_Node000012_Node000004"><a xlink:title=" ">
<path fill="none" stroke="#63b8ff" d="M680.24,-220.56C646.7,-200.52 563.56,-151 493.39,-110.5 475.77,-100.33 455.81,-89.06 440.37,-80.39"/>
<polygon fill="#63b8ff" stroke="#63b8ff" points="442.23,-77.42 431.8,-75.59 438.81,-83.53 442.23,-77.42"/>
</a>
</g>
</g>
<!-- Node13 -->
<g id="Node000013" class="node">
<title>Node13</title>
<g id="a_Node000013"><a xlink:title=" ">
<polygon fill="#e0e0e0" stroke="#999999" points="718.77,-185 672.02,-185 672.02,-165.75 718.77,-165.75 718.77,-185"/>
<text text-anchor="middle" x="695.39" y="-171.5" font-family="Helvetica,sans-Serif" font-size="10.00">stdlib.h</text>
</a>
</g>
</g>
<!-- Node12&#45;&gt;Node13 -->
<g id="edge24_Node000012_Node000013" class="edge">
<title>Node12&#45;&gt;Node13</title>
<g id="a_edge24_Node000012_Node000013"><a xlink:title=" ">
<path fill="none" stroke="#63b8ff" d="M695.39,-220.83C695.39,-214.32 695.39,-205.17 695.39,-196.87"/>
<polygon fill="#63b8ff" stroke="#63b8ff" points="698.89,-196.87 695.39,-186.87 691.89,-196.87 698.89,-196.87"/>
</a>
</g>
</g>
<!-- Node14&#45;&gt;Node6 -->
<g id="edge26_Node000014_Node000006" class="edge">
<title>Node14&#45;&gt;Node6</title>
<g id="a_edge26_Node000014_Node000006"><a xlink:title=" ">
<path fill="none" stroke="#63b8ff" d="M67.17,-220.56C93.34,-202.01 153.26,-159.51 185.65,-136.54"/>
<polygon fill="#63b8ff" stroke="#63b8ff" points="187.39,-139.6 193.52,-130.96 183.34,-133.89 187.39,-139.6"/>
</a>
</g>
</g>
<!-- Node14&#45;&gt;Node8 -->
<g id="edge27_Node000014_Node000008" class="edge">
<title>Node14&#45;&gt;Node8</title>
<g id="a_edge27_Node000014_Node000008"><a xlink:title=" ">
<path fill="none" stroke="#63b8ff" d="M79.5,-220.59C103.42,-211.99 139.67,-198.94 166.61,-189.25"/>
<polygon fill="#63b8ff" stroke="#63b8ff" points="167.51,-192.64 175.74,-185.96 165.14,-186.06 167.51,-192.64"/>
</a>
</g>
</g>
<!-- Node15&#45;&gt;Node6 -->
<g id="edge30_Node000015_Node000006" class="edge">
<title>Node15&#45;&gt;Node6</title>
<g id="a_edge30_Node000015_Node000006"><a xlink:title=" ">
<path fill="none" stroke="#63b8ff" d="M150.47,-220.81C149.52,-207.96 149.29,-183.65 158.39,-165.75 164.18,-154.37 174.16,-144.47 183.61,-136.9"/>
<polygon fill="#63b8ff" stroke="#63b8ff" points="185.55,-139.82 191.49,-131.05 181.38,-134.2 185.55,-139.82"/>
</a>
</g>
</g>
<!-- Node15&#45;&gt;Node8 -->
<g id="edge29_Node000015_Node000008" class="edge">
<title>Node15&#45;&gt;Node8</title>
<g id="a_edge29_Node000015_Node000008"><a xlink:title=" ">
<path fill="none" stroke="#63b8ff" d="M159.81,-220.83C166.93,-213.4 177.33,-202.54 186.08,-193.41"/>
<polygon fill="#63b8ff" stroke="#63b8ff" points="188.35,-196.1 192.74,-186.45 183.29,-191.25 188.35,-196.1"/>
</a>
</g>
</g>
<!-- Node16&#45;&gt;Node9 -->
<g id="edge32_Node000016_Node000009" class="edge">
<title>Node16&#45;&gt;Node9</title>
<g id="a_edge32_Node000016_Node000009"><a xlink:title=" ">
<path fill="none" stroke="#63b8ff" d="M329.86,-220.75C332.73,-203.5 339.1,-165.08 343.04,-141.31"/>
<polygon fill="#63b8ff" stroke="#63b8ff" points="346.47,-142.06 344.65,-131.62 339.56,-140.91 346.47,-142.06"/>
</a>
</g>
</g>
<!-- Node16&#45;&gt;Node10 -->
<g id="edge33_Node000016_Node000010" class="edge">
<title>Node16&#45;&gt;Node10</title>
<g id="a_edge33_Node000016_Node000010"><a xlink:title=" ">
<path fill="none" stroke="#63b8ff" d="M346.03,-220.59C362.02,-212.41 385.85,-200.21 404.43,-190.69"/>
<polygon fill="#63b8ff" stroke="#63b8ff" points="406.01,-193.82 413.32,-186.14 402.82,-187.58 406.01,-193.82"/>
</a>
</g>
</g>
<!-- Node17&#45;&gt;Node9 -->
<g id="edge36_Node000017_Node000009" class="edge">
<title>Node17&#45;&gt;Node9</title>
<g id="a_edge36_Node000017_Node000009"><a xlink:title=" ">
<path fill="none" stroke="#63b8ff" d="M420.85,-220.51C410.53,-212.01 395.4,-198.63 384.39,-185 372.99,-170.88 362.65,-153 355.64,-139.75"/>
<polygon fill="#63b8ff" stroke="#63b8ff" points="358.96,-138.54 351.28,-131.24 352.73,-141.74 358.96,-138.54"/>
</a>
</g>
</g>
<!-- Node17&#45;&gt;Node10 -->
<g id="edge35_Node000017_Node000010" class="edge">
<title>Node17&#45;&gt;Node10</title>
<g id="a_edge35_Node000017_Node000010"><a xlink:title=" ">
<path fill="none" stroke="#63b8ff" d="M432.39,-220.83C432.39,-214.32 432.39,-205.17 432.39,-196.87"/>
<polygon fill="#63b8ff" stroke="#63b8ff" points="435.89,-196.87 432.39,-186.87 428.89,-196.87 435.89,-196.87"/>
</a>
</g>
</g>
<!-- Node18&#45;&gt;Node11 -->
<g id="edge38_Node000018_Node000011" class="edge">
<title>Node18&#45;&gt;Node11</title>
<g id="a_edge38_Node000018_Node000011"><a xlink:title=" ">
<path fill="none" stroke="#63b8ff" d="M567.6,-220.83C563.85,-213.94 558.48,-204.09 553.76,-195.41"/>
<polygon fill="#63b8ff" stroke="#63b8ff" points="556.86,-193.8 549.01,-186.69 550.72,-197.14 556.86,-193.8"/>
</a>
</g>
</g>
</g>
</svg>
