<?xml version="1.0" encoding="UTF-8" standalone="no"?>
<!DOCTYPE svg PUBLIC "-//W3C//DTD SVG 1.1//EN"
 "http://www.w3.org/Graphics/SVG/1.1/DTD/svg11.dtd">
<!-- Generated by graphviz version 12.2.0 (20241103.1931)
 -->
<!-- Title: modbusMasterAllocateRequest Pages: 1 -->
<svg width="339pt" height="235pt"
 viewBox="0.00 0.00 339.25 234.50" xmlns="http://www.w3.org/2000/svg" xmlns:xlink="http://www.w3.org/1999/xlink">
<g id="graph0" class="graph" transform="scale(1 1) rotate(0) translate(4 230.5)">
<title>modbusMasterAllocateRequest</title>
<!-- Node1 -->
<g id="Node000001" class="node">
<title>Node1</title>
<g id="a_Node000001"><a xlink:title="Allocates memory for the request frame.">
<polygon fill="#999999" stroke="#666666" points="331.25,-122.88 179.5,-122.88 179.5,-103.62 331.25,-103.62 331.25,-122.88"/>
<text text-anchor="middle" x="255.38" y="-109.38" font-family="Helvetica,sans-Serif" font-size="10.00">modbusMasterAllocateRequest</text>
</a>
</g>
</g>
<!-- Node2 -->
<g id="Node000002" class="node">
<title>Node2</title>
<g id="a_Node000002"><a xlink:href="master__func_8impl_8h.html#a2a17495474de4ed91efe8df2bf11d16f" target="_top" xlink:title="Read mutiple coils/discrete inputs/holding registers/input registers.">
<polygon fill="white" stroke="#666666" points="143.5,-226.5 0,-226.5 0,-196 143.5,-196 143.5,-226.5"/>
<text text-anchor="start" x="8" y="-213" font-family="Helvetica,sans-Serif" font-size="10.00">ModbusErrorInfomodbusBuild</text>
<text text-anchor="middle" x="71.75" y="-201.75" font-family="Helvetica,sans-Serif" font-size="10.00">Request01020304</text>
</a>
</g>
</g>
<!-- Node1&#45;&gt;Node2 -->
<g id="edge1_Node000001_Node000002" class="edge">
<title>Node1&#45;&gt;Node2</title>
<g id="a_edge1_Node000001_Node000002"><a xlink:title=" ">
<path fill="none" stroke="#63b8ff" d="M232.34,-130.08C210.63,-146.09 176.08,-170.07 143.5,-186.25 136.73,-189.61 129.4,-192.73 122.11,-195.55"/>
<polygon fill="#63b8ff" stroke="#63b8ff" points="234.23,-133.04 240.14,-124.25 230.04,-127.43 234.23,-133.04"/>
</a>
</g>
</g>
<!-- Node3 -->
<g id="Node000003" class="node">
<title>Node3</title>
<g id="a_Node000003"><a xlink:href="master__func_8impl_8h.html#a215655635f299f22ccd8eb3d79774357" target="_top" xlink:title="Write single coil/holding register.">
<polygon fill="white" stroke="#666666" points="143.5,-177.5 0,-177.5 0,-147 143.5,-147 143.5,-177.5"/>
<text text-anchor="start" x="8" y="-164" font-family="Helvetica,sans-Serif" font-size="10.00">ModbusErrorInfomodbusBuild</text>
<text text-anchor="middle" x="71.75" y="-152.75" font-family="Helvetica,sans-Serif" font-size="10.00">Request0506</text>
</a>
</g>
</g>
<!-- Node1&#45;&gt;Node3 -->
<g id="edge2_Node000001_Node000003" class="edge">
<title>Node1&#45;&gt;Node3</title>
<g id="a_edge2_Node000001_Node000003"><a xlink:title=" ">
<path fill="none" stroke="#63b8ff" d="M206.26,-126.23C183.16,-132.46 155.28,-139.98 130.99,-146.54"/>
<polygon fill="#63b8ff" stroke="#63b8ff" points="206.98,-129.66 215.72,-123.68 205.15,-122.9 206.98,-129.66"/>
</a>
</g>
</g>
<!-- Node4 -->
<g id="Node000004" class="node">
<title>Node4</title>
<g id="a_Node000004"><a xlink:href="master__func_8impl_8h.html#a9ca285925fdd221a3f59d591e7c236b9" target="_top" xlink:title="Write multiple coils.">
<polygon fill="white" stroke="#666666" points="143.5,-128.5 0,-128.5 0,-98 143.5,-98 143.5,-128.5"/>
<text text-anchor="start" x="8" y="-115" font-family="Helvetica,sans-Serif" font-size="10.00">ModbusErrorInfomodbusBuild</text>
<text text-anchor="middle" x="71.75" y="-103.75" font-family="Helvetica,sans-Serif" font-size="10.00">Request15</text>
</a>
</g>
</g>
<!-- Node1&#45;&gt;Node4 -->
<g id="edge3_Node000001_Node000004" class="edge">
<title>Node1&#45;&gt;Node4</title>
<g id="a_edge3_Node000001_Node000004"><a xlink:title=" ">
<path fill="none" stroke="#63b8ff" d="M167.85,-113.25C159.79,-113.25 151.69,-113.25 143.8,-113.25"/>
<polygon fill="#63b8ff" stroke="#63b8ff" points="167.68,-116.75 177.68,-113.25 167.68,-109.75 167.68,-116.75"/>
</a>
</g>
</g>
<!-- Node5 -->
<g id="Node000005" class="node">
<title>Node5</title>
<g id="a_Node000005"><a xlink:href="master__func_8impl_8h.html#ac887d4fcbfe16f37d1b829309c374795" target="_top" xlink:title="Write multiple holding registers.">
<polygon fill="white" stroke="#666666" points="143.5,-79.5 0,-79.5 0,-49 143.5,-49 143.5,-79.5"/>
<text text-anchor="start" x="8" y="-66" font-family="Helvetica,sans-Serif" font-size="10.00">ModbusErrorInfomodbusBuild</text>
<text text-anchor="middle" x="71.75" y="-54.75" font-family="Helvetica,sans-Serif" font-size="10.00">Request16</text>
</a>
</g>
</g>
<!-- Node1&#45;&gt;Node5 -->
<g id="edge4_Node000001_Node000005" class="edge">
<title>Node1&#45;&gt;Node5</title>
<g id="a_edge4_Node000001_Node000005"><a xlink:title=" ">
<path fill="none" stroke="#63b8ff" d="M206.26,-100.27C183.16,-94.04 155.28,-86.52 130.99,-79.96"/>
<polygon fill="#63b8ff" stroke="#63b8ff" points="205.15,-103.6 215.72,-102.82 206.98,-96.84 205.15,-103.6"/>
</a>
</g>
</g>
<!-- Node6 -->
<g id="Node000006" class="node">
<title>Node6</title>
<g id="a_Node000006"><a xlink:href="master__func_8impl_8h.html#a1f876a7195e7ae76b89ff7aace454590" target="_top" xlink:title="Mask write register request.">
<polygon fill="white" stroke="#666666" points="143.5,-30.5 0,-30.5 0,0 143.5,0 143.5,-30.5"/>
<text text-anchor="start" x="8" y="-17" font-family="Helvetica,sans-Serif" font-size="10.00">ModbusErrorInfomodbusBuild</text>
<text text-anchor="middle" x="71.75" y="-5.75" font-family="Helvetica,sans-Serif" font-size="10.00">Request22</text>
</a>
</g>
</g>
<!-- Node1&#45;&gt;Node6 -->
<g id="edge5_Node000001_Node000006" class="edge">
<title>Node1&#45;&gt;Node6</title>
<g id="a_edge5_Node000001_Node000006"><a xlink:title=" ">
<path fill="none" stroke="#63b8ff" d="M232.34,-96.42C210.63,-80.41 176.08,-56.43 143.5,-40.25 136.73,-36.89 129.4,-33.77 122.11,-30.95"/>
<polygon fill="#63b8ff" stroke="#63b8ff" points="230.04,-99.07 240.14,-102.25 234.23,-93.46 230.04,-99.07"/>
</a>
</g>
</g>
</g>
</svg>
