<?xml version="1.0" encoding="UTF-8" standalone="no"?>
<!DOCTYPE svg PUBLIC "-//W3C//DTD SVG 1.1//EN"
 "http://www.w3.org/Graphics/SVG/1.1/DTD/svg11.dtd">
<!-- Generated by graphviz version 12.2.0 (20241103.1931)
 -->
<!-- Title: modbusMasterFreeRequest Pages: 1 -->
<svg width="496pt" height="64pt"
 viewBox="0.00 0.00 496.25 64.25" xmlns="http://www.w3.org/2000/svg" xmlns:xlink="http://www.w3.org/1999/xlink">
<g id="graph0" class="graph" transform="scale(1 1) rotate(0) translate(4 60.25)">
<title>modbusMasterFreeRequest</title>
<!-- Node1 -->
<g id="Node000001" class="node">
<title>Node1</title>
<g id="a_Node000001"><a xlink:title="Frees memory allocated for master&#39;s request frame.">
<polygon fill="#999999" stroke="#666666" points="136,-37.25 0,-37.25 0,-18 136,-18 136,-37.25"/>
<text text-anchor="middle" x="68" y="-23.75" font-family="Helvetica,sans-Serif" font-size="10.00">modbusMasterFreeRequest</text>
</a>
</g>
</g>
<!-- Node2 -->
<g id="Node000002" class="node">
<title>Node2</title>
<g id="a_Node000002"><a xlink:href="base_8impl_8h.html#a00605b5ebcf90f8035bfaa7a7c039776" target="_top" xlink:title="Frees memory allocated inside the buffer.">
<polygon fill="white" stroke="#666666" points="293.75,-56.25 198.25,-56.25 198.25,-37 293.75,-37 293.75,-56.25"/>
<text text-anchor="middle" x="246" y="-42.75" font-family="Helvetica,sans-Serif" font-size="10.00">modbusBufferFree</text>
</a>
</g>
</g>
<!-- Node1&#45;&gt;Node2 -->
<g id="edge1_Node000001_Node000002" class="edge">
<title>Node1&#45;&gt;Node2</title>
<g id="a_edge1_Node000001_Node000002"><a xlink:title=" ">
<path fill="none" stroke="#63b8ff" d="M136.29,-34.89C152.85,-36.68 170.44,-38.58 186.54,-40.31"/>
<polygon fill="#63b8ff" stroke="#63b8ff" points="186.14,-43.79 196.46,-41.38 186.89,-36.83 186.14,-43.79"/>
</a>
</g>
</g>
<!-- Node4 -->
<g id="Node000004" class="node">
<title>Node4</title>
<g id="a_Node000004"><a xlink:href="master_8h.html#a39dfa809ec99fbff3a4acef1bc543b9f" target="_top" xlink:title="Retreieves the custom context pointer.">
<polygon fill="white" stroke="#666666" points="320,-19.25 172,-19.25 172,0 320,0 320,-19.25"/>
<text text-anchor="middle" x="246" y="-5.75" font-family="Helvetica,sans-Serif" font-size="10.00">modbusMasterGetUserPointer</text>
</a>
</g>
</g>
<!-- Node1&#45;&gt;Node4 -->
<g id="edge3_Node000001_Node000004" class="edge">
<title>Node1&#45;&gt;Node4</title>
<g id="a_edge3_Node000001_Node000004"><a xlink:title=" ">
<path fill="none" stroke="#63b8ff" d="M136.29,-20.74C144.14,-19.94 152.22,-19.11 160.27,-18.29"/>
<polygon fill="#63b8ff" stroke="#63b8ff" points="160.49,-21.79 170.08,-17.29 159.78,-14.82 160.49,-21.79"/>
</a>
</g>
</g>
<!-- Node3 -->
<g id="Node000003" class="node">
<title>Node3</title>
<g id="a_Node000003"><a xlink:href="base_8impl_8h.html#a54f7d1db7f58ffd329b1955ad1a66f37" target="_top" xlink:title="Allocates memory to hold Modbus ADU.">
<polygon fill="white" stroke="#666666" points="488.25,-56.25 356,-56.25 356,-37 488.25,-37 488.25,-56.25"/>
<text text-anchor="middle" x="422.12" y="-42.75" font-family="Helvetica,sans-Serif" font-size="10.00">modbusBufferAllocateADU</text>
</a>
</g>
</g>
<!-- Node2&#45;&gt;Node3 -->
<g id="edge2_Node000002_Node000003" class="edge">
<title>Node2&#45;&gt;Node3</title>
<g id="a_edge2_Node000002_Node000003"><a xlink:title=" ">
<path fill="none" stroke="#63b8ff" d="M294.12,-46.62C309.65,-46.62 327.35,-46.62 344.5,-46.62"/>
<polygon fill="#63b8ff" stroke="#63b8ff" points="344.15,-50.13 354.15,-46.63 344.15,-43.13 344.15,-50.13"/>
</a>
</g>
</g>
</g>
</svg>
