<?xml version="1.0" encoding="UTF-8" standalone="no"?>
<!DOCTYPE svg PUBLIC "-//W3C//DTD SVG 1.1//EN"
 "http://www.w3.org/Graphics/SVG/1.1/DTD/svg11.dtd">
<!-- Generated by graphviz version 12.2.0 (20241103.1931)
 -->
<!-- Title: modbusMasterGetUserPointer Pages: 1 -->
<svg width="523pt" height="309pt"
 viewBox="0.00 0.00 523.25 308.88" xmlns="http://www.w3.org/2000/svg" xmlns:xlink="http://www.w3.org/1999/xlink">
<g id="graph0" class="graph" transform="scale(1 1) rotate(0) translate(4 304.88)">
<title>modbusMasterGetUserPointer</title>
<!-- Node1 -->
<g id="Node000001" class="node">
<title>Node1</title>
<g id="a_Node000001"><a xlink:title="Retreieves the custom context pointer.">
<polygon fill="#999999" stroke="#666666" points="515.25,-125.25 367.25,-125.25 367.25,-106 515.25,-106 515.25,-125.25"/>
<text text-anchor="middle" x="441.25" y="-111.75" font-family="Helvetica,sans-Serif" font-size="10.00">modbusMasterGetUserPointer</text>
</a>
</g>
</g>
<!-- Node2 -->
<g id="Node000002" class="node">
<title>Node2</title>
<g id="a_Node000002"><a xlink:href="classllm_1_1Master.html#abd27128b7899148b8aa8531587e51ddc" target="_top" xlink:title=" ">
<polygon fill="white" stroke="#666666" points="321.88,-185.25 188.88,-185.25 188.88,-166 321.88,-166 321.88,-185.25"/>
<text text-anchor="middle" x="255.38" y="-171.75" font-family="Helvetica,sans-Serif" font-size="10.00">llm::Master::getUserPointer</text>
</a>
</g>
</g>
<!-- Node1&#45;&gt;Node2 -->
<g id="edge1_Node000001_Node000002" class="edge">
<title>Node1&#45;&gt;Node2</title>
<g id="a_edge1_Node000001_Node000002"><a xlink:title=" ">
<path fill="none" stroke="#63b8ff" d="M406.29,-130.04C384.99,-138.75 356.81,-149.67 331.25,-157.62 322.06,-160.49 312.12,-163.16 302.57,-165.53"/>
<polygon fill="#63b8ff" stroke="#63b8ff" points="407.45,-133.35 415.35,-126.29 404.78,-126.88 407.45,-133.35"/>
</a>
</g>
</g>
<!-- Node3 -->
<g id="Node000003" class="node">
<title>Node3</title>
<g id="a_Node000003"><a xlink:href="master_8h.html#a004b932b2b69ad0c6649c26d974146b2" target="_top" xlink:title="Allocates memory for the request frame.">
<polygon fill="white" stroke="#666666" points="331.25,-148.25 179.5,-148.25 179.5,-129 331.25,-129 331.25,-148.25"/>
<text text-anchor="middle" x="255.38" y="-134.75" font-family="Helvetica,sans-Serif" font-size="10.00">modbusMasterAllocateRequest</text>
</a>
</g>
</g>
<!-- Node1&#45;&gt;Node3 -->
<g id="edge2_Node000001_Node000003" class="edge">
<title>Node1&#45;&gt;Node3</title>
<g id="a_edge2_Node000001_Node000003"><a xlink:title=" ">
<path fill="none" stroke="#63b8ff" d="M355.53,-126.22C347.52,-127.22 339.44,-128.23 331.53,-129.22"/>
<polygon fill="#63b8ff" stroke="#63b8ff" points="355.79,-129.72 365.28,-125 354.93,-122.77 355.79,-129.72"/>
</a>
</g>
</g>
<!-- Node9 -->
<g id="Node000009" class="node">
<title>Node9</title>
<g id="a_Node000009"><a xlink:href="master_8impl_8h.html#a5fe38fae0f89de04fa616d105f660d25" target="_top" xlink:title="Deinitializes a ModbusMaster struct.">
<polygon fill="white" stroke="#666666" points="312.12,-79.25 198.62,-79.25 198.62,-60 312.12,-60 312.12,-79.25"/>
<text text-anchor="middle" x="255.38" y="-65.75" font-family="Helvetica,sans-Serif" font-size="10.00">modbusMasterDestroy</text>
</a>
</g>
</g>
<!-- Node1&#45;&gt;Node9 -->
<g id="edge8_Node000001_Node000009" class="edge">
<title>Node1&#45;&gt;Node9</title>
<g id="a_edge8_Node000001_Node000009"><a xlink:title=" ">
<path fill="none" stroke="#63b8ff" d="M389.08,-102.82C359.88,-95.52 323.8,-86.49 296.63,-79.7"/>
<polygon fill="#63b8ff" stroke="#63b8ff" points="387.88,-106.13 398.43,-105.16 389.58,-99.34 387.88,-106.13"/>
</a>
</g>
</g>
<!-- Node11 -->
<g id="Node000011" class="node">
<title>Node11</title>
<g id="a_Node000011"><a xlink:href="master_8h.html#a040a82085ce05ff95c53d3dca4c3acfd" target="_top" xlink:title="Frees memory allocated for master&#39;s request frame.">
<polygon fill="white" stroke="#666666" points="323.38,-42.25 187.38,-42.25 187.38,-23 323.38,-23 323.38,-42.25"/>
<text text-anchor="middle" x="255.38" y="-28.75" font-family="Helvetica,sans-Serif" font-size="10.00">modbusMasterFreeRequest</text>
</a>
</g>
</g>
<!-- Node1&#45;&gt;Node11 -->
<g id="edge10_Node000001_Node000011" class="edge">
<title>Node1&#45;&gt;Node11</title>
<g id="a_edge10_Node000001_Node000011"><a xlink:title=" ">
<path fill="none" stroke="#63b8ff" d="M417.31,-99.14C395.96,-84.49 362.78,-63.47 331.25,-50.62 323.7,-47.55 315.49,-44.92 307.38,-42.69"/>
<polygon fill="#63b8ff" stroke="#63b8ff" points="415.07,-101.84 425.27,-104.69 419.07,-96.1 415.07,-101.84"/>
</a>
</g>
</g>
<!-- Node4 -->
<g id="Node000004" class="node">
<title>Node4</title>
<g id="a_Node000004"><a xlink:href="master__func_8impl_8h.html#a2a17495474de4ed91efe8df2bf11d16f" target="_top" xlink:title="Read mutiple coils/discrete inputs/holding registers/input registers.">
<polygon fill="white" stroke="#666666" points="143.5,-300.88 0,-300.88 0,-270.38 143.5,-270.38 143.5,-300.88"/>
<text text-anchor="start" x="8" y="-287.38" font-family="Helvetica,sans-Serif" font-size="10.00">ModbusErrorInfomodbusBuild</text>
<text text-anchor="middle" x="71.75" y="-276.12" font-family="Helvetica,sans-Serif" font-size="10.00">Request01020304</text>
</a>
</g>
</g>
<!-- Node3&#45;&gt;Node4 -->
<g id="edge3_Node000003_Node000004" class="edge">
<title>Node3&#45;&gt;Node4</title>
<g id="a_edge3_Node000003_Node000004"><a xlink:title=" ">
<path fill="none" stroke="#63b8ff" d="M181.5,-154.91C180.82,-155.46 180.15,-156.04 179.5,-156.62 143.27,-189.49 177.98,-225.93 143.5,-260.62 139.92,-264.23 135.79,-267.32 131.36,-269.96"/>
<polygon fill="#63b8ff" stroke="#63b8ff" points="183.33,-157.9 189.8,-149.5 179.51,-152.03 183.33,-157.9"/>
</a>
</g>
</g>
<!-- Node5 -->
<g id="Node000005" class="node">
<title>Node5</title>
<g id="a_Node000005"><a xlink:href="master__func_8impl_8h.html#a215655635f299f22ccd8eb3d79774357" target="_top" xlink:title="Write single coil/holding register.">
<polygon fill="white" stroke="#666666" points="143.5,-251.88 0,-251.88 0,-221.38 143.5,-221.38 143.5,-251.88"/>
<text text-anchor="start" x="8" y="-238.38" font-family="Helvetica,sans-Serif" font-size="10.00">ModbusErrorInfomodbusBuild</text>
<text text-anchor="middle" x="71.75" y="-227.12" font-family="Helvetica,sans-Serif" font-size="10.00">Request0506</text>
</a>
</g>
</g>
<!-- Node3&#45;&gt;Node5 -->
<g id="edge4_Node000003_Node000005" class="edge">
<title>Node3&#45;&gt;Node5</title>
<g id="a_edge4_Node000003_Node000005"><a xlink:title=" ">
<path fill="none" stroke="#63b8ff" d="M183.84,-153.82C182.35,-154.71 180.9,-155.64 179.5,-156.62 155.61,-173.45 166.48,-193.59 143.5,-211.62 138.89,-215.24 133.71,-218.36 128.31,-221.05"/>
<polygon fill="#63b8ff" stroke="#63b8ff" points="185.38,-156.97 192.77,-149.38 182.26,-150.7 185.38,-156.97"/>
</a>
</g>
</g>
<!-- Node6 -->
<g id="Node000006" class="node">
<title>Node6</title>
<g id="a_Node000006"><a xlink:href="master__func_8impl_8h.html#a9ca285925fdd221a3f59d591e7c236b9" target="_top" xlink:title="Write multiple coils.">
<polygon fill="white" stroke="#666666" points="143.5,-202.88 0,-202.88 0,-172.38 143.5,-172.38 143.5,-202.88"/>
<text text-anchor="start" x="8" y="-189.38" font-family="Helvetica,sans-Serif" font-size="10.00">ModbusErrorInfomodbusBuild</text>
<text text-anchor="middle" x="71.75" y="-178.12" font-family="Helvetica,sans-Serif" font-size="10.00">Request15</text>
</a>
</g>
</g>
<!-- Node3&#45;&gt;Node6 -->
<g id="edge5_Node000003_Node000006" class="edge">
<title>Node3&#45;&gt;Node6</title>
<g id="a_edge5_Node000003_Node000006"><a xlink:title=" ">
<path fill="none" stroke="#63b8ff" d="M200.25,-151.32C193.26,-153.05 186.2,-154.85 179.5,-156.62 161.69,-161.35 142.31,-166.86 125.01,-171.92"/>
<polygon fill="#63b8ff" stroke="#63b8ff" points="200.78,-154.79 209.66,-149.02 199.12,-147.99 200.78,-154.79"/>
</a>
</g>
</g>
<!-- Node7 -->
<g id="Node000007" class="node">
<title>Node7</title>
<g id="a_Node000007"><a xlink:href="master__func_8impl_8h.html#ac887d4fcbfe16f37d1b829309c374795" target="_top" xlink:title="Write multiple holding registers.">
<polygon fill="white" stroke="#666666" points="143.5,-153.88 0,-153.88 0,-123.38 143.5,-123.38 143.5,-153.88"/>
<text text-anchor="start" x="8" y="-140.38" font-family="Helvetica,sans-Serif" font-size="10.00">ModbusErrorInfomodbusBuild</text>
<text text-anchor="middle" x="71.75" y="-129.12" font-family="Helvetica,sans-Serif" font-size="10.00">Request16</text>
</a>
</g>
</g>
<!-- Node3&#45;&gt;Node7 -->
<g id="edge6_Node000003_Node000007" class="edge">
<title>Node3&#45;&gt;Node7</title>
<g id="a_edge6_Node000003_Node000007"><a xlink:title=" ">
<path fill="none" stroke="#63b8ff" d="M167.85,-138.62C159.79,-138.62 151.69,-138.62 143.8,-138.62"/>
<polygon fill="#63b8ff" stroke="#63b8ff" points="167.68,-142.13 177.68,-138.63 167.68,-135.13 167.68,-142.13"/>
</a>
</g>
</g>
<!-- Node8 -->
<g id="Node000008" class="node">
<title>Node8</title>
<g id="a_Node000008"><a xlink:href="master__func_8impl_8h.html#a1f876a7195e7ae76b89ff7aace454590" target="_top" xlink:title="Mask write register request.">
<polygon fill="white" stroke="#666666" points="143.5,-104.88 0,-104.88 0,-74.38 143.5,-74.38 143.5,-104.88"/>
<text text-anchor="start" x="8" y="-91.38" font-family="Helvetica,sans-Serif" font-size="10.00">ModbusErrorInfomodbusBuild</text>
<text text-anchor="middle" x="71.75" y="-80.12" font-family="Helvetica,sans-Serif" font-size="10.00">Request22</text>
</a>
</g>
</g>
<!-- Node3&#45;&gt;Node8 -->
<g id="edge7_Node000003_Node000008" class="edge">
<title>Node3&#45;&gt;Node8</title>
<g id="a_edge7_Node000003_Node000008"><a xlink:title=" ">
<path fill="none" stroke="#63b8ff" d="M206.26,-125.64C183.16,-119.41 155.28,-111.89 130.99,-105.34"/>
<polygon fill="#63b8ff" stroke="#63b8ff" points="205.15,-128.97 215.72,-128.2 206.98,-122.21 205.15,-128.97"/>
</a>
</g>
</g>
<!-- Node10 -->
<g id="Node000010" class="node">
<title>Node10</title>
<g id="a_Node000010"><a xlink:href="classllm_1_1Master.html#adae54d760d1eb2f0babcaff59325376d" target="_top" xlink:title=" ">
<polygon fill="white" stroke="#666666" points="123.25,-56.25 20.25,-56.25 20.25,-37 123.25,-37 123.25,-56.25"/>
<text text-anchor="middle" x="71.75" y="-42.75" font-family="Helvetica,sans-Serif" font-size="10.00">llm::Master::~Master</text>
</a>
</g>
</g>
<!-- Node9&#45;&gt;Node10 -->
<g id="edge9_Node000009_Node000010" class="edge">
<title>Node9&#45;&gt;Node10</title>
<g id="a_edge9_Node000009_Node000010"><a xlink:title=" ">
<path fill="none" stroke="#63b8ff" d="M187.26,-61.13C166.21,-58.46 143.33,-55.56 123.6,-53.06"/>
<polygon fill="#63b8ff" stroke="#63b8ff" points="186.54,-64.56 196.9,-62.35 187.42,-57.62 186.54,-64.56"/>
</a>
</g>
</g>
<!-- Node12 -->
<g id="Node000012" class="node">
<title>Node12</title>
<g id="a_Node000012"><a xlink:href="classllm_1_1Master.html#a6c3883d0f98a5b4255a02f46f33c2423" target="_top" xlink:title=" ">
<polygon fill="white" stroke="#666666" points="131.88,-19.25 11.62,-19.25 11.62,0 131.88,0 131.88,-19.25"/>
<text text-anchor="middle" x="71.75" y="-5.75" font-family="Helvetica,sans-Serif" font-size="10.00">llm::Master::freeRequest</text>
</a>
</g>
</g>
<!-- Node11&#45;&gt;Node12 -->
<g id="edge11_Node000011_Node000012" class="edge">
<title>Node11&#45;&gt;Node12</title>
<g id="a_edge11_Node000011_Node000012"><a xlink:title=" ">
<path fill="none" stroke="#63b8ff" d="M175.92,-22.69C161.27,-20.83 146.19,-18.93 132.24,-17.16"/>
<polygon fill="#63b8ff" stroke="#63b8ff" points="175.14,-26.12 185.5,-23.9 176.02,-19.17 175.14,-26.12"/>
</a>
</g>
</g>
</g>
</svg>
