<?xml version="1.0" encoding="UTF-8" standalone="no"?>
<!DOCTYPE svg PUBLIC "-//W3C//DTD SVG 1.1//EN"
 "http://www.w3.org/Graphics/SVG/1.1/DTD/svg11.dtd">
<!-- Generated by graphviz version 12.2.0 (20241103.1931)
 -->
<!-- Title: ModbusErrorInfomodbusParseResponse1516 Pages: 1 -->
<svg width="315pt" height="101pt"
 viewBox="0.00 0.00 315.25 101.25" xmlns="http://www.w3.org/2000/svg" xmlns:xlink="http://www.w3.org/1999/xlink">
<g id="graph0" class="graph" transform="scale(1 1) rotate(0) translate(4 97.25)">
<title>ModbusErrorInfomodbusParseResponse1516</title>
<!-- Node1 -->
<g id="Node000001" class="node">
<title>Node1</title>
<g id="a_Node000001"><a xlink:title="Parses response to requests 15 and 16 (write mutliple regsiters/coils)">
<polygon fill="#999999" stroke="#666666" points="147.25,-61.88 0,-61.88 0,-31.38 147.25,-31.38 147.25,-61.88"/>
<text text-anchor="start" x="8" y="-48.38" font-family="Helvetica,sans-Serif" font-size="10.00">ModbusErrorInfomodbusParse</text>
<text text-anchor="middle" x="73.62" y="-37.12" font-family="Helvetica,sans-Serif" font-size="10.00">Response1516</text>
</a>
</g>
</g>
<!-- Node2 -->
<g id="Node000002" class="node">
<title>Node2</title>
<g id="a_Node000002"><a xlink:href="base_8h.html#af23a50b36bef9c09ac82214a52ff4d58" target="_top" xlink:title="Returns number of bytes necessary to hold given number of bits.">
<polygon fill="white" stroke="#666666" points="297.12,-93.25 193.38,-93.25 193.38,-74 297.12,-74 297.12,-93.25"/>
<text text-anchor="middle" x="245.25" y="-79.75" font-family="Helvetica,sans-Serif" font-size="10.00">modbusBitsToBytes</text>
</a>
</g>
</g>
<!-- Node1&#45;&gt;Node2 -->
<g id="edge1_Node000001_Node000002" class="edge">
<title>Node1&#45;&gt;Node2</title>
<g id="a_edge1_Node000001_Node000002"><a xlink:title=" ">
<path fill="none" stroke="#63b8ff" d="M146.56,-62.32C160.11,-65.27 174.11,-68.32 187.13,-71.16"/>
<polygon fill="#63b8ff" stroke="#63b8ff" points="186.29,-74.56 196.8,-73.28 187.78,-67.72 186.29,-74.56"/>
</a>
</g>
</g>
<!-- Node3 -->
<g id="Node000003" class="node">
<title>Node3</title>
<g id="a_Node000003"><a xlink:href="base_8h.html#a61619958551d902c14ab6e51fb842ea0" target="_top" xlink:title="Checks whether provided address range causes an uint16_t overflow.">
<polygon fill="white" stroke="#666666" points="307.25,-56.25 183.25,-56.25 183.25,-37 307.25,-37 307.25,-56.25"/>
<text text-anchor="middle" x="245.25" y="-42.75" font-family="Helvetica,sans-Serif" font-size="10.00">modbusCheckRangeU16</text>
</a>
</g>
</g>
<!-- Node1&#45;&gt;Node3 -->
<g id="edge2_Node000001_Node000003" class="edge">
<title>Node1&#45;&gt;Node3</title>
<g id="a_edge2_Node000001_Node000003"><a xlink:title=" ">
<path fill="none" stroke="#63b8ff" d="M147.55,-46.62C155.45,-46.62 163.49,-46.62 171.4,-46.62"/>
<polygon fill="#63b8ff" stroke="#63b8ff" points="171.33,-50.13 181.33,-46.63 171.33,-43.13 171.33,-50.13"/>
</a>
</g>
</g>
<!-- Node4 -->
<g id="Node000004" class="node">
<title>Node4</title>
<g id="a_Node000004"><a xlink:href="base_8h.html#ace96da9afdf1e1796a6e2d7ac1f6c81a" target="_top" xlink:title="Safely reads a big&#45;endian 16&#45;bit word from provided pointer.">
<polygon fill="white" stroke="#666666" points="280.25,-19.25 210.25,-19.25 210.25,0 280.25,0 280.25,-19.25"/>
<text text-anchor="middle" x="245.25" y="-5.75" font-family="Helvetica,sans-Serif" font-size="10.00">modbusRBE</text>
</a>
</g>
</g>
<!-- Node1&#45;&gt;Node4 -->
<g id="edge3_Node000001_Node000004" class="edge">
<title>Node1&#45;&gt;Node4</title>
<g id="a_edge3_Node000001_Node000004"><a xlink:title=" ">
<path fill="none" stroke="#63b8ff" d="M146.56,-30.93C164.29,-27.07 182.79,-23.03 198.86,-19.53"/>
<polygon fill="#63b8ff" stroke="#63b8ff" points="199.58,-22.95 208.6,-17.4 198.09,-16.11 199.58,-22.95"/>
</a>
</g>
</g>
</g>
</svg>
