<?xml version="1.0" encoding="UTF-8" standalone="no"?>
<!DOCTYPE svg PUBLIC "-//W3C//DTD SVG 1.1//EN"
 "http://www.w3.org/Graphics/SVG/1.1/DTD/svg11.dtd">
<!-- Generated by graphviz version 12.2.0 (20241103.1931)
 -->
<!-- Title: ModbusErrorInfomodbusBuildRequest22 Pages: 1 -->
<svg width="523pt" height="82pt"
 viewBox="0.00 0.00 523.25 82.25" xmlns="http://www.w3.org/2000/svg" xmlns:xlink="http://www.w3.org/1999/xlink">
<g id="graph0" class="graph" transform="scale(1 1) rotate(0) translate(4 78.25)">
<title>ModbusErrorInfomodbusBuildRequest22</title>
<!-- Node1 -->
<g id="Node000001" class="node">
<title>Node1</title>
<g id="a_Node000001"><a xlink:title="Mask write register request.">
<polygon fill="#999999" stroke="#666666" points="143.5,-42.88 0,-42.88 0,-12.37 143.5,-12.37 143.5,-42.88"/>
<text text-anchor="start" x="8" y="-29.38" font-family="Helvetica,sans-Serif" font-size="10.00">ModbusErrorInfomodbusBuild</text>
<text text-anchor="middle" x="71.75" y="-18.12" font-family="Helvetica,sans-Serif" font-size="10.00">Request22</text>
</a>
</g>
</g>
<!-- Node2 -->
<g id="Node000002" class="node">
<title>Node2</title>
<g id="a_Node000002"><a xlink:href="master_8h.html#a004b932b2b69ad0c6649c26d974146b2" target="_top" xlink:title="Allocates memory for the request frame.">
<polygon fill="white" stroke="#666666" points="331.25,-56.25 179.5,-56.25 179.5,-37 331.25,-37 331.25,-56.25"/>
<text text-anchor="middle" x="255.38" y="-42.75" font-family="Helvetica,sans-Serif" font-size="10.00">modbusMasterAllocateRequest</text>
</a>
</g>
</g>
<!-- Node1&#45;&gt;Node2 -->
<g id="edge1_Node000001_Node000002" class="edge">
<title>Node1&#45;&gt;Node2</title>
<g id="a_edge1_Node000001_Node000002"><a xlink:title=" ">
<path fill="none" stroke="#63b8ff" d="M143.75,-35.05C151.66,-35.88 159.79,-36.73 167.86,-37.57"/>
<polygon fill="#63b8ff" stroke="#63b8ff" points="167.41,-41.05 177.72,-38.61 168.14,-34.08 167.41,-41.05"/>
</a>
</g>
</g>
<!-- Node5 -->
<g id="Node000005" class="node">
<title>Node5</title>
<g id="a_Node000005"><a xlink:href="base_8h.html#a73b9f793bbe67a1968cc8c53a22d4c4b" target="_top" xlink:title="Safely writes a big&#45;endian 16&#45;bit word to provided pointer.">
<polygon fill="white" stroke="#666666" points="291.5,-19.25 219.25,-19.25 219.25,0 291.5,0 291.5,-19.25"/>
<text text-anchor="middle" x="255.38" y="-5.75" font-family="Helvetica,sans-Serif" font-size="10.00">modbusWBE</text>
</a>
</g>
</g>
<!-- Node1&#45;&gt;Node5 -->
<g id="edge4_Node000001_Node000005" class="edge">
<title>Node1&#45;&gt;Node5</title>
<g id="a_edge4_Node000001_Node000005"><a xlink:title=" ">
<path fill="none" stroke="#63b8ff" d="M143.75,-20.59C165.27,-18.46 188.36,-16.17 207.84,-14.24"/>
<polygon fill="#63b8ff" stroke="#63b8ff" points="208.05,-17.73 217.65,-13.26 207.36,-10.77 208.05,-17.73"/>
</a>
</g>
</g>
<!-- Node3 -->
<g id="Node000003" class="node">
<title>Node3</title>
<g id="a_Node000003"><a xlink:href="base_8impl_8h.html#a54f7d1db7f58ffd329b1955ad1a66f37" target="_top" xlink:title="Allocates memory to hold Modbus ADU.">
<polygon fill="white" stroke="#666666" points="507.38,-74.25 375.12,-74.25 375.12,-55 507.38,-55 507.38,-74.25"/>
<text text-anchor="middle" x="441.25" y="-60.75" font-family="Helvetica,sans-Serif" font-size="10.00">modbusBufferAllocateADU</text>
</a>
</g>
</g>
<!-- Node2&#45;&gt;Node3 -->
<g id="edge2_Node000002_Node000003" class="edge">
<title>Node2&#45;&gt;Node3</title>
<g id="a_edge2_Node000002_Node000003"><a xlink:title=" ">
<path fill="none" stroke="#63b8ff" d="M331.69,-54C342.18,-55.02 352.97,-56.08 363.48,-57.11"/>
<polygon fill="#63b8ff" stroke="#63b8ff" points="362.96,-60.58 373.25,-58.07 363.64,-53.61 362.96,-60.58"/>
</a>
</g>
</g>
<!-- Node4 -->
<g id="Node000004" class="node">
<title>Node4</title>
<g id="a_Node000004"><a xlink:href="master_8h.html#a39dfa809ec99fbff3a4acef1bc543b9f" target="_top" xlink:title="Retreieves the custom context pointer.">
<polygon fill="white" stroke="#666666" points="515.25,-37.25 367.25,-37.25 367.25,-18 515.25,-18 515.25,-37.25"/>
<text text-anchor="middle" x="441.25" y="-23.75" font-family="Helvetica,sans-Serif" font-size="10.00">modbusMasterGetUserPointer</text>
</a>
</g>
</g>
<!-- Node2&#45;&gt;Node4 -->
<g id="edge3_Node000002_Node000004" class="edge">
<title>Node2&#45;&gt;Node4</title>
<g id="a_edge3_Node000002_Node000004"><a xlink:title=" ">
<path fill="none" stroke="#63b8ff" d="M331.69,-38.84C339.58,-38.03 347.64,-37.19 355.62,-36.37"/>
<polygon fill="#63b8ff" stroke="#63b8ff" points="355.74,-39.88 365.32,-35.37 355.02,-32.91 355.74,-39.88"/>
</a>
</g>
</g>
</g>
</svg>
