<?xml version="1.0" encoding="UTF-8" standalone="no"?>
<!DOCTYPE svg PUBLIC "-//W3C//DTD SVG 1.1//EN"
 "http://www.w3.org/Graphics/SVG/1.1/DTD/svg11.dtd">
<!-- Generated by graphviz version 12.2.0 (20241103.1931)
 -->
<!-- Title: ModbusErrorInfomodbusParseResponse01020304 Pages: 1 -->
<svg width="315pt" height="138pt"
 viewBox="0.00 0.00 315.25 138.25" xmlns="http://www.w3.org/2000/svg" xmlns:xlink="http://www.w3.org/1999/xlink">
<g id="graph0" class="graph" transform="scale(1 1) rotate(0) translate(4 134.25)">
<title>ModbusErrorInfomodbusParseResponse01020304</title>
<!-- Node1 -->
<g id="Node000001" class="node">
<title>Node1</title>
<g id="a_Node000001"><a xlink:title="Parses response to requests 01, 02, 03 and 04.">
<polygon fill="#999999" stroke="#666666" points="147.25,-79.88 0,-79.88 0,-49.38 147.25,-49.38 147.25,-79.88"/>
<text text-anchor="start" x="8" y="-66.38" font-family="Helvetica,sans-Serif" font-size="10.00">ModbusErrorInfomodbusParse</text>
<text text-anchor="middle" x="73.62" y="-55.12" font-family="Helvetica,sans-Serif" font-size="10.00">Response01020304</text>
</a>
</g>
</g>
<!-- Node2 -->
<g id="Node000002" class="node">
<title>Node2</title>
<g id="a_Node000002"><a xlink:href="base_8h.html#af23a50b36bef9c09ac82214a52ff4d58" target="_top" xlink:title="Returns number of bytes necessary to hold given number of bits.">
<polygon fill="white" stroke="#666666" points="297.12,-130.25 193.38,-130.25 193.38,-111 297.12,-111 297.12,-130.25"/>
<text text-anchor="middle" x="245.25" y="-116.75" font-family="Helvetica,sans-Serif" font-size="10.00">modbusBitsToBytes</text>
</a>
</g>
</g>
<!-- Node1&#45;&gt;Node2 -->
<g id="edge1_Node000001_Node000002" class="edge">
<title>Node1&#45;&gt;Node2</title>
<g id="a_edge1_Node000001_Node000002"><a xlink:title=" ">
<path fill="none" stroke="#63b8ff" d="M118.06,-80.37C137.87,-87.41 161.67,-95.67 183.25,-102.62 188.05,-104.17 193.08,-105.74 198.1,-107.27"/>
<polygon fill="#63b8ff" stroke="#63b8ff" points="196.97,-110.58 207.55,-110.11 198.98,-103.88 196.97,-110.58"/>
</a>
</g>
</g>
<!-- Node3 -->
<g id="Node000003" class="node">
<title>Node3</title>
<g id="a_Node000003"><a xlink:href="base_8h.html#a61619958551d902c14ab6e51fb842ea0" target="_top" xlink:title="Checks whether provided address range causes an uint16_t overflow.">
<polygon fill="white" stroke="#666666" points="307.25,-93.25 183.25,-93.25 183.25,-74 307.25,-74 307.25,-93.25"/>
<text text-anchor="middle" x="245.25" y="-79.75" font-family="Helvetica,sans-Serif" font-size="10.00">modbusCheckRangeU16</text>
</a>
</g>
</g>
<!-- Node1&#45;&gt;Node3 -->
<g id="edge2_Node000001_Node000003" class="edge">
<title>Node1&#45;&gt;Node3</title>
<g id="a_edge2_Node000001_Node000003"><a xlink:title=" ">
<path fill="none" stroke="#63b8ff" d="M147.55,-72.79C155.54,-73.69 163.68,-74.6 171.67,-75.5"/>
<polygon fill="#63b8ff" stroke="#63b8ff" points="171.01,-78.94 181.33,-76.58 171.79,-71.99 171.01,-78.94"/>
</a>
</g>
</g>
<!-- Node4 -->
<g id="Node000004" class="node">
<title>Node4</title>
<g id="a_Node000004"><a xlink:href="base_8h.html#aff2248343762719cdacf818e4dae3709" target="_top" xlink:title="Reads n&#45;th bit from an array.">
<polygon fill="white" stroke="#666666" points="293.75,-56.25 196.75,-56.25 196.75,-37 293.75,-37 293.75,-56.25"/>
<text text-anchor="middle" x="245.25" y="-42.75" font-family="Helvetica,sans-Serif" font-size="10.00">modbusMaskRead</text>
</a>
</g>
</g>
<!-- Node1&#45;&gt;Node4 -->
<g id="edge3_Node000001_Node000004" class="edge">
<title>Node1&#45;&gt;Node4</title>
<g id="a_edge3_Node000001_Node000004"><a xlink:title=" ">
<path fill="none" stroke="#63b8ff" d="M147.55,-56.89C160.07,-55.56 172.94,-54.19 185.04,-52.91"/>
<polygon fill="#63b8ff" stroke="#63b8ff" points="185.3,-56.4 194.87,-51.86 184.56,-49.44 185.3,-56.4"/>
</a>
</g>
</g>
<!-- Node5 -->
<g id="Node000005" class="node">
<title>Node5</title>
<g id="a_Node000005"><a xlink:href="base_8h.html#ace96da9afdf1e1796a6e2d7ac1f6c81a" target="_top" xlink:title="Safely reads a big&#45;endian 16&#45;bit word from provided pointer.">
<polygon fill="white" stroke="#666666" points="280.25,-19.25 210.25,-19.25 210.25,0 280.25,0 280.25,-19.25"/>
<text text-anchor="middle" x="245.25" y="-5.75" font-family="Helvetica,sans-Serif" font-size="10.00">modbusRBE</text>
</a>
</g>
</g>
<!-- Node1&#45;&gt;Node5 -->
<g id="edge4_Node000001_Node000005" class="edge">
<title>Node1&#45;&gt;Node5</title>
<g id="a_edge4_Node000001_Node000005"><a xlink:title=" ">
<path fill="none" stroke="#63b8ff" d="M119.41,-48.91C138.95,-42.17 162.17,-34.32 183.25,-27.62 188.37,-26 193.75,-24.34 199.11,-22.72"/>
<polygon fill="#63b8ff" stroke="#63b8ff" points="199.95,-26.12 208.53,-19.9 197.94,-19.41 199.95,-26.12"/>
</a>
</g>
</g>
</g>
</svg>
