<?xml version="1.0" encoding="UTF-8" standalone="no"?>
<!DOCTYPE svg PUBLIC "-//W3C//DTD SVG 1.1//EN"
 "http://www.w3.org/Graphics/SVG/1.1/DTD/svg11.dtd">
<!-- Generated by graphviz version 12.2.0 (20241103.1931)
 -->
<!-- Title: include/lightmodbus/master_func.h Pages: 1 -->
<svg width="162pt" height="204pt"
 viewBox="0.00 0.00 162.38 204.25" xmlns="http://www.w3.org/2000/svg" xmlns:xlink="http://www.w3.org/1999/xlink">
<g id="graph0" class="graph" transform="scale(1 1) rotate(0) translate(4 200.25)">
<title>include/lightmodbus/master_func.h</title>
<!-- Node1 -->
<g id="Node000001" class="node">
<title>Node1</title>
<g id="a_Node000001"><a xlink:title="Master&#39;s functions for building requests and parsing responses (header)">
<polygon fill="#999999" stroke="#666666" points="102.25,-196.25 0,-196.25 0,-165.75 102.25,-165.75 102.25,-196.25"/>
<text text-anchor="start" x="8" y="-182.75" font-family="Helvetica,sans-Serif" font-size="10.00">include/lightmodbus</text>
<text text-anchor="middle" x="51.12" y="-171.5" font-family="Helvetica,sans-Serif" font-size="10.00">/master_func.h</text>
</a>
</g>
</g>
<!-- Node2 -->
<g id="Node000002" class="node">
<title>Node2</title>
<g id="a_Node000002"><a xlink:href="base_8h.html" target="_top" xlink:title="Common types and functions (header)">
<polygon fill="white" stroke="#666666" points="48.38,-74.5 3.88,-74.5 3.88,-55.25 48.38,-55.25 48.38,-74.5"/>
<text text-anchor="middle" x="26.12" y="-61" font-family="Helvetica,sans-Serif" font-size="10.00">base.h</text>
</a>
</g>
</g>
<!-- Node1&#45;&gt;Node2 -->
<g id="edge1_Node000001_Node000002" class="edge">
<title>Node1&#45;&gt;Node2</title>
<g id="a_edge1_Node000001_Node000002"><a xlink:title=" ">
<path fill="none" stroke="#63b8ff" d="M47.96,-165.55C43.55,-145.4 35.53,-108.81 30.53,-86"/>
<polygon fill="#63b8ff" stroke="#63b8ff" points="34,-85.45 28.44,-76.43 27.16,-86.94 34,-85.45"/>
</a>
</g>
</g>
<!-- Node4 -->
<g id="Node000004" class="node">
<title>Node4</title>
<g id="a_Node000004"><a xlink:href="master_8h.html" target="_top" xlink:title="Master&#39;s types and basic functions (header)">
<polygon fill="white" stroke="#666666" points="105.88,-129.75 52.38,-129.75 52.38,-110.5 105.88,-110.5 105.88,-129.75"/>
<text text-anchor="middle" x="79.12" y="-116.25" font-family="Helvetica,sans-Serif" font-size="10.00">master.h</text>
</a>
</g>
</g>
<!-- Node1&#45;&gt;Node4 -->
<g id="edge3_Node000001_Node000004" class="edge">
<title>Node1&#45;&gt;Node4</title>
<g id="a_edge3_Node000001_Node000004"><a xlink:title=" ">
<path fill="none" stroke="#63b8ff" d="M58.05,-165.45C61.61,-157.95 66.01,-148.7 69.87,-140.6"/>
<polygon fill="#63b8ff" stroke="#63b8ff" points="73.02,-142.1 74.16,-131.57 66.7,-139.1 73.02,-142.1"/>
</a>
</g>
</g>
<!-- Node3 -->
<g id="Node000003" class="node">
<title>Node3</title>
<g id="a_Node000003"><a xlink:title=" ">
<polygon fill="#e0e0e0" stroke="#999999" points="74.88,-19.25 27.38,-19.25 27.38,0 74.88,0 74.88,-19.25"/>
<text text-anchor="middle" x="51.12" y="-5.75" font-family="Helvetica,sans-Serif" font-size="10.00">stdint.h</text>
</a>
</g>
</g>
<!-- Node2&#45;&gt;Node3 -->
<g id="edge2_Node000002_Node000003" class="edge">
<title>Node2&#45;&gt;Node3</title>
<g id="a_edge2_Node000002_Node000003"><a xlink:title=" ">
<path fill="none" stroke="#63b8ff" d="M30.25,-55.08C33.45,-48.26 38.01,-38.56 42.05,-29.95"/>
<polygon fill="#63b8ff" stroke="#63b8ff" points="45.18,-31.52 46.26,-20.98 38.85,-28.54 45.18,-31.52"/>
</a>
</g>
</g>
<!-- Node4&#45;&gt;Node2 -->
<g id="edge6_Node000004_Node000002" class="edge">
<title>Node4&#45;&gt;Node2</title>
<g id="a_edge6_Node000004_Node000002"><a xlink:title=" ">
<path fill="none" stroke="#63b8ff" d="M70.37,-110.33C62.98,-102.9 52.16,-92.04 43.08,-82.91"/>
<polygon fill="#63b8ff" stroke="#63b8ff" points="45.67,-80.55 36.13,-75.93 40.71,-85.49 45.67,-80.55"/>
</a>
</g>
</g>
<!-- Node4&#45;&gt;Node3 -->
<g id="edge4_Node000004_Node000003" class="edge">
<title>Node4&#45;&gt;Node3</title>
<g id="a_edge4_Node000004_Node000003"><a xlink:title=" ">
<path fill="none" stroke="#63b8ff" d="M76.83,-110.25C72.36,-92.92 62.38,-54.23 56.25,-30.49"/>
<polygon fill="#63b8ff" stroke="#63b8ff" points="59.71,-29.9 53.83,-21.09 52.94,-31.65 59.71,-29.9"/>
</a>
</g>
</g>
<!-- Node5 -->
<g id="Node000005" class="node">
<title>Node5</title>
<g id="a_Node000005"><a xlink:title=" ">
<polygon fill="#e0e0e0" stroke="#999999" points="154.38,-74.5 103.88,-74.5 103.88,-55.25 154.38,-55.25 154.38,-74.5"/>
<text text-anchor="middle" x="129.12" y="-61" font-family="Helvetica,sans-Serif" font-size="10.00">stddef.h</text>
</a>
</g>
</g>
<!-- Node4&#45;&gt;Node5 -->
<g id="edge5_Node000004_Node000005" class="edge">
<title>Node4&#45;&gt;Node5</title>
<g id="a_edge5_Node000004_Node000005"><a xlink:title=" ">
<path fill="none" stroke="#63b8ff" d="M87.38,-110.33C94.29,-102.98 104.35,-92.26 112.86,-83.19"/>
<polygon fill="#63b8ff" stroke="#63b8ff" points="115.36,-85.65 119.65,-75.96 110.26,-80.86 115.36,-85.65"/>
</a>
</g>
</g>
</g>
</svg>
