<?xml version="1.0" encoding="UTF-8" standalone="no"?>
<!DOCTYPE svg PUBLIC "-//W3C//DTD SVG 1.1//EN"
 "http://www.w3.org/Graphics/SVG/1.1/DTD/svg11.dtd">
<!-- Generated by graphviz version 12.2.0 (20241103.1931)
 -->
<!-- Title: modbusMasterDestroy Pages: 1 -->
<svg width="605pt" height="64pt"
 viewBox="0.00 0.00 605.25 64.25" xmlns="http://www.w3.org/2000/svg" xmlns:xlink="http://www.w3.org/1999/xlink">
<g id="graph0" class="graph" transform="scale(1 1) rotate(0) translate(4 60.25)">
<title>modbusMasterDestroy</title>
<!-- Node1 -->
<g id="Node000001" class="node">
<title>Node1</title>
<g id="a_Node000001"><a xlink:title="Deinitializes a ModbusMaster struct.">
<polygon fill="#999999" stroke="#666666" points="113.5,-37.25 0,-37.25 0,-18 113.5,-18 113.5,-37.25"/>
<text text-anchor="middle" x="56.75" y="-23.75" font-family="Helvetica,sans-Serif" font-size="10.00">modbusMasterDestroy</text>
</a>
</g>
</g>
<!-- Node2 -->
<g id="Node000002" class="node">
<title>Node2</title>
<g id="a_Node000002"><a xlink:href="base_8impl_8h.html#ac4ff5a6ae685570f045448e76e518a0c" target="_top" xlink:title="Equivalent of modbusBufferFree() \copydetail modbusBufferFree()">
<polygon fill="white" stroke="#666666" points="278,-56.25 169,-56.25 169,-37 278,-37 278,-56.25"/>
<text text-anchor="middle" x="223.5" y="-42.75" font-family="Helvetica,sans-Serif" font-size="10.00">modbusBufferDestroy</text>
</a>
</g>
</g>
<!-- Node1&#45;&gt;Node2 -->
<g id="edge1_Node000001_Node000002" class="edge">
<title>Node1&#45;&gt;Node2</title>
<g id="a_edge1_Node000001_Node000002"><a xlink:title=" ">
<path fill="none" stroke="#63b8ff" d="M113.99,-34.11C127.96,-35.72 143.06,-37.46 157.42,-39.12"/>
<polygon fill="#63b8ff" stroke="#63b8ff" points="156.9,-42.58 167.24,-40.25 157.7,-35.63 156.9,-42.58"/>
</a>
</g>
</g>
<!-- Node5 -->
<g id="Node000005" class="node">
<title>Node5</title>
<g id="a_Node000005"><a xlink:href="master_8h.html#a39dfa809ec99fbff3a4acef1bc543b9f" target="_top" xlink:title="Retreieves the custom context pointer.">
<polygon fill="white" stroke="#666666" points="297.5,-19.25 149.5,-19.25 149.5,0 297.5,0 297.5,-19.25"/>
<text text-anchor="middle" x="223.5" y="-5.75" font-family="Helvetica,sans-Serif" font-size="10.00">modbusMasterGetUserPointer</text>
</a>
</g>
</g>
<!-- Node1&#45;&gt;Node5 -->
<g id="edge4_Node000001_Node000005" class="edge">
<title>Node1&#45;&gt;Node5</title>
<g id="a_edge4_Node000001_Node000005"><a xlink:title=" ">
<path fill="none" stroke="#63b8ff" d="M113.99,-21.48C121.65,-20.64 129.66,-19.77 137.69,-18.89"/>
<polygon fill="#63b8ff" stroke="#63b8ff" points="137.97,-22.38 147.53,-17.82 137.21,-15.42 137.97,-22.38"/>
</a>
</g>
</g>
<!-- Node3 -->
<g id="Node000003" class="node">
<title>Node3</title>
<g id="a_Node000003"><a xlink:href="base_8impl_8h.html#a00605b5ebcf90f8035bfaa7a7c039776" target="_top" xlink:title="Frees memory allocated inside the buffer.">
<polygon fill="white" stroke="#666666" points="429,-56.25 333.5,-56.25 333.5,-37 429,-37 429,-56.25"/>
<text text-anchor="middle" x="381.25" y="-42.75" font-family="Helvetica,sans-Serif" font-size="10.00">modbusBufferFree</text>
</a>
</g>
</g>
<!-- Node2&#45;&gt;Node3 -->
<g id="edge2_Node000002_Node000003" class="edge">
<title>Node2&#45;&gt;Node3</title>
<g id="a_edge2_Node000002_Node000003"><a xlink:title=" ">
<path fill="none" stroke="#63b8ff" d="M278.1,-46.62C292.2,-46.62 307.47,-46.62 321.8,-46.62"/>
<polygon fill="#63b8ff" stroke="#63b8ff" points="321.55,-50.13 331.55,-46.63 321.55,-43.13 321.55,-50.13"/>
</a>
</g>
</g>
<!-- Node4 -->
<g id="Node000004" class="node">
<title>Node4</title>
<g id="a_Node000004"><a xlink:href="base_8impl_8h.html#a54f7d1db7f58ffd329b1955ad1a66f37" target="_top" xlink:title="Allocates memory to hold Modbus ADU.">
<polygon fill="white" stroke="#666666" points="597.25,-56.25 465,-56.25 465,-37 597.25,-37 597.25,-56.25"/>
<text text-anchor="middle" x="531.12" y="-42.75" font-family="Helvetica,sans-Serif" font-size="10.00">modbusBufferAllocateADU</text>
</a>
</g>
</g>
<!-- Node3&#45;&gt;Node4 -->
<g id="edge3_Node000003_Node000004" class="edge">
<title>Node3&#45;&gt;Node4</title>
<g id="a_edge3_Node000003_Node000004"><a xlink:title=" ">
<path fill="none" stroke="#63b8ff" d="M429.45,-46.62C437.03,-46.62 445.05,-46.62 453.11,-46.62"/>
<polygon fill="#63b8ff" stroke="#63b8ff" points="452.99,-50.13 462.99,-46.63 452.99,-43.13 452.99,-50.13"/>
</a>
</g>
</g>
</g>
</svg>
