<?xml version="1.0" encoding="UTF-8" standalone="no"?>
<!DOCTYPE svg PUBLIC "-//W3C//DTD SVG 1.1//EN"
 "http://www.w3.org/Graphics/SVG/1.1/DTD/svg11.dtd">
<!-- Generated by graphviz version 12.2.0 (20241103.1931)
 -->
<!-- Title: ModbusErrorInfomodbusEndRequestRTU Pages: 1 -->
<svg width="383pt" height="64pt"
 viewBox="0.00 0.00 383.00 64.25" xmlns="http://www.w3.org/2000/svg" xmlns:xlink="http://www.w3.org/1999/xlink">
<g id="graph0" class="graph" transform="scale(1 1) rotate(0) translate(4 60.25)">
<title>ModbusErrorInfomodbusEndRequestRTU</title>
<!-- Node1 -->
<g id="Node000001" class="node">
<title>Node1</title>
<g id="a_Node000001"><a xlink:title="Finalizes a Modbus RTU request.">
<polygon fill="#999999" stroke="#666666" points="138.25,-42.88 0,-42.88 0,-12.37 138.25,-12.37 138.25,-42.88"/>
<text text-anchor="start" x="8" y="-29.38" font-family="Helvetica,sans-Serif" font-size="10.00">ModbusErrorInfomodbusEnd</text>
<text text-anchor="middle" x="69.12" y="-18.12" font-family="Helvetica,sans-Serif" font-size="10.00">RequestRTU</text>
</a>
</g>
</g>
<!-- Node2 -->
<g id="Node000002" class="node">
<title>Node2</title>
<g id="a_Node000002"><a xlink:href="base_8h.html#af2cafe9debf86bea7042b4c40bb288cd" target="_top" xlink:title="Sets up address and CRC in a Modbus RTU frame.">
<polygon fill="white" stroke="#666666" points="267.5,-37.25 174.25,-37.25 174.25,-18 267.5,-18 267.5,-37.25"/>
<text text-anchor="middle" x="220.88" y="-23.75" font-family="Helvetica,sans-Serif" font-size="10.00">modbusPackRTU</text>
</a>
</g>
</g>
<!-- Node1&#45;&gt;Node2 -->
<g id="edge1_Node000001_Node000002" class="edge">
<title>Node1&#45;&gt;Node2</title>
<g id="a_edge1_Node000001_Node000002"><a xlink:title=" ">
<path fill="none" stroke="#63b8ff" d="M138.43,-27.62C146.51,-27.62 154.7,-27.62 162.61,-27.62"/>
<polygon fill="#63b8ff" stroke="#63b8ff" points="162.44,-31.13 172.44,-27.63 162.44,-24.13 162.44,-31.13"/>
</a>
</g>
</g>
<!-- Node3 -->
<g id="Node000003" class="node">
<title>Node3</title>
<g id="a_Node000003"><a xlink:href="base_8impl_8h.html#a11346a546b84663cd92cb30f4ffd1393" target="_top" xlink:title="Calculates 16&#45;bit Modbus CRC of provided data.">
<polygon fill="white" stroke="#666666" points="374.62,-56.25 303.88,-56.25 303.88,-37 374.62,-37 374.62,-56.25"/>
<text text-anchor="middle" x="339.25" y="-42.75" font-family="Helvetica,sans-Serif" font-size="10.00">modbusCRC</text>
</a>
</g>
</g>
<!-- Node2&#45;&gt;Node3 -->
<g id="edge2_Node000002_Node000003" class="edge">
<title>Node2&#45;&gt;Node3</title>
<g id="a_edge2_Node000002_Node000003"><a xlink:title=" ">
<path fill="none" stroke="#63b8ff" d="M267.87,-35.13C275.99,-36.46 284.44,-37.84 292.55,-39.16"/>
<polygon fill="#63b8ff" stroke="#63b8ff" points="291.79,-42.59 302.22,-40.74 292.92,-35.68 291.79,-42.59"/>
</a>
</g>
</g>
<!-- Node4 -->
<g id="Node000004" class="node">
<title>Node4</title>
<g id="a_Node000004"><a xlink:href="base_8h.html#af718da7da634f311c2ae8db6be3d9027" target="_top" xlink:title="Safely writes a little&#45;endian 16&#45;bit word to provided pointer.">
<polygon fill="white" stroke="#666666" points="375,-19.25 303.5,-19.25 303.5,0 375,0 375,-19.25"/>
<text text-anchor="middle" x="339.25" y="-5.75" font-family="Helvetica,sans-Serif" font-size="10.00">modbusWLE</text>
</a>
</g>
</g>
<!-- Node2&#45;&gt;Node4 -->
<g id="edge3_Node000002_Node000004" class="edge">
<title>Node2&#45;&gt;Node4</title>
<g id="a_edge3_Node000002_Node000004"><a xlink:title=" ">
<path fill="none" stroke="#63b8ff" d="M267.87,-20.51C275.81,-19.28 284.07,-18.01 292.01,-16.78"/>
<polygon fill="#63b8ff" stroke="#63b8ff" points="292.52,-20.24 301.86,-15.25 291.45,-13.32 292.52,-20.24"/>
</a>
</g>
</g>
</g>
</svg>
