<?xml version="1.0" encoding="UTF-8" standalone="no"?>
<!DOCTYPE svg PUBLIC "-//W3C//DTD SVG 1.1//EN"
 "http://www.w3.org/Graphics/SVG/1.1/DTD/svg11.dtd">
<!-- Generated by graphviz version 12.2.0 (20241103.1931)
 -->
<!-- Title: ModbusErrorInfomodbusParseResponseRTU Pages: 1 -->
<svg width="403pt" height="64pt"
 viewBox="0.00 0.00 402.50 64.25" xmlns="http://www.w3.org/2000/svg" xmlns:xlink="http://www.w3.org/1999/xlink">
<g id="graph0" class="graph" transform="scale(1 1) rotate(0) translate(4 60.25)">
<title>ModbusErrorInfomodbusParseResponseRTU</title>
<!-- Node1 -->
<g id="Node000001" class="node">
<title>Node1</title>
<g id="a_Node000001"><a xlink:title="Parses a Modbus RTU slave response.">
<polygon fill="#999999" stroke="#666666" points="147.25,-42.88 0,-42.88 0,-12.37 147.25,-12.37 147.25,-42.88"/>
<text text-anchor="start" x="8" y="-29.38" font-family="Helvetica,sans-Serif" font-size="10.00">ModbusErrorInfomodbusParse</text>
<text text-anchor="middle" x="73.62" y="-18.12" font-family="Helvetica,sans-Serif" font-size="10.00">ResponseRTU</text>
</a>
</g>
</g>
<!-- Node2 -->
<g id="Node000002" class="node">
<title>Node2</title>
<g id="a_Node000002"><a xlink:href="base_8h.html#a4dba88e9baf690b8dafa0fad81eb7d07" target="_top" xlink:title="Unpacks data from a Modbus RTU frame and optionally checks CRC.">
<polygon fill="white" stroke="#666666" points="287.75,-37.25 183.25,-37.25 183.25,-18 287.75,-18 287.75,-37.25"/>
<text text-anchor="middle" x="235.5" y="-23.75" font-family="Helvetica,sans-Serif" font-size="10.00">modbusUnpackRTU</text>
</a>
</g>
</g>
<!-- Node1&#45;&gt;Node2 -->
<g id="edge1_Node000001_Node000002" class="edge">
<title>Node1&#45;&gt;Node2</title>
<g id="a_edge1_Node000001_Node000002"><a xlink:title=" ">
<path fill="none" stroke="#63b8ff" d="M147.54,-27.62C155.62,-27.62 163.8,-27.62 171.74,-27.62"/>
<polygon fill="#63b8ff" stroke="#63b8ff" points="171.64,-31.13 181.64,-27.63 171.64,-24.13 171.64,-31.13"/>
</a>
</g>
</g>
<!-- Node3 -->
<g id="Node000003" class="node">
<title>Node3</title>
<g id="a_Node000003"><a xlink:href="base_8impl_8h.html#a11346a546b84663cd92cb30f4ffd1393" target="_top" xlink:title="Calculates 16&#45;bit Modbus CRC of provided data.">
<polygon fill="white" stroke="#666666" points="394.5,-56.25 323.75,-56.25 323.75,-37 394.5,-37 394.5,-56.25"/>
<text text-anchor="middle" x="359.12" y="-42.75" font-family="Helvetica,sans-Serif" font-size="10.00">modbusCRC</text>
</a>
</g>
</g>
<!-- Node2&#45;&gt;Node3 -->
<g id="edge2_Node000002_Node000003" class="edge">
<title>Node2&#45;&gt;Node3</title>
<g id="a_edge2_Node000002_Node000003"><a xlink:title=" ">
<path fill="none" stroke="#63b8ff" d="M288.08,-35.68C296.08,-36.93 304.31,-38.22 312.18,-39.45"/>
<polygon fill="#63b8ff" stroke="#63b8ff" points="311.47,-42.88 321.89,-40.96 312.55,-35.96 311.47,-42.88"/>
</a>
</g>
</g>
<!-- Node4 -->
<g id="Node000004" class="node">
<title>Node4</title>
<g id="a_Node000004"><a xlink:href="base_8h.html#a0fc3f293c746d39a93e4c1158f792404" target="_top" xlink:title="Safely reads a little&#45;endian 16&#45;bit word from provided pointer.">
<polygon fill="white" stroke="#666666" points="393.75,-19.25 324.5,-19.25 324.5,0 393.75,0 393.75,-19.25"/>
<text text-anchor="middle" x="359.12" y="-5.75" font-family="Helvetica,sans-Serif" font-size="10.00">modbusRLE</text>
</a>
</g>
</g>
<!-- Node2&#45;&gt;Node4 -->
<g id="edge3_Node000002_Node000004" class="edge">
<title>Node2&#45;&gt;Node4</title>
<g id="a_edge3_Node000002_Node000004"><a xlink:title=" ">
<path fill="none" stroke="#63b8ff" d="M288.08,-19.99C296.35,-18.77 304.86,-17.51 312.97,-16.31"/>
<polygon fill="#63b8ff" stroke="#63b8ff" points="313.22,-19.81 322.6,-14.88 312.2,-12.88 313.22,-19.81"/>
</a>
</g>
</g>
</g>
</svg>
