<?xml version="1.0" encoding="UTF-8" standalone="no"?>
<!DOCTYPE svg PUBLIC "-//W3C//DTD SVG 1.1//EN"
 "http://www.w3.org/Graphics/SVG/1.1/DTD/svg11.dtd">
<!-- Generated by graphviz version 12.2.0 (20241103.1931)
 -->
<!-- Title: ModbusErrorInfomodbusParseResponseTCP Pages: 1 -->
<svg width="401pt" height="39pt"
 viewBox="0.00 0.00 401.00 38.50" xmlns="http://www.w3.org/2000/svg" xmlns:xlink="http://www.w3.org/1999/xlink">
<g id="graph0" class="graph" transform="scale(1 1) rotate(0) translate(4 34.5)">
<title>ModbusErrorInfomodbusParseResponseTCP</title>
<!-- Node1 -->
<g id="Node000001" class="node">
<title>Node1</title>
<g id="a_Node000001"><a xlink:title="Parses a Modbus TCP slave response.">
<polygon fill="#999999" stroke="#666666" points="147.25,-30.5 0,-30.5 0,0 147.25,0 147.25,-30.5"/>
<text text-anchor="start" x="8" y="-17" font-family="Helvetica,sans-Serif" font-size="10.00">ModbusErrorInfomodbusParse</text>
<text text-anchor="middle" x="73.62" y="-5.75" font-family="Helvetica,sans-Serif" font-size="10.00">ResponseTCP</text>
</a>
</g>
</g>
<!-- Node2 -->
<g id="Node000002" class="node">
<title>Node2</title>
<g id="a_Node000002"><a xlink:href="base_8h.html#a616e5bdb5ebcd57b1604421f6ca22bc9" target="_top" xlink:title="Unpacks data from a Modbus TCP frame.">
<polygon fill="white" stroke="#666666" points="287,-24.88 183.25,-24.88 183.25,-5.63 287,-5.63 287,-24.88"/>
<text text-anchor="middle" x="235.12" y="-11.38" font-family="Helvetica,sans-Serif" font-size="10.00">modbusUnpackTCP</text>
</a>
</g>
</g>
<!-- Node1&#45;&gt;Node2 -->
<g id="edge1_Node000001_Node000002" class="edge">
<title>Node1&#45;&gt;Node2</title>
<g id="a_edge1_Node000001_Node000002"><a xlink:title=" ">
<path fill="none" stroke="#63b8ff" d="M147.37,-15.25C155.43,-15.25 163.59,-15.25 171.51,-15.25"/>
<polygon fill="#63b8ff" stroke="#63b8ff" points="171.39,-18.75 181.39,-15.25 171.39,-11.75 171.39,-18.75"/>
</a>
</g>
</g>
<!-- Node3 -->
<g id="Node000003" class="node">
<title>Node3</title>
<g id="a_Node000003"><a xlink:href="base_8h.html#ace96da9afdf1e1796a6e2d7ac1f6c81a" target="_top" xlink:title="Safely reads a big&#45;endian 16&#45;bit word from provided pointer.">
<polygon fill="white" stroke="#666666" points="393,-24.88 323,-24.88 323,-5.63 393,-5.63 393,-24.88"/>
<text text-anchor="middle" x="358" y="-11.38" font-family="Helvetica,sans-Serif" font-size="10.00">modbusRBE</text>
</a>
</g>
</g>
<!-- Node2&#45;&gt;Node3 -->
<g id="edge2_Node000002_Node000003" class="edge">
<title>Node2&#45;&gt;Node3</title>
<g id="a_edge2_Node000002_Node000003"><a xlink:title=" ">
<path fill="none" stroke="#63b8ff" d="M287.39,-15.25C295.43,-15.25 303.69,-15.25 311.59,-15.25"/>
<polygon fill="#63b8ff" stroke="#63b8ff" points="311.32,-18.75 321.32,-15.25 311.32,-11.75 311.32,-18.75"/>
</a>
</g>
</g>
</g>
</svg>
