<?xml version="1.0" encoding="UTF-8" standalone="no"?>
<!DOCTYPE svg PUBLIC "-//W3C//DTD SVG 1.1//EN"
 "http://www.w3.org/Graphics/SVG/1.1/DTD/svg11.dtd">
<!-- Generated by graphviz version 12.2.0 (20241103.1931)
 -->
<!-- Title: include/lightmodbus/master.h Pages: 1 -->
<svg width="285pt" height="305pt"
 viewBox="0.00 0.00 285.00 304.50" xmlns="http://www.w3.org/2000/svg" xmlns:xlink="http://www.w3.org/1999/xlink">
<g id="graph0" class="graph" transform="scale(1 1) rotate(0) translate(4 300.5)">
<title>include/lightmodbus/master.h</title>
<!-- Node1 -->
<g id="Node000001" class="node">
<title>Node1</title>
<g id="a_Node000001"><a xlink:title="Master&#39;s types and basic functions (header)">
<polygon fill="#999999" stroke="#666666" points="158,-296.5 55.75,-296.5 55.75,-266 158,-266 158,-296.5"/>
<text text-anchor="start" x="63.75" y="-283" font-family="Helvetica,sans-Serif" font-size="10.00">include/lightmodbus</text>
<text text-anchor="middle" x="106.87" y="-271.75" font-family="Helvetica,sans-Serif" font-size="10.00">/master.h</text>
</a>
</g>
</g>
<!-- Node2 -->
<g id="Node000002" class="node">
<title>Node2</title>
<g id="a_Node000002"><a xlink:href="lightmodbus_8h.html" target="_top" xlink:title="The main library header file (include this one)">
<polygon fill="white" stroke="#666666" points="158,-97 55.75,-97 55.75,-66.5 158,-66.5 158,-97"/>
<text text-anchor="start" x="63.75" y="-83.5" font-family="Helvetica,sans-Serif" font-size="10.00">include/lightmodbus</text>
<text text-anchor="middle" x="106.87" y="-72.25" font-family="Helvetica,sans-Serif" font-size="10.00">/lightmodbus.h</text>
</a>
</g>
</g>
<!-- Node1&#45;&gt;Node2 -->
<g id="edge1_Node000001_Node000002" class="edge">
<title>Node1&#45;&gt;Node2</title>
<g id="a_edge1_Node000001_Node000002"><a xlink:title=" ">
<path fill="none" stroke="#63b8ff" d="M74.74,-259C36.09,-230.7 -20.28,-178.86 7.87,-133 18.51,-115.67 37.19,-104.09 55.49,-96.46"/>
<polygon fill="#63b8ff" stroke="#63b8ff" points="72.71,-261.86 82.89,-264.8 76.76,-256.15 72.71,-261.86"/>
</a>
</g>
</g>
<!-- Node4 -->
<g id="Node000004" class="node">
<title>Node4</title>
<g id="a_Node000004"><a xlink:href="master_8impl_8h.html" target="_top" xlink:title="Master&#39;s types and basic functions (implementation)">
<polygon fill="white" stroke="#666666" points="119,-163.5 16.75,-163.5 16.75,-133 119,-133 119,-163.5"/>
<text text-anchor="start" x="24.75" y="-150" font-family="Helvetica,sans-Serif" font-size="10.00">include/lightmodbus</text>
<text text-anchor="middle" x="67.87" y="-138.75" font-family="Helvetica,sans-Serif" font-size="10.00">/master.impl.h</text>
</a>
</g>
</g>
<!-- Node1&#45;&gt;Node4 -->
<g id="edge3_Node000001_Node000004" class="edge">
<title>Node1&#45;&gt;Node4</title>
<g id="a_edge3_Node000001_Node000004"><a xlink:title=" ">
<path fill="none" stroke="#63b8ff" d="M96,-255.06C92.81,-247.13 89.48,-238.28 86.87,-230 79.69,-207.2 73.84,-180.01 70.6,-163.72"/>
<polygon fill="#63b8ff" stroke="#63b8ff" points="92.69,-256.21 99.76,-264.11 99.16,-253.53 92.69,-256.21"/>
</a>
</g>
</g>
<!-- Node5 -->
<g id="Node000005" class="node">
<title>Node5</title>
<g id="a_Node000005"><a xlink:href="master__func_8h.html" target="_top" xlink:title="Master&#39;s functions for building requests and parsing responses (header)">
<polygon fill="white" stroke="#666666" points="198,-230 95.75,-230 95.75,-199.5 198,-199.5 198,-230"/>
<text text-anchor="start" x="103.75" y="-216.5" font-family="Helvetica,sans-Serif" font-size="10.00">include/lightmodbus</text>
<text text-anchor="middle" x="146.87" y="-205.25" font-family="Helvetica,sans-Serif" font-size="10.00">/master_func.h</text>
</a>
</g>
</g>
<!-- Node1&#45;&gt;Node5 -->
<g id="edge5_Node000001_Node000005" class="edge">
<title>Node1&#45;&gt;Node5</title>
<g id="a_edge5_Node000001_Node000005"><a xlink:title=" ">
<path fill="none" stroke="#63b8ff" d="M121.91,-256.01C127.27,-247.37 133.13,-237.91 137.83,-230.33"/>
<polygon fill="#63b8ff" stroke="#63b8ff" points="119.04,-253.98 116.75,-264.33 124.99,-257.67 119.04,-253.98"/>
</a>
</g>
</g>
<!-- Node6 -->
<g id="Node000006" class="node">
<title>Node6</title>
<g id="a_Node000006"><a xlink:href="master__func_8impl_8h.html" target="_top" xlink:title="Master&#39;s functions for building requests and parsing responses (implementation)">
<polygon fill="white" stroke="#666666" points="277,-163.5 174.75,-163.5 174.75,-133 277,-133 277,-163.5"/>
<text text-anchor="start" x="182.75" y="-150" font-family="Helvetica,sans-Serif" font-size="10.00">include/lightmodbus</text>
<text text-anchor="middle" x="225.87" y="-138.75" font-family="Helvetica,sans-Serif" font-size="10.00">/master_func.impl.h</text>
</a>
</g>
</g>
<!-- Node1&#45;&gt;Node6 -->
<g id="edge10_Node000001_Node000006" class="edge">
<title>Node1&#45;&gt;Node6</title>
<g id="a_edge10_Node000001_Node000006"><a xlink:title=" ">
<path fill="none" stroke="#63b8ff" d="M166.42,-260.8C181.52,-253.31 196.41,-243.26 206.87,-230 222.04,-210.78 225.44,-181.48 226.02,-163.96"/>
<polygon fill="#63b8ff" stroke="#63b8ff" points="164.99,-257.6 157.35,-264.95 167.9,-263.97 164.99,-257.6"/>
</a>
</g>
</g>
<!-- Node3 -->
<g id="Node000003" class="node">
<title>Node3</title>
<g id="a_Node000003"><a xlink:href="lightmodbus_8hpp.html" target="_top" xlink:title="(Very) experimental liblightmodbus C++ interface">
<polygon fill="white" stroke="#666666" points="158,-30.5 55.75,-30.5 55.75,0 158,0 158,-30.5"/>
<text text-anchor="start" x="63.75" y="-17" font-family="Helvetica,sans-Serif" font-size="10.00">include/lightmodbus</text>
<text text-anchor="middle" x="106.87" y="-5.75" font-family="Helvetica,sans-Serif" font-size="10.00">/lightmodbus.hpp</text>
</a>
</g>
</g>
<!-- Node2&#45;&gt;Node3 -->
<g id="edge2_Node000002_Node000003" class="edge">
<title>Node2&#45;&gt;Node3</title>
<g id="a_edge2_Node000002_Node000003"><a xlink:title=" ">
<path fill="none" stroke="#63b8ff" d="M106.87,-54.81C106.87,-46.64 106.87,-37.91 106.87,-30.83"/>
<polygon fill="#63b8ff" stroke="#63b8ff" points="103.37,-54.6 106.87,-64.6 110.37,-54.6 103.37,-54.6"/>
</a>
</g>
</g>
<!-- Node4&#45;&gt;Node2 -->
<g id="edge4_Node000004_Node000002" class="edge">
<title>Node4&#45;&gt;Node2</title>
<g id="a_edge4_Node000004_Node000002"><a xlink:title=" ">
<path fill="none" stroke="#63b8ff" d="M82.53,-123.01C87.76,-114.37 93.48,-104.91 98.06,-97.33"/>
<polygon fill="#63b8ff" stroke="#63b8ff" points="79.68,-120.95 77.51,-131.32 85.67,-124.57 79.68,-120.95"/>
</a>
</g>
</g>
<!-- Node5&#45;&gt;Node2 -->
<g id="edge6_Node000005_Node000002" class="edge">
<title>Node5&#45;&gt;Node2</title>
<g id="a_edge6_Node000005_Node000002"><a xlink:title=" ">
<path fill="none" stroke="#63b8ff" d="M141.97,-188.1C138.62,-172.08 133.75,-151.12 127.87,-133 123.91,-120.77 118.23,-107.35 113.78,-97.46"/>
<polygon fill="#63b8ff" stroke="#63b8ff" points="138.51,-188.66 143.91,-197.78 145.37,-187.28 138.51,-188.66"/>
</a>
</g>
</g>
<!-- Node5&#45;&gt;Node4 -->
<g id="edge7_Node000005_Node000004" class="edge">
<title>Node5&#45;&gt;Node4</title>
<g id="a_edge7_Node000005_Node000004"><a xlink:title=" ">
<path fill="none" stroke="#63b8ff" d="M120.25,-192.02C108.89,-182.73 95.92,-172.15 85.73,-163.83"/>
<polygon fill="#63b8ff" stroke="#63b8ff" points="117.81,-194.54 127.77,-198.16 122.24,-189.12 117.81,-194.54"/>
</a>
</g>
</g>
<!-- Node5&#45;&gt;Node6 -->
<g id="edge8_Node000005_Node000006" class="edge">
<title>Node5&#45;&gt;Node6</title>
<g id="a_edge8_Node000005_Node000006"><a xlink:title=" ">
<path fill="none" stroke="#63b8ff" d="M173.49,-192.02C184.86,-182.73 197.83,-172.15 208.02,-163.83"/>
<polygon fill="#63b8ff" stroke="#63b8ff" points="171.5,-189.12 165.97,-198.16 175.93,-194.54 171.5,-189.12"/>
</a>
</g>
</g>
<!-- Node6&#45;&gt;Node2 -->
<g id="edge9_Node000006_Node000002" class="edge">
<title>Node6&#45;&gt;Node2</title>
<g id="a_edge9_Node000006_Node000002"><a xlink:title=" ">
<path fill="none" stroke="#63b8ff" d="M188.8,-127.16C170.99,-117.5 150.03,-106.14 133.77,-97.33"/>
<polygon fill="#63b8ff" stroke="#63b8ff" points="187.08,-130.2 197.54,-131.89 190.42,-124.05 187.08,-130.2"/>
</a>
</g>
</g>
</g>
</svg>
