<?xml version="1.0" encoding="UTF-8" standalone="no"?>
<!DOCTYPE svg PUBLIC "-//W3C//DTD SVG 1.1//EN"
 "http://www.w3.org/Graphics/SVG/1.1/DTD/svg11.dtd">
<!-- Generated by graphviz version 12.2.0 (20241103.1931)
 -->
<!-- Title: include/lightmodbus/master.impl.h Pages: 1 -->
<svg width="149pt" height="260pt"
 viewBox="0.00 0.00 149.02 259.50" xmlns="http://www.w3.org/2000/svg" xmlns:xlink="http://www.w3.org/1999/xlink">
<g id="graph0" class="graph" transform="scale(1 1) rotate(0) translate(4 255.5)">
<title>include/lightmodbus/master.impl.h</title>
<!-- Node1 -->
<g id="Node000001" class="node">
<title>Node1</title>
<g id="a_Node000001"><a xlink:title="Master&#39;s types and basic functions (implementation)">
<polygon fill="#999999" stroke="#666666" points="119.39,-251.5 17.14,-251.5 17.14,-221 119.39,-221 119.39,-251.5"/>
<text text-anchor="start" x="25.14" y="-238" font-family="Helvetica,sans-Serif" font-size="10.00">include/lightmodbus</text>
<text text-anchor="middle" x="68.27" y="-226.75" font-family="Helvetica,sans-Serif" font-size="10.00">/master.impl.h</text>
</a>
</g>
</g>
<!-- Node2 -->
<g id="Node000002" class="node">
<title>Node2</title>
<g id="a_Node000002"><a xlink:href="master_8h.html" target="_top" xlink:title="Master&#39;s types and basic functions (header)">
<polygon fill="white" stroke="#666666" points="63.02,-129.75 9.52,-129.75 9.52,-110.5 63.02,-110.5 63.02,-129.75"/>
<text text-anchor="middle" x="36.27" y="-116.25" font-family="Helvetica,sans-Serif" font-size="10.00">master.h</text>
</a>
</g>
</g>
<!-- Node1&#45;&gt;Node2 -->
<g id="edge1_Node000001_Node000002" class="edge">
<title>Node1&#45;&gt;Node2</title>
<g id="a_edge1_Node000001_Node000002"><a xlink:title=" ">
<path fill="none" stroke="#63b8ff" d="M64.21,-220.8C58.57,-200.65 48.3,-164.06 41.91,-141.25"/>
<polygon fill="#63b8ff" stroke="#63b8ff" points="45.29,-140.34 39.22,-131.66 38.55,-142.23 45.29,-140.34"/>
</a>
</g>
</g>
<!-- Node6 -->
<g id="Node000006" class="node">
<title>Node6</title>
<g id="a_Node000006"><a xlink:href="master__func_8h.html" target="_top" xlink:title="Master&#39;s functions for building requests and parsing responses (header)">
<polygon fill="white" stroke="#666666" points="141.02,-185 63.52,-185 63.52,-165.75 141.02,-165.75 141.02,-185"/>
<text text-anchor="middle" x="102.27" y="-171.5" font-family="Helvetica,sans-Serif" font-size="10.00">master_func.h</text>
</a>
</g>
</g>
<!-- Node1&#45;&gt;Node6 -->
<g id="edge6_Node000001_Node000006" class="edge">
<title>Node1&#45;&gt;Node6</title>
<g id="a_edge6_Node000001_Node000006"><a xlink:title=" ">
<path fill="none" stroke="#63b8ff" d="M76.67,-220.7C81.1,-213.03 86.59,-203.52 91.34,-195.29"/>
<polygon fill="#63b8ff" stroke="#63b8ff" points="94.3,-197.17 96.27,-186.76 88.24,-193.67 94.3,-197.17"/>
</a>
</g>
</g>
<!-- Node3 -->
<g id="Node000003" class="node">
<title>Node3</title>
<g id="a_Node000003"><a xlink:title=" ">
<polygon fill="#e0e0e0" stroke="#999999" points="66.02,-19.25 18.52,-19.25 18.52,0 66.02,0 66.02,-19.25"/>
<text text-anchor="middle" x="42.27" y="-5.75" font-family="Helvetica,sans-Serif" font-size="10.00">stdint.h</text>
</a>
</g>
</g>
<!-- Node2&#45;&gt;Node3 -->
<g id="edge2_Node000002_Node000003" class="edge">
<title>Node2&#45;&gt;Node3</title>
<g id="a_edge2_Node000002_Node000003"><a xlink:title=" ">
<path fill="none" stroke="#63b8ff" d="M26.07,-110.36C13.4,-98.35 -5.63,-75.9 2.27,-55.25 6.36,-44.55 14.34,-34.79 22.1,-27.15"/>
<polygon fill="#63b8ff" stroke="#63b8ff" points="24.08,-30.08 29.12,-20.76 19.37,-24.9 24.08,-30.08"/>
</a>
</g>
</g>
<!-- Node4 -->
<g id="Node000004" class="node">
<title>Node4</title>
<g id="a_Node000004"><a xlink:title=" ">
<polygon fill="#e0e0e0" stroke="#999999" points="61.52,-74.5 11.02,-74.5 11.02,-55.25 61.52,-55.25 61.52,-74.5"/>
<text text-anchor="middle" x="36.27" y="-61" font-family="Helvetica,sans-Serif" font-size="10.00">stddef.h</text>
</a>
</g>
</g>
<!-- Node2&#45;&gt;Node4 -->
<g id="edge3_Node000002_Node000004" class="edge">
<title>Node2&#45;&gt;Node4</title>
<g id="a_edge3_Node000002_Node000004"><a xlink:title=" ">
<path fill="none" stroke="#63b8ff" d="M36.27,-110.33C36.27,-103.82 36.27,-94.67 36.27,-86.37"/>
<polygon fill="#63b8ff" stroke="#63b8ff" points="39.77,-86.37 36.27,-76.37 32.77,-86.37 39.77,-86.37"/>
</a>
</g>
</g>
<!-- Node5 -->
<g id="Node000005" class="node">
<title>Node5</title>
<g id="a_Node000005"><a xlink:href="base_8h.html" target="_top" xlink:title="Common types and functions (header)">
<polygon fill="white" stroke="#666666" points="124.52,-74.5 80.02,-74.5 80.02,-55.25 124.52,-55.25 124.52,-74.5"/>
<text text-anchor="middle" x="102.27" y="-61" font-family="Helvetica,sans-Serif" font-size="10.00">base.h</text>
</a>
</g>
</g>
<!-- Node2&#45;&gt;Node5 -->
<g id="edge4_Node000002_Node000005" class="edge">
<title>Node2&#45;&gt;Node5</title>
<g id="a_edge4_Node000002_Node000005"><a xlink:title=" ">
<path fill="none" stroke="#63b8ff" d="M47.46,-110.09C57,-102.4 70.94,-91.15 82.37,-81.93"/>
<polygon fill="#63b8ff" stroke="#63b8ff" points="84.47,-84.73 90.06,-75.73 80.08,-79.28 84.47,-84.73"/>
</a>
</g>
</g>
<!-- Node5&#45;&gt;Node3 -->
<g id="edge5_Node000005_Node000003" class="edge">
<title>Node5&#45;&gt;Node3</title>
<g id="a_edge5_Node000005_Node000003"><a xlink:title=" ">
<path fill="none" stroke="#63b8ff" d="M92.09,-54.84C83.5,-47.22 71,-36.12 60.66,-26.95"/>
<polygon fill="#63b8ff" stroke="#63b8ff" points="63.23,-24.55 53.43,-20.53 58.58,-29.79 63.23,-24.55"/>
</a>
</g>
</g>
<!-- Node6&#45;&gt;Node2 -->
<g id="edge8_Node000006_Node000002" class="edge">
<title>Node6&#45;&gt;Node2</title>
<g id="a_edge8_Node000006_Node000002"><a xlink:title=" ">
<path fill="none" stroke="#63b8ff" d="M91.07,-165.34C81.53,-157.65 67.59,-146.4 56.16,-137.18"/>
<polygon fill="#63b8ff" stroke="#63b8ff" points="58.46,-134.53 48.48,-130.98 54.06,-139.98 58.46,-134.53"/>
</a>
</g>
</g>
<!-- Node6&#45;&gt;Node5 -->
<g id="edge7_Node000006_Node000005" class="edge">
<title>Node6&#45;&gt;Node5</title>
<g id="a_edge7_Node000006_Node000005"><a xlink:title=" ">
<path fill="none" stroke="#63b8ff" d="M102.27,-165.5C102.27,-148.25 102.27,-109.83 102.27,-86.06"/>
<polygon fill="#63b8ff" stroke="#63b8ff" points="105.77,-86.39 102.27,-76.39 98.77,-86.39 105.77,-86.39"/>
</a>
</g>
</g>
</g>
</svg>
