<?xml version="1.0" encoding="UTF-8" standalone="no"?>
<!DOCTYPE svg PUBLIC "-//W3C//DTD SVG 1.1//EN"
 "http://www.w3.org/Graphics/SVG/1.1/DTD/svg11.dtd">
<!-- Generated by graphviz version 12.2.0 (20241103.1931)
 -->
<!-- Title: include/lightmodbus/master_func.impl.h Pages: 1 -->
<svg width="177pt" height="260pt"
 viewBox="0.00 0.00 177.00 259.50" xmlns="http://www.w3.org/2000/svg" xmlns:xlink="http://www.w3.org/1999/xlink">
<g id="graph0" class="graph" transform="scale(1 1) rotate(0) translate(4 255.5)">
<title>include/lightmodbus/master_func.impl.h</title>
<!-- Node1 -->
<g id="Node000001" class="node">
<title>Node1</title>
<g id="a_Node000001"><a xlink:title="Master&#39;s functions for building requests and parsing responses (implementation)">
<polygon fill="#999999" stroke="#666666" points="122.88,-251.5 20.62,-251.5 20.62,-221 122.88,-221 122.88,-251.5"/>
<text text-anchor="start" x="28.62" y="-238" font-family="Helvetica,sans-Serif" font-size="10.00">include/lightmodbus</text>
<text text-anchor="middle" x="71.75" y="-226.75" font-family="Helvetica,sans-Serif" font-size="10.00">/master_func.impl.h</text>
</a>
</g>
</g>
<!-- Node2 -->
<g id="Node000002" class="node">
<title>Node2</title>
<g id="a_Node000002"><a xlink:href="master__func_8h.html" target="_top" xlink:title="Master&#39;s functions for building requests and parsing responses (header)">
<polygon fill="white" stroke="#666666" points="77.5,-185 0,-185 0,-165.75 77.5,-165.75 77.5,-185"/>
<text text-anchor="middle" x="38.75" y="-171.5" font-family="Helvetica,sans-Serif" font-size="10.00">master_func.h</text>
</a>
</g>
</g>
<!-- Node1&#45;&gt;Node2 -->
<g id="edge1_Node000001_Node000002" class="edge">
<title>Node1&#45;&gt;Node2</title>
<g id="a_edge1_Node000001_Node000002"><a xlink:title=" ">
<path fill="none" stroke="#63b8ff" d="M63.59,-220.7C59.29,-213.03 53.97,-203.52 49.35,-195.29"/>
<polygon fill="#63b8ff" stroke="#63b8ff" points="52.52,-193.78 44.58,-186.77 46.41,-197.21 52.52,-193.78"/>
</a>
</g>
</g>
<!-- Node5 -->
<g id="Node000005" class="node">
<title>Node5</title>
<g id="a_Node000005"><a xlink:href="master_8h.html" target="_top" xlink:title="Master&#39;s types and basic functions (header)">
<polygon fill="white" stroke="#666666" points="120.5,-129.75 67,-129.75 67,-110.5 120.5,-110.5 120.5,-129.75"/>
<text text-anchor="middle" x="93.75" y="-116.25" font-family="Helvetica,sans-Serif" font-size="10.00">master.h</text>
</a>
</g>
</g>
<!-- Node1&#45;&gt;Node5 -->
<g id="edge8_Node000001_Node000005" class="edge">
<title>Node1&#45;&gt;Node5</title>
<g id="a_edge8_Node000001_Node000005"><a xlink:title=" ">
<path fill="none" stroke="#63b8ff" d="M76.78,-220.91C80.09,-210.95 84.26,-197.31 86.75,-185 89.7,-170.4 91.48,-153.66 92.5,-140.98"/>
<polygon fill="#63b8ff" stroke="#63b8ff" points="95.97,-141.61 93.19,-131.39 88.99,-141.12 95.97,-141.61"/>
</a>
</g>
</g>
<!-- Node3 -->
<g id="Node000003" class="node">
<title>Node3</title>
<g id="a_Node000003"><a xlink:href="base_8h.html" target="_top" xlink:title="Common types and functions (header)">
<polygon fill="white" stroke="#666666" points="63,-74.5 18.5,-74.5 18.5,-55.25 63,-55.25 63,-74.5"/>
<text text-anchor="middle" x="40.75" y="-61" font-family="Helvetica,sans-Serif" font-size="10.00">base.h</text>
</a>
</g>
</g>
<!-- Node2&#45;&gt;Node3 -->
<g id="edge2_Node000002_Node000003" class="edge">
<title>Node2&#45;&gt;Node3</title>
<g id="a_edge2_Node000002_Node000003"><a xlink:title=" ">
<path fill="none" stroke="#63b8ff" d="M38.91,-165.5C39.23,-148.25 39.94,-109.83 40.38,-86.06"/>
<polygon fill="#63b8ff" stroke="#63b8ff" points="43.87,-86.45 40.56,-76.39 36.87,-86.32 43.87,-86.45"/>
</a>
</g>
</g>
<!-- Node2&#45;&gt;Node5 -->
<g id="edge4_Node000002_Node000005" class="edge">
<title>Node2&#45;&gt;Node5</title>
<g id="a_edge4_Node000002_Node000005"><a xlink:title=" ">
<path fill="none" stroke="#63b8ff" d="M47.83,-165.58C55.59,-158.07 66.96,-147.06 76.45,-137.88"/>
<polygon fill="#63b8ff" stroke="#63b8ff" points="78.63,-140.63 83.38,-131.16 73.76,-135.6 78.63,-140.63"/>
</a>
</g>
</g>
<!-- Node4 -->
<g id="Node000004" class="node">
<title>Node4</title>
<g id="a_Node000004"><a xlink:title=" ">
<polygon fill="#e0e0e0" stroke="#999999" points="89.5,-19.25 42,-19.25 42,0 89.5,0 89.5,-19.25"/>
<text text-anchor="middle" x="65.75" y="-5.75" font-family="Helvetica,sans-Serif" font-size="10.00">stdint.h</text>
</a>
</g>
</g>
<!-- Node3&#45;&gt;Node4 -->
<g id="edge3_Node000003_Node000004" class="edge">
<title>Node3&#45;&gt;Node4</title>
<g id="a_edge3_Node000003_Node000004"><a xlink:title=" ">
<path fill="none" stroke="#63b8ff" d="M44.88,-55.08C48.08,-48.26 52.64,-38.56 56.68,-29.95"/>
<polygon fill="#63b8ff" stroke="#63b8ff" points="59.81,-31.52 60.89,-20.98 53.47,-28.54 59.81,-31.52"/>
</a>
</g>
</g>
<!-- Node5&#45;&gt;Node3 -->
<g id="edge7_Node000005_Node000003" class="edge">
<title>Node5&#45;&gt;Node3</title>
<g id="a_edge7_Node000005_Node000003"><a xlink:title=" ">
<path fill="none" stroke="#63b8ff" d="M85,-110.33C77.6,-102.9 66.79,-92.04 57.7,-82.91"/>
<polygon fill="#63b8ff" stroke="#63b8ff" points="60.29,-80.55 50.76,-75.93 55.33,-85.49 60.29,-80.55"/>
</a>
</g>
</g>
<!-- Node5&#45;&gt;Node4 -->
<g id="edge5_Node000005_Node000004" class="edge">
<title>Node5&#45;&gt;Node4</title>
<g id="a_edge5_Node000005_Node000004"><a xlink:title=" ">
<path fill="none" stroke="#63b8ff" d="M91.46,-110.25C86.99,-92.92 77,-54.23 70.88,-30.49"/>
<polygon fill="#63b8ff" stroke="#63b8ff" points="74.34,-29.9 68.45,-21.09 67.56,-31.65 74.34,-29.9"/>
</a>
</g>
</g>
<!-- Node6 -->
<g id="Node000006" class="node">
<title>Node6</title>
<g id="a_Node000006"><a xlink:title=" ">
<polygon fill="#e0e0e0" stroke="#999999" points="169,-74.5 118.5,-74.5 118.5,-55.25 169,-55.25 169,-74.5"/>
<text text-anchor="middle" x="143.75" y="-61" font-family="Helvetica,sans-Serif" font-size="10.00">stddef.h</text>
</a>
</g>
</g>
<!-- Node5&#45;&gt;Node6 -->
<g id="edge6_Node000005_Node000006" class="edge">
<title>Node5&#45;&gt;Node6</title>
<g id="a_edge6_Node000005_Node000006"><a xlink:title=" ">
<path fill="none" stroke="#63b8ff" d="M102.01,-110.33C108.91,-102.98 118.97,-92.26 127.49,-83.19"/>
<polygon fill="#63b8ff" stroke="#63b8ff" points="129.98,-85.65 134.28,-75.96 124.88,-80.86 129.98,-85.65"/>
</a>
</g>
</g>
</g>
</svg>
