<?xml version="1.0" encoding="UTF-8" standalone="no"?>
<!DOCTYPE svg PUBLIC "-//W3C//DTD SVG 1.1//EN"
 "http://www.w3.org/Graphics/SVG/1.1/DTD/svg11.dtd">
<!-- Generated by graphviz version 12.2.0 (20241103.1931)
 -->
<!-- Title: ModbusErrorInfomodbusBuildRequest15 Pages: 1 -->
<svg width="523pt" height="212pt"
 viewBox="0.00 0.00 523.25 212.25" xmlns="http://www.w3.org/2000/svg" xmlns:xlink="http://www.w3.org/1999/xlink">
<g id="graph0" class="graph" transform="scale(1 1) rotate(0) translate(4 208.25)">
<title>ModbusErrorInfomodbusBuildRequest15</title>
<!-- Node1 -->
<g id="Node000001" class="node">
<title>Node1</title>
<g id="a_Node000001"><a xlink:title="Write multiple coils.">
<polygon fill="#999999" stroke="#666666" points="143.5,-116.88 0,-116.88 0,-86.38 143.5,-86.38 143.5,-116.88"/>
<text text-anchor="start" x="8" y="-103.38" font-family="Helvetica,sans-Serif" font-size="10.00">ModbusErrorInfomodbusBuild</text>
<text text-anchor="middle" x="71.75" y="-92.12" font-family="Helvetica,sans-Serif" font-size="10.00">Request15</text>
</a>
</g>
</g>
<!-- Node2 -->
<g id="Node000002" class="node">
<title>Node2</title>
<g id="a_Node000002"><a xlink:href="base_8h.html#af23a50b36bef9c09ac82214a52ff4d58" target="_top" xlink:title="Returns number of bytes necessary to hold given number of bits.">
<polygon fill="white" stroke="#666666" points="307.25,-204.25 203.5,-204.25 203.5,-185 307.25,-185 307.25,-204.25"/>
<text text-anchor="middle" x="255.38" y="-190.75" font-family="Helvetica,sans-Serif" font-size="10.00">modbusBitsToBytes</text>
</a>
</g>
</g>
<!-- Node1&#45;&gt;Node2 -->
<g id="edge1_Node000001_Node000002" class="edge">
<title>Node1&#45;&gt;Node2</title>
<g id="a_edge1_Node000001_Node000002"><a xlink:title=" ">
<path fill="none" stroke="#63b8ff" d="M90.35,-117.18C110.52,-134.21 145.23,-161.15 179.5,-176.62 183.56,-178.46 187.84,-180.12 192.21,-181.63"/>
<polygon fill="#63b8ff" stroke="#63b8ff" points="191.13,-184.96 201.72,-184.6 193.22,-178.28 191.13,-184.96"/>
</a>
</g>
</g>
<!-- Node3 -->
<g id="Node000003" class="node">
<title>Node3</title>
<g id="a_Node000003"><a xlink:href="base_8h.html#a61619958551d902c14ab6e51fb842ea0" target="_top" xlink:title="Checks whether provided address range causes an uint16_t overflow.">
<polygon fill="white" stroke="#666666" points="317.38,-167.25 193.38,-167.25 193.38,-148 317.38,-148 317.38,-167.25"/>
<text text-anchor="middle" x="255.38" y="-153.75" font-family="Helvetica,sans-Serif" font-size="10.00">modbusCheckRangeU16</text>
</a>
</g>
</g>
<!-- Node1&#45;&gt;Node3 -->
<g id="edge2_Node000001_Node000003" class="edge">
<title>Node1&#45;&gt;Node3</title>
<g id="a_edge2_Node000001_Node000003"><a xlink:title=" ">
<path fill="none" stroke="#63b8ff" d="M113.73,-117.36C133.45,-124.64 157.53,-133.09 179.5,-139.62 185.43,-141.39 191.66,-143.1 197.89,-144.72"/>
<polygon fill="#63b8ff" stroke="#63b8ff" points="197.01,-148.11 207.56,-147.17 198.73,-141.33 197.01,-148.11"/>
</a>
</g>
</g>
<!-- Node4 -->
<g id="Node000004" class="node">
<title>Node4</title>
<g id="a_Node000004"><a xlink:href="base_8h.html#aff2248343762719cdacf818e4dae3709" target="_top" xlink:title="Reads n&#45;th bit from an array.">
<polygon fill="white" stroke="#666666" points="303.88,-130.25 206.88,-130.25 206.88,-111 303.88,-111 303.88,-130.25"/>
<text text-anchor="middle" x="255.38" y="-116.75" font-family="Helvetica,sans-Serif" font-size="10.00">modbusMaskRead</text>
</a>
</g>
</g>
<!-- Node1&#45;&gt;Node4 -->
<g id="edge3_Node000001_Node000004" class="edge">
<title>Node1&#45;&gt;Node4</title>
<g id="a_edge3_Node000001_Node000004"><a xlink:title=" ">
<path fill="none" stroke="#63b8ff" d="M143.75,-109.05C160.81,-110.84 178.85,-112.72 195.29,-114.44"/>
<polygon fill="#63b8ff" stroke="#63b8ff" points="194.58,-117.89 204.89,-115.45 195.31,-110.93 194.58,-117.89"/>
</a>
</g>
</g>
<!-- Node5 -->
<g id="Node000005" class="node">
<title>Node5</title>
<g id="a_Node000005"><a xlink:href="base_8h.html#a5d9947eb500e2d0c87491a0adce53c2a" target="_top" xlink:title="Writes n&#45;th bit in an array.">
<polygon fill="white" stroke="#666666" points="303.88,-93.25 206.88,-93.25 206.88,-74 303.88,-74 303.88,-93.25"/>
<text text-anchor="middle" x="255.38" y="-79.75" font-family="Helvetica,sans-Serif" font-size="10.00">modbusMaskWrite</text>
</a>
</g>
</g>
<!-- Node1&#45;&gt;Node5 -->
<g id="edge4_Node000001_Node000005" class="edge">
<title>Node1&#45;&gt;Node5</title>
<g id="a_edge4_Node000001_Node000005"><a xlink:title=" ">
<path fill="none" stroke="#63b8ff" d="M143.75,-94.59C160.81,-92.9 178.85,-91.11 195.29,-89.48"/>
<polygon fill="#63b8ff" stroke="#63b8ff" points="195.28,-93 204.89,-88.53 194.59,-86.03 195.28,-93"/>
</a>
</g>
</g>
<!-- Node6 -->
<g id="Node000006" class="node">
<title>Node6</title>
<g id="a_Node000006"><a xlink:href="master_8h.html#a004b932b2b69ad0c6649c26d974146b2" target="_top" xlink:title="Allocates memory for the request frame.">
<polygon fill="white" stroke="#666666" points="331.25,-56.25 179.5,-56.25 179.5,-37 331.25,-37 331.25,-56.25"/>
<text text-anchor="middle" x="255.38" y="-42.75" font-family="Helvetica,sans-Serif" font-size="10.00">modbusMasterAllocateRequest</text>
</a>
</g>
</g>
<!-- Node1&#45;&gt;Node6 -->
<g id="edge5_Node000001_Node000006" class="edge">
<title>Node1&#45;&gt;Node6</title>
<g id="a_edge5_Node000001_Node000006"><a xlink:title=" ">
<path fill="none" stroke="#63b8ff" d="M115.04,-85.9C134.52,-78.93 158.04,-70.91 179.5,-64.62 185.66,-62.82 192.15,-61.06 198.63,-59.39"/>
<polygon fill="#63b8ff" stroke="#63b8ff" points="199.13,-62.87 207.98,-57.04 197.43,-56.08 199.13,-62.87"/>
</a>
</g>
</g>
<!-- Node9 -->
<g id="Node000009" class="node">
<title>Node9</title>
<g id="a_Node000009"><a xlink:href="base_8h.html#a73b9f793bbe67a1968cc8c53a22d4c4b" target="_top" xlink:title="Safely writes a big&#45;endian 16&#45;bit word to provided pointer.">
<polygon fill="white" stroke="#666666" points="291.5,-19.25 219.25,-19.25 219.25,0 291.5,0 291.5,-19.25"/>
<text text-anchor="middle" x="255.38" y="-5.75" font-family="Helvetica,sans-Serif" font-size="10.00">modbusWBE</text>
</a>
</g>
</g>
<!-- Node1&#45;&gt;Node9 -->
<g id="edge8_Node000001_Node000009" class="edge">
<title>Node1&#45;&gt;Node9</title>
<g id="a_edge8_Node000001_Node000009"><a xlink:title=" ">
<path fill="none" stroke="#63b8ff" d="M90.75,-85.99C111.01,-69.18 145.54,-42.83 179.5,-27.62 188.36,-23.66 198.21,-20.49 207.79,-18"/>
<polygon fill="#63b8ff" stroke="#63b8ff" points="208.44,-21.44 217.35,-15.71 206.81,-14.63 208.44,-21.44"/>
</a>
</g>
</g>
<!-- Node7 -->
<g id="Node000007" class="node">
<title>Node7</title>
<g id="a_Node000007"><a xlink:href="base_8impl_8h.html#a54f7d1db7f58ffd329b1955ad1a66f37" target="_top" xlink:title="Allocates memory to hold Modbus ADU.">
<polygon fill="white" stroke="#666666" points="507.38,-74.25 375.12,-74.25 375.12,-55 507.38,-55 507.38,-74.25"/>
<text text-anchor="middle" x="441.25" y="-60.75" font-family="Helvetica,sans-Serif" font-size="10.00">modbusBufferAllocateADU</text>
</a>
</g>
</g>
<!-- Node6&#45;&gt;Node7 -->
<g id="edge6_Node000006_Node000007" class="edge">
<title>Node6&#45;&gt;Node7</title>
<g id="a_edge6_Node000006_Node000007"><a xlink:title=" ">
<path fill="none" stroke="#63b8ff" d="M331.69,-54C342.18,-55.02 352.97,-56.08 363.48,-57.11"/>
<polygon fill="#63b8ff" stroke="#63b8ff" points="362.96,-60.58 373.25,-58.07 363.64,-53.61 362.96,-60.58"/>
</a>
</g>
</g>
<!-- Node8 -->
<g id="Node000008" class="node">
<title>Node8</title>
<g id="a_Node000008"><a xlink:href="master_8h.html#a39dfa809ec99fbff3a4acef1bc543b9f" target="_top" xlink:title="Retreieves the custom context pointer.">
<polygon fill="white" stroke="#666666" points="515.25,-37.25 367.25,-37.25 367.25,-18 515.25,-18 515.25,-37.25"/>
<text text-anchor="middle" x="441.25" y="-23.75" font-family="Helvetica,sans-Serif" font-size="10.00">modbusMasterGetUserPointer</text>
</a>
</g>
</g>
<!-- Node6&#45;&gt;Node8 -->
<g id="edge7_Node000006_Node000008" class="edge">
<title>Node6&#45;&gt;Node8</title>
<g id="a_edge7_Node000006_Node000008"><a xlink:title=" ">
<path fill="none" stroke="#63b8ff" d="M331.69,-38.84C339.58,-38.03 347.64,-37.19 355.62,-36.37"/>
<polygon fill="#63b8ff" stroke="#63b8ff" points="355.74,-39.88 365.32,-35.37 355.02,-32.91 355.74,-39.88"/>
</a>
</g>
</g>
</g>
</svg>
