<?xml version="1.0" encoding="UTF-8" standalone="no"?>
<!DOCTYPE svg PUBLIC "-//W3C//DTD SVG 1.1//EN"
 "http://www.w3.org/Graphics/SVG/1.1/DTD/svg11.dtd">
<!-- Generated by graphviz version 12.2.0 (20241103.1931)
 -->
<!-- Title: modbusMasterAllocateRequest Pages: 1 -->
<svg width="344pt" height="64pt"
 viewBox="0.00 0.00 343.75 64.25" xmlns="http://www.w3.org/2000/svg" xmlns:xlink="http://www.w3.org/1999/xlink">
<g id="graph0" class="graph" transform="scale(1 1) rotate(0) translate(4 60.25)">
<title>modbusMasterAllocateRequest</title>
<!-- Node1 -->
<g id="Node000001" class="node">
<title>Node1</title>
<g id="a_Node000001"><a xlink:title="Allocates memory for the request frame.">
<polygon fill="#999999" stroke="#666666" points="151.75,-37.25 0,-37.25 0,-18 151.75,-18 151.75,-37.25"/>
<text text-anchor="middle" x="75.88" y="-23.75" font-family="Helvetica,sans-Serif" font-size="10.00">modbusMasterAllocateRequest</text>
</a>
</g>
</g>
<!-- Node2 -->
<g id="Node000002" class="node">
<title>Node2</title>
<g id="a_Node000002"><a xlink:href="base_8impl_8h.html#a54f7d1db7f58ffd329b1955ad1a66f37" target="_top" xlink:title="Allocates memory to hold Modbus ADU.">
<polygon fill="white" stroke="#666666" points="327.88,-56.25 195.62,-56.25 195.62,-37 327.88,-37 327.88,-56.25"/>
<text text-anchor="middle" x="261.75" y="-42.75" font-family="Helvetica,sans-Serif" font-size="10.00">modbusBufferAllocateADU</text>
</a>
</g>
</g>
<!-- Node1&#45;&gt;Node2 -->
<g id="edge1_Node000001_Node000002" class="edge">
<title>Node1&#45;&gt;Node2</title>
<g id="a_edge1_Node000001_Node000002"><a xlink:title=" ">
<path fill="none" stroke="#63b8ff" d="M152.19,-35.41C162.68,-36.49 173.47,-37.61 183.98,-38.69"/>
<polygon fill="#63b8ff" stroke="#63b8ff" points="183.45,-42.16 193.75,-39.7 184.17,-35.19 183.45,-42.16"/>
</a>
</g>
</g>
<!-- Node3 -->
<g id="Node000003" class="node">
<title>Node3</title>
<g id="a_Node000003"><a xlink:href="master_8h.html#a39dfa809ec99fbff3a4acef1bc543b9f" target="_top" xlink:title="Retreieves the custom context pointer.">
<polygon fill="white" stroke="#666666" points="335.75,-19.25 187.75,-19.25 187.75,0 335.75,0 335.75,-19.25"/>
<text text-anchor="middle" x="261.75" y="-5.75" font-family="Helvetica,sans-Serif" font-size="10.00">modbusMasterGetUserPointer</text>
</a>
</g>
</g>
<!-- Node1&#45;&gt;Node3 -->
<g id="edge2_Node000001_Node000003" class="edge">
<title>Node1&#45;&gt;Node3</title>
<g id="a_edge2_Node000001_Node000003"><a xlink:title=" ">
<path fill="none" stroke="#63b8ff" d="M152.19,-20.25C160.08,-19.48 168.14,-18.69 176.12,-17.91"/>
<polygon fill="#63b8ff" stroke="#63b8ff" points="176.21,-21.42 185.82,-16.96 175.53,-14.45 176.21,-21.42"/>
</a>
</g>
</g>
</g>
</svg>
