<?xml version="1.0" encoding="UTF-8" standalone="no"?>
<!DOCTYPE svg PUBLIC "-//W3C//DTD SVG 1.1//EN"
 "http://www.w3.org/Graphics/SVG/1.1/DTD/svg11.dtd">
<!-- Generated by graphviz version 12.2.0 (20241103.1931)
 -->
<!-- Title: ModbusErrorInfomodbusBuildExceptionTCP Pages: 1 -->
<svg width="433pt" height="101pt"
 viewBox="0.00 0.00 433.25 101.25" xmlns="http://www.w3.org/2000/svg" xmlns:xlink="http://www.w3.org/1999/xlink">
<g id="graph0" class="graph" transform="scale(1 1) rotate(0) translate(4 97.25)">
<title>ModbusErrorInfomodbusBuildExceptionTCP</title>
<!-- Node1 -->
<g id="Node000001" class="node">
<title>Node1</title>
<g id="a_Node000001"><a xlink:title="Builds a Modbus TCP exception.">
<polygon fill="#999999" stroke="#666666" points="143.5,-42.88 0,-42.88 0,-12.37 143.5,-12.37 143.5,-42.88"/>
<text text-anchor="start" x="8" y="-29.38" font-family="Helvetica,sans-Serif" font-size="10.00">ModbusErrorInfomodbusBuild</text>
<text text-anchor="middle" x="71.75" y="-18.12" font-family="Helvetica,sans-Serif" font-size="10.00">ExceptionTCP</text>
</a>
</g>
</g>
<!-- Node2 -->
<g id="Node000002" class="node">
<title>Node2</title>
<g id="a_Node000002"><a xlink:href="base_8h.html#a64880e7075f445881485396f3aa869c5" target="_top" xlink:title="Checks if ModbusErrorInfo contains an error.">
<polygon fill="white" stroke="#666666" points="261.5,-56.25 190,-56.25 190,-37 261.5,-37 261.5,-56.25"/>
<text text-anchor="middle" x="225.75" y="-42.75" font-family="Helvetica,sans-Serif" font-size="10.00">modbusIsOk</text>
</a>
</g>
</g>
<!-- Node1&#45;&gt;Node2 -->
<g id="edge1_Node000001_Node000002" class="edge">
<title>Node1&#45;&gt;Node2</title>
<g id="a_edge1_Node000001_Node000002"><a xlink:title=" ">
<path fill="none" stroke="#63b8ff" d="M143.85,-36.51C155.54,-37.97 167.39,-39.45 178.27,-40.82"/>
<polygon fill="#63b8ff" stroke="#63b8ff" points="177.8,-44.28 188.16,-42.05 178.67,-37.34 177.8,-44.28"/>
</a>
</g>
</g>
<!-- Node5 -->
<g id="Node000005" class="node">
<title>Node5</title>
<g id="a_Node000005"><a xlink:href="base_8h.html#a39dcd3aad118a779b7e1775fea3e5d77" target="_top" xlink:title="Sets up the MBAP header in a Modbus TCP frame.">
<polygon fill="white" stroke="#666666" points="272,-19.25 179.5,-19.25 179.5,0 272,0 272,-19.25"/>
<text text-anchor="middle" x="225.75" y="-5.75" font-family="Helvetica,sans-Serif" font-size="10.00">modbusPackTCP</text>
</a>
</g>
</g>
<!-- Node1&#45;&gt;Node5 -->
<g id="edge4_Node000001_Node000005" class="edge">
<title>Node1&#45;&gt;Node5</title>
<g id="a_edge4_Node000001_Node000005"><a xlink:title=" ">
<path fill="none" stroke="#63b8ff" d="M143.85,-19.2C151.95,-18.25 160.13,-17.28 168,-16.35"/>
<polygon fill="#63b8ff" stroke="#63b8ff" points="168.27,-19.84 177.79,-15.19 167.44,-12.89 168.27,-19.84"/>
</a>
</g>
</g>
<!-- Node3 -->
<g id="Node000003" class="node">
<title>Node3</title>
<g id="a_Node000003"><a xlink:href="base_8h.html#a29d2a7853b328113e4fcddae85fd3ce5" target="_top" xlink:title="Returns ModbusError contained in ModbusErrorInfo.">
<polygon fill="white" stroke="#666666" points="421.12,-93.25 312.12,-93.25 312.12,-74 421.12,-74 421.12,-93.25"/>
<text text-anchor="middle" x="366.62" y="-79.75" font-family="Helvetica,sans-Serif" font-size="10.00">modbusGetErrorCode</text>
</a>
</g>
</g>
<!-- Node2&#45;&gt;Node3 -->
<g id="edge2_Node000002_Node000003" class="edge">
<title>Node2&#45;&gt;Node3</title>
<g id="a_edge2_Node000002_Node000003"><a xlink:title=" ">
<path fill="none" stroke="#63b8ff" d="M261.79,-55.96C278.43,-60.39 298.59,-65.76 316.7,-70.59"/>
<polygon fill="#63b8ff" stroke="#63b8ff" points="315.64,-73.93 326.2,-73.12 317.44,-67.17 315.64,-73.93"/>
</a>
</g>
</g>
<!-- Node4 -->
<g id="Node000004" class="node">
<title>Node4</title>
<g id="a_Node000004"><a xlink:href="base_8h.html#a9ee4c2e633c7a42f88acc09b95f8171e" target="_top" xlink:title="Returns uint8_t describing error source of ModbusErrorInfo.">
<polygon fill="white" stroke="#666666" points="425.25,-56.25 308,-56.25 308,-37 425.25,-37 425.25,-56.25"/>
<text text-anchor="middle" x="366.62" y="-42.75" font-family="Helvetica,sans-Serif" font-size="10.00">modbusGetErrorSource</text>
</a>
</g>
</g>
<!-- Node2&#45;&gt;Node4 -->
<g id="edge3_Node000002_Node000004" class="edge">
<title>Node2&#45;&gt;Node4</title>
<g id="a_edge3_Node000002_Node000004"><a xlink:title=" ">
<path fill="none" stroke="#63b8ff" d="M261.79,-46.62C272.33,-46.62 284.28,-46.62 296.22,-46.62"/>
<polygon fill="#63b8ff" stroke="#63b8ff" points="296.11,-50.13 306.11,-46.63 296.11,-43.13 296.11,-50.13"/>
</a>
</g>
</g>
<!-- Node6 -->
<g id="Node000006" class="node">
<title>Node6</title>
<g id="a_Node000006"><a xlink:href="base_8h.html#a73b9f793bbe67a1968cc8c53a22d4c4b" target="_top" xlink:title="Safely writes a big&#45;endian 16&#45;bit word to provided pointer.">
<polygon fill="white" stroke="#666666" points="402.75,-19.25 330.5,-19.25 330.5,0 402.75,0 402.75,-19.25"/>
<text text-anchor="middle" x="366.62" y="-5.75" font-family="Helvetica,sans-Serif" font-size="10.00">modbusWBE</text>
</a>
</g>
</g>
<!-- Node5&#45;&gt;Node6 -->
<g id="edge5_Node000005_Node000006" class="edge">
<title>Node5&#45;&gt;Node6</title>
<g id="a_edge5_Node000005_Node000006"><a xlink:title=" ">
<path fill="none" stroke="#63b8ff" d="M272.22,-9.62C287.23,-9.62 303.93,-9.62 319.02,-9.62"/>
<polygon fill="#63b8ff" stroke="#63b8ff" points="318.67,-13.13 328.67,-9.63 318.67,-6.13 318.67,-13.13"/>
</a>
</g>
</g>
</g>
</svg>
