<?xml version="1.0" encoding="UTF-8" standalone="no"?>
<!DOCTYPE svg PUBLIC "-//W3C//DTD SVG 1.1//EN"
 "http://www.w3.org/Graphics/SVG/1.1/DTD/svg11.dtd">
<!-- Generated by graphviz version 12.2.0 (20241103.1931)
 -->
<!-- Title: ModbusErrorInfomodbusBuildExceptionRTU Pages: 1 -->
<svg width="434pt" height="138pt"
 viewBox="0.00 0.00 434.00 138.25" xmlns="http://www.w3.org/2000/svg" xmlns:xlink="http://www.w3.org/1999/xlink">
<g id="graph0" class="graph" transform="scale(1 1) rotate(0) translate(4 134.25)">
<title>ModbusErrorInfomodbusBuildExceptionRTU</title>
<!-- Node1 -->
<g id="Node000001" class="node">
<title>Node1</title>
<g id="a_Node000001"><a xlink:title="Builds a Modbus RTU exception.">
<polygon fill="#999999" stroke="#666666" points="143.5,-79.88 0,-79.88 0,-49.38 143.5,-49.38 143.5,-79.88"/>
<text text-anchor="start" x="8" y="-66.38" font-family="Helvetica,sans-Serif" font-size="10.00">ModbusErrorInfomodbusBuild</text>
<text text-anchor="middle" x="71.75" y="-55.12" font-family="Helvetica,sans-Serif" font-size="10.00">ExceptionRTU</text>
</a>
</g>
</g>
<!-- Node2 -->
<g id="Node000002" class="node">
<title>Node2</title>
<g id="a_Node000002"><a xlink:href="base_8h.html#a64880e7075f445881485396f3aa869c5" target="_top" xlink:title="Checks if ModbusErrorInfo contains an error.">
<polygon fill="white" stroke="#666666" points="261.88,-93.25 190.38,-93.25 190.38,-74 261.88,-74 261.88,-93.25"/>
<text text-anchor="middle" x="226.12" y="-79.75" font-family="Helvetica,sans-Serif" font-size="10.00">modbusIsOk</text>
</a>
</g>
</g>
<!-- Node1&#45;&gt;Node2 -->
<g id="edge1_Node000001_Node000002" class="edge">
<title>Node1&#45;&gt;Node2</title>
<g id="a_edge1_Node000001_Node000002"><a xlink:title=" ">
<path fill="none" stroke="#63b8ff" d="M143.58,-73.46C155.58,-74.95 167.76,-76.47 178.91,-77.86"/>
<polygon fill="#63b8ff" stroke="#63b8ff" points="178.26,-81.31 188.62,-79.07 179.13,-74.36 178.26,-81.31"/>
</a>
</g>
</g>
<!-- Node5 -->
<g id="Node000005" class="node">
<title>Node5</title>
<g id="a_Node000005"><a xlink:href="base_8h.html#af2cafe9debf86bea7042b4c40bb288cd" target="_top" xlink:title="Sets up address and CRC in a Modbus RTU frame.">
<polygon fill="white" stroke="#666666" points="272.75,-56.25 179.5,-56.25 179.5,-37 272.75,-37 272.75,-56.25"/>
<text text-anchor="middle" x="226.12" y="-42.75" font-family="Helvetica,sans-Serif" font-size="10.00">modbusPackRTU</text>
</a>
</g>
</g>
<!-- Node1&#45;&gt;Node5 -->
<g id="edge4_Node000001_Node000005" class="edge">
<title>Node1&#45;&gt;Node5</title>
<g id="a_edge4_Node000001_Node000005"><a xlink:title=" ">
<path fill="none" stroke="#63b8ff" d="M143.58,-56.26C151.73,-55.3 159.96,-54.32 167.89,-53.39"/>
<polygon fill="#63b8ff" stroke="#63b8ff" points="168.24,-56.87 177.76,-52.22 167.42,-49.92 168.24,-56.87"/>
</a>
</g>
</g>
<!-- Node3 -->
<g id="Node000003" class="node">
<title>Node3</title>
<g id="a_Node000003"><a xlink:href="base_8h.html#a29d2a7853b328113e4fcddae85fd3ce5" target="_top" xlink:title="Returns ModbusError contained in ModbusErrorInfo.">
<polygon fill="white" stroke="#666666" points="421.88,-130.25 312.88,-130.25 312.88,-111 421.88,-111 421.88,-130.25"/>
<text text-anchor="middle" x="367.38" y="-116.75" font-family="Helvetica,sans-Serif" font-size="10.00">modbusGetErrorCode</text>
</a>
</g>
</g>
<!-- Node2&#45;&gt;Node3 -->
<g id="edge2_Node000002_Node000003" class="edge">
<title>Node2&#45;&gt;Node3</title>
<g id="a_edge2_Node000002_Node000003"><a xlink:title=" ">
<path fill="none" stroke="#63b8ff" d="M262.26,-92.96C278.94,-97.39 299.16,-102.76 317.32,-107.59"/>
<polygon fill="#63b8ff" stroke="#63b8ff" points="316.29,-110.94 326.85,-110.12 318.08,-104.17 316.29,-110.94"/>
</a>
</g>
</g>
<!-- Node4 -->
<g id="Node000004" class="node">
<title>Node4</title>
<g id="a_Node000004"><a xlink:href="base_8h.html#a9ee4c2e633c7a42f88acc09b95f8171e" target="_top" xlink:title="Returns uint8_t describing error source of ModbusErrorInfo.">
<polygon fill="white" stroke="#666666" points="426,-93.25 308.75,-93.25 308.75,-74 426,-74 426,-93.25"/>
<text text-anchor="middle" x="367.38" y="-79.75" font-family="Helvetica,sans-Serif" font-size="10.00">modbusGetErrorSource</text>
</a>
</g>
</g>
<!-- Node2&#45;&gt;Node4 -->
<g id="edge3_Node000002_Node000004" class="edge">
<title>Node2&#45;&gt;Node4</title>
<g id="a_edge3_Node000002_Node000004"><a xlink:title=" ">
<path fill="none" stroke="#63b8ff" d="M262.26,-83.62C272.89,-83.62 284.94,-83.62 296.99,-83.62"/>
<polygon fill="#63b8ff" stroke="#63b8ff" points="296.98,-87.13 306.98,-83.63 296.98,-80.13 296.98,-87.13"/>
</a>
</g>
</g>
<!-- Node6 -->
<g id="Node000006" class="node">
<title>Node6</title>
<g id="a_Node000006"><a xlink:href="base_8impl_8h.html#a11346a546b84663cd92cb30f4ffd1393" target="_top" xlink:title="Calculates 16&#45;bit Modbus CRC of provided data.">
<polygon fill="white" stroke="#666666" points="402.75,-56.25 332,-56.25 332,-37 402.75,-37 402.75,-56.25"/>
<text text-anchor="middle" x="367.38" y="-42.75" font-family="Helvetica,sans-Serif" font-size="10.00">modbusCRC</text>
</a>
</g>
</g>
<!-- Node5&#45;&gt;Node6 -->
<g id="edge5_Node000005_Node000006" class="edge">
<title>Node5&#45;&gt;Node6</title>
<g id="a_edge5_Node000005_Node000006"><a xlink:title=" ">
<path fill="none" stroke="#63b8ff" d="M273.11,-46.62C288.38,-46.62 305.38,-46.62 320.64,-46.62"/>
<polygon fill="#63b8ff" stroke="#63b8ff" points="320.4,-50.13 330.4,-46.63 320.4,-43.13 320.4,-50.13"/>
</a>
</g>
</g>
<!-- Node7 -->
<g id="Node000007" class="node">
<title>Node7</title>
<g id="a_Node000007"><a xlink:href="base_8h.html#af718da7da634f311c2ae8db6be3d9027" target="_top" xlink:title="Safely writes a little&#45;endian 16&#45;bit word to provided pointer.">
<polygon fill="white" stroke="#666666" points="403.12,-19.25 331.62,-19.25 331.62,0 403.12,0 403.12,-19.25"/>
<text text-anchor="middle" x="367.38" y="-5.75" font-family="Helvetica,sans-Serif" font-size="10.00">modbusWLE</text>
</a>
</g>
</g>
<!-- Node5&#45;&gt;Node7 -->
<g id="edge6_Node000005_Node000007" class="edge">
<title>Node5&#45;&gt;Node7</title>
<g id="a_edge6_Node000005_Node000007"><a xlink:title=" ">
<path fill="none" stroke="#63b8ff" d="M265.18,-36.51C282.17,-32 302.34,-26.64 320.19,-21.9"/>
<polygon fill="#63b8ff" stroke="#63b8ff" points="321.01,-25.3 329.77,-19.35 319.21,-18.54 321.01,-25.3"/>
</a>
</g>
</g>
</g>
</svg>
