<?xml version="1.0" encoding="UTF-8" standalone="no"?>
<!DOCTYPE svg PUBLIC "-//W3C//DTD SVG 1.1//EN"
 "http://www.w3.org/Graphics/SVG/1.1/DTD/svg11.dtd">
<!-- Generated by graphviz version 12.2.0 (20241103.1931)
 -->
<!-- Title: ModbusErrorInfomodbusParseRequest01020304 Pages: 1 -->
<svg width="524pt" height="212pt"
 viewBox="0.00 0.00 524.00 212.25" xmlns="http://www.w3.org/2000/svg" xmlns:xlink="http://www.w3.org/1999/xlink">
<g id="graph0" class="graph" transform="scale(1 1) rotate(0) translate(4 208.25)">
<title>ModbusErrorInfomodbusParseRequest01020304</title>
<!-- Node1 -->
<g id="Node000001" class="node">
<title>Node1</title>
<g id="a_Node000001"><a xlink:title="Handles requests 01, 02, 03 and 04 (Read Multiple XX) and generates response.">
<polygon fill="#999999" stroke="#666666" points="147.25,-116.88 0,-116.88 0,-86.38 147.25,-86.38 147.25,-116.88"/>
<text text-anchor="start" x="8" y="-103.38" font-family="Helvetica,sans-Serif" font-size="10.00">ModbusErrorInfomodbusParse</text>
<text text-anchor="middle" x="73.62" y="-92.12" font-family="Helvetica,sans-Serif" font-size="10.00">Request01020304</text>
</a>
</g>
</g>
<!-- Node2 -->
<g id="Node000002" class="node">
<title>Node2</title>
<g id="a_Node000002"><a xlink:href="base_8h.html#af23a50b36bef9c09ac82214a52ff4d58" target="_top" xlink:title="Returns number of bytes necessary to hold given number of bits.">
<polygon fill="white" stroke="#666666" points="312.12,-204.25 208.38,-204.25 208.38,-185 312.12,-185 312.12,-204.25"/>
<text text-anchor="middle" x="260.25" y="-190.75" font-family="Helvetica,sans-Serif" font-size="10.00">modbusBitsToBytes</text>
</a>
</g>
</g>
<!-- Node1&#45;&gt;Node2 -->
<g id="edge1_Node000001_Node000002" class="edge">
<title>Node1&#45;&gt;Node2</title>
<g id="a_edge1_Node000001_Node000002"><a xlink:title=" ">
<path fill="none" stroke="#63b8ff" d="M92.57,-117.19C113.14,-134.22 148.49,-161.17 183.25,-176.62 187.76,-178.63 192.53,-180.43 197.39,-182.04"/>
<polygon fill="#63b8ff" stroke="#63b8ff" points="196.07,-185.3 206.65,-184.84 198.09,-178.6 196.07,-185.3"/>
</a>
</g>
</g>
<!-- Node3 -->
<g id="Node000003" class="node">
<title>Node3</title>
<g id="a_Node000003"><a xlink:href="base_8h.html#a61619958551d902c14ab6e51fb842ea0" target="_top" xlink:title="Checks whether provided address range causes an uint16_t overflow.">
<polygon fill="white" stroke="#666666" points="322.25,-167.25 198.25,-167.25 198.25,-148 322.25,-148 322.25,-167.25"/>
<text text-anchor="middle" x="260.25" y="-153.75" font-family="Helvetica,sans-Serif" font-size="10.00">modbusCheckRangeU16</text>
</a>
</g>
</g>
<!-- Node1&#45;&gt;Node3 -->
<g id="edge2_Node000001_Node000003" class="edge">
<title>Node1&#45;&gt;Node3</title>
<g id="a_edge2_Node000001_Node000003"><a xlink:title=" ">
<path fill="none" stroke="#63b8ff" d="M116.34,-117.36C136.41,-124.63 160.91,-133.09 183.25,-139.62 189.42,-141.43 195.91,-143.18 202.39,-144.84"/>
<polygon fill="#63b8ff" stroke="#63b8ff" points="201.21,-148.16 211.76,-147.17 202.9,-141.36 201.21,-148.16"/>
</a>
</g>
</g>
<!-- Node4 -->
<g id="Node000004" class="node">
<title>Node4</title>
<g id="a_Node000004"><a xlink:href="base_8h.html#a5d9947eb500e2d0c87491a0adce53c2a" target="_top" xlink:title="Writes n&#45;th bit in an array.">
<polygon fill="white" stroke="#666666" points="308.75,-130.25 211.75,-130.25 211.75,-111 308.75,-111 308.75,-130.25"/>
<text text-anchor="middle" x="260.25" y="-116.75" font-family="Helvetica,sans-Serif" font-size="10.00">modbusMaskWrite</text>
</a>
</g>
</g>
<!-- Node1&#45;&gt;Node4 -->
<g id="edge3_Node000001_Node000004" class="edge">
<title>Node1&#45;&gt;Node4</title>
<g id="a_edge3_Node000001_Node000004"><a xlink:title=" ">
<path fill="none" stroke="#63b8ff" d="M147.59,-109.13C165.04,-110.93 183.45,-112.82 200.17,-114.55"/>
<polygon fill="#63b8ff" stroke="#63b8ff" points="199.64,-118.01 209.95,-115.55 200.36,-111.05 199.64,-118.01"/>
</a>
</g>
</g>
<!-- Node5 -->
<g id="Node000005" class="node">
<title>Node5</title>
<g id="a_Node000005"><a xlink:href="base_8h.html#ace96da9afdf1e1796a6e2d7ac1f6c81a" target="_top" xlink:title="Safely reads a big&#45;endian 16&#45;bit word from provided pointer.">
<polygon fill="white" stroke="#666666" points="295.25,-93.25 225.25,-93.25 225.25,-74 295.25,-74 295.25,-93.25"/>
<text text-anchor="middle" x="260.25" y="-79.75" font-family="Helvetica,sans-Serif" font-size="10.00">modbusRBE</text>
</a>
</g>
</g>
<!-- Node1&#45;&gt;Node5 -->
<g id="edge4_Node000001_Node000005" class="edge">
<title>Node1&#45;&gt;Node5</title>
<g id="a_edge4_Node000001_Node000005"><a xlink:title=" ">
<path fill="none" stroke="#63b8ff" d="M147.59,-94.51C169.84,-92.34 193.65,-90.02 213.55,-88.08"/>
<polygon fill="#63b8ff" stroke="#63b8ff" points="213.65,-91.59 223.26,-87.13 212.97,-84.62 213.65,-91.59"/>
</a>
</g>
</g>
<!-- Node6 -->
<g id="Node000006" class="node">
<title>Node6</title>
<g id="a_Node000006"><a xlink:href="slave_8h.html#ad1165bb6d12af1db502a05df5da55aed" target="_top" xlink:title="Allocates memory for slave&#39;s response frame.">
<polygon fill="white" stroke="#666666" points="337.25,-56.25 183.25,-56.25 183.25,-37 337.25,-37 337.25,-56.25"/>
<text text-anchor="middle" x="260.25" y="-42.75" font-family="Helvetica,sans-Serif" font-size="10.00">modbusSlaveAllocateResponse</text>
</a>
</g>
</g>
<!-- Node1&#45;&gt;Node6 -->
<g id="edge5_Node000001_Node000006" class="edge">
<title>Node1&#45;&gt;Node6</title>
<g id="a_edge5_Node000001_Node000006"><a xlink:title=" ">
<path fill="none" stroke="#63b8ff" d="M117.67,-85.9C137.5,-78.94 161.43,-70.91 183.25,-64.62 189.51,-62.82 196.1,-61.06 202.67,-59.39"/>
<polygon fill="#63b8ff" stroke="#63b8ff" points="203.32,-62.84 212.18,-57.04 201.64,-56.04 203.32,-62.84"/>
</a>
</g>
</g>
<!-- Node9 -->
<g id="Node000009" class="node">
<title>Node9</title>
<g id="a_Node000009"><a xlink:href="base_8h.html#a73b9f793bbe67a1968cc8c53a22d4c4b" target="_top" xlink:title="Safely writes a big&#45;endian 16&#45;bit word to provided pointer.">
<polygon fill="white" stroke="#666666" points="296.38,-19.25 224.12,-19.25 224.12,0 296.38,0 296.38,-19.25"/>
<text text-anchor="middle" x="260.25" y="-5.75" font-family="Helvetica,sans-Serif" font-size="10.00">modbusWBE</text>
</a>
</g>
</g>
<!-- Node1&#45;&gt;Node9 -->
<g id="edge8_Node000001_Node000009" class="edge">
<title>Node1&#45;&gt;Node9</title>
<g id="a_edge8_Node000001_Node000009"><a xlink:title=" ">
<path fill="none" stroke="#63b8ff" d="M92.98,-85.98C113.63,-69.17 148.8,-42.82 183.25,-27.62 192.53,-23.53 202.89,-20.29 212.89,-17.76"/>
<polygon fill="#63b8ff" stroke="#63b8ff" points="213.53,-21.2 222.48,-15.53 211.95,-14.38 213.53,-21.2"/>
</a>
</g>
</g>
<!-- Node7 -->
<g id="Node000007" class="node">
<title>Node7</title>
<g id="a_Node000007"><a xlink:href="base_8impl_8h.html#a54f7d1db7f58ffd329b1955ad1a66f37" target="_top" xlink:title="Allocates memory to hold Modbus ADU.">
<polygon fill="white" stroke="#666666" points="510.75,-74.25 378.5,-74.25 378.5,-55 510.75,-55 510.75,-74.25"/>
<text text-anchor="middle" x="444.62" y="-60.75" font-family="Helvetica,sans-Serif" font-size="10.00">modbusBufferAllocateADU</text>
</a>
</g>
</g>
<!-- Node6&#45;&gt;Node7 -->
<g id="edge6_Node000006_Node000007" class="edge">
<title>Node6&#45;&gt;Node7</title>
<g id="a_edge6_Node000006_Node000007"><a xlink:title=" ">
<path fill="none" stroke="#63b8ff" d="M337.54,-54.15C347.22,-55.11 357.13,-56.09 366.82,-57.04"/>
<polygon fill="#63b8ff" stroke="#63b8ff" points="366.26,-60.51 376.56,-58.01 366.95,-53.54 366.26,-60.51"/>
</a>
</g>
</g>
<!-- Node8 -->
<g id="Node000008" class="node">
<title>Node8</title>
<g id="a_Node000008"><a xlink:href="slave_8h.html#a6517cff5567f0f07444d140edc7dfafd" target="_top" xlink:title="Retreieves the custom context pointer.">
<polygon fill="white" stroke="#666666" points="516,-37.25 373.25,-37.25 373.25,-18 516,-18 516,-37.25"/>
<text text-anchor="middle" x="444.62" y="-23.75" font-family="Helvetica,sans-Serif" font-size="10.00">modbusSlaveGetUserPointer</text>
</a>
</g>
</g>
<!-- Node6&#45;&gt;Node8 -->
<g id="edge7_Node000006_Node000008" class="edge">
<title>Node6&#45;&gt;Node8</title>
<g id="a_edge7_Node000006_Node000008"><a xlink:title=" ">
<path fill="none" stroke="#63b8ff" d="M337.54,-38.68C345.5,-37.85 353.61,-37 361.64,-36.17"/>
<polygon fill="#63b8ff" stroke="#63b8ff" points="361.8,-39.67 371.38,-35.15 361.07,-32.71 361.8,-39.67"/>
</a>
</g>
</g>
</g>
</svg>
