<?xml version="1.0" encoding="UTF-8" standalone="no"?>
<!DOCTYPE svg PUBLIC "-//W3C//DTD SVG 1.1//EN"
 "http://www.w3.org/Graphics/SVG/1.1/DTD/svg11.dtd">
<!-- Generated by graphviz version 12.2.0 (20241103.1931)
 -->
<!-- Title: include/lightmodbus/slave.impl.h Pages: 1 -->
<svg width="144pt" height="260pt"
 viewBox="0.00 0.00 143.63 259.50" xmlns="http://www.w3.org/2000/svg" xmlns:xlink="http://www.w3.org/1999/xlink">
<g id="graph0" class="graph" transform="scale(1 1) rotate(0) translate(4 255.5)">
<title>include/lightmodbus/slave.impl.h</title>
<!-- Node1 -->
<g id="Node000001" class="node">
<title>Node1</title>
<g id="a_Node000001"><a xlink:title="Slave&#39;s types and basic functions (implementation)">
<polygon fill="#999999" stroke="#666666" points="119.38,-251.5 17.13,-251.5 17.13,-221 119.38,-221 119.38,-251.5"/>
<text text-anchor="start" x="25.13" y="-238" font-family="Helvetica,sans-Serif" font-size="10.00">include/lightmodbus</text>
<text text-anchor="middle" x="68.26" y="-226.75" font-family="Helvetica,sans-Serif" font-size="10.00">/slave.impl.h</text>
</a>
</g>
</g>
<!-- Node2 -->
<g id="Node000002" class="node">
<title>Node2</title>
<g id="a_Node000002"><a xlink:href="slave_8h.html" target="_top" xlink:title="Slave&#39;s types and basic functions (header)">
<polygon fill="white" stroke="#666666" points="60.63,-129.75 13.88,-129.75 13.88,-110.5 60.63,-110.5 60.63,-129.75"/>
<text text-anchor="middle" x="37.26" y="-116.25" font-family="Helvetica,sans-Serif" font-size="10.00">slave.h</text>
</a>
</g>
</g>
<!-- Node1&#45;&gt;Node2 -->
<g id="edge1_Node000001_Node000002" class="edge">
<title>Node1&#45;&gt;Node2</title>
<g id="a_edge1_Node000001_Node000002"><a xlink:title=" ">
<path fill="none" stroke="#63b8ff" d="M64.33,-220.8C58.86,-200.65 48.92,-164.06 42.73,-141.25"/>
<polygon fill="#63b8ff" stroke="#63b8ff" points="46.12,-140.39 40.12,-131.66 39.36,-142.23 46.12,-140.39"/>
</a>
</g>
</g>
<!-- Node6 -->
<g id="Node000006" class="node">
<title>Node6</title>
<g id="a_Node000006"><a xlink:href="slave__func_8h.html" target="_top" xlink:title="Slave&#39;s functions for parsing requests (header)">
<polygon fill="white" stroke="#666666" points="135.63,-185 64.88,-185 64.88,-165.75 135.63,-165.75 135.63,-185"/>
<text text-anchor="middle" x="100.26" y="-171.5" font-family="Helvetica,sans-Serif" font-size="10.00">slave_func.h</text>
</a>
</g>
</g>
<!-- Node1&#45;&gt;Node6 -->
<g id="edge6_Node000001_Node000006" class="edge">
<title>Node1&#45;&gt;Node6</title>
<g id="a_edge6_Node000001_Node000006"><a xlink:title=" ">
<path fill="none" stroke="#63b8ff" d="M76.17,-220.7C80.29,-213.11 85.39,-203.74 89.83,-195.57"/>
<polygon fill="#63b8ff" stroke="#63b8ff" points="92.9,-197.24 94.6,-186.78 86.75,-193.9 92.9,-197.24"/>
</a>
</g>
</g>
<!-- Node3 -->
<g id="Node000003" class="node">
<title>Node3</title>
<g id="a_Node000003"><a xlink:title=" ">
<polygon fill="#e0e0e0" stroke="#999999" points="66.01,-19.25 18.51,-19.25 18.51,0 66.01,0 66.01,-19.25"/>
<text text-anchor="middle" x="42.26" y="-5.75" font-family="Helvetica,sans-Serif" font-size="10.00">stdint.h</text>
</a>
</g>
</g>
<!-- Node2&#45;&gt;Node3 -->
<g id="edge2_Node000002_Node000003" class="edge">
<title>Node2&#45;&gt;Node3</title>
<g id="a_edge2_Node000002_Node000003"><a xlink:title=" ">
<path fill="none" stroke="#63b8ff" d="M26.81,-110.4C13.83,-98.43 -5.69,-76.04 2.26,-55.25 6.35,-44.55 14.33,-34.79 22.09,-27.15"/>
<polygon fill="#63b8ff" stroke="#63b8ff" points="24.07,-30.08 29.11,-20.76 19.36,-24.9 24.07,-30.08"/>
</a>
</g>
</g>
<!-- Node4 -->
<g id="Node000004" class="node">
<title>Node4</title>
<g id="a_Node000004"><a xlink:title=" ">
<polygon fill="#e0e0e0" stroke="#999999" points="61.51,-74.5 11.01,-74.5 11.01,-55.25 61.51,-55.25 61.51,-74.5"/>
<text text-anchor="middle" x="36.26" y="-61" font-family="Helvetica,sans-Serif" font-size="10.00">stddef.h</text>
</a>
</g>
</g>
<!-- Node2&#45;&gt;Node4 -->
<g id="edge3_Node000002_Node000004" class="edge">
<title>Node2&#45;&gt;Node4</title>
<g id="a_edge3_Node000002_Node000004"><a xlink:title=" ">
<path fill="none" stroke="#63b8ff" d="M37.09,-110.33C36.97,-103.82 36.8,-94.67 36.64,-86.37"/>
<polygon fill="#63b8ff" stroke="#63b8ff" points="40.14,-86.3 36.46,-76.37 33.14,-86.44 40.14,-86.3"/>
</a>
</g>
</g>
<!-- Node5 -->
<g id="Node000005" class="node">
<title>Node5</title>
<g id="a_Node000005"><a xlink:href="base_8h.html" target="_top" xlink:title="Common types and functions (header)">
<polygon fill="white" stroke="#666666" points="124.51,-74.5 80.01,-74.5 80.01,-55.25 124.51,-55.25 124.51,-74.5"/>
<text text-anchor="middle" x="102.26" y="-61" font-family="Helvetica,sans-Serif" font-size="10.00">base.h</text>
</a>
</g>
</g>
<!-- Node2&#45;&gt;Node5 -->
<g id="edge4_Node000002_Node000005" class="edge">
<title>Node2&#45;&gt;Node5</title>
<g id="a_edge4_Node000002_Node000005"><a xlink:title=" ">
<path fill="none" stroke="#63b8ff" d="M48.29,-110.09C57.68,-102.4 71.41,-91.15 82.67,-81.93"/>
<polygon fill="#63b8ff" stroke="#63b8ff" points="84.71,-84.78 90.22,-75.73 80.27,-79.36 84.71,-84.78"/>
</a>
</g>
</g>
<!-- Node5&#45;&gt;Node3 -->
<g id="edge5_Node000005_Node000003" class="edge">
<title>Node5&#45;&gt;Node3</title>
<g id="a_edge5_Node000005_Node000003"><a xlink:title=" ">
<path fill="none" stroke="#63b8ff" d="M92.08,-54.84C83.5,-47.22 70.99,-36.12 60.66,-26.95"/>
<polygon fill="#63b8ff" stroke="#63b8ff" points="63.22,-24.55 53.42,-20.53 58.57,-29.79 63.22,-24.55"/>
</a>
</g>
</g>
<!-- Node6&#45;&gt;Node2 -->
<g id="edge8_Node000006_Node000002" class="edge">
<title>Node6&#45;&gt;Node2</title>
<g id="a_edge8_Node000006_Node000002"><a xlink:title=" ">
<path fill="none" stroke="#63b8ff" d="M89.57,-165.34C80.56,-157.72 67.43,-146.62 56.58,-137.45"/>
<polygon fill="#63b8ff" stroke="#63b8ff" points="58.84,-134.78 48.94,-131 54.32,-140.13 58.84,-134.78"/>
</a>
</g>
</g>
<!-- Node6&#45;&gt;Node5 -->
<g id="edge7_Node000006_Node000005" class="edge">
<title>Node6&#45;&gt;Node5</title>
<g id="a_edge7_Node000006_Node000005"><a xlink:title=" ">
<path fill="none" stroke="#63b8ff" d="M100.42,-165.5C100.74,-148.25 101.45,-109.83 101.89,-86.06"/>
<polygon fill="#63b8ff" stroke="#63b8ff" points="105.38,-86.45 102.06,-76.39 98.38,-86.32 105.38,-86.45"/>
</a>
</g>
</g>
</g>
</svg>
