<?xml version="1.0" encoding="UTF-8" standalone="no"?>
<!DOCTYPE svg PUBLIC "-//W3C//DTD SVG 1.1//EN"
 "http://www.w3.org/Graphics/SVG/1.1/DTD/svg11.dtd">
<!-- Generated by graphviz version 12.2.0 (20241103.1931)
 -->
<!-- Title: include/lightmodbus/slave_func.impl.h Pages: 1 -->
<svg width="172pt" height="260pt"
 viewBox="0.00 0.00 171.62 259.50" xmlns="http://www.w3.org/2000/svg" xmlns:xlink="http://www.w3.org/1999/xlink">
<g id="graph0" class="graph" transform="scale(1 1) rotate(0) translate(4 255.5)">
<title>include/lightmodbus/slave_func.impl.h</title>
<!-- Node1 -->
<g id="Node000001" class="node">
<title>Node1</title>
<g id="a_Node000001"><a xlink:title="Slave&#39;s functions for parsing requests (implementation)">
<polygon fill="#999999" stroke="#666666" points="117.5,-251.5 15.25,-251.5 15.25,-221 117.5,-221 117.5,-251.5"/>
<text text-anchor="start" x="23.25" y="-238" font-family="Helvetica,sans-Serif" font-size="10.00">include/lightmodbus</text>
<text text-anchor="middle" x="66.38" y="-226.75" font-family="Helvetica,sans-Serif" font-size="10.00">/slave_func.impl.h</text>
</a>
</g>
</g>
<!-- Node2 -->
<g id="Node000002" class="node">
<title>Node2</title>
<g id="a_Node000002"><a xlink:href="slave__func_8h.html" target="_top" xlink:title="Slave&#39;s functions for parsing requests (header)">
<polygon fill="white" stroke="#666666" points="70.75,-185 0,-185 0,-165.75 70.75,-165.75 70.75,-185"/>
<text text-anchor="middle" x="35.38" y="-171.5" font-family="Helvetica,sans-Serif" font-size="10.00">slave_func.h</text>
</a>
</g>
</g>
<!-- Node1&#45;&gt;Node2 -->
<g id="edge1_Node000001_Node000002" class="edge">
<title>Node1&#45;&gt;Node2</title>
<g id="a_edge1_Node000001_Node000002"><a xlink:title=" ">
<path fill="none" stroke="#63b8ff" d="M58.71,-220.7C54.72,-213.11 49.78,-203.74 45.48,-195.57"/>
<polygon fill="#63b8ff" stroke="#63b8ff" points="48.62,-194.01 40.86,-186.79 42.42,-197.27 48.62,-194.01"/>
</a>
</g>
</g>
<!-- Node5 -->
<g id="Node000005" class="node">
<title>Node5</title>
<g id="a_Node000005"><a xlink:href="slave_8h.html" target="_top" xlink:title="Slave&#39;s types and basic functions (header)">
<polygon fill="white" stroke="#666666" points="109.75,-129.75 63,-129.75 63,-110.5 109.75,-110.5 109.75,-129.75"/>
<text text-anchor="middle" x="86.38" y="-116.25" font-family="Helvetica,sans-Serif" font-size="10.00">slave.h</text>
</a>
</g>
</g>
<!-- Node1&#45;&gt;Node5 -->
<g id="edge8_Node000001_Node000005" class="edge">
<title>Node1&#45;&gt;Node5</title>
<g id="a_edge8_Node000001_Node000005"><a xlink:title=" ">
<path fill="none" stroke="#63b8ff" d="M70.69,-220.86C73.53,-210.88 77.13,-197.23 79.38,-185 82.06,-170.35 83.85,-153.61 84.94,-140.94"/>
<polygon fill="#63b8ff" stroke="#63b8ff" points="88.4,-141.61 85.7,-131.37 81.42,-141.06 88.4,-141.61"/>
</a>
</g>
</g>
<!-- Node3 -->
<g id="Node000003" class="node">
<title>Node3</title>
<g id="a_Node000003"><a xlink:href="base_8h.html" target="_top" xlink:title="Common types and functions (header)">
<polygon fill="white" stroke="#666666" points="57.62,-74.5 13.12,-74.5 13.12,-55.25 57.62,-55.25 57.62,-74.5"/>
<text text-anchor="middle" x="35.38" y="-61" font-family="Helvetica,sans-Serif" font-size="10.00">base.h</text>
</a>
</g>
</g>
<!-- Node2&#45;&gt;Node3 -->
<g id="edge2_Node000002_Node000003" class="edge">
<title>Node2&#45;&gt;Node3</title>
<g id="a_edge2_Node000002_Node000003"><a xlink:title=" ">
<path fill="none" stroke="#63b8ff" d="M35.38,-165.5C35.38,-148.25 35.38,-109.83 35.38,-86.06"/>
<polygon fill="#63b8ff" stroke="#63b8ff" points="38.88,-86.39 35.38,-76.39 31.88,-86.39 38.88,-86.39"/>
</a>
</g>
</g>
<!-- Node2&#45;&gt;Node5 -->
<g id="edge4_Node000002_Node000005" class="edge">
<title>Node2&#45;&gt;Node5</title>
<g id="a_edge4_Node000002_Node000005"><a xlink:title=" ">
<path fill="none" stroke="#63b8ff" d="M43.8,-165.58C50.91,-158.15 61.32,-147.29 70.06,-138.16"/>
<polygon fill="#63b8ff" stroke="#63b8ff" points="72.33,-140.85 76.72,-131.2 67.28,-136 72.33,-140.85"/>
</a>
</g>
</g>
<!-- Node4 -->
<g id="Node000004" class="node">
<title>Node4</title>
<g id="a_Node000004"><a xlink:title=" ">
<polygon fill="#e0e0e0" stroke="#999999" points="84.12,-19.25 36.62,-19.25 36.62,0 84.12,0 84.12,-19.25"/>
<text text-anchor="middle" x="60.38" y="-5.75" font-family="Helvetica,sans-Serif" font-size="10.00">stdint.h</text>
</a>
</g>
</g>
<!-- Node3&#45;&gt;Node4 -->
<g id="edge3_Node000003_Node000004" class="edge">
<title>Node3&#45;&gt;Node4</title>
<g id="a_edge3_Node000003_Node000004"><a xlink:title=" ">
<path fill="none" stroke="#63b8ff" d="M39.5,-55.08C42.7,-48.26 47.26,-38.56 51.3,-29.95"/>
<polygon fill="#63b8ff" stroke="#63b8ff" points="54.43,-31.52 55.51,-20.98 48.1,-28.54 54.43,-31.52"/>
</a>
</g>
</g>
<!-- Node5&#45;&gt;Node3 -->
<g id="edge7_Node000005_Node000003" class="edge">
<title>Node5&#45;&gt;Node3</title>
<g id="a_edge7_Node000005_Node000003"><a xlink:title=" ">
<path fill="none" stroke="#63b8ff" d="M77.95,-110.33C70.84,-102.9 60.43,-92.04 51.69,-82.91"/>
<polygon fill="#63b8ff" stroke="#63b8ff" points="54.47,-80.75 45.03,-75.95 49.42,-85.6 54.47,-80.75"/>
</a>
</g>
</g>
<!-- Node5&#45;&gt;Node4 -->
<g id="edge5_Node000005_Node000004" class="edge">
<title>Node5&#45;&gt;Node4</title>
<g id="a_edge5_Node000005_Node000004"><a xlink:title=" ">
<path fill="none" stroke="#63b8ff" d="M84.25,-110.25C80.11,-93 70.91,-54.58 65.21,-30.81"/>
<polygon fill="#63b8ff" stroke="#63b8ff" points="68.62,-30.01 62.88,-21.1 61.81,-31.64 68.62,-30.01"/>
</a>
</g>
</g>
<!-- Node6 -->
<g id="Node000006" class="node">
<title>Node6</title>
<g id="a_Node000006"><a xlink:title=" ">
<polygon fill="#e0e0e0" stroke="#999999" points="163.62,-74.5 113.12,-74.5 113.12,-55.25 163.62,-55.25 163.62,-74.5"/>
<text text-anchor="middle" x="138.38" y="-61" font-family="Helvetica,sans-Serif" font-size="10.00">stddef.h</text>
</a>
</g>
</g>
<!-- Node5&#45;&gt;Node6 -->
<g id="edge6_Node000005_Node000006" class="edge">
<title>Node5&#45;&gt;Node6</title>
<g id="a_edge6_Node000005_Node000006"><a xlink:title=" ">
<path fill="none" stroke="#63b8ff" d="M94.96,-110.33C102.22,-102.9 112.83,-92.04 121.74,-82.91"/>
<polygon fill="#63b8ff" stroke="#63b8ff" points="124.06,-85.54 128.54,-75.94 119.05,-80.65 124.06,-85.54"/>
</a>
</g>
</g>
</g>
</svg>
