<?xml version="1.0" encoding="UTF-8" standalone="no"?>
<!DOCTYPE svg PUBLIC "-//W3C//DTD SVG 1.1//EN"
 "http://www.w3.org/Graphics/SVG/1.1/DTD/svg11.dtd">
<!-- Generated by graphviz version 12.2.0 (20241103.1931)
 -->
<!-- Title: modbusSlaveFreeResponse Pages: 1 -->
<svg width="493pt" height="64pt"
 viewBox="0.00 0.00 493.25 64.25" xmlns="http://www.w3.org/2000/svg" xmlns:xlink="http://www.w3.org/1999/xlink">
<g id="graph0" class="graph" transform="scale(1 1) rotate(0) translate(4 60.25)">
<title>modbusSlaveFreeResponse</title>
<!-- Node1 -->
<g id="Node000001" class="node">
<title>Node1</title>
<g id="a_Node000001"><a xlink:title="Frees memory allocated for slave&#39;s response frame.">
<polygon fill="#999999" stroke="#666666" points="138.25,-37.25 0,-37.25 0,-18 138.25,-18 138.25,-37.25"/>
<text text-anchor="middle" x="69.12" y="-23.75" font-family="Helvetica,sans-Serif" font-size="10.00">modbusSlaveFreeResponse</text>
</a>
</g>
</g>
<!-- Node2 -->
<g id="Node000002" class="node">
<title>Node2</title>
<g id="a_Node000002"><a xlink:href="base_8impl_8h.html#a00605b5ebcf90f8035bfaa7a7c039776" target="_top" xlink:title="Frees memory allocated inside the buffer.">
<polygon fill="white" stroke="#666666" points="293.38,-56.25 197.88,-56.25 197.88,-37 293.38,-37 293.38,-56.25"/>
<text text-anchor="middle" x="245.62" y="-42.75" font-family="Helvetica,sans-Serif" font-size="10.00">modbusBufferFree</text>
</a>
</g>
</g>
<!-- Node1&#45;&gt;Node2 -->
<g id="edge1_Node000001_Node000002" class="edge">
<title>Node1&#45;&gt;Node2</title>
<g id="a_edge1_Node000001_Node000002"><a xlink:title=" ">
<path fill="none" stroke="#63b8ff" d="M138.59,-35.08C154.34,-36.79 170.95,-38.6 186.23,-40.27"/>
<polygon fill="#63b8ff" stroke="#63b8ff" points="185.79,-43.74 196.11,-41.34 186.55,-36.78 185.79,-43.74"/>
</a>
</g>
</g>
<!-- Node4 -->
<g id="Node000004" class="node">
<title>Node4</title>
<g id="a_Node000004"><a xlink:href="slave_8h.html#a6517cff5567f0f07444d140edc7dfafd" target="_top" xlink:title="Retreieves the custom context pointer.">
<polygon fill="white" stroke="#666666" points="317,-19.25 174.25,-19.25 174.25,0 317,0 317,-19.25"/>
<text text-anchor="middle" x="245.62" y="-5.75" font-family="Helvetica,sans-Serif" font-size="10.00">modbusSlaveGetUserPointer</text>
</a>
</g>
</g>
<!-- Node1&#45;&gt;Node4 -->
<g id="edge3_Node000001_Node000004" class="edge">
<title>Node1&#45;&gt;Node4</title>
<g id="a_edge3_Node000001_Node000004"><a xlink:title=" ">
<path fill="none" stroke="#63b8ff" d="M138.59,-20.56C146.44,-19.75 154.51,-18.92 162.52,-18.09"/>
<polygon fill="#63b8ff" stroke="#63b8ff" points="162.68,-21.6 172.27,-17.09 161.96,-14.63 162.68,-21.6"/>
</a>
</g>
</g>
<!-- Node3 -->
<g id="Node000003" class="node">
<title>Node3</title>
<g id="a_Node000003"><a xlink:href="base_8impl_8h.html#a54f7d1db7f58ffd329b1955ad1a66f37" target="_top" xlink:title="Allocates memory to hold Modbus ADU.">
<polygon fill="white" stroke="#666666" points="485.25,-56.25 353,-56.25 353,-37 485.25,-37 485.25,-56.25"/>
<text text-anchor="middle" x="419.12" y="-42.75" font-family="Helvetica,sans-Serif" font-size="10.00">modbusBufferAllocateADU</text>
</a>
</g>
</g>
<!-- Node2&#45;&gt;Node3 -->
<g id="edge2_Node000002_Node000003" class="edge">
<title>Node2&#45;&gt;Node3</title>
<g id="a_edge2_Node000002_Node000003"><a xlink:title=" ">
<path fill="none" stroke="#63b8ff" d="M293.49,-46.62C308.31,-46.62 325.11,-46.62 341.46,-46.62"/>
<polygon fill="#63b8ff" stroke="#63b8ff" points="341.16,-50.13 351.16,-46.63 341.16,-43.13 341.16,-50.13"/>
</a>
</g>
</g>
</g>
</svg>
