<?xml version="1.0" encoding="UTF-8" standalone="no"?>
<!DOCTYPE svg PUBLIC "-//W3C//DTD SVG 1.1//EN"
 "http://www.w3.org/Graphics/SVG/1.1/DTD/svg11.dtd">
<!-- Generated by graphviz version 12.2.0 (20241103.1931)
 -->
<!-- Title: modbusSlaveFreeResponse Pages: 1 -->
<svg width="330pt" height="76pt"
 viewBox="0.00 0.00 329.50 75.88" xmlns="http://www.w3.org/2000/svg" xmlns:xlink="http://www.w3.org/1999/xlink">
<g id="graph0" class="graph" transform="scale(1 1) rotate(0) translate(4 71.88)">
<title>modbusSlaveFreeResponse</title>
<!-- Node1 -->
<g id="Node000001" class="node">
<title>Node1</title>
<g id="a_Node000001"><a xlink:title="Frees memory allocated for slave&#39;s response frame.">
<polygon fill="#999999" stroke="#666666" points="321.5,-45.88 183.25,-45.88 183.25,-26.62 321.5,-26.62 321.5,-45.88"/>
<text text-anchor="middle" x="252.38" y="-32.38" font-family="Helvetica,sans-Serif" font-size="10.00">modbusSlaveFreeResponse</text>
</a>
</g>
</g>
<!-- Node2 -->
<g id="Node000002" class="node">
<title>Node2</title>
<g id="a_Node000002"><a xlink:href="classllm_1_1Slave.html#aadbd0a4dc7769b5c393d6dfe5a344b8a" target="_top" xlink:title=" ">
<polygon fill="white" stroke="#666666" points="134.88,-67.88 12.38,-67.88 12.38,-48.62 134.88,-48.62 134.88,-67.88"/>
<text text-anchor="middle" x="73.62" y="-54.38" font-family="Helvetica,sans-Serif" font-size="10.00">llm::Slave::freeResponse</text>
</a>
</g>
</g>
<!-- Node1&#45;&gt;Node2 -->
<g id="edge1_Node000001_Node000002" class="edge">
<title>Node1&#45;&gt;Node2</title>
<g id="a_edge1_Node000001_Node000002"><a xlink:title=" ">
<path fill="none" stroke="#63b8ff" d="M171.62,-46.18C159.35,-47.7 146.87,-49.26 135.12,-50.72"/>
<polygon fill="#63b8ff" stroke="#63b8ff" points="171.79,-49.68 181.28,-44.97 170.93,-42.74 171.79,-49.68"/>
</a>
</g>
</g>
<!-- Node3 -->
<g id="Node000003" class="node">
<title>Node3</title>
<g id="a_Node000003"><a xlink:href="slave_8impl_8h.html#afa8be870ae62f17ac8bc258714c2eb99" target="_top" xlink:title="Parses provided Modbus RTU request frame and generates a Modbus RTU response.">
<polygon fill="white" stroke="#666666" points="147.25,-30.5 0,-30.5 0,0 147.25,0 147.25,-30.5"/>
<text text-anchor="start" x="8" y="-17" font-family="Helvetica,sans-Serif" font-size="10.00">ModbusErrorInfomodbusParse</text>
<text text-anchor="middle" x="73.62" y="-5.75" font-family="Helvetica,sans-Serif" font-size="10.00">RequestRTU</text>
</a>
</g>
</g>
<!-- Node1&#45;&gt;Node3 -->
<g id="edge2_Node000001_Node000003" class="edge">
<title>Node1&#45;&gt;Node3</title>
<g id="a_edge2_Node000001_Node000003"><a xlink:title=" ">
<path fill="none" stroke="#63b8ff" d="M171.57,-26.77C163.57,-25.82 155.48,-24.86 147.56,-23.92"/>
<polygon fill="#63b8ff" stroke="#63b8ff" points="170.94,-30.22 181.28,-27.92 171.77,-23.27 170.94,-30.22"/>
</a>
</g>
</g>
</g>
</svg>
