<?xml version="1.0" encoding="UTF-8" standalone="no"?>
<!DOCTYPE svg PUBLIC "-//W3C//DTD SVG 1.1//EN"
 "http://www.w3.org/Graphics/SVG/1.1/DTD/svg11.dtd">
<!-- Generated by graphviz version 12.2.0 (20241103.1931)
 -->
<!-- Title: ModbusErrorInfomodbusParseRequestRTU Pages: 1 -->
<svg width="677pt" height="249pt"
 viewBox="0.00 0.00 676.50 249.25" xmlns="http://www.w3.org/2000/svg" xmlns:xlink="http://www.w3.org/1999/xlink">
<g id="graph0" class="graph" transform="scale(1 1) rotate(0) translate(4 245.25)">
<title>ModbusErrorInfomodbusParseRequestRTU</title>
<!-- Node1 -->
<g id="Node000001" class="node">
<title>Node1</title>
<g id="a_Node000001"><a xlink:title="Parses provided Modbus RTU request frame and generates a Modbus RTU response.">
<polygon fill="#999999" stroke="#666666" points="147.25,-153.88 0,-153.88 0,-123.38 147.25,-123.38 147.25,-153.88"/>
<text text-anchor="start" x="8" y="-140.38" font-family="Helvetica,sans-Serif" font-size="10.00">ModbusErrorInfomodbusParse</text>
<text text-anchor="middle" x="73.62" y="-129.12" font-family="Helvetica,sans-Serif" font-size="10.00">RequestRTU</text>
</a>
</g>
</g>
<!-- Node2 -->
<g id="Node000002" class="node">
<title>Node2</title>
<g id="a_Node000002"><a xlink:href="base_8h.html#ad274c6156d4373b79930b577e373692a" target="_top" xlink:title="Prepares buffer to store a Modbus RTU message.">
<polygon fill="white" stroke="#666666" points="312.5,-231.25 192.25,-231.25 192.25,-212 312.5,-212 312.5,-231.25"/>
<text text-anchor="middle" x="252.38" y="-217.75" font-family="Helvetica,sans-Serif" font-size="10.00">modbusBufferModeRTU</text>
</a>
</g>
</g>
<!-- Node1&#45;&gt;Node2 -->
<g id="edge1_Node000001_Node000002" class="edge">
<title>Node1&#45;&gt;Node2</title>
<g id="a_edge1_Node000001_Node000002"><a xlink:title=" ">
<path fill="none" stroke="#63b8ff" d="M96.53,-154.26C117.8,-168.82 151.45,-190.23 183.25,-203.62 187.08,-205.24 191.1,-206.74 195.18,-208.14"/>
<polygon fill="#63b8ff" stroke="#63b8ff" points="194.04,-211.44 204.63,-211.11 196.14,-204.77 194.04,-211.44"/>
</a>
</g>
</g>
<!-- Node3 -->
<g id="Node000003" class="node">
<title>Node3</title>
<g id="a_Node000003"><a xlink:href="base_8h.html#a64880e7075f445881485396f3aa869c5" target="_top" xlink:title="Checks if ModbusErrorInfo contains an error.">
<polygon fill="white" stroke="#666666" points="288.12,-194.25 216.62,-194.25 216.62,-175 288.12,-175 288.12,-194.25"/>
<text text-anchor="middle" x="252.38" y="-180.75" font-family="Helvetica,sans-Serif" font-size="10.00">modbusIsOk</text>
</a>
</g>
</g>
<!-- Node1&#45;&gt;Node3 -->
<g id="edge2_Node000001_Node000003" class="edge">
<title>Node1&#45;&gt;Node3</title>
<g id="a_edge2_Node000001_Node000003"><a xlink:title=" ">
<path fill="none" stroke="#63b8ff" d="M134.96,-154.33C157.93,-160.31 183.72,-167.02 205.18,-172.6"/>
<polygon fill="#63b8ff" stroke="#63b8ff" points="204.27,-175.98 214.83,-175.11 206.03,-169.21 204.27,-175.98"/>
</a>
</g>
</g>
<!-- Node6 -->
<g id="Node000006" class="node">
<title>Node6</title>
<g id="a_Node000006"><a xlink:href="base_8h.html#af2cafe9debf86bea7042b4c40bb288cd" target="_top" xlink:title="Sets up address and CRC in a Modbus RTU frame.">
<polygon fill="white" stroke="#666666" points="299,-93.25 205.75,-93.25 205.75,-74 299,-74 299,-93.25"/>
<text text-anchor="middle" x="252.38" y="-79.75" font-family="Helvetica,sans-Serif" font-size="10.00">modbusPackRTU</text>
</a>
</g>
</g>
<!-- Node1&#45;&gt;Node6 -->
<g id="edge5_Node000001_Node000006" class="edge">
<title>Node1&#45;&gt;Node6</title>
<g id="a_edge5_Node000001_Node000006"><a xlink:title=" ">
<path fill="none" stroke="#63b8ff" d="M124.8,-123.01C151.12,-114.82 183.03,-104.89 208.23,-97.05"/>
<polygon fill="#63b8ff" stroke="#63b8ff" points="208.98,-100.48 217.49,-94.17 206.9,-93.8 208.98,-100.48"/>
</a>
</g>
</g>
<!-- Node9 -->
<g id="Node000009" class="node">
<title>Node9</title>
<g id="a_Node000009"><a xlink:href="slave_8h.html#aac289ce160ea61287c98e8a1ee4353d5" target="_top" xlink:title="Frees memory allocated for slave&#39;s response frame.">
<polygon fill="white" stroke="#666666" points="321.5,-148.25 183.25,-148.25 183.25,-129 321.5,-129 321.5,-148.25"/>
<text text-anchor="middle" x="252.38" y="-134.75" font-family="Helvetica,sans-Serif" font-size="10.00">modbusSlaveFreeResponse</text>
</a>
</g>
</g>
<!-- Node1&#45;&gt;Node9 -->
<g id="edge8_Node000001_Node000009" class="edge">
<title>Node1&#45;&gt;Node9</title>
<g id="a_edge8_Node000001_Node000009"><a xlink:title=" ">
<path fill="none" stroke="#63b8ff" d="M147.54,-138.62C155.49,-138.62 163.61,-138.62 171.64,-138.62"/>
<polygon fill="#63b8ff" stroke="#63b8ff" points="171.38,-142.13 181.38,-138.63 171.38,-135.13 171.38,-142.13"/>
</a>
</g>
</g>
<!-- Node13 -->
<g id="Node000013" class="node">
<title>Node13</title>
<g id="a_Node000013"><a xlink:href="base_8h.html#a4dba88e9baf690b8dafa0fad81eb7d07" target="_top" xlink:title="Unpacks data from a Modbus RTU frame and optionally checks CRC.">
<polygon fill="white" stroke="#666666" points="304.62,-56.25 200.12,-56.25 200.12,-37 304.62,-37 304.62,-56.25"/>
<text text-anchor="middle" x="252.38" y="-42.75" font-family="Helvetica,sans-Serif" font-size="10.00">modbusUnpackRTU</text>
</a>
</g>
</g>
<!-- Node1&#45;&gt;Node13 -->
<g id="edge12_Node000001_Node000013" class="edge">
<title>Node1&#45;&gt;Node13</title>
<g id="a_edge12_Node000001_Node000013"><a xlink:title=" ">
<path fill="none" stroke="#63b8ff" d="M93.06,-123.15C113.77,-106.48 149,-80.26 183.25,-64.62 186.75,-63.03 190.42,-61.55 194.16,-60.19"/>
<polygon fill="#63b8ff" stroke="#63b8ff" points="195,-63.6 203.39,-57.13 192.8,-56.95 195,-63.6"/>
</a>
</g>
</g>
<!-- Node4 -->
<g id="Node000004" class="node">
<title>Node4</title>
<g id="a_Node000004"><a xlink:href="base_8h.html#a29d2a7853b328113e4fcddae85fd3ce5" target="_top" xlink:title="Returns ModbusError contained in ModbusErrorInfo.">
<polygon fill="white" stroke="#666666" points="483.38,-204.25 374.38,-204.25 374.38,-185 483.38,-185 483.38,-204.25"/>
<text text-anchor="middle" x="428.88" y="-190.75" font-family="Helvetica,sans-Serif" font-size="10.00">modbusGetErrorCode</text>
</a>
</g>
</g>
<!-- Node3&#45;&gt;Node4 -->
<g id="edge3_Node000003_Node000004" class="edge">
<title>Node3&#45;&gt;Node4</title>
<g id="a_edge3_Node000003_Node000004"><a xlink:title=" ">
<path fill="none" stroke="#63b8ff" d="M288.27,-186.62C309.57,-187.85 337.48,-189.45 362.75,-190.89"/>
<polygon fill="#63b8ff" stroke="#63b8ff" points="362.44,-194.38 372.62,-191.46 362.84,-187.39 362.44,-194.38"/>
</a>
</g>
</g>
<!-- Node5 -->
<g id="Node000005" class="node">
<title>Node5</title>
<g id="a_Node000005"><a xlink:href="base_8h.html#a9ee4c2e633c7a42f88acc09b95f8171e" target="_top" xlink:title="Returns uint8_t describing error source of ModbusErrorInfo.">
<polygon fill="white" stroke="#666666" points="487.5,-241.25 370.25,-241.25 370.25,-222 487.5,-222 487.5,-241.25"/>
<text text-anchor="middle" x="428.88" y="-227.75" font-family="Helvetica,sans-Serif" font-size="10.00">modbusGetErrorSource</text>
</a>
</g>
</g>
<!-- Node3&#45;&gt;Node5 -->
<g id="edge4_Node000003_Node000005" class="edge">
<title>Node3&#45;&gt;Node5</title>
<g id="a_edge4_Node000003_Node000005"><a xlink:title=" ">
<path fill="none" stroke="#63b8ff" d="M288.45,-193.62C299.09,-196.42 310.79,-199.58 321.5,-202.62 337.59,-207.21 341.39,-209.11 357.5,-213.62 363.65,-215.35 370.11,-217.09 376.53,-218.79"/>
<polygon fill="#63b8ff" stroke="#63b8ff" points="375.2,-222.06 385.76,-221.19 376.96,-215.28 375.2,-222.06"/>
</a>
</g>
</g>
<!-- Node7 -->
<g id="Node000007" class="node">
<title>Node7</title>
<g id="a_Node000007"><a xlink:href="base_8impl_8h.html#a11346a546b84663cd92cb30f4ffd1393" target="_top" xlink:title="Calculates 16&#45;bit Modbus CRC of provided data.">
<polygon fill="white" stroke="#666666" points="464.25,-56.25 393.5,-56.25 393.5,-37 464.25,-37 464.25,-56.25"/>
<text text-anchor="middle" x="428.88" y="-42.75" font-family="Helvetica,sans-Serif" font-size="10.00">modbusCRC</text>
</a>
</g>
</g>
<!-- Node6&#45;&gt;Node7 -->
<g id="edge6_Node000006_Node000007" class="edge">
<title>Node6&#45;&gt;Node7</title>
<g id="a_edge6_Node000006_Node000007"><a xlink:title=" ">
<path fill="none" stroke="#63b8ff" d="M299.22,-73.9C324.71,-68.5 356.32,-61.8 381.83,-56.39"/>
<polygon fill="#63b8ff" stroke="#63b8ff" points="382.55,-59.81 391.6,-54.32 381.09,-52.97 382.55,-59.81"/>
</a>
</g>
</g>
<!-- Node8 -->
<g id="Node000008" class="node">
<title>Node8</title>
<g id="a_Node000008"><a xlink:href="base_8h.html#af718da7da634f311c2ae8db6be3d9027" target="_top" xlink:title="Safely writes a little&#45;endian 16&#45;bit word to provided pointer.">
<polygon fill="white" stroke="#666666" points="464.62,-93.25 393.12,-93.25 393.12,-74 464.62,-74 464.62,-93.25"/>
<text text-anchor="middle" x="428.88" y="-79.75" font-family="Helvetica,sans-Serif" font-size="10.00">modbusWLE</text>
</a>
</g>
</g>
<!-- Node6&#45;&gt;Node8 -->
<g id="edge7_Node000006_Node000008" class="edge">
<title>Node6&#45;&gt;Node8</title>
<g id="a_edge7_Node000006_Node000008"><a xlink:title=" ">
<path fill="none" stroke="#63b8ff" d="M299.22,-83.62C324.62,-83.62 356.1,-83.62 381.57,-83.62"/>
<polygon fill="#63b8ff" stroke="#63b8ff" points="381.29,-87.13 391.29,-83.63 381.29,-80.13 381.29,-87.13"/>
</a>
</g>
</g>
<!-- Node10 -->
<g id="Node000010" class="node">
<title>Node10</title>
<g id="a_Node000010"><a xlink:href="base_8impl_8h.html#a00605b5ebcf90f8035bfaa7a7c039776" target="_top" xlink:title="Frees memory allocated inside the buffer.">
<polygon fill="white" stroke="#666666" points="476.62,-130.25 381.12,-130.25 381.12,-111 476.62,-111 476.62,-130.25"/>
<text text-anchor="middle" x="428.88" y="-116.75" font-family="Helvetica,sans-Serif" font-size="10.00">modbusBufferFree</text>
</a>
</g>
</g>
<!-- Node9&#45;&gt;Node10 -->
<g id="edge9_Node000009_Node000010" class="edge">
<title>Node9&#45;&gt;Node10</title>
<g id="a_edge9_Node000009_Node000010"><a xlink:title=" ">
<path fill="none" stroke="#63b8ff" d="M321.84,-131.56C337.59,-129.94 354.2,-128.22 369.48,-126.65"/>
<polygon fill="#63b8ff" stroke="#63b8ff" points="369.77,-130.14 379.36,-125.63 369.05,-123.17 369.77,-130.14"/>
</a>
</g>
</g>
<!-- Node12 -->
<g id="Node000012" class="node">
<title>Node12</title>
<g id="a_Node000012"><a xlink:href="slave_8h.html#a6517cff5567f0f07444d140edc7dfafd" target="_top" xlink:title="Retreieves the custom context pointer.">
<polygon fill="white" stroke="#666666" points="500.25,-167.25 357.5,-167.25 357.5,-148 500.25,-148 500.25,-167.25"/>
<text text-anchor="middle" x="428.88" y="-153.75" font-family="Helvetica,sans-Serif" font-size="10.00">modbusSlaveGetUserPointer</text>
</a>
</g>
</g>
<!-- Node9&#45;&gt;Node12 -->
<g id="edge11_Node000009_Node000012" class="edge">
<title>Node9&#45;&gt;Node12</title>
<g id="a_edge11_Node000009_Node000012"><a xlink:title=" ">
<path fill="none" stroke="#63b8ff" d="M321.84,-146.08C329.69,-146.93 337.76,-147.81 345.77,-148.68"/>
<polygon fill="#63b8ff" stroke="#63b8ff" points="345.2,-152.14 355.52,-149.75 345.95,-145.18 345.2,-152.14"/>
</a>
</g>
</g>
<!-- Node11 -->
<g id="Node000011" class="node">
<title>Node11</title>
<g id="a_Node000011"><a xlink:href="base_8impl_8h.html#a54f7d1db7f58ffd329b1955ad1a66f37" target="_top" xlink:title="Allocates memory to hold Modbus ADU.">
<polygon fill="white" stroke="#666666" points="668.5,-130.25 536.25,-130.25 536.25,-111 668.5,-111 668.5,-130.25"/>
<text text-anchor="middle" x="602.38" y="-116.75" font-family="Helvetica,sans-Serif" font-size="10.00">modbusBufferAllocateADU</text>
</a>
</g>
</g>
<!-- Node10&#45;&gt;Node11 -->
<g id="edge10_Node000010_Node000011" class="edge">
<title>Node10&#45;&gt;Node11</title>
<g id="a_edge10_Node000010_Node000011"><a xlink:title=" ">
<path fill="none" stroke="#63b8ff" d="M476.74,-120.62C491.56,-120.62 508.36,-120.62 524.71,-120.62"/>
<polygon fill="#63b8ff" stroke="#63b8ff" points="524.41,-124.13 534.41,-120.63 524.41,-117.13 524.41,-124.13"/>
</a>
</g>
</g>
<!-- Node13&#45;&gt;Node7 -->
<g id="edge13_Node000013_Node000007" class="edge">
<title>Node13&#45;&gt;Node7</title>
<g id="a_edge13_Node000013_Node000007"><a xlink:title=" ">
<path fill="none" stroke="#63b8ff" d="M304.79,-46.62C329.13,-46.62 357.97,-46.62 381.61,-46.62"/>
<polygon fill="#63b8ff" stroke="#63b8ff" points="381.59,-50.13 391.59,-46.63 381.59,-43.13 381.59,-50.13"/>
</a>
</g>
</g>
<!-- Node14 -->
<g id="Node000014" class="node">
<title>Node14</title>
<g id="a_Node000014"><a xlink:href="base_8h.html#a0fc3f293c746d39a93e4c1158f792404" target="_top" xlink:title="Safely reads a little&#45;endian 16&#45;bit word from provided pointer.">
<polygon fill="white" stroke="#666666" points="463.5,-19.25 394.25,-19.25 394.25,0 463.5,0 463.5,-19.25"/>
<text text-anchor="middle" x="428.88" y="-5.75" font-family="Helvetica,sans-Serif" font-size="10.00">modbusRLE</text>
</a>
</g>
</g>
<!-- Node13&#45;&gt;Node14 -->
<g id="edge14_Node000013_Node000014" class="edge">
<title>Node13&#45;&gt;Node14</title>
<g id="a_edge14_Node000013_Node000014"><a xlink:title=" ">
<path fill="none" stroke="#63b8ff" d="M301.06,-36.51C326.52,-31.12 357.69,-24.51 382.76,-19.19"/>
<polygon fill="#63b8ff" stroke="#63b8ff" points="383.27,-22.66 392.32,-17.16 381.81,-15.81 383.27,-22.66"/>
</a>
</g>
</g>
</g>
</svg>
