<?xml version="1.0" encoding="UTF-8" standalone="no"?>
<!DOCTYPE svg PUBLIC "-//W3C//DTD SVG 1.1//EN"
 "http://www.w3.org/Graphics/SVG/1.1/DTD/svg11.dtd">
<!-- Generated by graphviz version 12.2.0 (20241103.1931)
 -->
<!-- Title: modbusSlaveAllocateResponse Pages: 1 -->
<svg width="345pt" height="235pt"
 viewBox="0.00 0.00 345.25 234.50" xmlns="http://www.w3.org/2000/svg" xmlns:xlink="http://www.w3.org/1999/xlink">
<g id="graph0" class="graph" transform="scale(1 1) rotate(0) translate(4 230.5)">
<title>modbusSlaveAllocateResponse</title>
<!-- Node1 -->
<g id="Node000001" class="node">
<title>Node1</title>
<g id="a_Node000001"><a xlink:title="Allocates memory for slave&#39;s response frame.">
<polygon fill="#999999" stroke="#666666" points="337.25,-122.88 183.25,-122.88 183.25,-103.62 337.25,-103.62 337.25,-122.88"/>
<text text-anchor="middle" x="260.25" y="-109.38" font-family="Helvetica,sans-Serif" font-size="10.00">modbusSlaveAllocateResponse</text>
</a>
</g>
</g>
<!-- Node2 -->
<g id="Node000002" class="node">
<title>Node2</title>
<g id="a_Node000002"><a xlink:href="slave_8impl_8h.html#af2a4ff5631f6b06e8864364780590035" target="_top" xlink:title="Builds an exception response frame.">
<polygon fill="white" stroke="#666666" points="145.38,-226.5 1.88,-226.5 1.88,-196 145.38,-196 145.38,-226.5"/>
<text text-anchor="start" x="9.88" y="-213" font-family="Helvetica,sans-Serif" font-size="10.00">ModbusErrorInfomodbusBuild</text>
<text text-anchor="middle" x="73.62" y="-201.75" font-family="Helvetica,sans-Serif" font-size="10.00">Exception</text>
</a>
</g>
</g>
<!-- Node1&#45;&gt;Node2 -->
<g id="edge1_Node000001_Node000002" class="edge">
<title>Node1&#45;&gt;Node2</title>
<g id="a_edge1_Node000001_Node000002"><a xlink:title=" ">
<path fill="none" stroke="#63b8ff" d="M236.99,-130.13C215.06,-146.17 180.16,-170.17 147.25,-186.25 140.3,-189.65 132.77,-192.79 125.29,-195.61"/>
<polygon fill="#63b8ff" stroke="#63b8ff" points="238.93,-133.04 244.88,-124.27 234.77,-127.42 238.93,-133.04"/>
</a>
</g>
</g>
<!-- Node3 -->
<g id="Node000003" class="node">
<title>Node3</title>
<g id="a_Node000003"><a xlink:href="slave__func_8impl_8h.html#a648853599bb5c890d3dc98e12be07b0c" target="_top" xlink:title="Handles requests 01, 02, 03 and 04 (Read Multiple XX) and generates response.">
<polygon fill="white" stroke="#666666" points="147.25,-177.5 0,-177.5 0,-147 147.25,-147 147.25,-177.5"/>
<text text-anchor="start" x="8" y="-164" font-family="Helvetica,sans-Serif" font-size="10.00">ModbusErrorInfomodbusParse</text>
<text text-anchor="middle" x="73.62" y="-152.75" font-family="Helvetica,sans-Serif" font-size="10.00">Request01020304</text>
</a>
</g>
</g>
<!-- Node1&#45;&gt;Node3 -->
<g id="edge2_Node000001_Node000003" class="edge">
<title>Node1&#45;&gt;Node3</title>
<g id="a_edge2_Node000001_Node000003"><a xlink:title=" ">
<path fill="none" stroke="#63b8ff" d="M210.34,-126.23C186.86,-132.46 158.52,-139.98 133.83,-146.54"/>
<polygon fill="#63b8ff" stroke="#63b8ff" points="211.21,-129.62 219.98,-123.67 209.42,-122.85 211.21,-129.62"/>
</a>
</g>
</g>
<!-- Node4 -->
<g id="Node000004" class="node">
<title>Node4</title>
<g id="a_Node000004"><a xlink:href="slave__func_8impl_8h.html#ae620115b63da2d0c40e552889be5d3b3" target="_top" xlink:title="Handles requests 05 and 06 (Write Single XX) and generates response.">
<polygon fill="white" stroke="#666666" points="147.25,-128.5 0,-128.5 0,-98 147.25,-98 147.25,-128.5"/>
<text text-anchor="start" x="8" y="-115" font-family="Helvetica,sans-Serif" font-size="10.00">ModbusErrorInfomodbusParse</text>
<text text-anchor="middle" x="73.62" y="-103.75" font-family="Helvetica,sans-Serif" font-size="10.00">Request0506</text>
</a>
</g>
</g>
<!-- Node1&#45;&gt;Node4 -->
<g id="edge3_Node000001_Node000004" class="edge">
<title>Node1&#45;&gt;Node4</title>
<g id="a_edge3_Node000001_Node000004"><a xlink:title=" ">
<path fill="none" stroke="#63b8ff" d="M171.31,-113.25C163.42,-113.25 155.48,-113.25 147.73,-113.25"/>
<polygon fill="#63b8ff" stroke="#63b8ff" points="171.31,-116.75 181.31,-113.25 171.31,-109.75 171.31,-116.75"/>
</a>
</g>
</g>
<!-- Node5 -->
<g id="Node000005" class="node">
<title>Node5</title>
<g id="a_Node000005"><a xlink:href="slave__func_8impl_8h.html#a4ee99d7a0fea397f6bf53fafbdc139e1" target="_top" xlink:title="Handles requests 15 and 16 (Write Multiple XX) and generates response.">
<polygon fill="white" stroke="#666666" points="147.25,-79.5 0,-79.5 0,-49 147.25,-49 147.25,-79.5"/>
<text text-anchor="start" x="8" y="-66" font-family="Helvetica,sans-Serif" font-size="10.00">ModbusErrorInfomodbusParse</text>
<text text-anchor="middle" x="73.62" y="-54.75" font-family="Helvetica,sans-Serif" font-size="10.00">Request1516</text>
</a>
</g>
</g>
<!-- Node1&#45;&gt;Node5 -->
<g id="edge4_Node000001_Node000005" class="edge">
<title>Node1&#45;&gt;Node5</title>
<g id="a_edge4_Node000001_Node000005"><a xlink:title=" ">
<path fill="none" stroke="#63b8ff" d="M210.34,-100.27C186.86,-94.04 158.52,-86.52 133.83,-79.96"/>
<polygon fill="#63b8ff" stroke="#63b8ff" points="209.42,-103.65 219.98,-102.83 211.21,-96.88 209.42,-103.65"/>
</a>
</g>
</g>
<!-- Node6 -->
<g id="Node000006" class="node">
<title>Node6</title>
<g id="a_Node000006"><a xlink:href="slave__func_8impl_8h.html#a446bf506f887f17f17c491d6d863c446" target="_top" xlink:title="Handles request 22 (Mask Write Register) and generates response.">
<polygon fill="white" stroke="#666666" points="147.25,-30.5 0,-30.5 0,0 147.25,0 147.25,-30.5"/>
<text text-anchor="start" x="8" y="-17" font-family="Helvetica,sans-Serif" font-size="10.00">ModbusErrorInfomodbusParse</text>
<text text-anchor="middle" x="73.62" y="-5.75" font-family="Helvetica,sans-Serif" font-size="10.00">Request22</text>
</a>
</g>
</g>
<!-- Node1&#45;&gt;Node6 -->
<g id="edge5_Node000001_Node000006" class="edge">
<title>Node1&#45;&gt;Node6</title>
<g id="a_edge5_Node000001_Node000006"><a xlink:title=" ">
<path fill="none" stroke="#63b8ff" d="M236.99,-96.37C215.06,-80.33 180.16,-56.33 147.25,-40.25 140.3,-36.85 132.77,-33.71 125.29,-30.89"/>
<polygon fill="#63b8ff" stroke="#63b8ff" points="234.77,-99.08 244.88,-102.23 238.93,-93.46 234.77,-99.08"/>
</a>
</g>
</g>
</g>
</svg>
