<?xml version="1.0" encoding="UTF-8" standalone="no"?>
<!DOCTYPE svg PUBLIC "-//W3C//DTD SVG 1.1//EN"
 "http://www.w3.org/Graphics/SVG/1.1/DTD/svg11.dtd">
<!-- Generated by graphviz version 12.2.0 (20241103.1931)
 -->
<!-- Title: modbusSlaveAllocateResponse Pages: 1 -->
<svg width="341pt" height="64pt"
 viewBox="0.00 0.00 340.75 64.25" xmlns="http://www.w3.org/2000/svg" xmlns:xlink="http://www.w3.org/1999/xlink">
<g id="graph0" class="graph" transform="scale(1 1) rotate(0) translate(4 60.25)">
<title>modbusSlaveAllocateResponse</title>
<!-- Node1 -->
<g id="Node000001" class="node">
<title>Node1</title>
<g id="a_Node000001"><a xlink:title="Allocates memory for slave&#39;s response frame.">
<polygon fill="#999999" stroke="#666666" points="154,-37.25 0,-37.25 0,-18 154,-18 154,-37.25"/>
<text text-anchor="middle" x="77" y="-23.75" font-family="Helvetica,sans-Serif" font-size="10.00">modbusSlaveAllocateResponse</text>
</a>
</g>
</g>
<!-- Node2 -->
<g id="Node000002" class="node">
<title>Node2</title>
<g id="a_Node000002"><a xlink:href="base_8impl_8h.html#a54f7d1db7f58ffd329b1955ad1a66f37" target="_top" xlink:title="Allocates memory to hold Modbus ADU.">
<polygon fill="white" stroke="#666666" points="327.5,-56.25 195.25,-56.25 195.25,-37 327.5,-37 327.5,-56.25"/>
<text text-anchor="middle" x="261.38" y="-42.75" font-family="Helvetica,sans-Serif" font-size="10.00">modbusBufferAllocateADU</text>
</a>
</g>
</g>
<!-- Node1&#45;&gt;Node2 -->
<g id="edge1_Node000001_Node000002" class="edge">
<title>Node1&#45;&gt;Node2</title>
<g id="a_edge1_Node000001_Node000002"><a xlink:title=" ">
<path fill="none" stroke="#63b8ff" d="M154.29,-35.57C163.97,-36.58 173.88,-37.61 183.57,-38.62"/>
<polygon fill="#63b8ff" stroke="#63b8ff" points="183,-42.08 193.31,-39.64 183.73,-35.12 183,-42.08"/>
</a>
</g>
</g>
<!-- Node3 -->
<g id="Node000003" class="node">
<title>Node3</title>
<g id="a_Node000003"><a xlink:href="slave_8h.html#a6517cff5567f0f07444d140edc7dfafd" target="_top" xlink:title="Retreieves the custom context pointer.">
<polygon fill="white" stroke="#666666" points="332.75,-19.25 190,-19.25 190,0 332.75,0 332.75,-19.25"/>
<text text-anchor="middle" x="261.38" y="-5.75" font-family="Helvetica,sans-Serif" font-size="10.00">modbusSlaveGetUserPointer</text>
</a>
</g>
</g>
<!-- Node1&#45;&gt;Node3 -->
<g id="edge2_Node000001_Node000003" class="edge">
<title>Node1&#45;&gt;Node3</title>
<g id="a_edge2_Node000001_Node000003"><a xlink:title=" ">
<path fill="none" stroke="#63b8ff" d="M154.29,-20.1C162.25,-19.31 170.36,-18.51 178.39,-17.72"/>
<polygon fill="#63b8ff" stroke="#63b8ff" points="178.52,-21.22 188.13,-16.76 177.83,-14.25 178.52,-21.22"/>
</a>
</g>
</g>
</g>
</svg>
