<?xml version="1.0" encoding="UTF-8" standalone="no"?>
<!DOCTYPE svg PUBLIC "-//W3C//DTD SVG 1.1//EN"
 "http://www.w3.org/Graphics/SVG/1.1/DTD/svg11.dtd">
<!-- Generated by graphviz version 12.2.0 (20241103.1931)
 -->
<!-- Title: modbusSlaveGetUserPointer Pages: 1 -->
<svg width="524pt" height="358pt"
 viewBox="0.00 0.00 524.00 357.50" xmlns="http://www.w3.org/2000/svg" xmlns:xlink="http://www.w3.org/1999/xlink">
<g id="graph0" class="graph" transform="scale(1 1) rotate(0) translate(4 353.5)">
<title>modbusSlaveGetUserPointer</title>
<!-- Node1 -->
<g id="Node000001" class="node">
<title>Node1</title>
<g id="a_Node000001"><a xlink:title="Retreieves the custom context pointer.">
<polygon fill="#999999" stroke="#666666" points="516,-173.88 373.25,-173.88 373.25,-154.62 516,-154.62 516,-173.88"/>
<text text-anchor="middle" x="444.62" y="-160.38" font-family="Helvetica,sans-Serif" font-size="10.00">modbusSlaveGetUserPointer</text>
</a>
</g>
</g>
<!-- Node2 -->
<g id="Node000002" class="node">
<title>Node2</title>
<g id="a_Node000002"><a xlink:href="classllm_1_1Slave.html#aed386c714ccc44c9f3151ba18826a9d5" target="_top" xlink:title=" ">
<polygon fill="white" stroke="#666666" points="324.12,-233.88 196.38,-233.88 196.38,-214.62 324.12,-214.62 324.12,-233.88"/>
<text text-anchor="middle" x="260.25" y="-220.38" font-family="Helvetica,sans-Serif" font-size="10.00">llm::Slave::getUserPointer</text>
</a>
</g>
</g>
<!-- Node1&#45;&gt;Node2 -->
<g id="edge1_Node000001_Node000002" class="edge">
<title>Node1&#45;&gt;Node2</title>
<g id="a_edge1_Node000001_Node000002"><a xlink:title=" ">
<path fill="none" stroke="#63b8ff" d="M410.64,-178.69C389.85,-187.44 362.3,-198.38 337.25,-206.25 328.07,-209.13 318.13,-211.8 308.57,-214.15"/>
<polygon fill="#63b8ff" stroke="#63b8ff" points="411.92,-181.95 419.75,-174.81 409.17,-175.51 411.92,-181.95"/>
</a>
</g>
</g>
<!-- Node3 -->
<g id="Node000003" class="node">
<title>Node3</title>
<g id="a_Node000003"><a xlink:href="slave_8h.html#ad1165bb6d12af1db502a05df5da55aed" target="_top" xlink:title="Allocates memory for slave&#39;s response frame.">
<polygon fill="white" stroke="#666666" points="337.25,-196.88 183.25,-196.88 183.25,-177.62 337.25,-177.62 337.25,-196.88"/>
<text text-anchor="middle" x="260.25" y="-183.38" font-family="Helvetica,sans-Serif" font-size="10.00">modbusSlaveAllocateResponse</text>
</a>
</g>
</g>
<!-- Node1&#45;&gt;Node3 -->
<g id="edge2_Node000001_Node000003" class="edge">
<title>Node1&#45;&gt;Node3</title>
<g id="a_edge2_Node000001_Node000003"><a xlink:title=" ">
<path fill="none" stroke="#63b8ff" d="M361.67,-174.59C353.7,-175.59 345.64,-176.61 337.72,-177.61"/>
<polygon fill="#63b8ff" stroke="#63b8ff" points="361.87,-178.09 371.35,-173.36 360.99,-171.14 361.87,-178.09"/>
</a>
</g>
</g>
<!-- Node9 -->
<g id="Node000009" class="node">
<title>Node9</title>
<g id="a_Node000009"><a xlink:href="slave_8impl_8h.html#a70695c3b7355bc0a3e6d49c46a4eef1f" target="_top" xlink:title="Frees memory allocated in the ModbusSlave struct.">
<polygon fill="white" stroke="#666666" points="314.38,-127.88 206.12,-127.88 206.12,-108.62 314.38,-108.62 314.38,-127.88"/>
<text text-anchor="middle" x="260.25" y="-114.38" font-family="Helvetica,sans-Serif" font-size="10.00">modbusSlaveDestroy</text>
</a>
</g>
</g>
<!-- Node1&#45;&gt;Node9 -->
<g id="edge8_Node000001_Node000009" class="edge">
<title>Node1&#45;&gt;Node9</title>
<g id="a_edge8_Node000001_Node000009"><a xlink:title=" ">
<path fill="none" stroke="#63b8ff" d="M392.49,-151.35C363.59,-144.06 328,-135.09 301.18,-128.32"/>
<polygon fill="#63b8ff" stroke="#63b8ff" points="391.58,-154.73 402.13,-153.78 393.29,-147.95 391.58,-154.73"/>
</a>
</g>
</g>
<!-- Node11 -->
<g id="Node000011" class="node">
<title>Node11</title>
<g id="a_Node000011"><a xlink:href="slave_8h.html#aac289ce160ea61287c98e8a1ee4353d5" target="_top" xlink:title="Frees memory allocated for slave&#39;s response frame.">
<polygon fill="white" stroke="#666666" points="329.38,-67.88 191.12,-67.88 191.12,-48.62 329.38,-48.62 329.38,-67.88"/>
<text text-anchor="middle" x="260.25" y="-54.38" font-family="Helvetica,sans-Serif" font-size="10.00">modbusSlaveFreeResponse</text>
</a>
</g>
</g>
<!-- Node1&#45;&gt;Node11 -->
<g id="edge10_Node000001_Node000011" class="edge">
<title>Node1&#45;&gt;Node11</title>
<g id="a_edge10_Node000001_Node000011"><a xlink:title=" ">
<path fill="none" stroke="#63b8ff" d="M418.29,-148.24C396.88,-134.84 365.31,-115.38 337.25,-99.25 318.14,-88.27 295.92,-76.38 280.46,-68.25"/>
<polygon fill="#63b8ff" stroke="#63b8ff" points="416.31,-151.13 426.64,-153.49 420.04,-145.2 416.31,-151.13"/>
</a>
</g>
</g>
<!-- Node4 -->
<g id="Node000004" class="node">
<title>Node4</title>
<g id="a_Node000004"><a xlink:href="slave_8impl_8h.html#af2a4ff5631f6b06e8864364780590035" target="_top" xlink:title="Builds an exception response frame.">
<polygon fill="white" stroke="#666666" points="145.38,-349.5 1.88,-349.5 1.88,-319 145.38,-319 145.38,-349.5"/>
<text text-anchor="start" x="9.88" y="-336" font-family="Helvetica,sans-Serif" font-size="10.00">ModbusErrorInfomodbusBuild</text>
<text text-anchor="middle" x="73.62" y="-324.75" font-family="Helvetica,sans-Serif" font-size="10.00">Exception</text>
</a>
</g>
</g>
<!-- Node3&#45;&gt;Node4 -->
<g id="edge3_Node000003_Node000004" class="edge">
<title>Node3&#45;&gt;Node4</title>
<g id="a_edge3_Node000003_Node000004"><a xlink:title=" ">
<path fill="none" stroke="#63b8ff" d="M185.62,-203.24C184.81,-203.88 184.02,-204.55 183.25,-205.25 146.97,-238.05 181.87,-274.69 147.25,-309.25 143.66,-312.83 139.54,-315.9 135.12,-318.53"/>
<polygon fill="#63b8ff" stroke="#63b8ff" points="187.2,-206.39 193.72,-198.04 183.42,-200.5 187.2,-206.39"/>
</a>
</g>
</g>
<!-- Node5 -->
<g id="Node000005" class="node">
<title>Node5</title>
<g id="a_Node000005"><a xlink:href="slave__func_8impl_8h.html#a648853599bb5c890d3dc98e12be07b0c" target="_top" xlink:title="Handles requests 01, 02, 03 and 04 (Read Multiple XX) and generates response.">
<polygon fill="white" stroke="#666666" points="147.25,-300.5 0,-300.5 0,-270 147.25,-270 147.25,-300.5"/>
<text text-anchor="start" x="8" y="-287" font-family="Helvetica,sans-Serif" font-size="10.00">ModbusErrorInfomodbusParse</text>
<text text-anchor="middle" x="73.62" y="-275.75" font-family="Helvetica,sans-Serif" font-size="10.00">Request01020304</text>
</a>
</g>
</g>
<!-- Node3&#45;&gt;Node5 -->
<g id="edge4_Node000003_Node000005" class="edge">
<title>Node3&#45;&gt;Node5</title>
<g id="a_edge4_Node000003_Node000005"><a xlink:title=" ">
<path fill="none" stroke="#63b8ff" d="M188.11,-202.15C186.44,-203.12 184.81,-204.15 183.25,-205.25 159.34,-222.03 170.31,-242.31 147.25,-260.25 142.62,-263.85 137.44,-266.96 132.03,-269.63"/>
<polygon fill="#63b8ff" stroke="#63b8ff" points="189.3,-205.46 196.74,-197.92 186.22,-199.18 189.3,-205.46"/>
</a>
</g>
</g>
<!-- Node6 -->
<g id="Node000006" class="node">
<title>Node6</title>
<g id="a_Node000006"><a xlink:href="slave__func_8impl_8h.html#ae620115b63da2d0c40e552889be5d3b3" target="_top" xlink:title="Handles requests 05 and 06 (Write Single XX) and generates response.">
<polygon fill="white" stroke="#666666" points="147.25,-251.5 0,-251.5 0,-221 147.25,-221 147.25,-251.5"/>
<text text-anchor="start" x="8" y="-238" font-family="Helvetica,sans-Serif" font-size="10.00">ModbusErrorInfomodbusParse</text>
<text text-anchor="middle" x="73.62" y="-226.75" font-family="Helvetica,sans-Serif" font-size="10.00">Request0506</text>
</a>
</g>
</g>
<!-- Node3&#45;&gt;Node6 -->
<g id="edge5_Node000003_Node000006" class="edge">
<title>Node3&#45;&gt;Node6</title>
<g id="a_edge5_Node000003_Node000006"><a xlink:title=" ">
<path fill="none" stroke="#63b8ff" d="M204.32,-199.95C197.22,-201.68 190.05,-203.47 183.25,-205.25 165.13,-209.98 145.41,-215.49 127.81,-220.55"/>
<polygon fill="#63b8ff" stroke="#63b8ff" points="204.99,-203.39 213.89,-197.64 203.35,-196.58 204.99,-203.39"/>
</a>
</g>
</g>
<!-- Node7 -->
<g id="Node000007" class="node">
<title>Node7</title>
<g id="a_Node000007"><a xlink:href="slave__func_8impl_8h.html#a4ee99d7a0fea397f6bf53fafbdc139e1" target="_top" xlink:title="Handles requests 15 and 16 (Write Multiple XX) and generates response.">
<polygon fill="white" stroke="#666666" points="147.25,-202.5 0,-202.5 0,-172 147.25,-172 147.25,-202.5"/>
<text text-anchor="start" x="8" y="-189" font-family="Helvetica,sans-Serif" font-size="10.00">ModbusErrorInfomodbusParse</text>
<text text-anchor="middle" x="73.62" y="-177.75" font-family="Helvetica,sans-Serif" font-size="10.00">Request1516</text>
</a>
</g>
</g>
<!-- Node3&#45;&gt;Node7 -->
<g id="edge6_Node000003_Node000007" class="edge">
<title>Node3&#45;&gt;Node7</title>
<g id="a_edge6_Node000003_Node000007"><a xlink:title=" ">
<path fill="none" stroke="#63b8ff" d="M171.31,-187.25C163.42,-187.25 155.48,-187.25 147.73,-187.25"/>
<polygon fill="#63b8ff" stroke="#63b8ff" points="171.31,-190.75 181.31,-187.25 171.31,-183.75 171.31,-190.75"/>
</a>
</g>
</g>
<!-- Node8 -->
<g id="Node000008" class="node">
<title>Node8</title>
<g id="a_Node000008"><a xlink:href="slave__func_8impl_8h.html#a446bf506f887f17f17c491d6d863c446" target="_top" xlink:title="Handles request 22 (Mask Write Register) and generates response.">
<polygon fill="white" stroke="#666666" points="147.25,-153.5 0,-153.5 0,-123 147.25,-123 147.25,-153.5"/>
<text text-anchor="start" x="8" y="-140" font-family="Helvetica,sans-Serif" font-size="10.00">ModbusErrorInfomodbusParse</text>
<text text-anchor="middle" x="73.62" y="-128.75" font-family="Helvetica,sans-Serif" font-size="10.00">Request22</text>
</a>
</g>
</g>
<!-- Node3&#45;&gt;Node8 -->
<g id="edge7_Node000003_Node000008" class="edge">
<title>Node3&#45;&gt;Node8</title>
<g id="a_edge7_Node000003_Node000008"><a xlink:title=" ">
<path fill="none" stroke="#63b8ff" d="M210.34,-174.27C186.86,-168.04 158.52,-160.52 133.83,-153.96"/>
<polygon fill="#63b8ff" stroke="#63b8ff" points="209.42,-177.65 219.98,-176.83 211.21,-170.88 209.42,-177.65"/>
</a>
</g>
</g>
<!-- Node10 -->
<g id="Node000010" class="node">
<title>Node10</title>
<g id="a_Node000010"><a xlink:href="classllm_1_1Slave.html#a46b8ac6f2b8dee5550d18bd7f1dd355d" target="_top" xlink:title=" ">
<polygon fill="white" stroke="#666666" points="119.88,-104.88 27.38,-104.88 27.38,-85.62 119.88,-85.62 119.88,-104.88"/>
<text text-anchor="middle" x="73.62" y="-91.38" font-family="Helvetica,sans-Serif" font-size="10.00">llm::Slave::~Slave</text>
</a>
</g>
</g>
<!-- Node9&#45;&gt;Node10 -->
<g id="edge9_Node000009_Node000010" class="edge">
<title>Node9&#45;&gt;Node10</title>
<g id="a_edge9_Node000009_Node000010"><a xlink:title=" ">
<path fill="none" stroke="#63b8ff" d="M194.43,-110.18C169.89,-107.12 142.49,-103.7 120.09,-100.91"/>
<polygon fill="#63b8ff" stroke="#63b8ff" points="193.99,-113.65 204.35,-111.41 194.86,-106.7 193.99,-113.65"/>
</a>
</g>
</g>
<!-- Node12 -->
<g id="Node000012" class="node">
<title>Node12</title>
<g id="a_Node000012"><a xlink:href="classllm_1_1Slave.html#aadbd0a4dc7769b5c393d6dfe5a344b8a" target="_top" xlink:title=" ">
<polygon fill="white" stroke="#666666" points="134.88,-67.88 12.38,-67.88 12.38,-48.62 134.88,-48.62 134.88,-67.88"/>
<text text-anchor="middle" x="73.62" y="-54.38" font-family="Helvetica,sans-Serif" font-size="10.00">llm::Slave::freeResponse</text>
</a>
</g>
</g>
<!-- Node11&#45;&gt;Node12 -->
<g id="edge11_Node000011_Node000012" class="edge">
<title>Node11&#45;&gt;Node12</title>
<g id="a_edge11_Node000011_Node000012"><a xlink:title=" ">
<path fill="none" stroke="#63b8ff" d="M179.49,-58.25C164.61,-58.25 149.28,-58.25 135.09,-58.25"/>
<polygon fill="#63b8ff" stroke="#63b8ff" points="179.25,-61.75 189.25,-58.25 179.25,-54.75 179.25,-61.75"/>
</a>
</g>
</g>
<!-- Node13 -->
<g id="Node000013" class="node">
<title>Node13</title>
<g id="a_Node000013"><a xlink:href="slave_8impl_8h.html#afa8be870ae62f17ac8bc258714c2eb99" target="_top" xlink:title="Parses provided Modbus RTU request frame and generates a Modbus RTU response.">
<polygon fill="white" stroke="#666666" points="147.25,-30.5 0,-30.5 0,0 147.25,0 147.25,-30.5"/>
<text text-anchor="start" x="8" y="-17" font-family="Helvetica,sans-Serif" font-size="10.00">ModbusErrorInfomodbusParse</text>
<text text-anchor="middle" x="73.62" y="-5.75" font-family="Helvetica,sans-Serif" font-size="10.00">RequestRTU</text>
</a>
</g>
</g>
<!-- Node11&#45;&gt;Node13 -->
<g id="edge12_Node000011_Node000013" class="edge">
<title>Node11&#45;&gt;Node13</title>
<g id="a_edge12_Node000011_Node000013"><a xlink:title=" ">
<path fill="none" stroke="#63b8ff" d="M204.77,-45.56C185.16,-40.99 162.8,-35.79 142.21,-30.99"/>
<polygon fill="#63b8ff" stroke="#63b8ff" points="203.96,-48.97 214.49,-47.83 205.54,-42.15 203.96,-48.97"/>
</a>
</g>
</g>
</g>
</svg>
