<?xml version="1.0" encoding="UTF-8" standalone="no"?>
<!DOCTYPE svg PUBLIC "-//W3C//DTD SVG 1.1//EN"
 "http://www.w3.org/Graphics/SVG/1.1/DTD/svg11.dtd">
<!-- Generated by graphviz version 12.2.0 (20241103.1931)
 -->
<!-- Title: ModbusErrorInfomodbusParseRequestTCP Pages: 1 -->
<svg width="464pt" height="138pt"
 viewBox="0.00 0.00 464.00 138.25" xmlns="http://www.w3.org/2000/svg" xmlns:xlink="http://www.w3.org/1999/xlink">
<g id="graph0" class="graph" transform="scale(1 1) rotate(0) translate(4 134.25)">
<title>ModbusErrorInfomodbusParseRequestTCP</title>
<!-- Node1 -->
<g id="Node000001" class="node">
<title>Node1</title>
<g id="a_Node000001"><a xlink:title="Parses provided Modbus TCP request frame and generates a Modbus TCP response.">
<polygon fill="#999999" stroke="#666666" points="147.25,-79.88 0,-79.88 0,-49.38 147.25,-49.38 147.25,-79.88"/>
<text text-anchor="start" x="8" y="-66.38" font-family="Helvetica,sans-Serif" font-size="10.00">ModbusErrorInfomodbusParse</text>
<text text-anchor="middle" x="73.62" y="-55.12" font-family="Helvetica,sans-Serif" font-size="10.00">RequestTCP</text>
</a>
</g>
</g>
<!-- Node2 -->
<g id="Node000002" class="node">
<title>Node2</title>
<g id="a_Node000002"><a xlink:href="base_8h.html#ae82c3ced0b1698622b222761851d02c0" target="_top" xlink:title="Prepares buffer to store a Modbus TCP message.">
<polygon fill="white" stroke="#666666" points="302.75,-130.25 183.25,-130.25 183.25,-111 302.75,-111 302.75,-130.25"/>
<text text-anchor="middle" x="243" y="-116.75" font-family="Helvetica,sans-Serif" font-size="10.00">modbusBufferModeTCP</text>
</a>
</g>
</g>
<!-- Node1&#45;&gt;Node2 -->
<g id="edge1_Node000001_Node000002" class="edge">
<title>Node1&#45;&gt;Node2</title>
<g id="a_edge1_Node000001_Node000002"><a xlink:title=" ">
<path fill="none" stroke="#63b8ff" d="M118.36,-80.36C138.12,-87.36 161.8,-95.59 183.25,-102.62 187.94,-104.16 192.85,-105.73 197.75,-107.27"/>
<polygon fill="#63b8ff" stroke="#63b8ff" points="196.34,-110.5 206.93,-110.12 198.42,-103.81 196.34,-110.5"/>
</a>
</g>
</g>
<!-- Node3 -->
<g id="Node000003" class="node">
<title>Node3</title>
<g id="a_Node000003"><a xlink:href="base_8h.html#a64880e7075f445881485396f3aa869c5" target="_top" xlink:title="Checks if ModbusErrorInfo contains an error.">
<polygon fill="white" stroke="#666666" points="278.75,-93.25 207.25,-93.25 207.25,-74 278.75,-74 278.75,-93.25"/>
<text text-anchor="middle" x="243" y="-79.75" font-family="Helvetica,sans-Serif" font-size="10.00">modbusIsOk</text>
</a>
</g>
</g>
<!-- Node1&#45;&gt;Node3 -->
<g id="edge2_Node000001_Node000003" class="edge">
<title>Node1&#45;&gt;Node3</title>
<g id="a_edge2_Node000001_Node000003"><a xlink:title=" ">
<path fill="none" stroke="#63b8ff" d="M147.55,-72.9C163.98,-74.77 180.97,-76.7 195.93,-78.4"/>
<polygon fill="#63b8ff" stroke="#63b8ff" points="195.1,-81.82 205.43,-79.47 195.89,-74.87 195.1,-81.82"/>
</a>
</g>
</g>
<!-- Node6 -->
<g id="Node000006" class="node">
<title>Node6</title>
<g id="a_Node000006"><a xlink:href="base_8h.html#a39dcd3aad118a779b7e1775fea3e5d77" target="_top" xlink:title="Sets up the MBAP header in a Modbus TCP frame.">
<polygon fill="white" stroke="#666666" points="289.25,-56.25 196.75,-56.25 196.75,-37 289.25,-37 289.25,-56.25"/>
<text text-anchor="middle" x="243" y="-42.75" font-family="Helvetica,sans-Serif" font-size="10.00">modbusPackTCP</text>
</a>
</g>
</g>
<!-- Node1&#45;&gt;Node6 -->
<g id="edge5_Node000001_Node000006" class="edge">
<title>Node1&#45;&gt;Node6</title>
<g id="a_edge5_Node000001_Node000006"><a xlink:title=" ">
<path fill="none" stroke="#63b8ff" d="M147.55,-56.78C160.1,-55.43 172.98,-54.05 185.03,-52.75"/>
<polygon fill="#63b8ff" stroke="#63b8ff" points="185.23,-56.25 194.79,-51.7 184.48,-49.29 185.23,-56.25"/>
</a>
</g>
</g>
<!-- Node8 -->
<g id="Node000008" class="node">
<title>Node8</title>
<g id="a_Node000008"><a xlink:href="base_8h.html#a616e5bdb5ebcd57b1604421f6ca22bc9" target="_top" xlink:title="Unpacks data from a Modbus TCP frame.">
<polygon fill="white" stroke="#666666" points="294.88,-19.25 191.12,-19.25 191.12,0 294.88,0 294.88,-19.25"/>
<text text-anchor="middle" x="243" y="-5.75" font-family="Helvetica,sans-Serif" font-size="10.00">modbusUnpackTCP</text>
</a>
</g>
</g>
<!-- Node1&#45;&gt;Node8 -->
<g id="edge7_Node000001_Node000008" class="edge">
<title>Node1&#45;&gt;Node8</title>
<g id="a_edge7_Node000001_Node000008"><a xlink:title=" ">
<path fill="none" stroke="#63b8ff" d="M119.71,-48.92C139.2,-42.22 162.3,-34.4 183.25,-27.62 187.94,-26.11 192.86,-24.55 197.76,-23.02"/>
<polygon fill="#63b8ff" stroke="#63b8ff" points="198.43,-26.48 206.94,-20.17 196.36,-19.79 198.43,-26.48"/>
</a>
</g>
</g>
<!-- Node4 -->
<g id="Node000004" class="node">
<title>Node4</title>
<g id="a_Node000004"><a xlink:href="base_8h.html#a29d2a7853b328113e4fcddae85fd3ce5" target="_top" xlink:title="Returns ModbusError contained in ModbusErrorInfo.">
<polygon fill="white" stroke="#666666" points="451.88,-130.25 342.88,-130.25 342.88,-111 451.88,-111 451.88,-130.25"/>
<text text-anchor="middle" x="397.38" y="-116.75" font-family="Helvetica,sans-Serif" font-size="10.00">modbusGetErrorCode</text>
</a>
</g>
</g>
<!-- Node3&#45;&gt;Node4 -->
<g id="edge3_Node000003_Node000004" class="edge">
<title>Node3&#45;&gt;Node4</title>
<g id="a_edge3_Node000003_Node000004"><a xlink:title=" ">
<path fill="none" stroke="#63b8ff" d="M278.96,-92.11C298.19,-96.78 322.43,-102.67 343.89,-107.88"/>
<polygon fill="#63b8ff" stroke="#63b8ff" points="342.8,-111.22 353.34,-110.18 344.45,-104.42 342.8,-111.22"/>
</a>
</g>
</g>
<!-- Node5 -->
<g id="Node000005" class="node">
<title>Node5</title>
<g id="a_Node000005"><a xlink:href="base_8h.html#a9ee4c2e633c7a42f88acc09b95f8171e" target="_top" xlink:title="Returns uint8_t describing error source of ModbusErrorInfo.">
<polygon fill="white" stroke="#666666" points="456,-93.25 338.75,-93.25 338.75,-74 456,-74 456,-93.25"/>
<text text-anchor="middle" x="397.38" y="-79.75" font-family="Helvetica,sans-Serif" font-size="10.00">modbusGetErrorSource</text>
</a>
</g>
</g>
<!-- Node3&#45;&gt;Node5 -->
<g id="edge4_Node000003_Node000005" class="edge">
<title>Node3&#45;&gt;Node5</title>
<g id="a_edge4_Node000003_Node000005"><a xlink:title=" ">
<path fill="none" stroke="#63b8ff" d="M278.96,-83.62C293.24,-83.62 310.28,-83.62 326.89,-83.62"/>
<polygon fill="#63b8ff" stroke="#63b8ff" points="326.77,-87.13 336.77,-83.63 326.77,-80.13 326.77,-87.13"/>
</a>
</g>
</g>
<!-- Node7 -->
<g id="Node000007" class="node">
<title>Node7</title>
<g id="a_Node000007"><a xlink:href="base_8h.html#a73b9f793bbe67a1968cc8c53a22d4c4b" target="_top" xlink:title="Safely writes a big&#45;endian 16&#45;bit word to provided pointer.">
<polygon fill="white" stroke="#666666" points="433.5,-56.25 361.25,-56.25 361.25,-37 433.5,-37 433.5,-56.25"/>
<text text-anchor="middle" x="397.38" y="-42.75" font-family="Helvetica,sans-Serif" font-size="10.00">modbusWBE</text>
</a>
</g>
</g>
<!-- Node6&#45;&gt;Node7 -->
<g id="edge6_Node000006_Node000007" class="edge">
<title>Node6&#45;&gt;Node7</title>
<g id="a_edge6_Node000006_Node000007"><a xlink:title=" ">
<path fill="none" stroke="#63b8ff" d="M289.72,-46.62C308.59,-46.62 330.45,-46.62 349.45,-46.62"/>
<polygon fill="#63b8ff" stroke="#63b8ff" points="349.35,-50.13 359.35,-46.63 349.35,-43.13 349.35,-50.13"/>
</a>
</g>
</g>
<!-- Node9 -->
<g id="Node000009" class="node">
<title>Node9</title>
<g id="a_Node000009"><a xlink:href="base_8h.html#ace96da9afdf1e1796a6e2d7ac1f6c81a" target="_top" xlink:title="Safely reads a big&#45;endian 16&#45;bit word from provided pointer.">
<polygon fill="white" stroke="#666666" points="432.38,-19.25 362.38,-19.25 362.38,0 432.38,0 432.38,-19.25"/>
<text text-anchor="middle" x="397.38" y="-5.75" font-family="Helvetica,sans-Serif" font-size="10.00">modbusRBE</text>
</a>
</g>
</g>
<!-- Node8&#45;&gt;Node9 -->
<g id="edge8_Node000008_Node000009" class="edge">
<title>Node8&#45;&gt;Node9</title>
<g id="a_edge8_Node000008_Node000009"><a xlink:title=" ">
<path fill="none" stroke="#63b8ff" d="M295.16,-9.62C313.18,-9.62 333.29,-9.62 350.81,-9.62"/>
<polygon fill="#63b8ff" stroke="#63b8ff" points="350.39,-13.13 360.39,-9.63 350.39,-6.13 350.39,-13.13"/>
</a>
</g>
</g>
</g>
</svg>
