<?xml version="1.0" encoding="UTF-8" standalone="no"?>
<!DOCTYPE svg PUBLIC "-//W3C//DTD SVG 1.1//EN"
 "http://www.w3.org/Graphics/SVG/1.1/DTD/svg11.dtd">
<!-- Generated by graphviz version 12.2.0 (20241103.1931)
 -->
<!-- Title: include/lightmodbus/slave.h Pages: 1 -->
<svg width="464pt" height="305pt"
 viewBox="0.00 0.00 464.25 304.50" xmlns="http://www.w3.org/2000/svg" xmlns:xlink="http://www.w3.org/1999/xlink">
<g id="graph0" class="graph" transform="scale(1 1) rotate(0) translate(4 300.5)">
<title>include/lightmodbus/slave.h</title>
<!-- Node1 -->
<g id="Node000001" class="node">
<title>Node1</title>
<g id="a_Node000001"><a xlink:title="Slave&#39;s types and basic functions (header)">
<polygon fill="#999999" stroke="#666666" points="298.25,-296.5 196,-296.5 196,-266 298.25,-266 298.25,-296.5"/>
<text text-anchor="start" x="204" y="-283" font-family="Helvetica,sans-Serif" font-size="10.00">include/lightmodbus</text>
<text text-anchor="middle" x="247.12" y="-271.75" font-family="Helvetica,sans-Serif" font-size="10.00">/slave.h</text>
</a>
</g>
</g>
<!-- Node2 -->
<g id="Node000002" class="node">
<title>Node2</title>
<g id="a_Node000002"><a xlink:href="debug_8h.html" target="_top" xlink:title="Debug utilities (header)">
<polygon fill="white" stroke="#666666" points="140.25,-230 38,-230 38,-199.5 140.25,-199.5 140.25,-230"/>
<text text-anchor="start" x="46" y="-216.5" font-family="Helvetica,sans-Serif" font-size="10.00">include/lightmodbus</text>
<text text-anchor="middle" x="89.12" y="-205.25" font-family="Helvetica,sans-Serif" font-size="10.00">/debug.h</text>
</a>
</g>
</g>
<!-- Node1&#45;&gt;Node2 -->
<g id="edge1_Node000001_Node000002" class="edge">
<title>Node1&#45;&gt;Node2</title>
<g id="a_edge1_Node000001_Node000002"><a xlink:title=" ">
<path fill="none" stroke="#63b8ff" d="M200.91,-261.38C176.73,-251.51 147.58,-239.61 125.11,-230.44"/>
<polygon fill="#63b8ff" stroke="#63b8ff" points="199.29,-264.5 209.87,-265.04 201.94,-258.02 199.29,-264.5"/>
</a>
</g>
</g>
<!-- Node4 -->
<g id="Node000004" class="node">
<title>Node4</title>
<g id="a_Node000004"><a xlink:href="lightmodbus_8h.html" target="_top" xlink:title="The main library header file (include this one)">
<polygon fill="white" stroke="#666666" points="258.25,-97 156,-97 156,-66.5 258.25,-66.5 258.25,-97"/>
<text text-anchor="start" x="164" y="-83.5" font-family="Helvetica,sans-Serif" font-size="10.00">include/lightmodbus</text>
<text text-anchor="middle" x="207.12" y="-72.25" font-family="Helvetica,sans-Serif" font-size="10.00">/lightmodbus.h</text>
</a>
</g>
</g>
<!-- Node1&#45;&gt;Node4 -->
<g id="edge6_Node000001_Node000004" class="edge">
<title>Node1&#45;&gt;Node4</title>
<g id="a_edge6_Node000001_Node000004"><a xlink:title=" ">
<path fill="none" stroke="#63b8ff" d="M230.42,-256.2C215.73,-233.49 195.44,-197.88 187.12,-163.5 181.52,-140.34 191.45,-113.49 199.22,-97.33"/>
<polygon fill="#63b8ff" stroke="#63b8ff" points="227.43,-258.02 235.87,-264.42 233.26,-254.15 227.43,-258.02"/>
</a>
</g>
</g>
<!-- Node6 -->
<g id="Node000006" class="node">
<title>Node6</title>
<g id="a_Node000006"><a xlink:href="slave_8impl_8h.html" target="_top" xlink:title="Slave&#39;s types and basic functions (implementation)">
<polygon fill="white" stroke="#666666" points="298.25,-163.5 196,-163.5 196,-133 298.25,-133 298.25,-163.5"/>
<text text-anchor="start" x="204" y="-150" font-family="Helvetica,sans-Serif" font-size="10.00">include/lightmodbus</text>
<text text-anchor="middle" x="247.12" y="-138.75" font-family="Helvetica,sans-Serif" font-size="10.00">/slave.impl.h</text>
</a>
</g>
</g>
<!-- Node1&#45;&gt;Node6 -->
<g id="edge7_Node000001_Node000006" class="edge">
<title>Node1&#45;&gt;Node6</title>
<g id="a_edge7_Node000001_Node000006"><a xlink:title=" ">
<path fill="none" stroke="#63b8ff" d="M247.12,-254.43C247.12,-227.34 247.12,-185.71 247.12,-163.83"/>
<polygon fill="#63b8ff" stroke="#63b8ff" points="243.63,-254.22 247.13,-264.22 250.63,-254.22 243.63,-254.22"/>
</a>
</g>
</g>
<!-- Node7 -->
<g id="Node000007" class="node">
<title>Node7</title>
<g id="a_Node000007"><a xlink:href="slave__func_8h.html" target="_top" xlink:title="Slave&#39;s functions for parsing requests (header)">
<polygon fill="white" stroke="#666666" points="377.25,-230 275,-230 275,-199.5 377.25,-199.5 377.25,-230"/>
<text text-anchor="start" x="283" y="-216.5" font-family="Helvetica,sans-Serif" font-size="10.00">include/lightmodbus</text>
<text text-anchor="middle" x="326.12" y="-205.25" font-family="Helvetica,sans-Serif" font-size="10.00">/slave_func.h</text>
</a>
</g>
</g>
<!-- Node1&#45;&gt;Node7 -->
<g id="edge9_Node000001_Node000007" class="edge">
<title>Node1&#45;&gt;Node7</title>
<g id="a_edge9_Node000001_Node000007"><a xlink:title=" ">
<path fill="none" stroke="#63b8ff" d="M273.74,-258.52C285.11,-249.23 298.08,-238.65 308.27,-230.33"/>
<polygon fill="#63b8ff" stroke="#63b8ff" points="271.76,-255.62 266.22,-264.66 276.18,-261.04 271.76,-255.62"/>
</a>
</g>
</g>
<!-- Node8 -->
<g id="Node000008" class="node">
<title>Node8</title>
<g id="a_Node000008"><a xlink:href="slave__func_8impl_8h.html" target="_top" xlink:title="Slave&#39;s functions for parsing requests (implementation)">
<polygon fill="white" stroke="#666666" points="456.25,-163.5 354,-163.5 354,-133 456.25,-133 456.25,-163.5"/>
<text text-anchor="start" x="362" y="-150" font-family="Helvetica,sans-Serif" font-size="10.00">include/lightmodbus</text>
<text text-anchor="middle" x="405.12" y="-138.75" font-family="Helvetica,sans-Serif" font-size="10.00">/slave_func.impl.h</text>
</a>
</g>
</g>
<!-- Node1&#45;&gt;Node8 -->
<g id="edge14_Node000001_Node000008" class="edge">
<title>Node1&#45;&gt;Node8</title>
<g id="a_edge14_Node000001_Node000008"><a xlink:title=" ">
<path fill="none" stroke="#63b8ff" d="M309.53,-271.31C336.62,-264.35 366.55,-251.98 386.12,-230 402.5,-211.61 405.48,-181.76 405.65,-163.96"/>
<polygon fill="#63b8ff" stroke="#63b8ff" points="308.94,-267.86 300.01,-273.55 310.54,-274.67 308.94,-267.86"/>
</a>
</g>
</g>
<!-- Node3 -->
<g id="Node000003" class="node">
<title>Node3</title>
<g id="a_Node000003"><a xlink:href="debug_8impl_8h.html" target="_top" xlink:title="Debug utilities (implementation)">
<polygon fill="white" stroke="#666666" points="102.25,-163.5 0,-163.5 0,-133 102.25,-133 102.25,-163.5"/>
<text text-anchor="start" x="8" y="-150" font-family="Helvetica,sans-Serif" font-size="10.00">include/lightmodbus</text>
<text text-anchor="middle" x="51.12" y="-138.75" font-family="Helvetica,sans-Serif" font-size="10.00">/debug.impl.h</text>
</a>
</g>
</g>
<!-- Node2&#45;&gt;Node3 -->
<g id="edge2_Node000002_Node000003" class="edge">
<title>Node2&#45;&gt;Node3</title>
<g id="a_edge2_Node000002_Node000003"><a xlink:title=" ">
<path fill="none" stroke="#63b8ff" d="M74.68,-189.23C69.63,-180.66 64.13,-171.32 59.71,-163.83"/>
<polygon fill="#63b8ff" stroke="#63b8ff" points="71.64,-190.97 79.73,-197.81 77.67,-187.42 71.64,-190.97"/>
</a>
</g>
</g>
<!-- Node2&#45;&gt;Node4 -->
<g id="edge5_Node000002_Node000004" class="edge">
<title>Node2&#45;&gt;Node4</title>
<g id="a_edge5_Node000002_Node000004"><a xlink:title=" ">
<path fill="none" stroke="#63b8ff" d="M106.66,-190.3C119.31,-173.81 137.09,-151.47 154.12,-133 165.81,-120.32 180.04,-106.93 190.81,-97.17"/>
<polygon fill="#63b8ff" stroke="#63b8ff" points="104.02,-187.98 100.76,-198.06 109.6,-192.22 104.02,-187.98"/>
</a>
</g>
</g>
<!-- Node3&#45;&gt;Node4 -->
<g id="edge3_Node000003_Node000004" class="edge">
<title>Node3&#45;&gt;Node4</title>
<g id="a_edge3_Node000003_Node000004"><a xlink:title=" ">
<path fill="none" stroke="#63b8ff" d="M97.08,-128.25C120.89,-118.41 149.51,-106.57 171.6,-97.44"/>
<polygon fill="#63b8ff" stroke="#63b8ff" points="95.83,-124.98 87.92,-132.04 98.5,-131.45 95.83,-124.98"/>
</a>
</g>
</g>
<!-- Node5 -->
<g id="Node000005" class="node">
<title>Node5</title>
<g id="a_Node000005"><a xlink:href="lightmodbus_8hpp.html" target="_top" xlink:title="(Very) experimental liblightmodbus C++ interface">
<polygon fill="white" stroke="#666666" points="258.25,-30.5 156,-30.5 156,0 258.25,0 258.25,-30.5"/>
<text text-anchor="start" x="164" y="-17" font-family="Helvetica,sans-Serif" font-size="10.00">include/lightmodbus</text>
<text text-anchor="middle" x="207.12" y="-5.75" font-family="Helvetica,sans-Serif" font-size="10.00">/lightmodbus.hpp</text>
</a>
</g>
</g>
<!-- Node4&#45;&gt;Node5 -->
<g id="edge4_Node000004_Node000005" class="edge">
<title>Node4&#45;&gt;Node5</title>
<g id="a_edge4_Node000004_Node000005"><a xlink:title=" ">
<path fill="none" stroke="#63b8ff" d="M207.12,-54.81C207.12,-46.64 207.12,-37.91 207.12,-30.83"/>
<polygon fill="#63b8ff" stroke="#63b8ff" points="203.63,-54.6 207.13,-64.6 210.63,-54.6 203.63,-54.6"/>
</a>
</g>
</g>
<!-- Node6&#45;&gt;Node4 -->
<g id="edge8_Node000006_Node000004" class="edge">
<title>Node6&#45;&gt;Node4</title>
<g id="a_edge8_Node000006_Node000004"><a xlink:title=" ">
<path fill="none" stroke="#63b8ff" d="M232.09,-123.01C226.73,-114.37 220.86,-104.91 216.17,-97.33"/>
<polygon fill="#63b8ff" stroke="#63b8ff" points="229.01,-124.67 237.25,-131.33 234.95,-120.98 229.01,-124.67"/>
</a>
</g>
</g>
<!-- Node7&#45;&gt;Node4 -->
<g id="edge10_Node000007_Node000004" class="edge">
<title>Node7&#45;&gt;Node4</title>
<g id="a_edge10_Node000007_Node000004"><a xlink:title=" ">
<path fill="none" stroke="#63b8ff" d="M325.54,-187.59C323.92,-170.46 319.33,-148.47 307.12,-133 294.25,-116.68 274.66,-105.22 256.23,-97.42"/>
<polygon fill="#63b8ff" stroke="#63b8ff" points="322.05,-187.77 326.17,-197.53 329.03,-187.33 322.05,-187.77"/>
</a>
</g>
</g>
<!-- Node7&#45;&gt;Node6 -->
<g id="edge11_Node000007_Node000006" class="edge">
<title>Node7&#45;&gt;Node6</title>
<g id="a_edge11_Node000007_Node000006"><a xlink:title=" ">
<path fill="none" stroke="#63b8ff" d="M299.51,-192.02C288.14,-182.73 275.17,-172.15 264.98,-163.83"/>
<polygon fill="#63b8ff" stroke="#63b8ff" points="297.07,-194.54 307.03,-198.16 301.49,-189.12 297.07,-194.54"/>
</a>
</g>
</g>
<!-- Node7&#45;&gt;Node8 -->
<g id="edge12_Node000007_Node000008" class="edge">
<title>Node7&#45;&gt;Node8</title>
<g id="a_edge12_Node000007_Node000008"><a xlink:title=" ">
<path fill="none" stroke="#63b8ff" d="M352.74,-192.02C364.11,-182.73 377.08,-172.15 387.27,-163.83"/>
<polygon fill="#63b8ff" stroke="#63b8ff" points="350.76,-189.12 345.22,-198.16 355.18,-194.54 350.76,-189.12"/>
</a>
</g>
</g>
<!-- Node8&#45;&gt;Node4 -->
<g id="edge13_Node000008_Node000004" class="edge">
<title>Node8&#45;&gt;Node4</title>
<g id="a_edge13_Node000008_Node000004"><a xlink:title=" ">
<path fill="none" stroke="#63b8ff" d="M349.64,-129.17C318.88,-119.16 281.14,-106.86 252.22,-97.44"/>
<polygon fill="#63b8ff" stroke="#63b8ff" points="348.16,-132.38 358.76,-132.15 350.33,-125.72 348.16,-132.38"/>
</a>
</g>
</g>
</g>
</svg>
