<?xml version="1.0" encoding="UTF-8" standalone="no"?>
<!DOCTYPE svg PUBLIC "-//W3C//DTD SVG 1.1//EN"
 "http://www.w3.org/Graphics/SVG/1.1/DTD/svg11.dtd">
<!-- Generated by graphviz version 12.2.0 (20241103.1931)
 -->
<!-- Title: include/lightmodbus/slave_func.h Pages: 1 -->
<svg width="243pt" height="238pt"
 viewBox="0.00 0.00 243.43 238.00" xmlns="http://www.w3.org/2000/svg" xmlns:xlink="http://www.w3.org/1999/xlink">
<g id="graph0" class="graph" transform="scale(1 1) rotate(0) translate(4 234)">
<title>include/lightmodbus/slave_func.h</title>
<!-- Node1 -->
<g id="Node000001" class="node">
<title>Node1</title>
<g id="a_Node000001"><a xlink:title="Slave&#39;s functions for parsing requests (header)">
<polygon fill="#999999" stroke="#666666" points="115.43,-230 13.18,-230 13.18,-199.5 115.43,-199.5 115.43,-230"/>
<text text-anchor="start" x="21.18" y="-216.5" font-family="Helvetica,sans-Serif" font-size="10.00">include/lightmodbus</text>
<text text-anchor="middle" x="64.3" y="-205.25" font-family="Helvetica,sans-Serif" font-size="10.00">/slave_func.h</text>
</a>
</g>
</g>
<!-- Node2 -->
<g id="Node000002" class="node">
<title>Node2</title>
<g id="a_Node000002"><a xlink:href="lightmodbus_8h.html" target="_top" xlink:title="The main library header file (include this one)">
<polygon fill="white" stroke="#666666" points="115.43,-97 13.18,-97 13.18,-66.5 115.43,-66.5 115.43,-97"/>
<text text-anchor="start" x="21.18" y="-83.5" font-family="Helvetica,sans-Serif" font-size="10.00">include/lightmodbus</text>
<text text-anchor="middle" x="64.3" y="-72.25" font-family="Helvetica,sans-Serif" font-size="10.00">/lightmodbus.h</text>
</a>
</g>
</g>
<!-- Node1&#45;&gt;Node2 -->
<g id="edge1_Node000001_Node000002" class="edge">
<title>Node1&#45;&gt;Node2</title>
<g id="a_edge1_Node000001_Node000002"><a xlink:title=" ">
<path fill="none" stroke="#63b8ff" d="M28.93,-192.6C19.11,-184.8 9.67,-175 4.3,-163.5 -1.43,-151.22 -1.43,-145.28 4.3,-133 11.31,-117.98 25.27,-105.86 37.96,-97.29"/>
<polygon fill="#63b8ff" stroke="#63b8ff" points="26.6,-195.23 36.74,-198.31 30.73,-189.58 26.6,-195.23"/>
</a>
</g>
</g>
<!-- Node4 -->
<g id="Node000004" class="node">
<title>Node4</title>
<g id="a_Node000004"><a xlink:href="slave_8impl_8h.html" target="_top" xlink:title="Slave&#39;s types and basic functions (implementation)">
<polygon fill="white" stroke="#666666" points="115.43,-163.5 13.18,-163.5 13.18,-133 115.43,-133 115.43,-163.5"/>
<text text-anchor="start" x="21.18" y="-150" font-family="Helvetica,sans-Serif" font-size="10.00">include/lightmodbus</text>
<text text-anchor="middle" x="64.3" y="-138.75" font-family="Helvetica,sans-Serif" font-size="10.00">/slave.impl.h</text>
</a>
</g>
</g>
<!-- Node1&#45;&gt;Node4 -->
<g id="edge3_Node000001_Node000004" class="edge">
<title>Node1&#45;&gt;Node4</title>
<g id="a_edge3_Node000001_Node000004"><a xlink:title=" ">
<path fill="none" stroke="#63b8ff" d="M64.3,-187.81C64.3,-179.64 64.3,-170.91 64.3,-163.83"/>
<polygon fill="#63b8ff" stroke="#63b8ff" points="60.8,-187.6 64.3,-197.6 67.8,-187.6 60.8,-187.6"/>
</a>
</g>
</g>
<!-- Node5 -->
<g id="Node000005" class="node">
<title>Node5</title>
<g id="a_Node000005"><a xlink:href="slave__func_8impl_8h.html" target="_top" xlink:title="Slave&#39;s functions for parsing requests (implementation)">
<polygon fill="white" stroke="#666666" points="235.43,-163.5 133.18,-163.5 133.18,-133 235.43,-133 235.43,-163.5"/>
<text text-anchor="start" x="141.18" y="-150" font-family="Helvetica,sans-Serif" font-size="10.00">include/lightmodbus</text>
<text text-anchor="middle" x="184.3" y="-138.75" font-family="Helvetica,sans-Serif" font-size="10.00">/slave_func.impl.h</text>
</a>
</g>
</g>
<!-- Node1&#45;&gt;Node5 -->
<g id="edge5_Node000001_Node000005" class="edge">
<title>Node1&#45;&gt;Node5</title>
<g id="a_edge5_Node000001_Node000005"><a xlink:title=" ">
<path fill="none" stroke="#63b8ff" d="M101.43,-193.79C119.45,-184.11 140.71,-172.68 157.18,-163.83"/>
<polygon fill="#63b8ff" stroke="#63b8ff" points="100.02,-190.58 92.86,-198.4 103.33,-196.75 100.02,-190.58"/>
</a>
</g>
</g>
<!-- Node3 -->
<g id="Node000003" class="node">
<title>Node3</title>
<g id="a_Node000003"><a xlink:href="lightmodbus_8hpp.html" target="_top" xlink:title="(Very) experimental liblightmodbus C++ interface">
<polygon fill="white" stroke="#666666" points="115.43,-30.5 13.18,-30.5 13.18,0 115.43,0 115.43,-30.5"/>
<text text-anchor="start" x="21.18" y="-17" font-family="Helvetica,sans-Serif" font-size="10.00">include/lightmodbus</text>
<text text-anchor="middle" x="64.3" y="-5.75" font-family="Helvetica,sans-Serif" font-size="10.00">/lightmodbus.hpp</text>
</a>
</g>
</g>
<!-- Node2&#45;&gt;Node3 -->
<g id="edge2_Node000002_Node000003" class="edge">
<title>Node2&#45;&gt;Node3</title>
<g id="a_edge2_Node000002_Node000003"><a xlink:title=" ">
<path fill="none" stroke="#63b8ff" d="M64.3,-54.81C64.3,-46.64 64.3,-37.91 64.3,-30.83"/>
<polygon fill="#63b8ff" stroke="#63b8ff" points="60.8,-54.6 64.3,-64.6 67.8,-54.6 60.8,-54.6"/>
</a>
</g>
</g>
<!-- Node4&#45;&gt;Node2 -->
<g id="edge4_Node000004_Node000002" class="edge">
<title>Node4&#45;&gt;Node2</title>
<g id="a_edge4_Node000004_Node000002"><a xlink:title=" ">
<path fill="none" stroke="#63b8ff" d="M64.3,-121.31C64.3,-113.14 64.3,-104.41 64.3,-97.33"/>
<polygon fill="#63b8ff" stroke="#63b8ff" points="60.8,-121.1 64.3,-131.1 67.8,-121.1 60.8,-121.1"/>
</a>
</g>
</g>
<!-- Node5&#45;&gt;Node2 -->
<g id="edge6_Node000005_Node000002" class="edge">
<title>Node5&#45;&gt;Node2</title>
<g id="a_edge6_Node000005_Node000002"><a xlink:title=" ">
<path fill="none" stroke="#63b8ff" d="M147.17,-127.29C129.15,-117.61 107.9,-106.18 91.42,-97.33"/>
<polygon fill="#63b8ff" stroke="#63b8ff" points="145.27,-130.25 155.74,-131.9 148.59,-124.08 145.27,-130.25"/>
</a>
</g>
</g>
</g>
</svg>
