<?xml version="1.0" encoding="UTF-8" standalone="no"?>
<!DOCTYPE svg PUBLIC "-//W3C//DTD SVG 1.1//EN"
 "http://www.w3.org/Graphics/SVG/1.1/DTD/svg11.dtd">
<!-- Generated by graphviz version 12.2.0 (20241103.1931)
 -->
<!-- Title: ModbusErrorInfomodbusBuildExceptionPDU Pages: 1 -->
<svg width="412pt" height="64pt"
 viewBox="0.00 0.00 412.25 64.25" xmlns="http://www.w3.org/2000/svg" xmlns:xlink="http://www.w3.org/1999/xlink">
<g id="graph0" class="graph" transform="scale(1 1) rotate(0) translate(4 60.25)">
<title>ModbusErrorInfomodbusBuildExceptionPDU</title>
<!-- Node1 -->
<g id="Node000001" class="node">
<title>Node1</title>
<g id="a_Node000001"><a xlink:title="Builds an exception PDU.">
<polygon fill="#999999" stroke="#666666" points="143.5,-42.88 0,-42.88 0,-12.37 143.5,-12.37 143.5,-42.88"/>
<text text-anchor="start" x="8" y="-29.38" font-family="Helvetica,sans-Serif" font-size="10.00">ModbusErrorInfomodbusBuild</text>
<text text-anchor="middle" x="71.75" y="-18.12" font-family="Helvetica,sans-Serif" font-size="10.00">ExceptionPDU</text>
</a>
</g>
</g>
<!-- Node2 -->
<g id="Node000002" class="node">
<title>Node2</title>
<g id="a_Node000002"><a xlink:href="base_8h.html#a64880e7075f445881485396f3aa869c5" target="_top" xlink:title="Checks if ModbusErrorInfo contains an error.">
<polygon fill="white" stroke="#666666" points="251,-37.25 179.5,-37.25 179.5,-18 251,-18 251,-37.25"/>
<text text-anchor="middle" x="215.25" y="-23.75" font-family="Helvetica,sans-Serif" font-size="10.00">modbusIsOk</text>
</a>
</g>
</g>
<!-- Node1&#45;&gt;Node2 -->
<g id="edge1_Node000001_Node000002" class="edge">
<title>Node1&#45;&gt;Node2</title>
<g id="a_edge1_Node000001_Node000002"><a xlink:title=" ">
<path fill="none" stroke="#63b8ff" d="M143.91,-27.62C152.05,-27.62 160.18,-27.62 167.87,-27.62"/>
<polygon fill="#63b8ff" stroke="#63b8ff" points="167.63,-31.13 177.63,-27.63 167.63,-24.13 167.63,-31.13"/>
</a>
</g>
</g>
<!-- Node3 -->
<g id="Node000003" class="node">
<title>Node3</title>
<g id="a_Node000003"><a xlink:href="base_8h.html#a29d2a7853b328113e4fcddae85fd3ce5" target="_top" xlink:title="Returns ModbusError contained in ModbusErrorInfo.">
<polygon fill="white" stroke="#666666" points="400.12,-56.25 291.12,-56.25 291.12,-37 400.12,-37 400.12,-56.25"/>
<text text-anchor="middle" x="345.62" y="-42.75" font-family="Helvetica,sans-Serif" font-size="10.00">modbusGetErrorCode</text>
</a>
</g>
</g>
<!-- Node2&#45;&gt;Node3 -->
<g id="edge2_Node000002_Node000003" class="edge">
<title>Node2&#45;&gt;Node3</title>
<g id="a_edge2_Node000002_Node000003"><a xlink:title=" ">
<path fill="none" stroke="#63b8ff" d="M251.33,-32.82C260.08,-34.11 269.75,-35.54 279.44,-36.98"/>
<polygon fill="#63b8ff" stroke="#63b8ff" points="278.88,-40.43 289.29,-38.44 279.91,-33.51 278.88,-40.43"/>
</a>
</g>
</g>
<!-- Node4 -->
<g id="Node000004" class="node">
<title>Node4</title>
<g id="a_Node000004"><a xlink:href="base_8h.html#a9ee4c2e633c7a42f88acc09b95f8171e" target="_top" xlink:title="Returns uint8_t describing error source of ModbusErrorInfo.">
<polygon fill="white" stroke="#666666" points="404.25,-19.25 287,-19.25 287,0 404.25,0 404.25,-19.25"/>
<text text-anchor="middle" x="345.62" y="-5.75" font-family="Helvetica,sans-Serif" font-size="10.00">modbusGetErrorSource</text>
</a>
</g>
</g>
<!-- Node2&#45;&gt;Node4 -->
<g id="edge3_Node000002_Node000004" class="edge">
<title>Node2&#45;&gt;Node4</title>
<g id="a_edge3_Node000002_Node000004"><a xlink:title=" ">
<path fill="none" stroke="#63b8ff" d="M251.33,-22.71C258.88,-21.65 267.12,-20.49 275.47,-19.32"/>
<polygon fill="#63b8ff" stroke="#63b8ff" points="275.95,-22.79 285.37,-17.93 274.98,-15.86 275.95,-22.79"/>
</a>
</g>
</g>
</g>
</svg>
