<?xml version="1.0" encoding="UTF-8" standalone="no"?>
<!DOCTYPE svg PUBLIC "-//W3C//DTD SVG 1.1//EN"
 "http://www.w3.org/Graphics/SVG/1.1/DTD/svg11.dtd">
<!-- Generated by graphviz version 12.2.0 (20241103.1931)
 -->
<!-- Title: include/lightmodbus/slave.h Pages: 1 -->
<svg width="147pt" height="149pt"
 viewBox="0.00 0.00 147.38 149.00" xmlns="http://www.w3.org/2000/svg" xmlns:xlink="http://www.w3.org/1999/xlink">
<g id="graph0" class="graph" transform="scale(1 1) rotate(0) translate(4 145)">
<title>include/lightmodbus/slave.h</title>
<!-- Node1 -->
<g id="Node000001" class="node">
<title>Node1</title>
<g id="a_Node000001"><a xlink:title="Slave&#39;s types and basic functions (header)">
<polygon fill="#999999" stroke="#666666" points="102.25,-141 0,-141 0,-110.5 102.25,-110.5 102.25,-141"/>
<text text-anchor="start" x="8" y="-127.5" font-family="Helvetica,sans-Serif" font-size="10.00">include/lightmodbus</text>
<text text-anchor="middle" x="51.12" y="-116.25" font-family="Helvetica,sans-Serif" font-size="10.00">/slave.h</text>
</a>
</g>
</g>
<!-- Node2 -->
<g id="Node000002" class="node">
<title>Node2</title>
<g id="a_Node000002"><a xlink:title=" ">
<polygon fill="#e0e0e0" stroke="#999999" points="80.88,-19.25 33.38,-19.25 33.38,0 80.88,0 80.88,-19.25"/>
<text text-anchor="middle" x="57.12" y="-5.75" font-family="Helvetica,sans-Serif" font-size="10.00">stdint.h</text>
</a>
</g>
</g>
<!-- Node1&#45;&gt;Node2 -->
<g id="edge1_Node000001_Node000002" class="edge">
<title>Node1&#45;&gt;Node2</title>
<g id="a_edge1_Node000001_Node000002"><a xlink:title=" ">
<path fill="none" stroke="#63b8ff" d="M36.19,-110.18C23.9,-96.35 9.64,-74.82 17.12,-55.25 21.22,-44.55 29.2,-34.79 36.96,-27.15"/>
<polygon fill="#63b8ff" stroke="#63b8ff" points="38.94,-30.08 43.98,-20.76 34.23,-24.9 38.94,-30.08"/>
</a>
</g>
</g>
<!-- Node3 -->
<g id="Node000003" class="node">
<title>Node3</title>
<g id="a_Node000003"><a xlink:title=" ">
<polygon fill="#e0e0e0" stroke="#999999" points="76.38,-74.5 25.88,-74.5 25.88,-55.25 76.38,-55.25 76.38,-74.5"/>
<text text-anchor="middle" x="51.12" y="-61" font-family="Helvetica,sans-Serif" font-size="10.00">stddef.h</text>
</a>
</g>
</g>
<!-- Node1&#45;&gt;Node3 -->
<g id="edge2_Node000001_Node000003" class="edge">
<title>Node1&#45;&gt;Node3</title>
<g id="a_edge2_Node000001_Node000003"><a xlink:title=" ">
<path fill="none" stroke="#63b8ff" d="M51.12,-110.2C51.12,-102.96 51.12,-94.09 51.12,-86.19"/>
<polygon fill="#63b8ff" stroke="#63b8ff" points="54.63,-86.46 51.13,-76.46 47.63,-86.46 54.63,-86.46"/>
</a>
</g>
</g>
<!-- Node4 -->
<g id="Node000004" class="node">
<title>Node4</title>
<g id="a_Node000004"><a xlink:href="base_8h.html" target="_top" xlink:title="Common types and functions (header)">
<polygon fill="white" stroke="#666666" points="139.38,-74.5 94.88,-74.5 94.88,-55.25 139.38,-55.25 139.38,-74.5"/>
<text text-anchor="middle" x="117.12" y="-61" font-family="Helvetica,sans-Serif" font-size="10.00">base.h</text>
</a>
</g>
</g>
<!-- Node1&#45;&gt;Node4 -->
<g id="edge3_Node000001_Node000004" class="edge">
<title>Node1&#45;&gt;Node4</title>
<g id="a_edge3_Node000001_Node000004"><a xlink:title=" ">
<path fill="none" stroke="#63b8ff" d="M67.44,-110.2C76.81,-101.84 88.62,-91.3 98.38,-82.6"/>
<polygon fill="#63b8ff" stroke="#63b8ff" points="100.69,-85.23 105.82,-75.96 96.03,-80 100.69,-85.23"/>
</a>
</g>
</g>
<!-- Node4&#45;&gt;Node2 -->
<g id="edge4_Node000004_Node000002" class="edge">
<title>Node4&#45;&gt;Node2</title>
<g id="a_edge4_Node000004_Node000002"><a xlink:title=" ">
<path fill="none" stroke="#63b8ff" d="M106.95,-54.84C98.36,-47.22 85.86,-36.12 75.52,-26.95"/>
<polygon fill="#63b8ff" stroke="#63b8ff" points="78.09,-24.55 68.28,-20.53 73.44,-29.79 78.09,-24.55"/>
</a>
</g>
</g>
</g>
</svg>
