<?xml version="1.0" encoding="UTF-8" standalone="no"?>
<!DOCTYPE svg PUBLIC "-//W3C//DTD SVG 1.1//EN"
 "http://www.w3.org/Graphics/SVG/1.1/DTD/svg11.dtd">
<!-- Generated by graphviz version 12.2.0 (20241103.1931)
 -->
<!-- Title: ModbusErrorInfomodbusParseRequest0506 Pages: 1 -->
<svg width="524pt" height="101pt"
 viewBox="0.00 0.00 524.00 101.25" xmlns="http://www.w3.org/2000/svg" xmlns:xlink="http://www.w3.org/1999/xlink">
<g id="graph0" class="graph" transform="scale(1 1) rotate(0) translate(4 97.25)">
<title>ModbusErrorInfomodbusParseRequest0506</title>
<!-- Node1 -->
<g id="Node000001" class="node">
<title>Node1</title>
<g id="a_Node000001"><a xlink:title="Handles requests 05 and 06 (Write Single XX) and generates response.">
<polygon fill="#999999" stroke="#666666" points="147.25,-61.88 0,-61.88 0,-31.38 147.25,-31.38 147.25,-61.88"/>
<text text-anchor="start" x="8" y="-48.38" font-family="Helvetica,sans-Serif" font-size="10.00">ModbusErrorInfomodbusParse</text>
<text text-anchor="middle" x="73.62" y="-37.12" font-family="Helvetica,sans-Serif" font-size="10.00">Request0506</text>
</a>
</g>
</g>
<!-- Node2 -->
<g id="Node000002" class="node">
<title>Node2</title>
<g id="a_Node000002"><a xlink:href="base_8h.html#ace96da9afdf1e1796a6e2d7ac1f6c81a" target="_top" xlink:title="Safely reads a big&#45;endian 16&#45;bit word from provided pointer.">
<polygon fill="white" stroke="#666666" points="295.25,-93.25 225.25,-93.25 225.25,-74 295.25,-74 295.25,-93.25"/>
<text text-anchor="middle" x="260.25" y="-79.75" font-family="Helvetica,sans-Serif" font-size="10.00">modbusRBE</text>
</a>
</g>
</g>
<!-- Node1&#45;&gt;Node2 -->
<g id="edge1_Node000001_Node000002" class="edge">
<title>Node1&#45;&gt;Node2</title>
<g id="a_edge1_Node000001_Node000002"><a xlink:title=" ">
<path fill="none" stroke="#63b8ff" d="M147.59,-61.25C169.84,-65.71 193.65,-70.48 213.55,-74.47"/>
<polygon fill="#63b8ff" stroke="#63b8ff" points="212.79,-77.88 223.28,-76.42 214.17,-71.02 212.79,-77.88"/>
</a>
</g>
</g>
<!-- Node3 -->
<g id="Node000003" class="node">
<title>Node3</title>
<g id="a_Node000003"><a xlink:href="slave_8h.html#ad1165bb6d12af1db502a05df5da55aed" target="_top" xlink:title="Allocates memory for slave&#39;s response frame.">
<polygon fill="white" stroke="#666666" points="337.25,-56.25 183.25,-56.25 183.25,-37 337.25,-37 337.25,-56.25"/>
<text text-anchor="middle" x="260.25" y="-42.75" font-family="Helvetica,sans-Serif" font-size="10.00">modbusSlaveAllocateResponse</text>
</a>
</g>
</g>
<!-- Node1&#45;&gt;Node3 -->
<g id="edge2_Node000001_Node000003" class="edge">
<title>Node1&#45;&gt;Node3</title>
<g id="a_edge2_Node000001_Node000003"><a xlink:title=" ">
<path fill="none" stroke="#63b8ff" d="M147.59,-46.62C155.47,-46.62 163.55,-46.62 171.58,-46.62"/>
<polygon fill="#63b8ff" stroke="#63b8ff" points="171.36,-50.13 181.36,-46.63 171.36,-43.13 171.36,-50.13"/>
</a>
</g>
</g>
<!-- Node6 -->
<g id="Node000006" class="node">
<title>Node6</title>
<g id="a_Node000006"><a xlink:href="base_8h.html#a73b9f793bbe67a1968cc8c53a22d4c4b" target="_top" xlink:title="Safely writes a big&#45;endian 16&#45;bit word to provided pointer.">
<polygon fill="white" stroke="#666666" points="296.38,-19.25 224.12,-19.25 224.12,0 296.38,0 296.38,-19.25"/>
<text text-anchor="middle" x="260.25" y="-5.75" font-family="Helvetica,sans-Serif" font-size="10.00">modbusWBE</text>
</a>
</g>
</g>
<!-- Node1&#45;&gt;Node6 -->
<g id="edge5_Node000001_Node000006" class="edge">
<title>Node1&#45;&gt;Node6</title>
<g id="a_edge5_Node000001_Node000006"><a xlink:title=" ">
<path fill="none" stroke="#63b8ff" d="M147.59,-32C169.5,-27.61 192.93,-22.92 212.64,-18.97"/>
<polygon fill="#63b8ff" stroke="#63b8ff" points="213.17,-22.43 222.29,-17.03 211.8,-15.57 213.17,-22.43"/>
</a>
</g>
</g>
<!-- Node4 -->
<g id="Node000004" class="node">
<title>Node4</title>
<g id="a_Node000004"><a xlink:href="base_8impl_8h.html#a54f7d1db7f58ffd329b1955ad1a66f37" target="_top" xlink:title="Allocates memory to hold Modbus ADU.">
<polygon fill="white" stroke="#666666" points="510.75,-74.25 378.5,-74.25 378.5,-55 510.75,-55 510.75,-74.25"/>
<text text-anchor="middle" x="444.62" y="-60.75" font-family="Helvetica,sans-Serif" font-size="10.00">modbusBufferAllocateADU</text>
</a>
</g>
</g>
<!-- Node3&#45;&gt;Node4 -->
<g id="edge3_Node000003_Node000004" class="edge">
<title>Node3&#45;&gt;Node4</title>
<g id="a_edge3_Node000003_Node000004"><a xlink:title=" ">
<path fill="none" stroke="#63b8ff" d="M337.54,-54.15C347.22,-55.11 357.13,-56.09 366.82,-57.04"/>
<polygon fill="#63b8ff" stroke="#63b8ff" points="366.26,-60.51 376.56,-58.01 366.95,-53.54 366.26,-60.51"/>
</a>
</g>
</g>
<!-- Node5 -->
<g id="Node000005" class="node">
<title>Node5</title>
<g id="a_Node000005"><a xlink:href="slave_8h.html#a6517cff5567f0f07444d140edc7dfafd" target="_top" xlink:title="Retreieves the custom context pointer.">
<polygon fill="white" stroke="#666666" points="516,-37.25 373.25,-37.25 373.25,-18 516,-18 516,-37.25"/>
<text text-anchor="middle" x="444.62" y="-23.75" font-family="Helvetica,sans-Serif" font-size="10.00">modbusSlaveGetUserPointer</text>
</a>
</g>
</g>
<!-- Node3&#45;&gt;Node5 -->
<g id="edge4_Node000003_Node000005" class="edge">
<title>Node3&#45;&gt;Node5</title>
<g id="a_edge4_Node000003_Node000005"><a xlink:title=" ">
<path fill="none" stroke="#63b8ff" d="M337.54,-38.68C345.5,-37.85 353.61,-37 361.64,-36.17"/>
<polygon fill="#63b8ff" stroke="#63b8ff" points="361.8,-39.67 371.38,-35.15 361.07,-32.71 361.8,-39.67"/>
</a>
</g>
</g>
</g>
</svg>
