<?xml version="1.0" encoding="UTF-8" standalone="no"?>
<!DOCTYPE svg PUBLIC "-//W3C//DTD SVG 1.1//EN"
 "http://www.w3.org/Graphics/SVG/1.1/DTD/svg11.dtd">
<!-- Generated by graphviz version 12.2.0 (20241103.1931)
 -->
<!-- Title: modbusSlaveDestroy Pages: 1 -->
<svg width="595pt" height="64pt"
 viewBox="0.00 0.00 594.75 64.25" xmlns="http://www.w3.org/2000/svg" xmlns:xlink="http://www.w3.org/1999/xlink">
<g id="graph0" class="graph" transform="scale(1 1) rotate(0) translate(4 60.25)">
<title>modbusSlaveDestroy</title>
<!-- Node1 -->
<g id="Node000001" class="node">
<title>Node1</title>
<g id="a_Node000001"><a xlink:title="Frees memory allocated in the ModbusSlave struct.">
<polygon fill="#999999" stroke="#666666" points="108.25,-37.25 0,-37.25 0,-18 108.25,-18 108.25,-37.25"/>
<text text-anchor="middle" x="54.12" y="-23.75" font-family="Helvetica,sans-Serif" font-size="10.00">modbusSlaveDestroy</text>
</a>
</g>
</g>
<!-- Node2 -->
<g id="Node000002" class="node">
<title>Node2</title>
<g id="a_Node000002"><a xlink:href="base_8impl_8h.html#ac4ff5a6ae685570f045448e76e518a0c" target="_top" xlink:title="Equivalent of modbusBufferFree() \copydetail modbusBufferFree()">
<polygon fill="white" stroke="#666666" points="270.12,-56.25 161.12,-56.25 161.12,-37 270.12,-37 270.12,-56.25"/>
<text text-anchor="middle" x="215.62" y="-42.75" font-family="Helvetica,sans-Serif" font-size="10.00">modbusBufferDestroy</text>
</a>
</g>
</g>
<!-- Node1&#45;&gt;Node2 -->
<g id="edge1_Node000001_Node000002" class="edge">
<title>Node1&#45;&gt;Node2</title>
<g id="a_edge1_Node000001_Node000002"><a xlink:title=" ">
<path fill="none" stroke="#63b8ff" d="M108.68,-34C121.76,-35.56 135.9,-37.25 149.45,-38.86"/>
<polygon fill="#63b8ff" stroke="#63b8ff" points="148.82,-42.31 159.17,-40.02 149.65,-35.36 148.82,-42.31"/>
</a>
</g>
</g>
<!-- Node5 -->
<g id="Node000005" class="node">
<title>Node5</title>
<g id="a_Node000005"><a xlink:href="slave_8h.html#a6517cff5567f0f07444d140edc7dfafd" target="_top" xlink:title="Retreieves the custom context pointer.">
<polygon fill="white" stroke="#666666" points="287,-19.25 144.25,-19.25 144.25,0 287,0 287,-19.25"/>
<text text-anchor="middle" x="215.62" y="-5.75" font-family="Helvetica,sans-Serif" font-size="10.00">modbusSlaveGetUserPointer</text>
</a>
</g>
</g>
<!-- Node1&#45;&gt;Node5 -->
<g id="edge4_Node000001_Node000005" class="edge">
<title>Node1&#45;&gt;Node5</title>
<g id="a_edge4_Node000001_Node000005"><a xlink:title=" ">
<path fill="none" stroke="#63b8ff" d="M108.68,-21.58C116.37,-20.71 124.42,-19.8 132.51,-18.89"/>
<polygon fill="#63b8ff" stroke="#63b8ff" points="132.88,-22.37 142.43,-17.77 132.1,-15.42 132.88,-22.37"/>
</a>
</g>
</g>
<!-- Node3 -->
<g id="Node000003" class="node">
<title>Node3</title>
<g id="a_Node000003"><a xlink:href="base_8impl_8h.html#a00605b5ebcf90f8035bfaa7a7c039776" target="_top" xlink:title="Frees memory allocated inside the buffer.">
<polygon fill="white" stroke="#666666" points="418.5,-56.25 323,-56.25 323,-37 418.5,-37 418.5,-56.25"/>
<text text-anchor="middle" x="370.75" y="-42.75" font-family="Helvetica,sans-Serif" font-size="10.00">modbusBufferFree</text>
</a>
</g>
</g>
<!-- Node2&#45;&gt;Node3 -->
<g id="edge2_Node000002_Node000003" class="edge">
<title>Node2&#45;&gt;Node3</title>
<g id="a_edge2_Node000002_Node000003"><a xlink:title=" ">
<path fill="none" stroke="#63b8ff" d="M270.61,-46.62C283.73,-46.62 297.82,-46.62 311.14,-46.62"/>
<polygon fill="#63b8ff" stroke="#63b8ff" points="311.1,-50.13 321.1,-46.63 311.1,-43.13 311.1,-50.13"/>
</a>
</g>
</g>
<!-- Node4 -->
<g id="Node000004" class="node">
<title>Node4</title>
<g id="a_Node000004"><a xlink:href="base_8impl_8h.html#a54f7d1db7f58ffd329b1955ad1a66f37" target="_top" xlink:title="Allocates memory to hold Modbus ADU.">
<polygon fill="white" stroke="#666666" points="586.75,-56.25 454.5,-56.25 454.5,-37 586.75,-37 586.75,-56.25"/>
<text text-anchor="middle" x="520.62" y="-42.75" font-family="Helvetica,sans-Serif" font-size="10.00">modbusBufferAllocateADU</text>
</a>
</g>
</g>
<!-- Node3&#45;&gt;Node4 -->
<g id="edge3_Node000003_Node000004" class="edge">
<title>Node3&#45;&gt;Node4</title>
<g id="a_edge3_Node000003_Node000004"><a xlink:title=" ">
<path fill="none" stroke="#63b8ff" d="M418.95,-46.62C426.53,-46.62 434.55,-46.62 442.61,-46.62"/>
<polygon fill="#63b8ff" stroke="#63b8ff" points="442.49,-50.13 452.49,-46.63 442.49,-43.13 442.49,-50.13"/>
</a>
</g>
</g>
</g>
</svg>
