<?xml version="1.0" encoding="UTF-8" standalone="no"?>
<!DOCTYPE svg PUBLIC "-//W3C//DTD SVG 1.1//EN"
 "http://www.w3.org/Graphics/SVG/1.1/DTD/svg11.dtd">
<!-- Generated by graphviz version 12.2.0 (20241103.1931)
 -->
<!-- Title: ModbusSlave Pages: 1 -->
<svg width="305pt" height="164pt"
 viewBox="0.00 0.00 305.25 163.50" xmlns="http://www.w3.org/2000/svg" xmlns:xlink="http://www.w3.org/1999/xlink">
<g id="graph0" class="graph" transform="scale(1 1) rotate(0) translate(4 159.5)">
<title>ModbusSlave</title>
<!-- Node1 -->
<g id="Node000001" class="node">
<title>Node1</title>
<g id="a_Node000001"><a xlink:title="Slave device status.">
<polygon fill="#999999" stroke="#666666" points="174.88,-20.88 99.62,-20.88 99.62,-1.62 174.88,-1.62 174.88,-20.88"/>
<text text-anchor="middle" x="137.25" y="-7.38" font-family="Helvetica,sans-Serif" font-size="10.00">ModbusSlave</text>
</a>
</g>
</g>
<!-- Node1&#45;&gt;Node1 -->
<g id="edge1_Node000001_Node000001" class="edge">
<title>Node1&#45;&gt;Node1</title>
<g id="a_edge1_Node000001_Node000001"><a xlink:title=" ">
<path fill="none" stroke="#9a32cd" stroke-dasharray="5,2" d="M186.57,-16.22C190.47,-15.13 192.88,-13.47 192.88,-11.25 192.88,-7.3 185.26,-5.14 175.21,-4.77"/>
<polygon fill="#9a32cd" stroke="#9a32cd" points="186.16,-12.74 176.71,-17.53 187.08,-19.68 186.16,-12.74"/>
</a>
</g>
<text text-anchor="middle" x="233.38" y="-13" font-family="Helvetica,sans-Serif" font-size="10.00" fill="grey"> exceptionCallback</text>
<text text-anchor="middle" x="233.38" y="-1.75" font-family="Helvetica,sans-Serif" font-size="10.00" fill="grey">registerCallback</text>
</g>
<!-- Node2 -->
<g id="Node000002" class="node">
<title>Node2</title>
<g id="a_Node000002"><a xlink:href="structModbusSlaveFunctionHandler.html" target="_top" xlink:title="Associates Modbus function ID with a pointer to a parsing function.">
<polygon fill="white" stroke="#666666" points="146.5,-89 0,-89 0,-69.75 146.5,-69.75 146.5,-89"/>
<text text-anchor="middle" x="73.25" y="-75.5" font-family="Helvetica,sans-Serif" font-size="10.00">ModbusSlaveFunctionHandler</text>
</a>
</g>
</g>
<!-- Node2&#45;&gt;Node1 -->
<g id="edge2_Node000001_Node000002" class="edge">
<title>Node2&#45;&gt;Node1</title>
<g id="a_edge2_Node000001_Node000002"><a xlink:title=" ">
<path fill="none" stroke="#9a32cd" stroke-dasharray="5,2" d="M89.72,-61.36C102.2,-48.46 118.84,-31.27 128.76,-21.03"/>
<polygon fill="#9a32cd" stroke="#9a32cd" points="87.37,-58.75 82.93,-68.37 92.4,-63.62 87.37,-58.75"/>
</a>
</g>
<text text-anchor="middle" x="130.08" y="-42.25" font-family="Helvetica,sans-Serif" font-size="10.00" fill="grey"> functions</text>
</g>
<!-- Node3 -->
<g id="Node000003" class="node">
<title>Node3</title>
<g id="a_Node000003"><a xlink:href="structModbusErrorInfo.html" target="_top" xlink:title="Richer error represenation &#45; source and type of error.">
<polygon fill="white" stroke="#666666" points="116.88,-155.5 29.62,-155.5 29.62,-136.25 116.88,-136.25 116.88,-155.5"/>
<text text-anchor="middle" x="73.25" y="-142" font-family="Helvetica,sans-Serif" font-size="10.00">ModbusErrorInfo</text>
</a>
</g>
</g>
<!-- Node3&#45;&gt;Node2 -->
<g id="edge3_Node000002_Node000003" class="edge">
<title>Node3&#45;&gt;Node2</title>
<g id="a_edge3_Node000002_Node000003"><a xlink:title=" ">
<path fill="none" stroke="#9a32cd" stroke-dasharray="5,2" d="M73.25,-124.4C73.25,-112.57 73.25,-98.29 73.25,-89.27"/>
<polygon fill="#9a32cd" stroke="#9a32cd" points="69.75,-124.39 73.25,-134.39 76.75,-124.39 69.75,-124.39"/>
</a>
</g>
<text text-anchor="middle" x="80" y="-108.75" font-family="Helvetica,sans-Serif" font-size="10.00" fill="grey"> ptr</text>
</g>
<!-- Node4 -->
<g id="Node000004" class="node">
<title>Node4</title>
<g id="a_Node000004"><a xlink:href="structModbusBuffer.html" target="_top" xlink:title="Stores a Modbus frame.">
<polygon fill="white" stroke="#666666" points="240.25,-89 164.25,-89 164.25,-69.75 240.25,-69.75 240.25,-89"/>
<text text-anchor="middle" x="202.25" y="-75.5" font-family="Helvetica,sans-Serif" font-size="10.00">ModbusBuffer</text>
</a>
</g>
</g>
<!-- Node4&#45;&gt;Node1 -->
<g id="edge4_Node000001_Node000004" class="edge">
<title>Node4&#45;&gt;Node1</title>
<g id="a_edge4_Node000001_Node000004"><a xlink:title=" ">
<path fill="none" stroke="#9a32cd" stroke-dasharray="5,2" d="M185.52,-61.36C172.85,-48.46 155.95,-31.27 145.88,-21.03"/>
<polygon fill="#9a32cd" stroke="#9a32cd" points="182.92,-63.7 192.42,-68.38 187.91,-58.79 182.92,-63.7"/>
</a>
</g>
<text text-anchor="middle" x="196.57" y="-42.25" font-family="Helvetica,sans-Serif" font-size="10.00" fill="grey"> response</text>
</g>
<!-- Node4&#45;&gt;Node4 -->
<g id="edge5_Node000004_Node000004" class="edge">
<title>Node4&#45;&gt;Node4</title>
<g id="a_edge5_Node000004_Node000004"><a xlink:title=" ">
<path fill="none" stroke="#9a32cd" stroke-dasharray="5,2" d="M252,-84.08C255.87,-83.05 258.25,-81.48 258.25,-79.38 258.25,-75.64 250.72,-73.58 240.73,-73.2"/>
<polygon fill="#9a32cd" stroke="#9a32cd" points="251.69,-80.59 242.23,-85.35 252.59,-87.54 251.69,-80.59"/>
</a>
</g>
<text text-anchor="middle" x="277.75" y="-75.5" font-family="Helvetica,sans-Serif" font-size="10.00" fill="grey"> allocator</text>
</g>
</g>
</svg>
