<?xml version="1.0" encoding="UTF-8" standalone="no"?>
<!DOCTYPE svg PUBLIC "-//W3C//DTD SVG 1.1//EN"
 "http://www.w3.org/Graphics/SVG/1.1/DTD/svg11.dtd">
<!-- Generated by graphviz version 12.2.0 (20241103.1931)
 -->
<!-- Title: ModbusMaster Pages: 1 -->
<svg width="311pt" height="164pt"
 viewBox="0.00 0.00 310.88 163.50" xmlns="http://www.w3.org/2000/svg" xmlns:xlink="http://www.w3.org/1999/xlink">
<g id="graph0" class="graph" transform="scale(1 1) rotate(0) translate(4 159.5)">
<title>ModbusMaster</title>
<!-- Node1 -->
<g id="Node000001" class="node">
<title>Node1</title>
<g id="a_Node000001"><a xlink:title="Master device status.">
<polygon fill="#999999" stroke="#666666" points="181.12,-20.88 100.62,-20.88 100.62,-1.62 181.12,-1.62 181.12,-20.88"/>
<text text-anchor="middle" x="140.88" y="-7.38" font-family="Helvetica,sans-Serif" font-size="10.00">ModbusMaster</text>
</a>
</g>
</g>
<!-- Node1&#45;&gt;Node1 -->
<g id="edge1_Node000001_Node000001" class="edge">
<title>Node1&#45;&gt;Node1</title>
<g id="a_edge1_Node000001_Node000001"><a xlink:title=" ">
<path fill="none" stroke="#9a32cd" stroke-dasharray="5,2" d="M192.83,-16.13C196.73,-15.04 199.12,-13.41 199.12,-11.25 199.12,-7.4 191.56,-5.25 181.44,-4.8"/>
<polygon fill="#9a32cd" stroke="#9a32cd" points="192.37,-12.66 182.94,-17.49 193.32,-19.6 192.37,-12.66"/>
</a>
</g>
<text text-anchor="middle" x="238.5" y="-13" font-family="Helvetica,sans-Serif" font-size="10.00" fill="grey"> dataCallback</text>
<text text-anchor="middle" x="238.5" y="-1.75" font-family="Helvetica,sans-Serif" font-size="10.00" fill="grey">exceptionCallback</text>
</g>
<!-- Node2 -->
<g id="Node000002" class="node">
<title>Node2</title>
<g id="a_Node000002"><a xlink:href="structModbusMasterFunctionHandler.html" target="_top" xlink:title="Associates Modbus function ID with a pointer to a response parsing function.">
<polygon fill="white" stroke="#666666" points="151.75,-89 0,-89 0,-69.75 151.75,-69.75 151.75,-89"/>
<text text-anchor="middle" x="75.88" y="-75.5" font-family="Helvetica,sans-Serif" font-size="10.00">ModbusMasterFunctionHandler</text>
</a>
</g>
</g>
<!-- Node2&#45;&gt;Node1 -->
<g id="edge2_Node000001_Node000002" class="edge">
<title>Node2&#45;&gt;Node1</title>
<g id="a_edge2_Node000001_Node000002"><a xlink:title=" ">
<path fill="none" stroke="#9a32cd" stroke-dasharray="5,2" d="M92.6,-61.36C105.28,-48.46 122.17,-31.27 132.25,-21.03"/>
<polygon fill="#9a32cd" stroke="#9a32cd" points="90.22,-58.79 85.7,-68.38 95.21,-63.7 90.22,-58.79"/>
</a>
</g>
<text text-anchor="middle" x="133.27" y="-42.25" font-family="Helvetica,sans-Serif" font-size="10.00" fill="grey"> functions</text>
</g>
<!-- Node3 -->
<g id="Node000003" class="node">
<title>Node3</title>
<g id="a_Node000003"><a xlink:href="structModbusErrorInfo.html" target="_top" xlink:title="Richer error represenation &#45; source and type of error.">
<polygon fill="white" stroke="#666666" points="119.5,-155.5 32.25,-155.5 32.25,-136.25 119.5,-136.25 119.5,-155.5"/>
<text text-anchor="middle" x="75.88" y="-142" font-family="Helvetica,sans-Serif" font-size="10.00">ModbusErrorInfo</text>
</a>
</g>
</g>
<!-- Node3&#45;&gt;Node2 -->
<g id="edge3_Node000002_Node000003" class="edge">
<title>Node3&#45;&gt;Node2</title>
<g id="a_edge3_Node000002_Node000003"><a xlink:title=" ">
<path fill="none" stroke="#9a32cd" stroke-dasharray="5,2" d="M75.88,-124.4C75.88,-112.57 75.88,-98.29 75.88,-89.27"/>
<polygon fill="#9a32cd" stroke="#9a32cd" points="72.38,-124.39 75.88,-134.39 79.38,-124.39 72.38,-124.39"/>
</a>
</g>
<text text-anchor="middle" x="82.62" y="-108.75" font-family="Helvetica,sans-Serif" font-size="10.00" fill="grey"> ptr</text>
</g>
<!-- Node4 -->
<g id="Node000004" class="node">
<title>Node4</title>
<g id="a_Node000004"><a xlink:href="structModbusBuffer.html" target="_top" xlink:title="Stores a Modbus frame.">
<polygon fill="white" stroke="#666666" points="245.88,-89 169.88,-89 169.88,-69.75 245.88,-69.75 245.88,-89"/>
<text text-anchor="middle" x="207.88" y="-75.5" font-family="Helvetica,sans-Serif" font-size="10.00">ModbusBuffer</text>
</a>
</g>
</g>
<!-- Node4&#45;&gt;Node1 -->
<g id="edge4_Node000001_Node000004" class="edge">
<title>Node4&#45;&gt;Node1</title>
<g id="a_edge4_Node000001_Node000004"><a xlink:title=" ">
<path fill="none" stroke="#9a32cd" stroke-dasharray="5,2" d="M191.01,-61.73C177.9,-48.79 160.25,-31.37 149.77,-21.03"/>
<polygon fill="#9a32cd" stroke="#9a32cd" points="188.19,-63.86 197.76,-68.39 193.1,-58.88 188.19,-63.86"/>
</a>
</g>
<text text-anchor="middle" x="197.63" y="-42.25" font-family="Helvetica,sans-Serif" font-size="10.00" fill="grey"> request</text>
</g>
<!-- Node4&#45;&gt;Node4 -->
<g id="edge5_Node000004_Node000004" class="edge">
<title>Node4&#45;&gt;Node4</title>
<g id="a_edge5_Node000004_Node000004"><a xlink:title=" ">
<path fill="none" stroke="#9a32cd" stroke-dasharray="5,2" d="M257.63,-84.08C261.49,-83.05 263.88,-81.48 263.88,-79.38 263.88,-75.64 256.34,-73.58 246.35,-73.2"/>
<polygon fill="#9a32cd" stroke="#9a32cd" points="257.32,-80.59 247.85,-85.35 258.22,-87.54 257.32,-80.59"/>
</a>
</g>
<text text-anchor="middle" x="283.38" y="-75.5" font-family="Helvetica,sans-Serif" font-size="10.00" fill="grey"> allocator</text>
</g>
</g>
</svg>
